<svg width="64" height="64" viewBox="0 0 64 64" fill="none" xmlns="http://www.w3.org/2000/svg">
<rect width="64" height="64" fill="#01A88D"/>
<path fill-rule="evenodd" clip-rule="evenodd" d="M13.031 17.5423L21.023 13.1293L24.924 15.0803L16.991 19.8393L13.031 17.5423ZM16 33.1313L12 30.4653V19.2573L16 21.5763V33.1313ZM27.514 15.8573C27.827 15.6703 28.013 15.3263 27.999 14.9613C27.985 14.5973 27.773 14.2693 27.447 14.1053L21.447 11.1053C21.154 10.9583 20.805 10.9653 20.516 11.1253L10.516 16.6463L10.517 16.6473C10.511 16.6503 10.506 16.6513 10.501 16.6543C10.191 16.8333 10 17.1643 10 17.5213V31.0003C10 31.3343 10.167 31.6463 10.445 31.8323L16.445 35.8323C16.612 35.9443 16.805 36.0003 17 36.0003C17.162 36.0003 17.324 35.9613 17.471 35.8823C17.797 35.7083 18 35.3693 18 35.0003V21.5663L27.514 15.8573ZM46.135 36.1983L48.718 37.7233L47.7 39.4453L45.117 37.9193L46.135 36.1983ZM41.819 33.6663L44.407 35.1833L43.395 36.9093L40.807 35.3923L41.819 33.6663ZM23 40.4653V34.4883L25.615 32.4453L24.385 30.8693L23 31.9513V24.7663L28.202 27.8883L26.507 29.2123L27.737 30.7883L30.039 28.9903L36 32.5663V49.1313L23 40.4653ZM29 19.9663V21.0003H31V18.7663L37.014 15.1583L50.96 23.0663L37.018 30.8453L31 27.2343V24.0003H29V26.0343L23.943 23.0003L29 19.9663ZM50.44 38.7403L49.423 40.4623L51.044 41.4193L38 49.2353V33.7463L39.082 34.3803L40.093 32.6543L39.013 32.0213L52 24.7763V39.6613L50.44 38.7403ZM54 23.0743C53.999 22.7143 53.806 22.3823 53.493 22.2043L37.493 13.1303C37.179 12.9533 36.795 12.9573 36.485 13.1433L21.485 22.1433C21.184 22.3233 21 22.6493 21 23.0003V41.0003C21 41.3343 21.167 41.6463 21.445 41.8323L36.445 51.8323C36.612 51.9443 36.805 52.0003 37 52.0003C37.162 52.0003 37.324 51.9613 37.471 51.8823C37.486 51.8743 37.497 51.8623 37.51 51.8543L37.513 51.8583L53.513 42.2713C53.815 42.0903 54 41.7653 54 41.4133V23.0743Z" fill="white"/>
</svg>
