<svg width="64" height="64" viewBox="0 0 64 64" fill="none" xmlns="http://www.w3.org/2000/svg">
<g clip-path="url(#clip0_230_160)">
<rect width="64" height="64" fill="#8C4FFF"/>
<path d="M52.0378 45.8315C51.8078 44.8615 51.1378 44.3115 50.5078 44.1015C50.0678 43.9615 49.5978 43.9515 49.1678 44.0815C49.0078 43.8515 48.8278 43.6315 48.6378 43.4415C47.5778 42.3715 46.1678 41.9715 44.7678 42.3315L40.4878 38.0515L41.8578 33.8615C42.0078 33.3815 41.7778 32.8515 41.3178 32.6415L38.7778 31.4715L38.6178 30.9815L39.9878 28.5415C40.2378 28.1015 40.1178 27.5415 39.7078 27.2415L35.4578 24.1515C35.0478 23.8515 34.4778 23.9015 34.1278 24.2815L32.2478 26.3215H31.7078L29.8178 24.2715C29.4778 23.9015 28.9078 23.8415 28.4978 24.1415L24.2378 27.2315C23.8278 27.5315 23.7078 28.0915 23.9478 28.5315L25.3278 30.9815L25.1678 31.4615L22.6178 32.6315C22.1578 32.8415 21.9278 33.3615 22.0778 33.8515L23.4378 38.0615L18.3378 43.1615C17.1378 42.1515 15.5878 41.9115 14.1178 42.5415C12.8578 43.0815 11.8778 44.4915 11.7378 45.9615C10.6978 46.4915 10.0878 47.5015 10.0878 48.7715C10.0878 49.9615 10.6578 51.0115 11.6578 51.6315C11.9878 51.8415 12.3878 51.9515 12.8378 51.9515H21.1378C22.3278 51.8615 24.0878 50.9515 24.0878 48.7815C24.0878 47.1815 23.0978 46.2415 22.0378 45.8315C21.8078 44.8615 21.1378 44.3115 20.5078 44.1015C20.4378 44.0815 20.3578 44.0615 20.2878 44.0515L24.8178 39.5215H24.8478L27.5778 38.9815L28.0178 39.3015L28.3378 42.0615C28.3978 42.5715 28.8178 42.9515 29.3278 42.9515H30.9678V46.0815C29.2378 46.5215 27.9678 48.0915 27.9678 49.9515C27.9678 52.1615 29.7578 53.9515 31.9678 53.9515C34.1778 53.9515 35.9678 52.1615 35.9678 49.9515C35.9678 48.0915 34.6978 46.5215 32.9678 46.0815V42.9515H34.5878C35.0978 42.9515 35.5178 42.5715 35.5778 42.0715L35.9078 39.2915L36.3278 38.9815L39.0778 39.5315C39.0978 39.5315 39.1178 39.5415 39.1378 39.5415L42.9578 43.3615C42.2878 44.0415 41.8278 44.9915 41.7378 45.9615C40.6978 46.4915 40.0878 47.5015 40.0878 48.7715C40.0878 49.9615 40.6578 51.0115 41.6578 51.6315C41.9878 51.8416 42.3878 51.9515 42.8378 51.9515H51.1378C52.3278 51.8615 54.0878 50.9515 54.0878 48.7815C54.0878 47.1815 53.0978 46.2415 52.0378 45.8315ZM20.9478 47.5915C21.7078 47.7215 22.0878 48.1215 22.0878 48.7815C22.0878 49.7415 21.3178 49.9215 21.0678 49.9515H12.8378C12.7578 49.9515 12.7278 49.9415 12.7178 49.9415C12.3078 49.6815 12.0878 49.2815 12.0878 48.7715C12.0878 48.5415 12.0878 47.8415 12.9878 47.6115C13.4478 47.4915 13.7678 47.0615 13.7378 46.5815L13.7178 46.2615C13.7178 45.5215 14.2578 44.6615 14.8978 44.3815C16.0378 43.9015 16.8378 44.4715 17.2178 44.8515C17.4778 45.1115 17.6778 45.4515 17.8278 45.8615C17.9478 46.2015 18.2578 46.4615 18.6178 46.5115C18.9878 46.5715 19.3478 46.4115 19.5678 46.1215C19.6578 46.0015 19.7978 45.9715 19.8878 46.0015C20.0278 46.0515 20.1078 46.2415 20.1178 46.5215C20.0778 47.0315 20.4278 47.5015 20.9478 47.5915ZM33.9678 49.9515C33.9678 51.0515 33.0678 51.9515 31.9678 51.9515C30.8678 51.9515 29.9678 51.0515 29.9678 49.9515C29.9678 48.8515 30.8678 47.9515 31.9678 47.9515C33.0678 47.9515 33.9678 48.8515 33.9678 49.9515ZM38.5978 37.4015L36.2878 36.9315C36.0178 36.8815 35.7278 36.9415 35.4978 37.1115L34.3778 37.9315C34.1478 38.1015 34.0078 38.3515 33.9678 38.6215L33.6978 40.9515H30.2178L29.9478 38.6415C29.9178 38.3615 29.7778 38.1115 29.5478 37.9515L28.4078 37.1015C28.1878 36.9415 27.8978 36.8715 27.6178 36.9315L25.3278 37.3915L24.2578 34.0815L26.4078 33.0915C26.6578 32.9815 26.8478 32.7615 26.9378 32.4915L27.3678 31.1815C27.4478 30.9115 27.4278 30.6215 27.2878 30.3815L26.1278 28.3315L28.9478 26.2815L30.5378 28.0015C30.7278 28.2115 30.9878 28.3315 31.2678 28.3315H31.2778L32.6978 28.3215C32.9678 28.3215 33.2378 28.2015 33.4278 27.9915L34.9978 26.2915L37.8078 28.3315L36.6578 30.3815C36.5278 30.6215 36.4978 30.9115 36.5778 31.1715L37.0078 32.5015C37.0878 32.7715 37.2878 32.9915 37.5378 33.1115L39.6778 34.0915L38.5978 37.4015ZM51.0678 49.9515H42.8378C42.7578 49.9515 42.7278 49.9415 42.7178 49.9415C42.3078 49.6815 42.0878 49.2815 42.0878 48.7715C42.0878 48.5415 42.0878 47.8415 42.9878 47.6115C43.4478 47.4915 43.7678 47.0615 43.7378 46.5815L43.7178 46.2615C43.7178 45.5215 44.2578 44.6615 44.8978 44.3815C46.0378 43.9015 46.8378 44.4715 47.2178 44.8515C47.4778 45.1115 47.6778 45.4515 47.8278 45.8615C47.9478 46.2015 48.2578 46.4615 48.6178 46.5115C48.9878 46.5715 49.3478 46.4115 49.5678 46.1215C49.6578 46.0015 49.7978 45.9715 49.8878 46.0015C50.0278 46.0515 50.1078 46.2415 50.1178 46.5215C50.0778 47.0315 50.4278 47.5015 50.9478 47.5915C51.7078 47.7215 52.0878 48.1215 52.0878 48.7815C52.0878 49.7415 51.3178 49.9215 51.0678 49.9515ZM32.0059 37.1249C31.0449 37.1249 30.1367 36.7596 29.4414 36.0912C28.7285 35.4061 28.3252 34.4842 28.3057 33.495C28.2862 32.5067 28.6534 31.5692 29.3389 30.8563C30.753 29.3836 33.1026 29.3378 34.5742 30.7538C35.2871 31.4393 35.6905 32.3612 35.71 33.35C35.7295 34.3387 35.3623 35.2757 34.6768 35.9886C33.9912 36.7015 33.0694 37.1048 32.0811 37.1244C32.0557 37.1249 32.0313 37.1249 32.0059 37.1249ZM32.0088 31.7206C31.5606 31.7206 31.1143 31.8954 30.7803 32.2425C30.4658 32.5702 30.2969 33.0013 30.3057 33.4559C30.3145 33.9105 30.5 34.3343 30.8281 34.6493C31.1563 34.9652 31.583 35.1332 32.042 35.1249C32.4961 35.1156 32.9199 34.9305 33.2354 34.6029C33.5508 34.2752 33.7198 33.8436 33.71 33.3895C33.7012 32.9349 33.5156 32.5106 33.1875 32.1952C32.8584 31.8783 32.4326 31.7206 32.0088 31.7206ZM43.9678 38.9515V36.9515H45.9678C46.1543 36.9374 51.9678 36.4945 51.9678 30.4823C51.9678 25.4286 47.711 24.1498 45.8809 23.8343C45.3457 23.742 44.9815 23.2386 45.0615 22.701C45.0635 20.5047 44.1387 18.9051 42.5254 18.3753C41.1065 17.9085 39.5401 18.4247 38.6299 19.6595C38.4112 19.9574 38.041 20.1087 37.6778 20.0555C37.3115 20.0003 37.0049 19.7479 36.8819 19.3983C36.2549 17.6166 35.3457 16.119 34.1817 14.9481C32.7569 13.514 28.8477 10.4315 23.3272 12.7757C20.1406 14.1293 17.6445 18.0306 17.6445 21.6581L17.7207 22.9256C17.749 23.4032 17.4346 23.8338 16.9717 23.953C15.1026 24.4325 11.9678 25.9105 11.9678 30.4173C11.9678 33.8065 13.8008 35.6756 15.3389 36.6463C15.75 36.9061 16.1738 36.9505 16.9688 36.9515H19.9678V38.9515H16.9678C16.0566 38.9505 15.166 38.9027 14.2705 38.3377C12.6641 37.3226 9.96777 34.9447 9.96777 30.4173C9.96777 25.0643 13.5 23.0121 15.6777 22.2557L15.6465 21.7167C15.6445 17.2157 18.6113 12.6058 22.5459 10.9349C27.1533 8.97789 32.0352 9.95054 35.5996 13.5379C36.6445 14.5887 37.5107 15.8495 38.1855 17.2997C39.5937 16.2489 41.4365 15.9129 43.1494 16.475C45.4063 17.2167 46.8252 19.2684 47.0361 22.0345C50.5244 22.9002 53.9678 25.5003 53.9678 30.4823C53.9678 36.8158 48.7725 38.7904 46.0254 38.95L43.9678 38.9515Z" fill="white"/>
</g>
<defs>
<clipPath id="clip0_230_160">
<rect width="64" height="64" fill="white"/>
</clipPath>
</defs>
</svg>
