<svg width="64" height="64" viewBox="0 0 64 64" fill="none" xmlns="http://www.w3.org/2000/svg">
<g clip-path="url(#clip0_99_176)">
<rect width="64" height="64" fill="#01A88D"/>
<path d="M49.7568 24.3994C48.9756 23.9463 48.043 23.9434 47.2754 24.3814L40.5176 28.105C40.1982 28.2808 40 28.6167 40 28.981V34.2603L37.6836 35.0322C37.2754 35.1685 37 35.5503 37 35.981V38.4458L34.96 39.8062L33 38.6864V25.5161L35 24.1826L37 25.5161V27.831L39 26.731V24.981C39 24.6465 38.833 24.3345 38.5547 24.1489L35.5547 22.1489C35.2187 21.9253 34.7813 21.9253 34.4453 22.1489L32 23.7793L29.5547 22.1489C29.2187 21.9253 28.7813 21.9253 28.4453 22.1489L25.4453 24.1489C25.167 24.3345 25 24.6465 25 24.981V27.2603L22.6836 28.0322C22.2754 28.1685 22 28.5503 22 28.981V34.3901L15.7471 37.8355C15.5264 37.9629 15.3252 37.8774 15.249 37.8335C15.1738 37.79 15 37.6607 15 37.4009V23.6245C15 22.9385 15.3447 22.3086 15.9229 21.939L30.9229 12.3555C31.5772 11.9385 32.4228 11.9375 33.0771 12.3555L45.0122 19.981H41V21.981H47C47.5527 21.981 48 21.5332 48 20.981V14.981H46V18.239L34.1533 10.6699C32.8447 9.83496 31.1553 9.83496 29.8467 10.6699L14.8457 20.2534C13.6904 20.9927 13 22.2529 13 23.6245V37.4009C13 38.3018 13.4648 39.1099 14.2432 39.5625C14.6377 39.7915 15.0713 39.9058 15.5029 39.9058C15.9248 39.9058 16.3447 39.7969 16.7246 39.5806L23.4824 35.8569C23.8018 35.6812 24 35.3452 24 34.981V29.7017L26.3164 28.9297C26.7246 28.7935 27 28.4116 27 27.981V25.5161L29 24.1826L31 25.5161V38.6863L29.04 39.8062L27 38.4458V36.131L25 37.231V38.981C25 39.3154 25.167 39.6274 25.4453 39.813L28.4453 41.813C28.7627 42.0239 29.167 42.0361 29.4961 41.8491L32 40.4185L34.5039 41.8491C34.833 42.0361 35.2383 42.0239 35.5547 41.813L38.5547 39.813C38.833 39.6274 39 39.3154 39 38.981V36.7017L41.3164 35.9297C41.7246 35.7935 42 35.4116 42 34.981V29.5718L48.2529 26.1265C48.4746 26 48.6758 26.0855 48.751 26.1284C48.8262 26.1719 49 26.3013 49 26.561V40.3374C49 41.0235 48.6553 41.6533 48.0771 42.023L33.0771 51.6065C32.4228 52.0235 31.5772 52.0244 30.9229 51.6065L18.9878 43.981H23V41.981H17C16.4473 41.981 16 42.4287 16 42.981V48.981H18V45.723L29.8467 53.292C30.501 53.7095 31.25 53.9185 32 53.9185C32.75 53.9185 33.499 53.7095 34.1533 53.292L49.1543 43.7085C50.3096 42.9692 51 41.709 51 40.3374V26.561C51 25.6602 50.5352 24.8521 49.7568 24.3994Z" fill="white"/>
</g>
<defs>
<clipPath id="clip0_99_176">
<rect width="64" height="64" fill="white"/>
</clipPath>
</defs>
</svg>
