<svg id="uuid-11b6e5fc-40a5-405d-9c32-7035b72b9b0a" xmlns="http://www.w3.org/2000/svg" width="18" height="18" viewBox="0 0 18 18">
  <defs>
    <radialGradient id="uuid-cacf3cc5-0a3d-4115-943b-5bd551efadcd" cx="7.957" cy="7.925" r="7.985" gradientUnits="userSpaceOnUse">
      <stop offset=".18" stop-color="#5ea0ef"/>
      <stop offset="1" stop-color="#0078d4"/>
    </radialGradient>
    <linearGradient id="uuid-2a25906c-e495-4ebf-b557-92e03673ecb2" x1="300.661" y1="1169.257" x2="300.632" y2="1165.546" gradientTransform="translate(-297 -1159)" gradientUnits="userSpaceOnUse">
      <stop offset="0" stop-color="#ccc"/>
      <stop offset="1" stop-color="#fcfcfc"/>
    </linearGradient>
    <linearGradient id="uuid-73ce8cf9-4957-4dc1-9af7-dfbfa3d5e4cb" x1="14.251" y1="19.336" x2="14.251" y2="10.32" gradientUnits="userSpaceOnUse">
      <stop offset="0" stop-color="#5e9624"/>
      <stop offset=".999" stop-color="#76bc2d"/>
    </linearGradient>
  </defs>
  <g>
    <path d="m10.126,13.194v-2.922c.004-.333.268-.597.596-.602,1.118-.03,1.469-.275,1.841-.534.372-.259.756-.527,1.688-.527.827,0,1.223.211,1.561.44.266-1.984-.208-4.068-1.484-5.801C11.714-.302,6.721-1.059,3.176,1.558l-.086.057C-.392,4.318-1.026,9.336,1.673,12.822c2.207,2.85,5.958,3.792,9.157,2.564-.416-.659-.704-1.398-.704-2.192Z" fill="url(#uuid-cacf3cc5-0a3d-4115-943b-5bd551efadcd)"/>
    <path d="m5.809,6.264c2.256-2.148,5.246-3.351,8.359-3.363-.41-.507-.88-.961-1.401-1.352-1.514.094-3.002.443-4.4,1.033-1.438.619-2.739,1.52-3.825,2.649.523.199.967.561,1.267,1.033Z" fill="#fff" isolation="isolate" opacity=".6"/>
    <path d="m1.859,9.478c-.325.799-.587,1.621-.785,2.461.174.301.369.59.584.864.162.212.334.416.516.611.227-1.118.566-2.211,1.013-3.26-.499-.09-.961-.325-1.329-.676Z" fill="#fff" isolation="isolate" opacity=".6"/>
    <path d="m2.778,5.212c-.331-.89-.549-1.818-.647-2.762-.394.414-.741.871-1.032,1.363.106.761.285,1.509.535,2.235.294-.382.691-.672,1.144-.836Z" fill="#f2f2f2" isolation="isolate" opacity=".55"/>
    <circle cx="3.641" cy="7.626" r="2.561" fill="url(#uuid-2a25906c-e495-4ebf-b557-92e03673ecb2)"/>
    <path d="m7.379,12.315c0-.45.183-.881.507-1.193-.865-.474-1.664-1.062-2.375-1.748-.372.403-.863.676-1.401.78.424.434.879.836,1.361,1.203.601.452,1.245.844,1.923,1.169-.009-.07-.015-.14-.015-.21Z" fill="#f2f2f2" isolation="isolate" opacity=".55"/>
    <path d="m11.09,7.861c.084-.366.285-.694.573-.935-1.546-1.126-2.951-2.433-4.185-3.894-.719-.845-1.348-1.764-1.876-2.741-.35.105-.692.237-1.023.394.565,1.064,1.241,2.065,2.017,2.987,1.319,1.578,2.828,2.985,4.494,4.189Z" fill="#f2f2f2" isolation="isolate" opacity=".7"/>
    <circle cx="3.641" cy="7.626" r="2.561" fill="#fcfcfc"/>
    <path d="m10.126,13.194v-2.136c-.293-.255-.671-.415-1.09-.415-.922,0-1.669.748-1.669,1.672s.747,1.672,1.669,1.672c.431,0,.82-.168,1.116-.437-.013-.118-.026-.235-.026-.355Z" fill="#fcfcfc"/>
    <path d="m11.72,9.55c.393-.102.615-.255.843-.414.372-.259.756-.527,1.688-.527.106,0,.204.004.297.011.036-.141.061-.287.061-.439,0-.981-.794-1.776-1.773-1.776s-1.773.795-1.773,1.776c0,.555.26,1.044.658,1.37Z" fill="#fcfcfc"/>
  </g>
  <path d="m17.77,10.046c-2.317-.061-1.783-1.062-3.519-1.062s-1.203,1.001-3.519,1.062c-.127.002-.229.104-.23.231v2.917c0,2.424,2.978,4.378,3.626,4.772.076.046.171.046.247,0,.647-.396,3.626-2.348,3.626-4.772v-2.917c-.002-.127-.104-.229-.23-.231Z" fill="url(#uuid-73ce8cf9-4957-4dc1-9af7-dfbfa3d5e4cb)"/>
  <path d="m15.976,12.783l.003-.002c-.033-.029-.074-.045-.118-.045h-.262v-.812c.002-.382-.138-.751-.393-1.036-.244-.285-.603-.447-.978-.44-.375-.005-.732.156-.977.44-.257.283-.398.653-.394,1.036v.812h-.212c-.012,0-.022.005-.033.007-.01.002-.019.002-.028.006-.07.026-.121.091-.122.17v2.097c0,.019.006.036.011.052,0,0,0,0,0,0,.003.008.005.017.008.024.011.028.028.054.052.074l.008-.006c.03.021.064.036.103.037h3.208c.042,0,.078-.017.109-.041l.014.01c.041-.034.065-.085.066-.138v-2.109c0-.055-.027-.103-.065-.136Zm-2.482-.873c.002-.211.083-.414.229-.568.236-.275.65-.307.925-.071.025.022.049.046.071.071.032.035.06.074.085.114.099.131.154.289.159.454v.825s-1.469,0-1.469,0v-.825Z" fill="#fff"/>
</svg>