<svg width="96" height="96" viewBox="0 0 96 96" fill="none" xmlns="http://www.w3.org/2000/svg">
<g clip-path="url(#clip0_4303_1230)">
<g clip-path="url(#clip1_4303_1230)">
<path d="M44.1553 9.77196L62.9254 42.6196C64.8305 45.9536 64.8305 50.0464 62.9254 53.3804L44.1553 86.228C38.7808 95.6334 25.219 95.6335 19.8445 86.228L2.2525 55.4421C-0.382637 50.8306 -0.382645 45.1694 2.25249 40.5579L19.8445 9.77196C25.219 0.366551 38.7808 0.366549 44.1553 9.77196Z" fill="url(#paint0_linear_4303_1230)"/>
<path d="M44.1553 9.77196L62.9254 42.6196C64.8305 45.9536 64.8305 50.0464 62.9254 53.3804L44.1553 86.228C38.7808 95.6334 25.219 95.6335 19.8445 86.228L2.2525 55.4421C-0.382637 50.8306 -0.382645 45.1694 2.25249 40.5579L19.8445 9.77196C25.219 0.366551 38.7808 0.366549 44.1553 9.77196Z" fill="url(#paint1_radial_4303_1230)"/>
<path d="M65.9999 48L44.1553 86.228C38.7808 95.6334 25.219 95.6334 19.8445 86.228L1.99988 55C7.30568 64.2852 20.6941 64.2852 25.9999 55L47.9999 16.5L65.9999 48Z" fill="url(#paint2_linear_4303_1230)"/>
<path d="M65.9999 48L44.1553 86.228C38.7808 95.6334 25.219 95.6334 19.8445 86.228L1.99988 55C7.30568 64.2852 20.6941 64.2852 25.9999 55L47.9999 16.5L65.9999 48Z" fill="url(#paint3_linear_4303_1230)"/>
<path d="M54.9458 28.6554L81.9999 76L93.3881 56.0705C96.2458 51.0696 96.2458 44.9304 93.3881 39.9295L76.1553 9.77196C70.7808 0.366554 57.219 0.366554 51.8445 9.77197L41.0539 28.6554C44.1251 23.2809 51.8747 23.2809 54.9458 28.6554Z" fill="url(#paint4_linear_4303_1230)"/>
<path d="M54.9458 28.6554L81.9999 76L93.3881 56.0705C96.2458 51.0696 96.2458 44.9304 93.3881 39.9295L76.1553 9.77196C70.7808 0.366554 57.219 0.366554 51.8445 9.77197L41.0539 28.6554C44.1251 23.2809 51.8747 23.2809 54.9458 28.6554Z" fill="url(#paint5_linear_4303_1230)"/>
<path d="M79.7318 23.9691L47.9999 79.5L51.8445 86.228C57.219 95.6334 70.7808 95.6335 76.1553 86.228L94.0308 54.9459C96.4902 50.6419 96.4902 45.3581 94.0308 41.0541L79.7318 16.0309C81.1372 18.4903 81.1372 21.5096 79.7318 23.9691Z" fill="url(#paint6_linear_4303_1230)"/>
<path d="M51.8445 86.228L47.9999 79.5L65.9999 48L81.9999 76L76.1553 86.228C70.7808 95.6334 57.219 95.6334 51.8445 86.228Z" fill="url(#paint7_linear_4303_1230)"/>
</g>
</g>
<defs>
<linearGradient id="paint0_linear_4303_1230" x1="15.9999" y1="60.5" x2="27.9994" y2="5.00001" gradientUnits="userSpaceOnUse">
<stop stop-color="#520B56"/>
<stop offset="1" stop-color="#742774"/>
</linearGradient>
<radialGradient id="paint1_radial_4303_1230" cx="0" cy="0" r="1" gradientUnits="userSpaceOnUse" gradientTransform="translate(31.4999 8.00002) rotate(123.811) scale(65.5935 20.3157)">
<stop offset="0.512391" stop-color="#4C1E4C" stop-opacity="0"/>
<stop offset="1" stop-color="#4C1E4C"/>
</radialGradient>
<linearGradient id="paint2_linear_4303_1230" x1="11.9999" y1="71" x2="59.4999" y2="41.5" gradientUnits="userSpaceOnUse">
<stop stop-color="#D467B9"/>
<stop offset="0.308079" stop-color="#982F90"/>
<stop offset="1" stop-color="#742774"/>
</linearGradient>
<linearGradient id="paint3_linear_4303_1230" x1="43.9999" y1="53.4998" x2="67.5" y2="50.9998" gradientUnits="userSpaceOnUse">
<stop stop-color="#742774" stop-opacity="0"/>
<stop offset="1" stop-color="#520B56"/>
</linearGradient>
<linearGradient id="paint4_linear_4303_1230" x1="42.9999" y1="29" x2="82.4999" y2="56" gradientUnits="userSpaceOnUse">
<stop stop-color="#E9A1CB"/>
<stop offset="0.40829" stop-color="#D467B9"/>
<stop offset="1" stop-color="#BB35A4"/>
</linearGradient>
<linearGradient id="paint5_linear_4303_1230" x1="67.4999" y1="23.5" x2="80.9999" y2="26.5" gradientUnits="userSpaceOnUse">
<stop stop-color="#E48CC7" stop-opacity="0"/>
<stop offset="1" stop-color="#BB35A4"/>
</linearGradient>
<linearGradient id="paint6_linear_4303_1230" x1="89.2565" y1="77.1621" x2="76.4515" y2="41.3836" gradientUnits="userSpaceOnUse">
<stop stop-color="#E48CC7"/>
<stop offset="1" stop-color="#F7C4E2"/>
</linearGradient>
<linearGradient id="paint7_linear_4303_1230" x1="75.1999" y1="77.5801" x2="54.869" y2="32.0777" gradientUnits="userSpaceOnUse">
<stop stop-color="#E48CC7" stop-opacity="0"/>
<stop offset="0.67724" stop-color="#D467B9" stop-opacity="0.5"/>
<stop offset="1" stop-color="#BB35A4"/>
</linearGradient>
<clipPath id="clip0_4303_1230">
<rect width="96" height="96" fill="white"/>
</clipPath>
<clipPath id="clip1_4303_1230">
<rect width="96" height="96" fill="white"/>
</clipPath>
</defs>
</svg>
