<svg width="64" height="64" viewBox="0 0 64 64" fill="none" xmlns="http://www.w3.org/2000/svg">
<rect width="64" height="64" fill="#8C4FFF"/>
<path d="M33 20.5004C33 20.1215 32.7861 19.7753 32.4473 19.6058L25.4473 16.1058C25.1367 15.9515 24.7695 15.9677 24.4746 16.1498C24.1797 16.3319 24 16.6537 24 17.0004V24.0004C24 24.3471 24.1797 24.6688 24.4746 24.851C24.6348 24.9501 24.8174 25.0004 25 25.0004C25.1533 25.0004 25.3057 24.9652 25.4473 24.8949L32.4473 21.3949C32.7861 21.2255 33 20.8793 33 20.5004ZM26 22.3822V18.6185L29.7637 20.5004L26 22.3822ZM21 39.0004H24V41.0004H21V39.0004ZM38 20.5004C38 14.7108 33.29 10.0004 27.5 10.0004C21.71 10.0004 17 14.7108 17 20.5004C17 26.2899 21.71 31.0004 27.5 31.0004C33.29 31.0004 38 26.2899 38 20.5004ZM19 20.5004C19 15.8134 22.8135 12.0004 27.5 12.0004C32.1865 12.0004 36 15.8134 36 20.5004C36 25.1874 32.1865 29.0004 27.5 29.0004C22.8135 29.0004 19 25.1874 19 20.5004ZM19 39.0004V41.0004C14.0371 41.0004 10 36.9628 10 32.0004C10 28.3722 12.2058 25.1373 15.4404 23.7379C15.6172 24.3956 15.8426 25.032 16.1195 25.6424C13.67 26.7578 12 29.2234 12 32.0004C12 35.8602 15.1406 39.0004 19 39.0004ZM39.9267 19.1674C39.8545 18.4898 39.7177 17.8325 39.5412 17.1913C40.017 17.0684 40.5062 17.0004 41 17.0004C41.3597 17.0004 41.7102 17.0378 42.0526 17.0988L41.7004 19.0712C41.472 19.0305 41.2399 19.0004 41 19.0004C40.6309 19.0004 40.274 19.0669 39.9267 19.1674ZM43.2869 19.7272L44.4334 18.087C45.9828 19.173 47 20.9687 47 23.0004C47 23.0751 46.998 23.1498 46.9951 23.225C51.0527 24.1381 54 27.7474 54 32.0004C54 32.821 53.8801 33.6125 53.6734 34.3684C53.1542 33.8453 52.5616 33.3967 51.9153 33.0319C51.9655 32.6943 52 32.3517 52 32.0003C52 28.4261 49.3242 25.4369 45.7754 25.0462C45.4941 25.015 45.2393 24.8666 45.0732 24.6366C44.9082 24.4071 44.8476 24.118 44.9072 23.8417C44.9687 23.5555 45 23.2728 45 23.0003C45 21.646 44.3199 20.4512 43.2869 19.7272ZM54 49.7884L53.999 40.0004C53.999 36.6918 51.3076 34.0004 47.999 34.0004C46.7762 34.0004 45.639 34.3698 44.6895 35.0004H35.3096C34.3601 34.3698 33.2228 34.0004 32 34.0004C28.6914 34.0004 26 36.6918 26 40.0004V49.7577C25.9941 49.9559 25.9756 51.7274 27.1562 52.9457C27.8252 53.6356 28.7549 54.0004 29.8428 54.0004C32.9004 54.0004 34.6601 49.7591 36.0752 46.3519C36.2734 45.8724 36.4629 45.4154 36.6445 45.0004H43.3545C43.5361 45.4154 43.7246 45.8719 43.9238 46.3505C45.3389 49.7587 47.0996 54.0004 50.1572 54.0004C51.2451 54.0004 52.1748 53.6356 52.8438 52.9457C54.0244 51.7274 54.0059 49.9559 54 49.7884ZM34.2275 45.5848C33.167 48.1395 31.5645 52.0004 29.8428 52.0004C29.2969 52.0004 28.8896 51.8558 28.5976 51.5594C28.0898 51.0419 27.9941 50.1234 28 49.7884V44.4599C29.0628 45.4142 30.4625 46.0004 32 46.0004C32.7908 46.0004 33.5444 45.8428 34.2364 45.5637C34.2333 45.571 34.2306 45.5774 34.2275 45.5848ZM32 44.0004C29.794 44.0004 28 42.2059 28 40.0004C28 37.7948 29.794 36.0004 32 36.0004C34.206 36.0004 36 37.7948 36 40.0004C36 42.2059 34.206 44.0004 32 44.0004ZM42.8108 43.0004H37.1882C37.7012 42.1166 38 41.0938 38 40.0004C38 38.9069 37.7012 37.8841 37.1882 37.0004H42.8108C42.2978 37.8841 41.999 38.9069 41.999 40.0004C41.999 41.0938 42.2978 42.1166 42.8108 43.0004ZM43.999 40.0004C43.999 37.7948 45.793 36.0004 47.999 36.0004C50.2051 36.0004 51.999 37.7948 51.999 40.0004C51.999 42.2059 50.2051 44.0004 47.999 44.0004C45.793 44.0004 43.999 42.2059 43.999 40.0004ZM51.4023 51.5594C51.1104 51.8558 50.7031 52.0004 50.1572 52.0004C48.4346 52.0004 46.832 48.139 45.7705 45.5839C45.7676 45.5767 45.7649 45.5705 45.762 45.5634C46.4541 45.8428 47.208 46.0004 47.999 46.0004C49.5367 46.0004 50.9366 45.4141 51.9995 44.4595L52 49.8134C52.0059 50.1234 51.9102 51.0419 51.4023 51.5594ZM33 39.0004H34V41.0004H33V42.0004H31V41.0004H30V39.0004H31V38.0004H33V39.0004ZM48.0002 41.5004C47.1718 41.5004 46.5002 40.8288 46.5002 40.0004C46.5002 39.1719 47.1718 38.5004 48.0002 38.5004C48.8286 38.5004 49.5001 39.1719 49.5001 40.0004C49.5001 40.8288 48.8286 41.5004 48.0002 41.5004Z" fill="white"/>
</svg>
