<svg width="48" height="48" viewBox="0 0 48 48" fill="none" xmlns="http://www.w3.org/2000/svg">
<path d="M3.99805 28.0013C3.99805 23.5823 7.58035 20 11.9993 20C16.4183 20 20.0006 23.5823 20.0006 28.0013C20.0006 32.4203 16.4183 36.0026 11.9993 36.0026C7.58035 36.0026 3.99805 32.4203 3.99805 28.0013Z" fill="#0078D4"/>
<path d="M11.9993 38.0026C14.2515 38.0026 16.3297 37.2582 18.0015 36.002L17.9985 42.4974L17.9846 42.7061C17.8392 43.7892 16.5751 44.3808 15.6393 43.727L12 41.1824L8.35933 43.727L8.18037 43.8352C7.2092 44.3363 6.0002 43.639 6.0002 42.4974L6.00115 36.005C7.67225 37.2594 9.74899 38.0026 11.9993 38.0026Z" fill="#2A446F"/>
<path fill-rule="evenodd" clip-rule="evenodd" d="M9.5 6C6.46243 6 4 8.46243 4 11.5V21.999C5.82446 19.5707 8.7288 18 12 18C17.5228 18 22 22.4772 22 28C22 30.2516 21.2558 32.3295 20 34.001V36H38.5C41.5376 36 44 33.5376 44 30.5V11.5C44 8.46243 41.5376 6 38.5 6H9.5ZM34.5 14H13.5C12.6716 14 12 14.6716 12 15.5C12 16.3284 12.6716 17 13.5 17H34.5C35.3284 17 36 16.3284 36 15.5C36 14.6716 35.3284 14 34.5 14ZM25.5 24C24.6716 24 24 24.6716 24 25.5C24 26.3284 24.6716 27 25.5 27H34.5C35.3284 27 36 26.3284 36 25.5C36 24.6716 35.3284 24 34.5 24H25.5Z" fill="#2A446F"/>
</svg>
