<svg width="48" height="48" viewBox="0 0 48 48" fill="none" xmlns="http://www.w3.org/2000/svg">
<path d="M24 4C35.0456 4 44 12.9543 44 24C44 35.0456 35.0456 44 24 44C12.9543 44 4 35.0456 4 24C4 12.9543 12.9543 4 24 4ZM30.4394 17.9393L21.5 26.8786L17.5607 22.9394C16.9749 22.3536 16.0251 22.3536 15.4393 22.9394C14.8536 23.5252 14.8536 24.4748 15.4393 25.0606L20.4394 30.0606C21.0252 30.6464 21.9748 30.6464 22.5606 30.0606L32.5606 20.0606C33.1464 19.4749 33.1464 18.5251 32.5606 17.9393C31.9748 17.3536 31.0252 17.3536 30.4394 17.9393Z" fill="#107C41"/>
</svg>
