<svg width="48" height="48" viewBox="0 0 48 48" fill="none" xmlns="http://www.w3.org/2000/svg">
<path d="M27.5 7H20.5C19.6716 7 19 7.67158 19 8.5C19 9.32842 19.6716 10 20.5 10H27.5C28.3284 10 29 9.32842 29 8.5C29 7.67158 28.3284 7 27.5 7ZM20.5 4H27.5C29.9852 4 32 6.01472 32 8.5C32 8.33062 31.9906 8.1634 31.9724 7.99888L35.5 8C37.9852 8 40 10.0147 40 12.5V39.5C40 41.9852 37.9852 44 35.5 44H12.5C10.0147 44 8 41.9852 8 39.5V12.5C8 10.0147 10.0147 8 12.5 8L16.0276 7.99888C16.0094 8.1634 16 8.33062 16 8.5C16 6.01472 18.0147 4 20.5 4Z" fill="#B1B3B3"/>
</svg>
