<svg width="48" height="48" viewBox="0 0 48 48" fill="none" xmlns="http://www.w3.org/2000/svg">
<path d="M27.4254 9.42857C27.4254 5.16809 30.8793 1.71429 35.1397 1.71429C39.4002 1.71429 42.854 5.16809 42.854 9.42857V13.7143L45.6298 16.9296C46.0013 17.3599 46.1871 17.5751 46.2401 17.7456C46.3698 18.163 46.1646 18.6112 45.7639 18.7858C45.6002 18.8571 45.3159 18.8571 44.7474 18.8571H25.5314C24.9629 18.8571 24.6787 18.8571 24.5149 18.7858C24.1142 18.6112 23.9091 18.1631 24.0388 17.7457C24.0918 17.5751 24.2775 17.3599 24.649 16.9296L27.4251 13.7143L27.4254 9.42857Z" fill="#0078D4"/>
<path d="M38.5683 20.5714C38.5683 22.465 37.0333 24 35.1397 24C33.2462 24 31.7112 22.465 31.7112 20.5714H38.5683Z" fill="#0078D4"/>
<path d="M22.8745 16.3875C22.7556 16.5415 22.5316 16.8414 22.4087 17.237C22.0196 18.4892 22.635 19.8335 23.8371 20.3573C24.2168 20.5228 24.5902 20.5493 24.7845 20.5599C24.995 20.5715 25.2496 20.5715 25.5016 20.5714L30.0039 20.5714C30.0039 20.7593 30.0139 20.9448 30.0336 21.1275L24.0003 24.2651L5.14288 14.4583V14.1429C5.14288 11.1719 7.4685 8.74415 10.3984 8.58025L10.7146 8.57143H25.7566C25.7312 8.85374 25.7182 9.13964 25.7182 9.42857L25.7178 13.0766L23.3345 15.8371C23.1697 16.0279 23.0033 16.2206 22.8745 16.3875Z" fill="#2A446F"/>
<path d="M35.1467 25.7143C33.4157 25.7143 31.8845 24.8591 30.9524 23.5481L24.5935 26.855C24.2216 27.0483 23.7789 27.0483 23.4071 26.855L5.14288 17.3554V33.8571L5.15197 34.1733C5.31587 37.1032 7.74367 39.4286 10.7146 39.4286H37.286L37.6022 39.4198C40.5321 39.2559 42.8574 36.8281 42.8574 33.8571V20.5714L40.2896 20.5714C40.2896 23.4118 37.9871 25.7143 35.1467 25.7143Z" fill="#2A446F"/>
</svg>
