<svg width="48" height="48" viewBox="0 0 48 48" fill="none" xmlns="http://www.w3.org/2000/svg">
<path d="M6 12.5C6 8.91014 8.91014 6 12.5 6H35.5C39.0898 6 42 8.91014 42 12.5V35.5C42 39.0898 39.0898 42 35.5 42H12.5C8.91014 42 6 39.0898 6 35.5V12.5ZM15.5 18.5C16.6046 18.5 17.5 17.6046 17.5 16.5C17.5 15.3954 16.6046 14.5 15.5 14.5C14.3954 14.5 13.5 15.3954 13.5 16.5C13.5 17.6046 14.3954 18.5 15.5 18.5ZM22.5 15C21.6716 15 21 15.6716 21 16.5C21 17.3284 21.6716 18 22.5 18H33.5C34.3284 18 35 17.3284 35 16.5C35 15.6716 34.3284 15 33.5 15H22.5ZM22.5002 22.5C21.6716 22.5 21.0002 23.1716 21.0002 24C21.0002 24.8284 21.6716 25.5 22.5002 25.5H33.4998C34.3284 25.5 34.9998 24.8284 34.9998 24C34.9998 23.1716 34.3284 22.5 33.4998 22.5H22.5002ZM21.0002 31.5C21.0002 32.3284 21.6716 33 22.5002 33H33.4998C34.3284 33 34.9998 32.3284 34.9998 31.5C34.9998 30.6716 34.3284 30 33.4998 30H22.5002C21.6716 30 21.0002 30.6716 21.0002 31.5ZM17.5 24C17.5 22.8954 16.6046 22 15.5 22C14.3954 22 13.5 22.8954 13.5 24C13.5 25.1046 14.3954 26 15.5 26C16.6046 26 17.5 25.1046 17.5 24ZM15.5 33.5C16.6046 33.5 17.5 32.6046 17.5 31.5C17.5 30.3954 16.6046 29.5 15.5 29.5C14.3954 29.5 13.5 30.3954 13.5 31.5C13.5 32.6046 14.3954 33.5 15.5 33.5Z" fill="#107C41"/>
</svg>
