<svg width="48" height="48" viewBox="0 0 48 48" fill="none" xmlns="http://www.w3.org/2000/svg">
<path d="M6.49858 35C7.8785 35 8.99716 36.1186 8.99716 37.4986C8.99716 38.8786 7.8785 39.9972 6.49858 39.9972C5.11866 39.9972 4 38.8786 4 37.4986C4 36.1186 5.11866 35 6.49858 35ZM13.5 36H42.5C43.3284 36 44 36.6716 44 37.5C44 38.2594 43.4356 38.887 42.7036 38.9864L42.5 39H13.5C12.6716 39 12 38.3284 12 37.5C12 36.7406 12.5643 36.113 13.2965 36.0136L13.5 36ZM6.49858 22C7.8785 22 8.99716 23.1186 8.99716 24.4986C8.99716 25.8786 7.8785 26.9972 6.49858 26.9972C5.11866 26.9972 4 25.8786 4 24.4986C4 23.1186 5.11866 22 6.49858 22ZM13.5 23H42.5C43.3284 23 44 23.6716 44 24.5C44 25.2594 43.4356 25.887 42.7036 25.9864L42.5 26H13.5C12.6716 26 12 25.3284 12 24.5C12 23.7406 12.5643 23.113 13.2965 23.0136L13.5 23ZM6.49858 9C7.8785 9 8.99716 10.1187 8.99716 11.4986C8.99716 12.8785 7.8785 13.9972 6.49858 13.9972C5.11866 13.9972 4 12.8785 4 11.4986C4 10.1187 5.11866 9 6.49858 9ZM13.5 10H42.5C43.3284 10 44 10.6716 44 11.5C44 12.2594 43.4356 12.887 42.7036 12.9863L42.5 13H13.5C12.6716 13 12 12.3284 12 11.5C12 10.7406 12.5643 10.113 13.2965 10.0137L13.5 10Z" fill="#107C41"/>
</svg>
