<svg width="48" height="48" viewBox="0 0 48 48" fill="none" xmlns="http://www.w3.org/2000/svg">
<path d="M27.5 35.25C26.5352 35.25 25.75 34.4648 25.75 33.5C25.75 32.5352 26.5352 31.75 27.5 31.75C28.4648 31.75 29.25 32.5352 29.25 33.5C29.25 34.4648 28.4648 35.25 27.5 35.25ZM43.25 36.5C43.25 35.5352 42.4648 34.75 41.5 34.75C40.5352 34.75 39.75 35.5352 39.75 36.5C39.75 37.4648 40.5352 38.25 41.5 38.25C42.4648 38.25 43.25 37.4648 43.25 36.5ZM34.5 42.75C33.5352 42.75 32.75 43.5352 32.75 44.5C32.75 45.4648 33.5352 46.25 34.5 46.25C35.4648 46.25 36.25 45.4648 36.25 44.5C36.25 43.5352 35.4648 42.75 34.5 42.75ZM44.5801 27.6748C44.1875 28.1421 43.4629 28.3472 42.4941 28.3472C38.3889 28.3472 29.9146 24.6729 23.8258 21.7525C23.4823 21.999 23.0645 22.1479 22.6104 22.1479C21.4551 22.1479 20.5147 21.208 20.5147 20.0527C20.5147 18.8975 21.4551 17.9575 22.6104 17.9575C23.7301 17.9575 24.6392 18.8427 24.6946 19.9489C29.5293 22.2484 34.6381 24.3632 38.2751 25.53L38.6544 22.7128C38.6546 22.7121 38.6547 22.7114 38.6547 22.7108L40.0664 12.2275C36.4473 14.335 29.3555 15.4248 22.6094 15.4248C15.8643 15.4248 8.77345 14.335 5.15431 12.2275L8.99318 40.7402C8.99904 40.7842 9.00197 40.8291 9.00197 40.8735C9.00197 41.7026 12.9033 43.5327 20.0557 43.9292C20.9024 43.9761 21.7617 44 22.6094 44V46C21.7246 46 20.8281 45.9751 19.9443 45.9263C14.0225 45.5982 7.11427 44.0982 7.00294 40.9507L2.77344 9.53564C2.77338 9.53521 2.77356 9.53485 2.7735 9.53442C2.7735 9.53448 2.7735 9.53436 2.7735 9.53442L2.72168 9.14502C2.71582 9.10107 2.71289 9.05713 2.71289 9.01318C2.71289 4.84619 13.1982 1.94238 22.6094 1.94238C32.0205 1.94238 42.5068 4.84619 42.5068 9.01318C42.5068 9.05664 42.5039 9.09961 42.4981 9.14257L42.4473 9.53173C42.4473 9.53155 42.4473 9.53191 42.4473 9.53173C42.4471 9.53289 42.4475 9.53448 42.4473 9.53564L40.7299 22.2888C43.4296 23.8322 44.7551 25.05 44.9688 26.1992C45.0674 26.7344 44.9297 27.2583 44.5801 27.6748ZM40.478 9.1709L40.5049 8.96289C40.3692 7.1709 33.0283 3.94238 22.6094 3.94238C12.1934 3.94238 4.85352 7.16992 4.71485 8.96191L4.74262 9.17071C5.25745 10.9543 12.266 13.4248 22.6094 13.4248C32.9534 13.4248 39.9628 10.9545 40.478 9.1709ZM42.9356 26.417C42.7752 26.151 42.2246 25.523 40.4406 24.437L40.2166 26.1002C41.5086 26.4313 42.4635 26.5585 42.9356 26.417ZM36 29H34V38.0773L25.4707 43.1401L26.4922 44.8599L35 39.8098L43.5078 44.8599L44.5293 43.1401L36 38.0773L36 29Z" fill="#7AA116"/>
</svg>
