<svg width="48" height="48" viewBox="0 0 48 48" fill="none" xmlns="http://www.w3.org/2000/svg">
<path d="M7.78125 37.6533C7.07404 32.0113 5.29065 18.3216 4.44708 11.8593C7.88769 13.9302 14.4694 15 21 15C27.5306 15 34.1124 13.9302 37.553 11.8593C37.1667 14.819 36.5836 19.2919 35.9965 23.8166C32.8754 23.0554 28.2992 21.3435 23.6078 19.0847C23.6143 19.0149 23.6289 18.9475 23.6289 18.876C23.6289 17.6353 22.6191 16.626 21.3789 16.626C20.1387 16.626 19.1289 17.6353 19.1289 18.876C19.1289 20.1167 20.1387 21.126 21.3789 21.126C21.8048 21.126 22.1992 21.0003 22.5391 20.7938C25.8479 22.4013 31.4039 24.8939 35.7393 25.8005C35.7091 26.0341 35.6787 26.2688 35.6486 26.5012C36.1883 26.8582 36.6096 27.3795 36.8291 28H37.4713C37.5522 27.3744 37.6342 26.7408 37.7166 26.1042C38.023 26.1306 38.3186 26.145 38.6006 26.145C40.1104 26.145 41.2441 25.7485 41.7334 24.7632C42.5848 23.0504 41.4955 21.3975 38.5289 19.8464C39.3159 13.7944 39.9775 8.73425 39.9912 8.62988L39.9818 8.62866C39.9838 8.5849 40 8.54419 40 8.5C40 4.23291 30.4414 2 21 2C11.5586 2 2 4.23291 2 8.5C2 8.54419 2.01617 8.5849 2.01819 8.62866L2.00879 8.62988C2.03711 8.84668 4.86035 30.4355 5.79688 37.9023C6.25879 41.5771 13.7949 43.5 21 43.5C21.0559 43.5 21.1121 43.4974 21.168 43.4972L20.3647 41.489C12.5573 41.3736 7.97327 39.1839 7.78125 37.6533ZM39.9424 23.8735C39.7632 24.2366 39.0508 24.3254 37.9641 24.1946C38.0606 23.4508 38.157 22.7083 38.2525 21.9729C39.5386 22.7308 40.168 23.4199 39.9424 23.8735ZM21 4C31.3348 4 37.9402 6.64246 37.9949 8.47656C37.9908 8.50732 37.9856 8.54809 37.9796 8.59369C37.7643 10.4243 31.2058 13 21 13C10.7942 13 4.23584 10.4244 4.02045 8.59369C4.01471 8.54999 4.0091 8.50708 4.00513 8.47656C4.05976 6.64245 10.6651 4 21 4ZM44 30H35C35 28.897 34.1025 28 33 28H30C28.8975 28 28 28.897 28 30H26C24.8975 30 24 30.897 24 32V34H21C20.668 34 20.3584 34.1645 20.1719 34.4394C19.9863 34.7143 19.9482 35.0635 20.0713 35.3716L24.0713 45.3716C24.2236 45.751 24.5908 46 25 46H45C45.0011 46 45.0021 45.9996 45.0032 45.9996C45.0653 45.9993 45.1274 45.9939 45.1894 45.9819C45.1969 45.9805 45.2026 45.9756 45.21 45.9741C45.3106 45.9523 45.4059 45.916 45.4944 45.8654C45.5157 45.8532 45.5334 45.8376 45.5537 45.824C45.619 45.7802 45.6782 45.7292 45.7321 45.6705C45.7521 45.6486 45.7717 45.6281 45.7897 45.6045C45.8016 45.5889 45.817 45.5769 45.8281 45.5606C45.8727 45.4945 45.9077 45.4238 45.9351 45.3508C45.9368 45.3464 45.9389 45.3422 45.9405 45.3378C45.9751 45.2412 45.9892 45.1401 45.9933 45.0383C45.9938 45.025 46 45.0134 46 45V32C46 30.897 45.1025 30 44 30ZM25.6768 44L22.4766 36H40.3232L43.5228 44H25.6768ZM44 39.8066L41.9287 34.6284C41.7764 34.249 41.4092 34 41 34H26V32H29C29.5527 32 30 31.5523 30 31V30H33V31C33 31.5523 33.4473 32 34 32L44 31.9985V39.8066Z" fill="#7AA116"/>
</svg>
