<svg width="64" height="64" viewBox="0 0 64 64" fill="none" xmlns="http://www.w3.org/2000/svg">
<g clip-path="url(#clip0_158_130)">
<rect width="64" height="64" fill="#8C4FFF"/>
<path d="M32 41V39H34V41H32ZM36 41H38V39H36V41ZM40 41H42V39H40V41ZM44 41H47C47.5527 41 48 40.5523 48 40V37H46V39H44V41ZM46 35H48V33H46V35ZM48 29H46V31H48V29ZM48 24C48 23.4477 47.5527 23 47 23H44V25H46V27H48V24ZM42 23H40V25H42V23ZM38 23H36V25H38V23ZM32 23V25H34V23H32ZM52 13H26V15H52V18H26V20H52V48.8662C52 48.9399 51.9404 49 51.8662 49H26V51H51.8662C53.043 51 54 50.043 54 48.8662V15C54 13.897 53.1025 13 52 13ZM24 43V53C24 53.5523 23.5527 54 23 54H11C10.4473 54 10 53.5523 10 53V43C10 42.4477 10.4473 42 11 42H23C23.5527 42 24 42.4477 24 43ZM22 44H12V52H22V44ZM10 21V11C10 10.4477 10.4473 10 11 10H23C23.5527 10 24 10.4477 24 11V21C24 21.5523 23.5527 22 23 22H11C10.4473 22 10 21.5523 10 21ZM12 20H22V12H12V20ZM28 27V31H37.5859L36.293 29.707L37.707 28.293L40.707 31.293C40.9932 31.5791 41.0791 32.0088 40.9238 32.3828C40.8726 32.5068 40.7921 32.6094 40.7006 32.7006L40.707 32.707L37.707 35.707L36.293 34.293L37.5859 33H28V37C28 37.5523 27.5527 38 27 38H15C14.4473 38 14 37.5523 14 37V27C14 26.4477 14.4473 26 15 26H27C27.5527 26 28 26.4477 28 27ZM26 28H16V36H26V28Z" fill="white"/>
</g>
<defs>
<clipPath id="clip0_158_130">
<rect width="64" height="64" fill="white"/>
</clipPath>
</defs>
</svg>
