<svg width="64" height="64" viewBox="0 0 64 64" fill="none" xmlns="http://www.w3.org/2000/svg">
<rect width="64" height="64" fill="#01A88D"/>
<path d="M51.998 20.999V29.999H49.998V22.6983L44.4834 25.7622L43.5127 24.0141L48.9615 20.9868L43.502 17.8672L44.4941 16.1308L51.4941 20.1308C51.8057 20.3086 51.998 20.6401 51.998 20.999ZM49.998 41.2999L44.4834 38.2363L43.5127 39.9844L48.9614 43.0113L43.502 46.1309L44.4941 47.8672L51.4941 43.8672C51.8057 43.6895 51.9981 43.3579 51.9981 42.999V33.999H49.9981L49.998 41.2999ZM30.4727 35.8496C30.1777 35.6675 29.998 35.3457 29.998 34.999V28.999C29.998 28.6523 30.1777 28.3306 30.4727 28.1484C30.7676 27.9658 31.1357 27.9507 31.4453 28.1045L37.4453 31.1045C37.7842 31.2739 37.998 31.6201 37.998 31.999C37.998 32.3779 37.7842 32.7241 37.4453 32.8935L31.4453 35.8935C31.3037 35.9638 31.1514 35.999 30.998 35.999C30.8154 35.999 30.6328 35.9487 30.4727 35.8496ZM31.998 33.3809L34.7617 31.999L31.998 30.6172V33.3809ZM31.998 12.7223V18.9961H33.998V12.7223L39.502 15.8672L40.4941 14.1309L33.4941 10.1309C33.1875 9.95508 32.8086 9.95508 32.502 10.1309L25.502 14.1309L26.4941 15.8672L31.998 12.7223ZM33.998 51.2758V45.0024H31.998V51.2758L26.4941 48.1309L25.5019 49.8672L32.5019 53.8672C32.6553 53.9551 32.8271 53.999 32.998 53.999C33.1689 53.999 33.3408 53.9551 33.4941 53.8672L40.4941 49.8672L39.5019 48.1309L33.998 51.2758ZM39.9971 20.9961H27V22.9961H39.9971V41.0024H27V43.0024H39.9971C41.0996 43.0024 41.9971 42.1055 41.9971 41.0024V22.9961C41.9971 21.8931 41.0996 20.9961 39.9971 20.9961ZM25.998 26.999V24.999C22.1396 24.999 15.998 21.1767 15.998 17.999H13.998C13.998 22.6396 21.4844 26.999 25.998 26.999ZM26.998 32.999V30.999C21.3701 30.999 12.998 29.1348 12.998 23.999H10.998C10.998 28.0875 14.6307 30.6954 19.315 31.999C14.6307 33.3027 10.998 35.9106 10.998 39.999H12.998C12.998 34.8633 21.3701 32.999 26.998 32.999ZM25.998 36.999C21.4844 36.999 13.998 41.3584 13.998 45.999H15.998C15.998 42.8213 22.1396 38.999 25.998 38.999V36.999Z" fill="white"/>
</svg>
