<svg width="64" height="64" viewBox="0 0 64 64" fill="none" xmlns="http://www.w3.org/2000/svg">
<rect width="64" height="64" fill="#01A88D"/>
<path d="M27.2888 20.1548L31.0732 10.6348C31.2246 10.2544 31.5937 10.0044 32.0029 10.0044C32.4131 10.0044 32.7812 10.2549 32.9326 10.6357L38.3389 24.2642L46.707 15.896L48.1211 17.3101L38.6777 26.7539C38.4883 26.9434 38.2334 27.0469 37.9707 27.0469C37.9033 27.0469 37.8359 27.04 37.7685 27.0264C37.4385 26.958 37.165 26.7285 37.041 26.4155L32.002 13.7139L28.8295 21.6956L27.2888 20.1548ZM21.7184 35.199L13.7129 32.0161L26.415 26.9775C26.7275 26.853 26.957 26.5801 27.0254 26.2505C27.0938 25.9204 26.9912 25.5786 26.7529 25.3408L17.3096 15.8975L15.8955 17.3115L24.2627 25.6792L10.6348 31.0854C10.2539 31.2368 10.0039 31.605 10.0039 32.0146C10.0039 32.4248 10.2539 32.793 10.6348 32.9443L20.1786 36.7387L21.7184 35.199ZM53.373 31.083L43.8271 27.2878L42.2873 28.8276L50.2949 32.0112L37.5928 37.0493C37.2803 37.1738 37.0508 37.4468 36.9824 37.7764C36.9141 38.1059 37.0166 38.4482 37.2549 38.686L46.6982 48.1299L48.1123 46.7158L39.7451 38.3477L53.373 32.9419C53.7539 32.7905 54.0039 32.4224 54.0039 32.0127C54.0039 31.603 53.7539 31.2344 53.373 31.083ZM35.1833 42.3058L32.0039 50.3037L26.9658 37.602C26.8418 37.2891 26.5684 37.0596 26.2383 36.9912C25.9072 36.9224 25.5664 37.0254 25.3291 37.2637L15.8857 46.7075L17.2998 48.1216L25.668 39.7534L31.0732 53.3818C31.2246 53.7627 31.5928 54.0132 32.0029 54.0132C32.4121 54.0132 32.7812 53.7632 32.9326 53.3828L36.724 43.8466L35.1833 42.3058Z" fill="white"/>
</svg>
