<svg width="48" height="48" viewBox="0 0 48 48" fill="none" xmlns="http://www.w3.org/2000/svg">
<path d="M12.0097 20.1829C10.6773 19.5731 9.20616 18.6978 8 17.5244V36.25H8.00685C8.14576 38.7769 10.3804 40.6879 13.05 41.9096C15.9168 43.2215 19.7894 44 24 44C28.2106 44 32.0832 43.2215 34.95 41.9096C37.6196 40.6879 39.8542 38.7769 39.9932 36.25H40V17.5244C38.7938 18.6978 37.3227 19.5731 35.9903 20.1829C32.7283 21.6756 28.4855 22.5 24 22.5C19.5145 22.5 15.2717 21.6756 12.0097 20.1829Z" fill="#2A446F"/>
<path d="M13.05 6.09039C15.9168 4.77847 19.7894 4 24 4C28.2106 4 32.0832 4.77847 34.95 6.09039C37.7069 7.35204 40 9.34893 40 12C40 14.6511 37.7069 16.648 34.95 17.9096C32.0832 19.2215 28.2106 20 24 20C19.7894 20 15.9168 19.2215 13.05 17.9096C10.2931 16.648 8 14.6511 8 12C8 9.34893 10.2931 7.35204 13.05 6.09039Z" fill="#2A446F"/>
</svg>
