<svg width="48" height="48" viewBox="0 0 48 48" fill="none" xmlns="http://www.w3.org/2000/svg">
<path d="M44 22.3809C41.6642 24.6224 38.493 26 35 26C33.0459 26 31.1925 25.5689 29.5298 24.7965L24.696 27.3288C24.26 27.557 23.74 27.557 23.304 27.3288L4 17.216V33.5L4.01028 33.8688C4.2015 37.287 7.03394 40 10.5 40H37.5L37.8688 39.9898C41.287 39.7984 44 36.966 44 33.5V22.3809Z" fill="#2A446F"/>
<path d="M22.9963 8H10.5L10.1282 8.01046C6.92864 8.1909 4.34772 10.6854 4.03238 13.8471L24 24.3066L26.6165 22.936C23.7931 20.5513 22 16.9851 22 13C22 11.2282 22.3545 9.53918 22.9963 8Z" fill="#2A446F"/>
<path fill-rule="evenodd" clip-rule="evenodd" d="M46 13C46 19.0751 41.0751 24 35 24C28.9249 24 24 19.0751 24 13C24 6.92487 28.9249 2 35 2C41.0751 2 46 6.92487 46 13ZM34 7C34 6.44772 34.4477 6 35 6C35.5523 6 36 6.44772 36 7V15C36 15.5523 35.5523 16 35 16C34.4477 16 34 15.5523 34 15V7ZM36.25 19C36.25 19.6904 35.6904 20.25 35 20.25C34.3096 20.25 33.75 19.6904 33.75 19C33.75 18.3096 34.3096 17.75 35 17.75C35.6904 17.75 36.25 18.3096 36.25 19Z" fill="#0078D4"/>
</svg>
