<svg width="48" height="48" viewBox="0 0 48 48" fill="none" xmlns="http://www.w3.org/2000/svg">
<path d="M30.0581 7.12696C29.8298 7.9233 30.2902 8.75397 31.0865 8.98231C31.8829 9.21066 32.7135 8.75021 32.9419 7.95388L34.1823 3.6282C34.4106 2.83186 33.9502 2.0012 33.1538 1.77285C32.3575 1.5445 31.5268 2.00495 31.2985 2.80129L30.0581 7.12696Z" fill="#33C481"/>
<path d="M43.0607 7.06071C43.6464 6.47492 43.6464 5.52517 43.0607 4.93938C42.4749 4.3536 41.5251 4.3536 40.9393 4.93938L36.4393 9.43938C35.8536 10.0252 35.8536 10.9749 36.4393 11.5607C37.0251 12.1465 37.9749 12.1465 38.5607 11.5607L43.0607 7.06071Z" fill="#33C481"/>
<path d="M40.5 15.0031C39.6716 15.0031 39 15.6746 39 16.5031C39 17.3315 39.6716 18.0031 40.5 18.0031H45C45.8284 18.0031 46.5 17.3315 46.5 16.5031C46.5 15.6746 45.8284 15.0031 45 15.0031H40.5Z" fill="#33C481"/>
<path fill-rule="evenodd" clip-rule="evenodd" d="M32.3886 33.6276L39.5127 30.0655C42.26 28.6919 42.8541 25.0305 40.6822 22.8586L25.1424 7.3188C22.9705 5.14691 19.3091 5.74109 17.9355 8.48833L4.9763 34.4068C4.11008 36.1393 4.44962 38.2316 5.81924 39.6013L8.39979 42.1818C9.76941 43.5514 11.8618 43.891 13.5942 43.0247L17.6697 40.987C19.1114 43.3911 21.7428 45 24.75 45C29.3063 45 33 41.3064 33 36.75C33 35.645 32.7827 34.5907 32.3886 33.6276ZM30 36.75C30 36.1273 29.8916 35.5299 29.6926 34.9756L20.3657 39.639C21.3049 41.0615 22.9178 42 24.75 42C27.6495 42 30 39.6495 30 36.75Z" fill="#107C41"/>
</svg>
