<svg width="48" height="48" viewBox="0 0 48 48" fill="none" xmlns="http://www.w3.org/2000/svg">
<path fill-rule="evenodd" clip-rule="evenodd" d="M33.008 23.5C33.008 21.567 31.441 20 29.508 20H18.5039C16.5709 20 15.0039 21.567 15.0039 23.5V26H15V32H33V30H33.008V23.5ZM40.5 20C42.433 20 44 21.567 44 23.5V30.5C44 31.3284 43.3284 32 42.5 32H35V26H35.008V23.5C35.008 22.1695 34.5356 20.9493 33.7493 19.9981L40.5 20ZM13.0039 30H13V32H5.5C4.67157 32 4 31.3284 4 30.5V23.5C4 21.6637 5.41422 20.1576 7.21295 20.0116L7.5 20L14.2626 19.9981C13.5637 20.8436 13.1127 21.9017 13.0211 23.0608L13.0039 23.5V30ZM30 12C30 8.68629 27.3137 6 24 6C20.6863 6 18 8.68629 18 12C18 15.3137 20.6863 18 24 18C27.3137 18 30 15.3137 30 12ZM42 13C42 10.2386 39.7614 8 37 8C34.2386 8 32 10.2386 32 13C32 15.7614 34.2386 18 37 18C39.7614 18 42 15.7614 42 13ZM16 13C16 10.2386 13.7614 8 11 8C8.23858 8 6 10.2386 6 13C6 15.7614 8.23858 18 11 18C13.7614 18 16 15.7614 16 13Z" fill="#0078D4"/>
<path d="M4 35.5C4 34.6716 4.67157 34 5.5 34H42.5C43.3284 34 44 34.6716 44 35.5V36.5C44 40.6421 40.6421 44 36.5 44H11.5C7.35787 44 4 40.6421 4 36.5V35.5Z" fill="#2A446F"/>
</svg>
