<svg width="48" height="48" viewBox="0 0 48 48" fill="none" xmlns="http://www.w3.org/2000/svg">
<path d="M13.5607 9.56066C14.1464 8.97488 14.1464 8.02512 13.5607 7.43934C12.9749 6.85355 12.0251 6.85355 11.4393 7.43934L7.49999 11.3787L6.56065 10.4393C5.97487 9.85355 5.02512 9.85355 4.43934 10.4393C3.85355 11.0251 3.85355 11.9749 4.43934 12.5607L6.43934 14.5607C7.02512 15.1464 7.97488 15.1464 8.56066 14.5607L13.5607 9.56066ZM42.5 36.0136H19.5L19.2965 36.0274C18.5643 36.1268 18 36.7544 18 37.5136C18 38.3422 18.6716 39.0136 19.5 39.0136H42.5L42.7036 39C43.4356 38.9006 44 38.273 44 37.5136C44 36.6852 43.3284 36.0136 42.5 36.0136ZM42.5 23H19.5L19.2965 23.0136C18.5643 23.113 18 23.7406 18 24.5C18 25.3284 18.6716 26 19.5 26H42.5L42.7036 25.9864C43.4356 25.887 44 25.2594 44 24.5C44 23.6716 43.3284 23 42.5 23ZM42.5 9.99999H19.5L19.2965 10.0137C18.5643 10.113 18 10.7406 18 11.5C18 12.3284 18.6716 13 19.5 13H42.5L42.7036 12.9863C43.4356 12.887 44 12.2594 44 11.5C44 10.6716 43.3284 9.99999 42.5 9.99999ZM13.5607 35.5606C14.1464 34.9748 14.1464 34.0252 13.5607 33.4394C12.9749 32.8536 12.0251 32.8536 11.4393 33.4394L7.49999 37.3786L6.56065 36.4394C5.97487 35.8536 5.02512 35.8536 4.43934 36.4394C3.85355 37.0252 3.85355 37.9748 4.43934 38.5606L6.43934 40.5606C7.02512 41.1464 7.97488 41.1464 8.56066 40.5606L13.5607 35.5606ZM13.5607 20.4394C14.1464 21.0252 14.1464 21.9748 13.5607 22.5606L8.56066 27.5606C7.97488 28.1464 7.02512 28.1464 6.43934 27.5606L4.43934 25.5606C3.85355 24.9748 3.85355 24.0252 4.43934 23.4394C5.02512 22.8536 5.97487 22.8536 6.56065 23.4394L7.49999 24.3786L11.4393 20.4394C12.0251 19.8536 12.9749 19.8536 13.5607 20.4394Z" fill="#B1B3B3"/>
</svg>
