<svg width="64" height="64" viewBox="0 0 64 64" fill="none" xmlns="http://www.w3.org/2000/svg">
<g clip-path="url(#clip0_177_21683)">
<rect width="64" height="64" fill="#DD344C"/>
<path d="M48.998 19.8897L34.001 11.2339C32.7666 10.5225 31.2334 10.5215 29.999 11.2339L15.002 19.8897C13.7676 20.6021 13 21.9302 13 23.3565V40.6666C13 42.0918 13.7676 43.4205 15.002 44.1334L29.999 52.7891C30.6162 53.1451 31.3076 53.3233 32 53.3233C32.6914 53.3233 33.3838 53.1451 34.001 52.7891L48.9981 44.1334C50.2324 43.4205 51 42.0919 51 40.6666V23.3565C51 21.9302 50.2324 20.6021 48.998 19.8897ZM16.0019 21.6221L30.999 12.9664C31.3076 12.7881 31.6543 12.6988 32 12.6988C32.3457 12.6988 32.6924 12.7881 33.001 12.9664L47.998 21.6221C48.6162 21.9786 49 22.6431 49 23.3565V26.3474L32.9687 35.3472V26.9678C32.9687 26.6129 32.7803 26.2843 32.4736 26.1051C32.168 25.9254 31.7871 25.9215 31.4795 26.0958L15 35.3471V23.3565C15 22.6431 15.3838 21.9786 16.0019 21.6221ZM47.998 42.4009L33.001 51.0567C32.3838 51.4131 31.6162 51.4131 30.999 51.0567L16.002 42.4009C15.3838 42.0445 15 41.3799 15 40.6665V37.6405L30.9688 28.6758V37.0552C30.9688 37.4102 31.1572 37.7388 31.4639 37.918C31.6191 38.0093 31.794 38.0552 31.9688 38.0552C32.1377 38.0552 32.3066 38.0127 32.458 37.9273L49 28.6408V40.6665C49 41.3799 48.6162 42.0445 47.998 42.4009Z" fill="white"/>
</g>
<defs>
<clipPath id="clip0_177_21683">
<rect width="64" height="64" fill="white"/>
</clipPath>
</defs>
</svg>
