<svg width="74" height="74" viewBox="0 0 74 74" fill="none" xmlns="http://www.w3.org/2000/svg">
<rect x="5" y="5" width="64" height="64" fill="#E7157B"/>
<rect x="1" y="1" width="72" height="72" stroke="#879196" stroke-width="2"/>
<path d="M58.8896 32.3174C58.8896 35.0244 57.3135 37.4175 54.8731 38.4141L54.1172 36.5625C55.8018 35.8745 56.8896 34.2085 56.8896 32.3174C56.8896 29.8389 55.0322 27.8413 52.6602 27.7695C52.3418 27.7598 52.0479 27.5996 51.8672 27.3374C51.6865 27.0752 51.6416 26.7427 51.7461 26.4419C51.8428 26.1631 51.8896 25.9043 51.8896 25.6504C51.8896 24.3638 50.8965 23.3174 49.6758 23.3174C49.0996 23.3174 48.5527 23.5513 48.1367 23.9761C47.8945 24.2231 47.542 24.3281 47.2031 24.2515C46.8652 24.1753 46.5908 23.9297 46.4775 23.602C45.501 20.7734 42.9111 18.8726 40.0332 18.8726C38.0801 18.8726 36.2148 19.7441 34.915 21.2637L33.3955 19.9639C35.0762 17.999 37.4951 16.8726 40.0332 16.8726C43.334 16.8726 46.3359 18.7842 47.8535 21.7422C48.415 21.4644 49.0352 21.3174 49.6758 21.3174C51.999 21.3174 53.8897 23.2612 53.8897 25.6504C53.8897 25.7378 53.8867 25.8252 53.8809 25.9131C56.7676 26.5454 58.8896 29.1606 58.8896 32.3174ZM46.9756 32.8086C46.9922 32.6504 47 32.4922 47 32.3335C47 29.5766 44.8213 27.3335 42.1426 27.3335C41.3379 27.3335 40.5615 27.5351 39.8682 27.915C38.1113 24.3291 34.5225 22 30.5713 22C24.8213 22 20.1426 26.8349 20.1426 32.7778C20.1426 32.8647 20.1436 32.9516 20.1455 33.0386C17.1182 34.0459 15 36.9824 15 40.3335C15 44.7041 18.0098 48 22 48V46C19.1025 46 17 43.6167 17 40.3335C17 37.6255 18.8467 35.2866 21.3916 34.7724C21.8945 34.6709 22.2393 34.2046 22.1885 33.6933C22.1582 33.3926 22.1426 33.0869 22.1426 32.7778C22.1426 27.9375 25.9238 24 30.5713 24C34.1094 24 37.294 26.3349 38.4941 29.8105C38.6074 30.1377 38.8818 30.3833 39.2197 30.4595C39.5576 30.5361 39.9102 30.4311 40.1533 30.1841C40.6914 29.6357 41.3975 29.3335 42.1426 29.3335C43.7178 29.3335 45 30.6792 45 32.3335C45 32.6577 44.9394 32.9907 44.8154 33.3506C44.7119 33.6513 44.7568 33.9834 44.9375 34.2451C45.1182 34.5063 45.4131 34.6665 45.7305 34.6762C48.6855 34.7656 51 37.2505 51 40.3335C51 43.6167 48.8975 46 46 46V48C49.9902 48 53 44.7041 53 40.3335C53 36.5796 50.4355 33.4805 46.9756 32.8086ZM44 41.4443V52.5557C44 52.936 43.7842 53.2837 43.4424 53.4521L34.4424 57.8965C34.3037 57.9653 34.1514 58 34 58C33.8486 58 33.6963 57.9653 33.5576 57.8965L24.5576 53.4521C24.2158 53.2837 24 52.936 24 52.5557V41.4443C24 41.064 24.2158 40.7163 24.5576 40.5479L33.5576 36.1035C33.835 35.9658 34.165 35.9658 34.4424 36.1035L43.4424 40.5479C43.7842 40.7163 44 41.064 44 41.4443ZM27.2583 41.4445L34 44.7734L40.7417 41.4445L34 38.1152L27.2583 41.4445ZM26 51.9341L33 55.3909V46.5098L26 43.0531V51.9341ZM42 51.9341V43.0531L35 46.5098V55.3909L42 51.9341Z" fill="white"/>
</svg>
