<svg xmlns="http://www.w3.org/2000/svg" width="20" height="20" fill="currentColor"><path fill="url(#i398577-a)" fill-rule="evenodd" d="M4 5.5a1.5 1.5 0 1 1 3 0V6h6v-.5a1.5 1.5 0 0 1 3 0v3.707a5.5 5.5 0 0 0-1-.185V5.5a.5.5 0 0 0-1 0v3.522a5.5 5.5 0 0 0-1 .185V7H7v5h2.6a5.5 5.5 0 0 0-.393 1H7v.5a1.5 1.5 0 0 1-3 0zm2 0v8a.5.5 0 0 1-1 0v-8a.5.5 0 0 1 1 0" clip-rule="evenodd"/><path fill="url(#i398577-b)" fill-rule="evenodd" d="M14.5 19a4.5 4.5 0 1 0 0-9 4.5 4.5 0 0 0 0 9m0-7a.5.5 0 0 1 .5.5V14h1.5a.5.5 0 0 1 0 1H15v1.5a.5.5 0 0 1-1 0V15h-1.5a.5.5 0 0 1 0-1H14v-1.5a.5.5 0 0 1 .5-.5" clip-rule="evenodd"/><defs><linearGradient id="i398577-a" x1="4" x2="19" y1="4" y2="19" gradientUnits="userSpaceOnUse"><stop stop-color="#209782"/><stop offset="1" stop-color="#0C695A"/></linearGradient><linearGradient id="i398577-b" x1="4" x2="19" y1="4" y2="19" gradientUnits="userSpaceOnUse"><stop stop-color="#209782"/><stop offset="1" stop-color="#0C695A"/></linearGradient></defs></svg>