<svg xmlns="http://www.w3.org/2000/svg" width="24" height="24" fill="currentColor"><path fill="url(#ie369ac-a)" d="M2 5a3 3 0 0 1 3-3h14a3 3 0 0 1 3 3v14a3 3 0 0 1-3 3H5a3 3 0 0 1-3-3z"/><path fill="url(#ie369ac-b)" fill-opacity=".2" d="M2 5a3 3 0 0 1 3-3h14a3 3 0 0 1 3 3v14a3 3 0 0 1-3 3H5a3 3 0 0 1-3-3z"/><path fill="url(#ie369ac-c)" fill-rule="evenodd" d="M19 3H5a2 2 0 0 0-2 2v14a2 2 0 0 0 2 2h14a2 2 0 0 0 2-2V5a2 2 0 0 0-2-2M5 2a3 3 0 0 0-3 3v14a3 3 0 0 0 3 3h14a3 3 0 0 0 3-3V5a3 3 0 0 0-3-3z" clip-rule="evenodd"/><path fill="url(#ie369ac-d)" fill-rule="evenodd" d="M10.499 9h-2a.5.5 0 0 0-.5.5V12h3V9.5a.5.5 0 0 0-.5-.5m1.5 3V9.5a1.5 1.5 0 0 0-1.5-1.5h-2a1.5 1.5 0 0 0-1.5 1.5v6a1.5 1.5 0 0 0 1.5 1.5h6a1.5 1.5 0 0 0 1.5-1.5v-2a1.5 1.5 0 0 0-1.5-1.5zm0 4h2.5a.5.5 0 0 0 .5-.5v-2a.5.5 0 0 0-.5-.5h-2.5zm-1 0v-3h-3v2.5a.5.5 0 0 0 .5.5z" clip-rule="evenodd"/><path fill="url(#ie369ac-e)" d="M13.103 7.44a1.5 1.5 0 0 1 2.12 0l1.415 1.414a1.5 1.5 0 0 1 0 2.12l-1.414 1.415a1.5 1.5 0 0 1-2.121 0l-1.415-1.414a1.5 1.5 0 0 1 0-2.121l1.415-1.415Z"/><defs><linearGradient id="ie369ac-a" x1="7.556" x2="10.085" y1="2" y2="22.239" gradientUnits="userSpaceOnUse"><stop stop-color="#fff"/><stop offset="1" stop-color="#EBEBEB"/></linearGradient><linearGradient id="ie369ac-c" x1="8.458" x2="11.151" y1="2" y2="22.197" gradientUnits="userSpaceOnUse"><stop stop-color="#BBB"/><stop offset="1" stop-color="#888"/></linearGradient><linearGradient id="ie369ac-d" x1="6.999" x2="15.999" y1="8" y2="17" gradientUnits="userSpaceOnUse"><stop stop-color="#EB6D00"/><stop offset="1" stop-color="#B85500"/></linearGradient><linearGradient id="ie369ac-e" x1="11.249" x2="17.078" y1="7" y2="12.828" gradientUnits="userSpaceOnUse"><stop stop-color="#EB6D00"/><stop offset="1" stop-color="#B85500"/></linearGradient><radialGradient id="ie369ac-b" cx="0" cy="0" r="1" gradientTransform="rotate(56.31 -2.54 11.442)scale(19.0293 16.4677)" gradientUnits="userSpaceOnUse"><stop offset=".177" stop-color="#fff"/><stop offset="1" stop-color="#B8B8B8"/></radialGradient></defs></svg>