<svg xmlns="http://www.w3.org/2000/svg" width="20" height="20" fill="currentColor"><path d="M3.49 14.5v-9c0-1.105.89-2 1.988-2h5.777A.75.75 0 0 0 12 2.75a.75.75 0 0 0-.745-.75H5.478C3.558 2 2 3.567 2 5.5v9C2 16.433 3.557 18 5.478 18h5.777a.75.75 0 0 0 .745-.75.75.75 0 0 0-.745-.75H5.478a1.994 1.994 0 0 1-1.987-2Z"/><path d="M14.238 5.177a.75.75 0 0 1 1.06 0l1.768 1.768a.75.75 0 0 1 0 1.06l-1.768 1.768a.75.75 0 1 1-1.06-1.06l.212-.213h-5.7a.75.75 0 0 1 0-1.5H15l-.762-.762a.75.75 0 0 1 0-1.06Zm-3.19 5a.75.75 0 0 0-1.061 0l-1.768 1.768a.75.75 0 0 0 0 1.06l1.768 1.768a.75.75 0 1 0 1.06-1.06l-.212-.213h5.7a.75.75 0 0 0 0-1.5h-6.25l.763-.762a.75.75 0 0 0 0-1.06Z"/></svg>