<svg xmlns="http://www.w3.org/2000/svg" width="20" height="20" fill="currentColor"><path d="M8.75 3a.75.75 0 0 0 0 1.5h.5v4.75H4.5v-.5a.75.75 0 0 0-1.5 0v2.5a.75.75 0 0 0 1.5 0v-.5h4.75v4.75h-.5a.75.75 0 0 0 0 1.5h2.5a.75.75 0 0 0 0-1.5h-.5v-4.75h4.75v.5a.75.75 0 0 0 1.5 0v-2.5a.75.75 0 0 0-1.5 0v.5h-4.75V4.5h.5a.75.75 0 0 0 0-1.5zM5.453 4.603c-.387.151-.696.46-.849.846a.75.75 0 1 1-1.413-.492h-.005a3 3 0 0 1 1.77-1.77v.004a.75.75 0 1 1 .497 1.412m9.944.846a1.5 1.5 0 0 0-.938-.878.75.75 0 0 1 .586-1.38v-.005a3 3 0 0 1 1.77 1.77h-.005a.75.75 0 1 1-1.413.493m-9.944 9.949a1.5 1.5 0 0 1-.849-.846.75.75 0 1 0-1.413.492h-.005a3 3 0 0 0 1.77 1.77v-.004a.75.75 0 1 0 .497-1.412m9.944-.846a1.5 1.5 0 0 1-.938.878.75.75 0 0 0 .586 1.38v.005a3 3 0 0 0 1.77-1.77h-.005a.75.75 0 1 0-1.413-.493"/></svg>