<svg xmlns="http://www.w3.org/2000/svg" width="20" height="20" fill="currentColor"><path d="M2.669 4.659A2.25 2.25 0 0 1 4.259 4h1.5a.75.75 0 0 1 0 1.5h-1.5a.75.75 0 0 0-.75.75L3.501 10l.01 3.75a.75.75 0 0 0 .75.75h1.5a.75.75 0 1 1 0 1.5h-1.5a2.25 2.25 0 0 1-2.25-2.25L2 10l.01-3.75c0-.597.237-1.169.659-1.591M7.012 6.5a1.5 1.5 0 0 1 1.5-1.5h8a1.5 1.5 0 0 1 1.5 1.5v1a1.5 1.5 0 0 1-1.5 1.5h-8a1.5 1.5 0 0 1-1.5-1.5zm1.5 4.5a1.5 1.5 0 0 0-1.5 1.5v1a1.5 1.5 0 0 0 1.5 1.5h8a1.5 1.5 0 0 0 1.5-1.5v-1a1.5 1.5 0 0 0-1.5-1.5z"/></svg>