<svg xmlns="http://www.w3.org/2000/svg" width="24" height="24" fill="currentColor"><path d="M11 5.5a3.5 3.5 0 0 1-3 3.465V11.5h5.4q-.75 0-1.2.6a1.9 1.9 0 0 0-.374.9H8v2.035a3.5 3.5 0 1 1-1.5.11v-6.29A3.502 3.502 0 0 1 7.5 2 3.5 3.5 0 0 1 11 5.5m5.856 6.447A9.3 9.3 0 0 0 14 11.5h.25a2.25 2.25 0 0 0 2.25-2.25v-.395A3.502 3.502 0 0 1 17.5 2a3.5 3.5 0 0 1 .5 6.965v.285a3.74 3.74 0 0 1-1.144 2.697"/><path d="M13.453 12.517a8.5 8.5 0 0 1 9.03 9.03.75.75 0 1 1-1.497-.095 7 7 0 0 0-7.438-7.438.75.75 0 0 1-.095-1.497"/><path d="M13.43 15.027a6 6 0 0 1 6.544 6.544.75.75 0 0 1-1.494-.141 4.5 4.5 0 0 0-4.91-4.91.75.75 0 0 1-.14-1.493"/><path d="M13.365 17.558a3.5 3.5 0 0 1 4.078 4.078.75.75 0 1 1-1.476-.271 2 2 0 0 0-2.332-2.331.75.75 0 0 1-.27-1.476"/><path d="M14 22a1 1 0 1 0 0-2 1 1 0 0 0 0 2"/></svg>