<svg xmlns="http://www.w3.org/2000/svg" width="20" height="20" fill="currentColor"><path d="M14.5 10a4.5 4.5 0 1 1 0 9 4.5 4.5 0 0 1 0-9m0 2a.5.5 0 0 0-.5.5V14h-1.5a.5.5 0 0 0 0 1H14v1.5a.5.5 0 0 0 1 0V15h1.5a.5.5 0 0 0 0-1H15v-1.5a.5.5 0 0 0-.5-.5"/><path d="M7 2a3 3 0 0 1 .854 5.876c.178.222.417.483.721.744a5.7 5.7 0 0 0 2.877 1.3 5.5 5.5 0 0 0-.963.817A6.6 6.6 0 0 1 7.5 8.981v3.06a3 3 0 0 1 1.714.938 5.5 5.5 0 0 0 .249 3.73A3 3 0 1 1 6.5 12.041V7.959A3.001 3.001 0 0 1 7 2m8 5a3 3 0 0 1 2.988 3.248A5.48 5.48 0 0 0 14.5 9c-.889 0-1.728.212-2.47.586A3 3 0 0 1 15 7"/></svg>