<svg xmlns="http://www.w3.org/2000/svg" width="24" height="24" fill="currentColor"><path d="M11 5.5a3.5 3.5 0 0 1-3 3.465V11.5h6.25a2.25 2.25 0 0 0 2.25-2.25v-.395A3.502 3.502 0 0 1 17.5 2a3.5 3.5 0 0 1 .5 6.965v.285c0 1.39-.755 2.602-1.878 3.25h-.372a4.7 4.7 0 0 0-2.124.5H8v2.035a3.5 3.5 0 1 1-1.5.11v-6.29A3.502 3.502 0 0 1 7.5 2 3.5 3.5 0 0 1 11 5.5m12 11.75a3.75 3.75 0 0 0-3.75-3.75l-.102.007A.75.75 0 0 0 19.25 15l.154.005a2.25 2.25 0 0 1-.154 4.495l-.003.005-.102.007a.75.75 0 0 0 .108 1.493V21l.2-.005A3.75 3.75 0 0 0 23 17.25"/><path d="M16.5 14.25a.75.75 0 0 0-.75-.75l-.2.005a3.75 3.75 0 0 0 .2 7.495l.102-.007a.75.75 0 0 0-.102-1.493l-.154-.005A2.25 2.25 0 0 1 15.75 15l.102-.007a.75.75 0 0 0 .648-.743"/><path d="M20 17.25a.75.75 0 0 0-.75-.75h-3.5l-.102.007A.75.75 0 0 0 15.75 18h3.5l.102-.007A.75.75 0 0 0 20 17.25"/></svg>