<svg xmlns="http://www.w3.org/2000/svg" width="24" height="24" fill="none"><path fill="#000" d="M13.75 2A2.25 2.25 0 0 1 16 4.25V6h1.75A3.25 3.25 0 0 1 21 9.25v7.5A3.25 3.25 0 0 1 17.75 20H6.25A3.25 3.25 0 0 1 3 16.75v-7.5A3.25 3.25 0 0 1 6.25 6H8V4.25A2.25 2.25 0 0 1 10.25 2zm-3.178 7a.75.75 0 0 0-.627.372l-.048.1-1.217 3.05H7.5a.75.75 0 0 0 0 1.5h1.688a.75.75 0 0 0 .696-.472l.764-1.916 2.08 4.434a.75.75 0 0 0 1.33.052l1.191-2.099H16.5a.75.75 0 0 0 0-1.5h-1.687a.75.75 0 0 0-.653.38l-.691 1.217-2.196-4.686a.75.75 0 0 0-.7-.432m-.322-5.5a.75.75 0 0 0-.75.75V6h5V4.25a.75.75 0 0 0-.75-.75z"/></svg>