<svg xmlns="http://www.w3.org/2000/svg" width="24" height="24" fill="currentColor"><path d="M8 4.25V6H6.25A3.25 3.25 0 0 0 3 9.25v1.5c0 .966.784 1.75 1.75 1.75H10V12a1 1 0 0 1 1-1h2a1 1 0 0 1 1 1v.5h1.354a2.751 2.751 0 0 1 5.104-.484c.334-.319.542-.768.542-1.266v-1.5A3.25 3.25 0 0 0 17.75 6H16V4.25A2.25 2.25 0 0 0 13.75 2h-3.5A2.25 2.25 0 0 0 8 4.25m2.25-.75h3.5a.75.75 0 0 1 .75.75V6h-5V4.25a.75.75 0 0 1 .75-.75M11 15h1.668a2.75 2.75 0 0 0-1.168 2.25V20H6.25A3.25 3.25 0 0 1 3 16.75v-3.26c.505.322 1.106.51 1.75.51H10a1 1 0 0 0 1 1"/><path d="M18 12c.69 0 1.25.56 1.25 1.25v7.5a1.25 1.25 0 1 1-2.5 0v-7.5c0-.69.56-1.25 1.25-1.25m-3.75 4c.69 0 1.25.56 1.25 1.25v3.5a1.25 1.25 0 1 1-2.5 0v-3.5c0-.69.56-1.25 1.25-1.25m7.5-2c.69 0 1.25.56 1.25 1.25v5.5a1.25 1.25 0 1 1-2.5 0v-5.5c0-.69.56-1.25 1.25-1.25"/></svg>