<svg xmlns="http://www.w3.org/2000/svg" width="24" height="24" fill="currentColor"><path d="M5.371 4.385A1.25 1.25 0 0 1 6.274 4h11.441c.341 0 .667.139.903.385l2.95 3.077c.915.953.24 2.538-1.082 2.538H3.503C2.182 10 1.506 8.415 2.42 7.462zM3.995 11.5h16v1.059a5 5 0 0 0-.75-.059h-3.5a4.74 4.74 0 0 0-3.154 1.197 1 1 0 1 0-1.184 1.612 4.7 4.7 0 0 0-.412 1.941c0 1.234.47 2.358 1.24 3.202h-5.99a2.25 2.25 0 0 1-2.25-2.25zm5.5 3a1 1 0 1 0-2 0 1 1 0 0 0 2 0"/><path d="M22.994 17.25a3.75 3.75 0 0 0-3.75-3.75l-.101.007A.75.75 0 0 0 19.244 15l.155.005a2.25 2.25 0 0 1-.155 4.495l-.003.005-.102.007a.75.75 0 0 0 .109 1.493V21l.199-.005a3.75 3.75 0 0 0 3.547-3.745m-6.5-3a.75.75 0 0 0-.75-.75l-.199.005a3.75 3.75 0 0 0 .2 7.495l.101-.007a.75.75 0 0 0-.101-1.493l-.154-.005A2.25 2.25 0 0 1 15.745 15l.101-.007a.75.75 0 0 0 .648-.743"/><path d="M19.994 17.25a.75.75 0 0 0-.75-.75h-3.5l-.101.007A.75.75 0 0 0 15.744 18h3.5l.102-.007a.75.75 0 0 0 .648-.743"/></svg>