<svg xmlns="http://www.w3.org/2000/svg" width="20" height="20" fill="currentColor"><path d="M3.996 3.327A1 1 0 0 1 4.736 3H15.24a1 1 0 0 1 .739.327l2.733 3c.585.642.13 1.673-.739 1.673H2.002c-.869 0-1.324-1.031-.74-1.673zM16.988 9h-14v5.5a2.5 2.5 0 0 0 2.5 2.5h5.196a3.5 3.5 0 0 1-1.435-4.327 1 1 0 0 1 1.235-1.542 3.5 3.5 0 0 1 2.004-.631h4q.255 0 .5.035zm-10 4a1 1 0 1 1 0-2 1 1 0 0 1 0 2"/><path d="M12.488 11.5a2.5 2.5 0 0 0 0 5h.5a.5.5 0 0 0 0-1h-.5a1.5 1.5 0 0 1 0-3h.5a.5.5 0 0 0 0-1zm3.5 0a.5.5 0 1 0 0 1h.5a1.5 1.5 0 0 1 0 3h-.5a.5.5 0 1 0 0 1h.5a2.5 2.5 0 0 0 0-5z"/><path d="M11.988 14a.5.5 0 0 1 .5-.5h4a.5.5 0 0 1 0 1h-4a.5.5 0 0 1-.5-.5"/></svg>