<svg xmlns="http://www.w3.org/2000/svg" width="20" height="20" fill="currentColor"><path d="M2 4.75A2.75 2.75 0 0 1 4.75 2h1.5a.75.75 0 0 1 0 1.5h-1.5c-.69 0-1.25.56-1.25 1.25v10.5c0 .69.56 1.25 1.25 1.25h1.5a.75.75 0 0 1 0 1.5h-1.5A2.75 2.75 0 0 1 2 15.25zM15.25 2A2.75 2.75 0 0 1 18 4.75v10.5A2.75 2.75 0 0 1 15.25 18h-1.5a.75.75 0 0 1 0-1.5h1.5c.69 0 1.25-.56 1.25-1.25V4.75c0-.69-.56-1.25-1.25-1.25h-1.5a.75.75 0 0 1 0-1.5z"/><path d="M7.5 5A1.5 1.5 0 0 0 6 6.5v7A1.5 1.5 0 0 0 7.5 15h5a1.5 1.5 0 0 0 1.5-1.5v-7A1.5 1.5 0 0 0 12.5 5zM7 6.5a.5.5 0 0 1 .5-.5h5a.5.5 0 0 1 .5.5v1a.5.5 0 0 1-.5.5h-5a.5.5 0 0 1-.5-.5zm.5 3A.5.5 0 0 1 8 9h1a.5.5 0 0 1 0 1H8a.5.5 0 0 1-.5-.5M8 11h1a.5.5 0 0 1 0 1H8a.5.5 0 0 1 0-1m-.5 2.5A.5.5 0 0 1 8 13h1a.5.5 0 0 1 0 1H8a.5.5 0 0 1-.5-.5m3 0a.5.5 0 0 1 .5-.5h1a.5.5 0 0 1 0 1h-1a.5.5 0 0 1-.5-.5m0-2a.5.5 0 0 1 .5-.5h1a.5.5 0 0 1 0 1h-1a.5.5 0 0 1-.5-.5m0-2A.5.5 0 0 1 11 9h1a.5.5 0 0 1 0 1h-1a.5.5 0 0 1-.5-.5"/></svg>