<svg xmlns="http://www.w3.org/2000/svg" width="20" height="20" fill="currentColor"><path d="M2 4.75A2.75 2.75 0 0 1 4.75 2h1.5a.75.75 0 0 1 0 1.5h-1.5c-.69 0-1.25.56-1.25 1.25v10.5c0 .69.56 1.25 1.25 1.25h1.5a.75.75 0 0 1 0 1.5h-1.5A2.75 2.75 0 0 1 2 15.25zM15.25 2A2.75 2.75 0 0 1 18 4.75v10.5A2.75 2.75 0 0 1 15.25 18h-1.5a.75.75 0 0 1 0-1.5h1.5c.69 0 1.25-.56 1.25-1.25V4.75c0-.69-.56-1.25-1.25-1.25h-1.5a.75.75 0 0 1 0-1.5z"/><path d="M6 6.5A1.5 1.5 0 0 1 7.5 5h4A1.5 1.5 0 0 1 13 6.5v6a1.5 1.5 0 0 1-1.5 1.5h-4A1.5 1.5 0 0 1 6 12.5zM7.5 6a.5.5 0 0 0 0 1h4a.5.5 0 0 0 0-1zm1 2h-1a.5.5 0 0 0 0 1h1a.5.5 0 0 0 0-1m-1 2a.5.5 0 0 0 0 1h1a.5.5 0 0 0 0-1zm1 2h-1a.5.5 0 0 0 0 1h1a.5.5 0 0 0 0-1m2 0a.5.5 0 0 0 0 1h1a.5.5 0 0 0 0-1zm-.5-1.5a.5.5 0 0 0 .5.5h1a.5.5 0 0 0 0-1h-1a.5.5 0 0 0-.5.5m.5-2.5a.5.5 0 0 0 0 1h1a.5.5 0 0 0 0-1z"/><path d="M8.5 15c.456.607 1.182 1 2 1h2a2.5 2.5 0 0 0 2.5-2.5v-4c0-.818-.393-1.544-1-2v6a1.5 1.5 0 0 1-1.5 1.5z"/></svg>