<svg xmlns="http://www.w3.org/2000/svg" width="20" height="20" fill="currentColor"><path d="M14.5 3A2.5 2.5 0 0 1 17 5.5v4.841a3 3 0 1 0-4.727 3.67A2.5 2.5 0 0 0 10 16.5q0 .25.038.5H5.5A2.5 2.5 0 0 1 3 14.5v-9A2.5 2.5 0 0 1 5.5 3zM7 11a1 1 0 1 0 0 2 1 1 0 0 0 0-2m3 0a1 1 0 1 0 0 2 1 1 0 0 0 0-2M7 7a1 1 0 1 0 0 2 1 1 0 0 0 0-2m3 0a1 1 0 1 0 0 2 1 1 0 0 0 0-2m3 0a1 1 0 1 0 0 2 1 1 0 0 0 0-2"/><path d="M16.5 12a2 2 0 1 1-4 0 2 2 0 0 1 4 0m1.5 4.5c0 1.245-1 2.5-3.5 2.5S11 17.75 11 16.5a1.5 1.5 0 0 1 1.5-1.5h4a1.5 1.5 0 0 1 1.5 1.5"/></svg>