<svg xmlns="http://www.w3.org/2000/svg" width="24" height="24" fill="currentColor"><path d="M17.75 3A3.25 3.25 0 0 1 21 6.25v8.25a3.5 3.5 0 1 0-5.95 2.5h-.277A2.77 2.77 0 0 0 12 19.772v.103c0 .38.056.758.172 1.125H6.25A3.25 3.25 0 0 1 3 17.75V6.25A3.25 3.25 0 0 1 6.25 3zm-10 10.5a1.25 1.25 0 1 0 0 2.5 1.25 1.25 0 0 0 0-2.5m4.25 0a1.25 1.25 0 1 0 0 2.5 1.25 1.25 0 0 0 0-2.5m-4.25-5a1.25 1.25 0 1 0 0 2.5 1.25 1.25 0 0 0 0-2.5m4.25 0a1.25 1.25 0 1 0 0 2.5 1.25 1.25 0 0 0 0-2.5m4.25 0a1.25 1.25 0 1 0 0 2.5 1.25 1.25 0 0 0 0-2.5"/><path d="M20 14.5a2.5 2.5 0 1 1-5 0 2.5 2.5 0 0 1 5 0m2 5.375C22 21.431 20.714 23 17.5 23S13 21.437 13 19.875v-.103c0-.98.794-1.772 1.773-1.772h5.454c.98 0 1.773.793 1.773 1.772z"/></svg>