<svg xmlns="http://www.w3.org/2000/svg" width="20" height="20" fill="currentColor"><path d="M14.5 3A2.5 2.5 0 0 1 17 5.5V9h-3.415a1.5 1.5 0 0 0-1.385.923l-2.083 5A1.5 1.5 0 0 0 11.502 17H5.5A2.5 2.5 0 0 1 3 14.5v-9A2.5 2.5 0 0 1 5.5 3zM7 11a1 1 0 1 0 0 2 1 1 0 0 0 0-2m3 0a1 1 0 1 0 0 2 1 1 0 0 0 0-2M7 7a1 1 0 1 0 0 2 1 1 0 0 0 0-2m3 0a1 1 0 1 0 0 2 1 1 0 0 0 0-2m3 0a1 1 0 1 0 0 2 1 1 0 0 0 0-2"/><path d="M12.612 16a.5.5 0 0 1 .485.621l-.434 1.738c-.121.483.462.827.826.487l4.872-4.548A.75.75 0 0 0 17.85 13h-.404a.5.5 0 0 1-.474-.658l.561-1.684A.5.5 0 0 0 17.06 10h-3.473a.5.5 0 0 0-.462.308l-2.083 5a.5.5 0 0 0 .461.692z"/></svg>