<svg xmlns="http://www.w3.org/2000/svg" width="24" height="24" fill="currentColor"><path d="M17.75 3A3.25 3.25 0 0 1 21 6.25v6.583a4.7 4.7 0 0 0-1.75-.333h-3.5a4.73 4.73 0 0 0-3.121 1.17 1.25 1.25 0 0 0-1.385 2.076A4.7 4.7 0 0 0 11 17.25c0 1.524.718 2.88 1.834 3.75H6.25A3.25 3.25 0 0 1 3 17.75V6.25A3.25 3.25 0 0 1 6.25 3zm-10 10.5a1.25 1.25 0 1 0 0 2.5 1.25 1.25 0 0 0 0-2.5m0-5a1.25 1.25 0 1 0 0 2.5 1.25 1.25 0 0 0 0-2.5m4.25 0a1.25 1.25 0 1 0 0 2.5 1.25 1.25 0 0 0 0-2.5m4.25 0a1.25 1.25 0 1 0 0 2.5 1.25 1.25 0 0 0 0-2.5"/><path d="M23 17.25a3.75 3.75 0 0 0-3.75-3.75l-.102.007A.75.75 0 0 0 19.25 15l.154.005a2.25 2.25 0 0 1-.154 4.495l-.003.005-.102.007a.75.75 0 0 0 .108 1.493V21l.2-.005A3.75 3.75 0 0 0 23 17.25m-6.5-3a.75.75 0 0 0-.75-.75l-.2.005a3.75 3.75 0 0 0 .2 7.495l.102-.007a.75.75 0 0 0-.102-1.493l-.154-.005A2.25 2.25 0 0 1 15.75 15l.102-.007a.75.75 0 0 0 .648-.743"/><path d="M20 17.25a.75.75 0 0 0-.75-.75h-3.5l-.102.007A.75.75 0 0 0 15.75 18h3.5l.102-.007A.75.75 0 0 0 20 17.25"/></svg>