<svg xmlns="http://www.w3.org/2000/svg" width="20" height="20" fill="none"><path fill="#242424" d="M12 16.5a.5.5 0 0 0 1 0V16h3v.5a.5.5 0 0 0 1 0V16h2v1.5a1.5 1.5 0 0 1-1.5 1.5h-6a1.5 1.5 0 0 1-1.5-1.5V16h2z"/><path fill="#242424" d="M14.5 3A2.5 2.5 0 0 1 17 5.5v4.002A2.5 2.5 0 0 0 15.5 9h-2a2.5 2.5 0 0 0-2.458 2.042q-.245.046-.47.138a1 1 0 0 0-1.392 1.392c-.115.287-.18.6-.18.928V17H5.5A2.5 2.5 0 0 1 3 14.5v-9A2.5 2.5 0 0 1 5.5 3zM7 11a1 1 0 1 0 0 2 1 1 0 0 0 0-2m0-4a1 1 0 1 0 0 2 1 1 0 0 0 0-2m3 0a1 1 0 1 0 0 2 1 1 0 0 0 0-2m3 0a1 1 0 1 0 0 2 1 1 0 0 0 0-2"/><path fill="#242424" d="M15.5 10a1.5 1.5 0 0 1 1.5 1.5v.5h.5a1.5 1.5 0 0 1 1.5 1.5V15h-2v-.5a.5.5 0 0 0-1 0v.5h-3v-.5a.5.5 0 0 0-1 0v.5h-2v-1.5a1.5 1.5 0 0 1 1.5-1.5h.5v-.5a1.5 1.5 0 0 1 1.5-1.5zm-2 1a.5.5 0 0 0-.5.5v.5h3v-.5a.5.5 0 0 0-.5-.5z"/></svg>