<svg xmlns="http://www.w3.org/2000/svg" width="24" height="24" fill="currentColor"><path d="M17.75 3A3.25 3.25 0 0 1 21 6.25v5.772A6.47 6.47 0 0 0 17.5 11a6.49 6.49 0 0 0-5.16 2.547 1.25 1.25 0 0 0-1.1 2.196A6.5 6.5 0 0 0 11 17.5a6.47 6.47 0 0 0 1.022 3.5H6.25A3.25 3.25 0 0 1 3 17.75V6.25A3.25 3.25 0 0 1 6.25 3zm-10 10.5a1.25 1.25 0 1 0 0 2.5 1.25 1.25 0 0 0 0-2.5m0-5a1.25 1.25 0 1 0 0 2.5 1.25 1.25 0 0 0 0-2.5m4.25 0a1.25 1.25 0 1 0 0 2.5 1.25 1.25 0 0 0 0-2.5m4.25 0a1.25 1.25 0 1 0 0 2.5 1.25 1.25 0 0 0 0-2.5"/><path d="M23 17.5a5.5 5.5 0 1 1-11 0 5.5 5.5 0 0 1 11 0m-9.5 0c0 .834.255 1.608.691 2.248l5.557-5.557A4 4 0 0 0 13.5 17.5m4 4a4 4 0 0 0 3.309-6.248l-5.557 5.557a4 4 0 0 0 2.248.691"/></svg>