<svg xmlns="http://www.w3.org/2000/svg" width="20" height="20" fill="currentColor"><path d="M14.5 3A2.5 2.5 0 0 1 17 5.5v4.1a5.5 5.5 0 0 0-2.5-.6 5.49 5.49 0 0 0-4.265 2.028 1 1 0 0 0-.937 1.684A5.5 5.5 0 0 0 9 14.5c0 .9.216 1.75.6 2.5H5.5A2.5 2.5 0 0 1 3 14.5v-9A2.5 2.5 0 0 1 5.5 3zM7 11a1 1 0 1 0 0 2 1 1 0 0 0 0-2m0-4a1 1 0 1 0 0 2 1 1 0 0 0 0-2m3 0a1 1 0 1 0 0 2 1 1 0 0 0 0-2m3 0a1 1 0 1 0 0 2 1 1 0 0 0 0-2"/><path d="M19 14.5a4.5 4.5 0 1 1-9 0 4.5 4.5 0 0 1 9 0m-4.854-2.353-2 2a.5.5 0 0 0 .708.707L14 13.707V16.5a.5.5 0 0 0 1 0v-2.793l1.146 1.147a.5.5 0 0 0 .708-.708l-2-2a.5.5 0 0 0-.351-.146h-.006a.5.5 0 0 0-.348.144z"/></svg>