<svg xmlns="http://www.w3.org/2000/svg" width="20" height="20" fill="currentColor"><path d="M12 11q-.27 0-.538.02a.5.5 0 1 0 .076.998 6 6 0 0 1 6.445 6.445.5.5 0 1 0 .997.075A7 7 0 0 0 12 11m0 2q-.281 0-.555.03a.5.5 0 1 0 .11.994 4 4 0 0 1 4.42 4.42.5.5 0 1 0 .995.11A5 5 0 0 0 12 13m0 2q-.307 0-.6.06a.5.5 0 0 0 .2.98 2 2 0 0 1 2.36 2.36.5.5 0 1 0 .98.2A3 3 0 0 0 12 15m1 3a1 1 0 1 1-2 0 1 1 0 0 1 2 0"/><path d="M17 5.5A2.5 2.5 0 0 0 14.5 3h-9A2.5 2.5 0 0 0 3 5.5v9A2.5 2.5 0 0 0 5.5 17h4.77a1.5 1.5 0 0 1 .23-.3c-.2-.2-.4-.5-.5-.8-.1-.5.1-1 .4-1.3-.2-.3-.4-.6-.4-.9 0-.222.03-.474.11-.706a1 1 0 1 1-.019-1.99 1.3 1.3 0 0 1 .309-.504c.3-.3.6-.5 1-.5h.6c1.888 0 3.628.662 5 1.767zM6 12a1 1 0 1 1 2 0 1 1 0 0 1-2 0m0-4a1 1 0 1 1 2 0 1 1 0 0 1-2 0m3 0a1 1 0 1 1 2 0 1 1 0 0 1-2 0m3 0a1 1 0 1 1 2 0 1 1 0 0 1-2 0"/></svg>