<svg xmlns="http://www.w3.org/2000/svg" width="20" height="20" fill="currentColor"><path d="M2.75 4.5a.75.75 0 0 0 0 1.5h5a.75.75 0 0 0 0-1.5zm3 3a.75.75 0 0 0 0 1.5h4.5a.75.75 0 0 0 0-1.5zm-1 3a.75.75 0 0 0 0 1.5h6.585l.625-1.5zM17 8.25a.75.75 0 0 1-.75.75h-3a.75.75 0 0 1 0-1.5h3a.75.75 0 0 1 .75.75m-6.29 5.25-.593 1.423-.03.077H2.75a.75.75 0 0 1 0-1.5zm.04-9a.75.75 0 0 0 0 1.5h6.5a.75.75 0 0 0 0-1.5zm.752 11.5h1.75l-.59 2.36c-.121.482.462.826.826.486l4.872-4.548A.75.75 0 0 0 17.85 13h-1.1l.781-2.342a.5.5 0 0 0-.474-.658h-3.473a.5.5 0 0 0-.462.308l-2.083 5a.5.5 0 0 0 .462.692Z"/></svg>