<svg xmlns="http://www.w3.org/2000/svg" width="24" height="24" fill="currentColor"><path fill="url(#i866bcc-a)" d="M2 5a3 3 0 0 1 3-3h14a3 3 0 0 1 3 3v14a3 3 0 0 1-3 3H5a3 3 0 0 1-3-3z"/><path fill="url(#i866bcc-b)" fill-opacity=".2" d="M2 5a3 3 0 0 1 3-3h14a3 3 0 0 1 3 3v14a3 3 0 0 1-3 3H5a3 3 0 0 1-3-3z"/><path fill="url(#i866bcc-c)" fill-rule="evenodd" d="M19 3H5a2 2 0 0 0-2 2v14a2 2 0 0 0 2 2h14a2 2 0 0 0 2-2V5a2 2 0 0 0-2-2M5 2a3 3 0 0 0-3 3v14a3 3 0 0 0 3 3h14a3 3 0 0 0 3-3V5a3 3 0 0 0-3-3z" clip-rule="evenodd"/><path fill="url(#i866bcc-d)" d="M13.75 8.497a1.27 1.27 0 0 0 1.157-.762 1.24 1.24 0 0 0-.675-1.636 1.28 1.28 0 0 0-1.668.663c-.203.471-.089.997.248 1.346l-.39.905-.064-.001c-.549 0-1.057.17-1.473.46l-.756-.743a1.23 1.23 0 0 0-.285-1.338 1.29 1.29 0 0 0-1.8 0 1.23 1.23 0 0 0 0 1.765 1.29 1.29 0 0 0 1.365.28l.78.766a2.45 2.45 0 0 0-.278 1.994l-.735.28a1.29 1.29 0 0 0-1.363-.286c-.655.25-.98.973-.727 1.616a1.28 1.28 0 0 0 1.646.713 1.25 1.25 0 0 0 .812-1.113l.842-.32a2.56 2.56 0 0 0 2.16.912 2.5 2.5 0 0 1-.457-1.015 1.51 1.51 0 0 1-1.258-1.475c0-.827.684-1.498 1.527-1.498.363 0 .697.125.959.333.322-.183.69-.298 1.082-.326a2.55 2.55 0 0 0-.971-.774l.321-.746Z"/><path fill="url(#i866bcc-e)" d="M14.5 14a1.5 1.5 0 1 0 0-3 1.5 1.5 0 0 0 0 3"/><path fill="url(#i866bcc-f)" d="M12.949 15c-.524 0-.949.442-.949.987 0 .882.577 1.65 1.399 1.864l.059.015c.684.178 1.4.178 2.084 0l.06-.015c.821-.214 1.398-.982 1.398-1.864 0-.545-.425-.987-.949-.987z"/><defs><linearGradient id="i866bcc-a" x1="7.556" x2="10.085" y1="2" y2="22.239" gradientUnits="userSpaceOnUse"><stop stop-color="#fff"/><stop offset="1" stop-color="#EBEBEB"/></linearGradient><linearGradient id="i866bcc-c" x1="8.458" x2="11.151" y1="2" y2="22.197" gradientUnits="userSpaceOnUse"><stop stop-color="#BBB"/><stop offset="1" stop-color="#888"/></linearGradient><linearGradient id="i866bcc-d" x1="7" x2="18.803" y1="6" y2="15.836" gradientUnits="userSpaceOnUse"><stop stop-color="#7751B8"/><stop offset="1" stop-color="#5A409C"/></linearGradient><linearGradient id="i866bcc-e" x1="7" x2="18.803" y1="6" y2="15.836" gradientUnits="userSpaceOnUse"><stop stop-color="#7751B8"/><stop offset="1" stop-color="#5A409C"/></linearGradient><linearGradient id="i866bcc-f" x1="7" x2="18.803" y1="6" y2="15.836" gradientUnits="userSpaceOnUse"><stop stop-color="#7751B8"/><stop offset="1" stop-color="#5A409C"/></linearGradient><radialGradient id="i866bcc-b" cx="0" cy="0" r="1" gradientTransform="rotate(56.31 -2.54 11.442)scale(19.0293 16.4677)" gradientUnits="userSpaceOnUse"><stop offset=".177" stop-color="#fff"/><stop offset="1" stop-color="#B8B8B8"/></radialGradient></defs></svg>