<svg xmlns="http://www.w3.org/2000/svg" width="20" height="20" fill="currentColor"><path d="M11.25 4a.75.75 0 0 1 0 1.5h-4.5a.75.75 0 0 1 0-1.5zm5 0a.75.75 0 0 1 0 1.5h-2.5a.75.75 0 0 1 0-1.5zm-12 0a.75.75 0 0 1 0 1.5h-1.5a.75.75 0 0 1 0-1.5zm7 3a.75.75 0 0 1 0 1.5h-4.5a.75.75 0 0 1 0-1.5zm5 0a.75.75 0 0 1 0 1.5h-2.5a.75.75 0 0 1 0-1.5zm-12 0a.75.75 0 0 1 0 1.5h-1.5a.75.75 0 0 1 0-1.5zm7 3a.75.75 0 0 1 0 1.5h-4.5a.75.75 0 0 1 0-1.5zm5 0a.75.75 0 0 1 0 1.5h-2.5a.75.75 0 0 1 0-1.5zm-12 0a.75.75 0 0 1 0 1.5h-1.5a.75.75 0 0 1 0-1.5zm7 3a.75.75 0 0 1 0 1.5h-4.5a.75.75 0 0 1 0-1.5zm5 0a.75.75 0 0 1 0 1.5h-2.5a.75.75 0 0 1 0-1.5zm-12 0a.75.75 0 0 1 0 1.5h-1.5a.75.75 0 0 1 0-1.5zM5 16.75a.75.75 0 0 0-.75-.75h-1.5a.75.75 0 0 0 0 1.5h1.5a.75.75 0 0 0 .75-.75m6.25-.75a.75.75 0 0 1 0 1.5h-4.5a.75.75 0 0 1 0-1.5zm5 0a.75.75 0 0 1 0 1.5h-2.5a.75.75 0 0 1 0-1.5z"/></svg>