<svg xmlns="http://www.w3.org/2000/svg" width="20" height="20" fill="currentColor"><g clip-path="url(#i7954d9-a)"><path d="M7.863 2.146a.5.5 0 1 0-.707.708L8.294 3.99H6.5A2.5 2.5 0 0 0 4 6.49a.5.5 0 0 0 1 0 1.5 1.5 0 0 1 1.5-1.5h1.794L7.156 6.128a.5.5 0 1 0 .707.708l1.991-1.991a.5.5 0 0 0 0-.708l-1.99-1.99Z"/><path d="M17.93 9.936a3 3 0 0 0-.18-.469l-3.305-6.69a.45.45 0 0 0-.187-.2.5.5 0 0 0-.25-.064L14 2.516h-.008a.5.5 0 0 0-.25.063.45.45 0 0 0-.187.2L10.25 9.467a3 3 0 0 0-.08.179L7.174 8.147a1.53 1.53 0 0 0-1.344 0l-3 1.5a1.4 1.4 0 0 0-.609.555 1.5 1.5 0 0 0-.22.789v3.765c.004.278.083.55.227.789.14.24.35.434.6.555l3 1.5a1.53 1.53 0 0 0 1.344 0l2.872-1.436A5.48 5.48 0 0 1 11 12.313v-.22q.052.038.106.075A5.5 5.5 0 0 1 15.5 9.976c.898 0 1.746.215 2.494.597a1.8 1.8 0 0 0-.064-.637m-9.2 1.883L7 12.686v2.19a.5.5 0 0 1-1 0v-2.19l-1.727-.867a.45.45 0 0 1-.2-.188.6.6 0 0 1-.073-.255.505.505 0 0 1 .727-.446l1.773.881 1.773-.883a.51.51 0 0 1 .58.096c.093.093.146.22.147.352 0 .09-.025.178-.07.255a.45.45 0 0 1-.2.188"/><path d="M18 19.218a4.5 4.5 0 1 1-5-7.484 4.5 4.5 0 0 1 5 7.484m-2.146-6.095a.5.5 0 0 0-.854.353v1.5h-1.5a.5.5 0 0 0 0 1H15v1.5a.5.5 0 0 0 1 0v-1.5h1.5a.5.5 0 0 0 0-1H16v-1.5a.5.5 0 0 0-.146-.354Z"/></g><defs><clipPath id="i7954d9-a"><path d="M0 0h20v20H0z"/></clipPath></defs></svg>