<svg xmlns="http://www.w3.org/2000/svg" width="24" height="24" fill="none"><path fill="url(#i81f510-paint0_linear_55562_408)" d="M2 5a3 3 0 0 1 3-3h14a3 3 0 0 1 3 3v14a3 3 0 0 1-3 3H5a3 3 0 0 1-3-3z"/><path fill="url(#i81f510-paint1_radial_55562_408)" fill-opacity=".2" d="M2 5a3 3 0 0 1 3-3h14a3 3 0 0 1 3 3v14a3 3 0 0 1-3 3H5a3 3 0 0 1-3-3z"/><path fill="url(#i81f510-paint2_linear_55562_408)" fill-rule="evenodd" d="M19 3H5a2 2 0 0 0-2 2v14a2 2 0 0 0 2 2h14a2 2 0 0 0 2-2V5a2 2 0 0 0-2-2M5 2a3 3 0 0 0-3 3v14a3 3 0 0 0 3 3h14a3 3 0 0 0 3-3V5a3 3 0 0 0-3-3z" clip-rule="evenodd"/><circle cx="12" cy="12" r="6" fill="url(#i81f510-paint3_linear_55562_408)"/><path fill="#F4D58A" d="M12 8c-2.206 0-4 1.794-4 4 0 1.108.447 2.105 1.18 2.826a.5.5 0 1 0 .7-.712A2.94 2.94 0 0 1 9 12a3.004 3.004 0 0 1 3.404-2.974.5.5 0 0 0 .132-.992A4 4 0 0 0 12 8"/><path fill="#F4D58A" d="M15.064 8.864a.375.375 0 0 0-.476-.008l-.133.105a221 221 0 0 0-1.432 1.149c-.4.323-.809.657-1.136.93a22 22 0 0 0-.42.36 3 3 0 0 0-.257.245 1.125 1.125 0 0 0 1.711 1.461c.054-.063.128-.174.203-.292.08-.127.179-.289.288-.471.22-.366.485-.822.742-1.268a228 228 0 0 0 .91-1.594l.083-.147a.375.375 0 0 0-.083-.47"/><defs><linearGradient id="i81f510-paint0_linear_55562_408" x1="7.556" x2="10.085" y1="2" y2="22.239" gradientUnits="userSpaceOnUse"><stop stop-color="#fff"/><stop offset="1" stop-color="#EBEBEB"/></linearGradient><radialGradient id="i81f510-paint1_radial_55562_408" cx="0" cy="0" r="1" gradientTransform="rotate(56.31 -2.54 11.442)scale(19.0293 16.4677)" gradientUnits="userSpaceOnUse"><stop offset=".177" stop-color="#fff"/><stop offset="1" stop-color="#B8B8B8"/></radialGradient><linearGradient id="i81f510-paint2_linear_55562_408" x1="8.458" x2="11.151" y1="2" y2="22.197" gradientUnits="userSpaceOnUse"><stop stop-color="#BBB"/><stop offset="1" stop-color="#888"/></linearGradient><linearGradient id="i81f510-paint3_linear_55562_408" x1="6" x2="18" y1="6" y2="18" gradientUnits="userSpaceOnUse"><stop stop-color="#C28400"/><stop offset="1" stop-color="#A86500"/></linearGradient></defs></svg>