<svg xmlns="http://www.w3.org/2000/svg" width="20" height="20" fill="currentColor"><path d="M11.318 2.318a4.5 4.5 0 1 1 6.364 6.364 4.5 4.5 0 0 1-6.364-6.364m5.096 1.768v-.003a.5.5 0 0 0-.144-.349l-.002-.002-.002-.002a.5.5 0 0 0-.352-.144h-2.828a.5.5 0 1 0 0 1h1.621L12.732 6.56a.5.5 0 0 0 .708.707l1.974-1.975v1.621a.5.5 0 0 0 1 0zM5 3a2 2 0 0 0-2 2v10a2 2 0 1 0 4 0V5a2 2 0 0 0-2-2m4.05 3.24a5.48 5.48 0 0 0 1.56 3.15c.42.418.89.755 1.39 1.01V15a2 2 0 1 1-4 0V8a2 2 0 0 1 1.05-1.76m3.96 4.556a5.52 5.52 0 0 0 3.91-.356A2 2 0 0 1 17 11v4a2 2 0 1 1-4 0v-4q0-.104.01-.204"/></svg>