<svg xmlns="http://www.w3.org/2000/svg" width="24" height="24" fill="none"><path fill="url(#i14100a-ib4cd58-paint0_linear_64423_1173)" d="M2 5a3 3 0 0 1 3-3h14a3 3 0 0 1 3 3v14a3 3 0 0 1-3 3H5a3 3 0 0 1-3-3z"/><path fill="url(#i14100a-ib4cd58-paint1_radial_64423_1173)" fill-opacity=".2" d="M2 5a3 3 0 0 1 3-3h14a3 3 0 0 1 3 3v14a3 3 0 0 1-3 3H5a3 3 0 0 1-3-3z"/><path fill="url(#i14100a-ib4cd58-paint2_linear_64423_1173)" fill-rule="evenodd" d="M19 3H5a2 2 0 0 0-2 2v14a2 2 0 0 0 2 2h14a2 2 0 0 0 2-2V5a2 2 0 0 0-2-2M5 2a3 3 0 0 0-3 3v14a3 3 0 0 0 3 3h14a3 3 0 0 0 3-3V5a3 3 0 0 0-3-3z" clip-rule="evenodd"/><path fill="url(#i14100a-ib4cd58-paint3_linear_64423_1173)" d="M9.314 18.125a.418.418 0 0 1-.413-.478 7.504 7.504 0 0 1 7.418-6.413h.752c.514 0 .89-.306.89-.82l.042-.203v3.574c0 .564-.455 1.02-1.017 1.02h-.422a3.57 3.57 0 0 0-3.408 2.524l-.135.435a.51.51 0 0 1-.486.361z"/><path fill="url(#i14100a-ib4cd58-paint4_linear_64423_1173)" d="M9.314 18.125a.418.418 0 0 1-.413-.478 7.504 7.504 0 0 1 7.418-6.413h.752c.514 0 .89-.306.89-.82l.042-.203v3.574c0 .564-.455 1.02-1.017 1.02h-.422a3.57 3.57 0 0 0-3.408 2.524l-.135.435a.51.51 0 0 1-.486.361z"/><path fill="url(#i14100a-ib4cd58-paint5_linear_64423_1173)" d="M6.51 14.043a.51.51 0 0 1-.51-.511v-3.063c0-.282.23-.511.51-.511h9.17c.281 0 .51.23.51.511v3.063a.51.51 0 0 1-.51.511z"/><path fill="url(#i14100a-ib4cd58-paint6_radial_64423_1173)" d="M6.51 14.043a.51.51 0 0 1-.51-.511v-3.063c0-.282.23-.511.51-.511h9.17c.281 0 .51.23.51.511v3.063a.51.51 0 0 1-.51.511z"/><path fill="url(#i14100a-ib4cd58-paint7_linear_64423_1173)" d="M9.317 5.875a.424.424 0 0 0-.42.484 7.62 7.62 0 0 0 7.538 6.532h.633a.93.93 0 0 1 .93.931v-3.607c0-.564-.456-1.02-1.019-1.02h-.421A3.57 3.57 0 0 1 13.15 6.67l-.135-.435a.51.51 0 0 0-.486-.361z"/><path fill="url(#i14100a-ib4cd58-paint8_linear_64423_1173)" d="M16.983 9.192h-.422c-.725 0-1.41-.22-1.98-.607v4.074c.595.15 1.219.232 1.86.232h.633a.93.93 0 0 1 .93.931v-3.607c0-.564-.456-1.02-1.018-1.02z" opacity=".4"/><path fill="url(#i14100a-ib4cd58-paint9_linear_64423_1173)" d="M9.323 5.875a.424.424 0 0 0-.419.484 7.62 7.62 0 0 0 7.538 6.532h.632a.93.93 0 0 1 .93.931v-3.607c0-.564-.456-1.02-1.018-1.02h-.422a3.57 3.57 0 0 1-3.408-2.524l-.135-.435a.51.51 0 0 0-.486-.361z" opacity=".7"/><defs><linearGradient id="i14100a-ib4cd58-paint0_linear_64423_1173" x1="7.556" x2="10.085" y1="2" y2="22.239" gradientUnits="userSpaceOnUse"><stop stop-color="#fff"/><stop offset="1" stop-color="#EBEBEB"/></linearGradient><radialGradient id="i14100a-ib4cd58-paint1_radial_64423_1173" cx="0" cy="0" r="1" gradientTransform="matrix(10.5556 15.8333 -15.8333 5.9375 8.389 7.208)" gradientUnits="userSpaceOnUse"><stop offset=".177" stop-color="#fff"/><stop offset="1" stop-color="#B8B8B8"/></radialGradient><linearGradient id="i14100a-ib4cd58-paint2_linear_64423_1173" x1="8.458" x2="11.151" y1="2" y2="22.197" gradientUnits="userSpaceOnUse"><stop stop-color="#BBB"/><stop offset="1" stop-color="#888"/></linearGradient><linearGradient id="i14100a-ib4cd58-paint3_linear_64423_1173" x1="9.616" x2="18.072" y1="18.725" y2="10.286" gradientUnits="userSpaceOnUse"><stop offset=".26" stop-color="#0D7012"/><stop offset="1" stop-color="#085714"/></linearGradient><linearGradient id="i14100a-ib4cd58-paint4_linear_64423_1173" x1="22.133" x2="6.089" y1="12.646" y2="16.204" gradientUnits="userSpaceOnUse"><stop offset=".04" stop-color="#114A8A"/><stop offset="1" stop-color="#0C59A3" stop-opacity="0"/></linearGradient><linearGradient id="i14100a-ib4cd58-paint5_linear_64423_1173" x1="-.388" x2="15.876" y1="12" y2="12" gradientUnits="userSpaceOnUse"><stop stop-color="#107C10"/><stop offset=".96" stop-color="#56B50E"/></linearGradient><radialGradient id="i14100a-ib4cd58-paint6_radial_64423_1173" cx="0" cy="0" r="1" gradientTransform="matrix(1.72608 -2.59032 -6.59229 -4.4102 14.107 11.336)" gradientUnits="userSpaceOnUse"><stop stop-opacity=".3"/><stop offset="1" stop-opacity="0"/></radialGradient><linearGradient id="i14100a-ib4cd58-paint7_linear_64423_1173" x1="18.581" x2="10.662" y1="16.184" y2="4.894" gradientUnits="userSpaceOnUse"><stop offset=".04" stop-color="#33980F"/><stop offset="1" stop-color="#BAE884"/></linearGradient><linearGradient id="i14100a-ib4cd58-paint8_linear_64423_1173" x1="16.124" x2="17.964" y1="11.204" y2="11.204" gradientUnits="userSpaceOnUse"><stop stop-color="#E5FAC1" stop-opacity="0"/><stop offset=".56" stop-color="#E5FAC1" stop-opacity=".52"/><stop offset="1" stop-color="#E5FAC1"/></linearGradient><linearGradient id="i14100a-ib4cd58-paint9_linear_64423_1173" x1="8.492" x2="13.268" y1=".084" y2="8.335" gradientUnits="userSpaceOnUse"><stop offset=".14" stop-color="#FDE100"/><stop offset=".98" stop-color="#FFC600" stop-opacity="0"/></linearGradient></defs></svg>