<svg xmlns="http://www.w3.org/2000/svg" width="24" height="24" fill="currentColor"><path fill="#767676" fill-rule="evenodd" d="M19.622 8.332c.841-1.243 2.374-.4 2.374.926v5.446a1.88 1.88 0 0 1-.566 1.251l-4.9 4.888a1.58 1.58 0 0 1-1.416.433S.617 18.216 8.091 16.34c7.473-1.877 11.53-7.999 11.53-7.999v-.008Z" clip-rule="evenodd"/><path fill="url(#i732f6b-a)" fill-rule="evenodd" d="M19.622 8.332c.841-1.243 2.374-.4 2.374.926v5.446a1.88 1.88 0 0 1-.566 1.251l-4.9 4.888a1.58 1.58 0 0 1-1.416.433S.617 18.216 8.091 16.34c7.473-1.877 11.53-7.999 11.53-7.999v-.008Z" clip-rule="evenodd"/><path fill="url(#i732f6b-b)" fill-rule="evenodd" d="M19.622 8.332c.841-1.243 2.374-.4 2.374.926v5.446a1.88 1.88 0 0 1-.566 1.251l-4.9 4.888a1.58 1.58 0 0 1-1.416.433S.617 18.216 8.091 16.34c7.473-1.877 11.53-7.999 11.53-7.999v-.008Z" clip-rule="evenodd"/><path fill="#4F1A1A" fill-rule="evenodd" d="m17.689 19.7 3.349-3.336c-.983.992-3.566 1.009-5.957-.175-1.6-.793-2.7-2.31-3.683-3.845l-5.39-8.55-3.5 3.596A1.83 1.83 0 0 0 2 8.566l.017 6.914c-.017.467.15.917.458 1.25l4.44 4.771a1.6 1.6 0 0 0 1.159.51h6.64a1.58 1.58 0 0 0 1.108-.476L17.69 19.7Z" clip-rule="evenodd"/><path fill="url(#i732f6b-c)" fill-rule="evenodd" d="m17.689 19.7 3.349-3.336c-.983.992-3.566 1.009-5.957-.175-1.6-.793-2.7-2.31-3.683-3.845l-5.39-8.55-3.5 3.596A1.83 1.83 0 0 0 2 8.566l.017 6.914c-.017.467.15.917.458 1.25l4.44 4.771a1.6 1.6 0 0 0 1.159.51h6.64a1.58 1.58 0 0 0 1.108-.476L17.69 19.7Z" clip-rule="evenodd"/><path fill="url(#i732f6b-d)" fill-rule="evenodd" d="m17.689 19.7 3.349-3.336c-.983.992-3.566 1.009-5.957-.175-1.6-.793-2.7-2.31-3.683-3.845l-5.39-8.55-3.5 3.596A1.83 1.83 0 0 0 2 8.566l.017 6.914c-.017.467.15.917.458 1.25l4.44 4.771a1.6 1.6 0 0 0 1.159.51h6.64a1.58 1.58 0 0 0 1.108-.476L17.69 19.7Z" clip-rule="evenodd"/><path fill="url(#i732f6b-e)" fill-rule="evenodd" d="m17.689 19.7 3.349-3.336c-.983.992-3.566 1.009-5.957-.175-1.6-.793-2.7-2.31-3.683-3.845l-5.39-8.55-3.5 3.596A1.83 1.83 0 0 0 2 8.566l.017 6.914c-.017.467.15.917.458 1.25l4.44 4.771a1.6 1.6 0 0 0 1.159.51h6.64a1.58 1.58 0 0 0 1.108-.476L17.69 19.7Z" clip-rule="evenodd"/><path fill="#585858" fill-rule="evenodd" d="M5.133 14.937c1.441-2.785 1.908-2.051 7.19-6.205 2.458-1.927 3.874-4.203 4.574-5.546a.798.798 0 0 0-.716-1.176H8.399c-.425 0-.833.175-1.142.484l-4.774 4.92C2.175 7.74 2 8.164 2 8.624v6.897c0 .442.167.86.458 1.176l3.841 4.12s-2.716-2.91-1.175-5.88z" clip-rule="evenodd"/><path fill="url(#i732f6b-f)" fill-rule="evenodd" d="M5.133 14.937c1.441-2.785 1.908-2.051 7.19-6.205 2.458-1.927 3.874-4.203 4.574-5.546a.798.798 0 0 0-.716-1.176H8.399c-.425 0-.833.175-1.142.484l-4.774 4.92C2.175 7.74 2 8.164 2 8.624v6.897c0 .442.167.86.458 1.176l3.841 4.12s-2.716-2.91-1.175-5.88z" clip-rule="evenodd"/><path fill="url(#i732f6b-g)" fill-rule="evenodd" d="M5.133 14.937c1.441-2.785 1.908-2.051 7.19-6.205 2.458-1.927 3.874-4.203 4.574-5.546a.798.798 0 0 0-.716-1.176H8.399c-.425 0-.833.175-1.142.484l-4.774 4.92C2.175 7.74 2 8.164 2 8.624v6.897c0 .442.167.86.458 1.176l3.841 4.12s-2.716-2.91-1.175-5.88z" clip-rule="evenodd"/><path fill="url(#i732f6b-h)" fill-rule="evenodd" d="M5.133 14.937c1.441-2.785 1.908-2.051 7.19-6.205 2.458-1.927 3.874-4.203 4.574-5.546a.798.798 0 0 0-.716-1.176H8.399c-.425 0-.833.175-1.142.484l-4.774 4.92C2.175 7.74 2 8.164 2 8.624v6.897c0 .442.167.86.458 1.176l3.841 4.12s-2.716-2.91-1.175-5.88z" clip-rule="evenodd"/><defs><linearGradient id="i732f6b-a" x1="15.723" x2="21.611" y1="14.47" y2="8.08" gradientUnits="userSpaceOnUse"><stop stop-color="#114A85"/><stop offset=".8" stop-color="#028EDB"/></linearGradient><linearGradient id="i732f6b-b" x1="14.289" x2="22.2" y1="15.788" y2="2.926" gradientUnits="userSpaceOnUse"><stop stop-color="#114A85"/><stop offset=".67" stop-color="#028EDB"/></linearGradient><linearGradient id="i732f6b-c" x1="5.966" x2="16.456" y1="12.894" y2="12.969" gradientUnits="userSpaceOnUse"><stop offset=".07" stop-color="#0669B6"/><stop offset=".26" stop-color="#0E7FCB"/><stop offset=".54" stop-color="#148DD9"/><stop offset=".95" stop-color="#3CC5EE"/></linearGradient><linearGradient id="i732f6b-d" x1="5.016" x2="16.981" y1="13.687" y2="11.955" gradientUnits="userSpaceOnUse"><stop offset=".31" stop-color="#0094E5"/><stop offset="1" stop-color="#40D8F9"/></linearGradient><linearGradient id="i732f6b-e" x1="4.899" x2="16.499" y1="12.302" y2="15.748" gradientUnits="userSpaceOnUse"><stop offset=".09" stop-opacity=".2"/><stop offset=".55" stop-opacity="0"/></linearGradient><linearGradient id="i732f6b-f" x1="14.881" x2="4.676" y1="6.18" y2="13.043" gradientUnits="userSpaceOnUse"><stop stop-color="#BDF5FF"/><stop offset="1" stop-color="#40D9FA"/></linearGradient><linearGradient id="i732f6b-g" x1="1.333" x2="11.88" y1="15.262" y2="8.258" gradientUnits="userSpaceOnUse"><stop stop-color="#3CC5EE"/><stop offset="1" stop-color="#50E0FF"/></linearGradient><linearGradient id="i732f6b-h" x1="6.724" x2="10.683" y1="9.066" y2="11.081" gradientUnits="userSpaceOnUse"><stop stop-color="#A1ECFF" stop-opacity="0"/><stop offset=".9" stop-color="#A1ECFF" stop-opacity=".9"/></linearGradient></defs></svg>