<svg xmlns="http://www.w3.org/2000/svg" width="20" height="20" fill="currentColor"><path d="M4 3a1 1 0 0 1 1-1h2a1 1 0 0 1 1 1v1.983l2.312 1.53c.234-.348.579-.638.965-.859C11.998 5.241 12.962 5 14 5s2 .24 2.723.652C17.43 6.056 18 6.69 18 7.5s-.57 1.445-1.277 1.85C16 9.761 15.037 10 14 10c-1.038 0-2.002-.24-2.723-.653-.705-.404-1.274-1.036-1.277-1.84L7.512 5.86A1 1 0 0 1 7 6H5a1 1 0 0 1-1-1z"/><path d="M3 8a1 1 0 0 0-1 1v2a1 1 0 0 0 1 1h2a1 1 0 0 0 1-1v-.5h4v1.995L7.512 14.14A1 1 0 0 0 7 14H5a1 1 0 0 0-1 1v2a1 1 0 0 0 1 1h2a1 1 0 0 0 1-1v-1.983l2.31-1.53c.235.35.58.64.967.861.722.412 1.686.652 2.723.652s2-.24 2.723-.652c.668-.381 1.213-.969 1.272-1.714H18V9.648c-.248.23-.518.42-.781.57-.9.513-2.04.783-3.219.783-1.18 0-2.322-.272-3.22-.786a4 4 0 0 1-.405-.262 4 4 0 0 1-.523-.453H6V9a1 1 0 0 0-1-1z"/></svg>