<svg xmlns="http://www.w3.org/2000/svg" width="24" height="24" fill="currentColor"><path fill="url(#ibe4469-a)" d="M12.445 21.92c-.365.14-.79.106-1.135-.124-.575-.38-.905-1.25-.52-1.825l4.865-7.236 4.47 5.016a.83.83 0 0 1-.07 1.175.8.8 0 0 1-.235.15l-7.375 2.845Z"/><path fill="url(#ibe4469-b)" d="M8.525 13.26 3.79 6.136a.8.8 0 0 1-.125-.435c0-.46.375-.835.835-.835.115 0 .27-.02.37.02l7.7 3.62-.44.875z"/><path fill="url(#ibe4469-c)" d="M11.555 21.925a1.254 1.254 0 0 1-.595-1.86L20.21 6.14a.832.832 0 0 0-.39-1.205L12.445 2.09A1.2 1.2 0 0 0 12 2.005c-.155 0-.305.03-.445.08L4.18 4.93c.1-.04.21-.065.325-.065a.9.9 0 0 1 .32.065l5.82 2.805c.425.22.725.63.725 1.135 0 .315-.115.6-.31.82l-7.18 8.06a.83.83 0 0 0 .07 1.175q.106.098.235.15l7.375 2.846"/><path fill="url(#ibe4469-d)" d="m4.84 4.93 5.82 2.805c.345.175.6.48.69.855l8.985-3.015a.83.83 0 0 0-.495-.645l-7.375-2.845A1.2 1.2 0 0 0 12.02 2c-.155 0-.305.03-.445.08L4.2 4.925c.1-.04.21-.065.325-.065a.9.9 0 0 1 .32.065z"/><defs><linearGradient id="ibe4469-a" x1="12.16" x2="17.735" y1="16.166" y2="20.846" gradientUnits="userSpaceOnUse"><stop stop-color="#292941"/><stop offset=".22" stop-color="#114A85"/><stop offset=".44" stop-color="#0A5BA0"/><stop offset=".65" stop-color="#0669B6"/></linearGradient><linearGradient id="ibe4469-b" x1="5.645" x2="10.995" y1="3.885" y2="11.531" gradientUnits="userSpaceOnUse"><stop offset=".22" stop-color="#114A85"/><stop offset=".85" stop-color="#0669B6"/></linearGradient><linearGradient id="ibe4469-c" x1="12" x2="12" y1="21.925" y2="2.005" gradientUnits="userSpaceOnUse"><stop offset=".1" stop-color="#288CD9"/><stop offset=".75" stop-color="#3CC5EE"/></linearGradient><linearGradient id="ibe4469-d" x1="11.425" x2="13.04" y1="2.12" y2="8.135" gradientUnits="userSpaceOnUse"><stop stop-color="#A1ECFF" stop-opacity=".9"/><stop offset=".92" stop-color="#A1ECFF" stop-opacity="0"/></linearGradient></defs></svg>