<svg xmlns="http://www.w3.org/2000/svg" width="20" height="20" fill="currentColor"><path d="M10 8c3.314 0 6-1.343 6-3 0-1.656-2.686-3-6-3S4 3.344 4 5c0 1.657 2.686 3 6 3"/><path d="M14.69 8.016A5.5 5.5 0 0 0 16 7.121v1.69a4 4 0 0 0-4 6.52v2.499c-.626.11-1.299.17-2 .17-3.314 0-6-1.343-6-3V7.12c.383.363.84.662 1.31.896 1.252.626 2.912.985 4.69.985s3.438-.359 4.69-.985"/><path d="M18 12.684a3 3 0 1 1-6 0 3 3 0 0 1 6 0m-1 3.466a4 4 0 0 1-2 .534 4 4 0 0 1-2-.535v2.285a.25.25 0 0 0 .378.215L15 17.684l1.622.965a.25.25 0 0 0 .378-.215z"/></svg>