<svg xmlns="http://www.w3.org/2000/svg" width="20" height="20" fill="none"><path fill="url(#i334246-i3dc949-paint0_linear_64423_1160)" d="M2 4.5A2.5 2.5 0 0 1 4.5 2h11A2.5 2.5 0 0 1 18 4.5v11a2.5 2.5 0 0 1-2.5 2.5h-11A2.5 2.5 0 0 1 2 15.5z"/><path fill="url(#i334246-i3dc949-paint1_radial_64423_1160)" fill-opacity=".2" d="M2 4.5A2.5 2.5 0 0 1 4.5 2h11A2.5 2.5 0 0 1 18 4.5v11a2.5 2.5 0 0 1-2.5 2.5h-11A2.5 2.5 0 0 1 2 15.5z"/><path fill="url(#i334246-i3dc949-paint2_linear_64423_1160)" fill-rule="evenodd" d="M15.5 3h-11A1.5 1.5 0 0 0 3 4.5v11A1.5 1.5 0 0 0 4.5 17h11a1.5 1.5 0 0 0 1.5-1.5v-11A1.5 1.5 0 0 0 15.5 3m-11-1A2.5 2.5 0 0 0 2 4.5v11A2.5 2.5 0 0 0 4.5 18h11a2.5 2.5 0 0 0 2.5-2.5v-11A2.5 2.5 0 0 0 15.5 2z" clip-rule="evenodd"/><path fill="url(#i334246-i3dc949-paint3_linear_64423_1160)" d="M7.89 14.75a.34.34 0 0 1-.337-.39 6.125 6.125 0 0 1 6.056-5.235h.613c.42 0 .726-.25.726-.67l.035-.165v2.918a.83.83 0 0 1-.83.832h-.345a2.91 2.91 0 0 0-2.782 2.06l-.11.355a.42.42 0 0 1-.396.295z"/><path fill="url(#i334246-i3dc949-paint4_linear_64423_1160)" d="M7.89 14.75a.34.34 0 0 1-.337-.39 6.125 6.125 0 0 1 6.056-5.235h.613c.42 0 .726-.25.726-.67l.035-.165v2.918a.83.83 0 0 1-.83.832h-.345a2.91 2.91 0 0 0-2.782 2.06l-.11.355a.42.42 0 0 1-.396.295z"/><path fill="url(#i334246-i3dc949-paint5_linear_64423_1160)" d="M5.417 11.335A.42.42 0 0 1 5 10.917v-2.5c0-.23.187-.417.417-.417h7.485c.23 0 .417.188.417.417v2.5c0 .23-.187.418-.417.418z"/><path fill="url(#i334246-i3dc949-paint6_radial_64423_1160)" d="M5.417 11.335A.42.42 0 0 1 5 10.917v-2.5c0-.23.187-.417.417-.417h7.485c.23 0 .417.188.417.417v2.5c0 .23-.187.418-.417.418z"/><path fill="url(#i334246-i3dc949-paint7_linear_64423_1160)" d="M7.895 4.75a.346.346 0 0 0-.342.395 6.22 6.22 0 0 0 6.153 5.332h.516c.42 0 .759.34.759.76V8.292a.83.83 0 0 0-.831-.832h-.344a2.91 2.91 0 0 1-2.782-2.06l-.11-.355a.42.42 0 0 0-.397-.295z"/><path fill="url(#i334246-i3dc949-paint8_linear_64423_1160)" d="M14.15 7.458h-.344c-.592 0-1.15-.18-1.617-.495v3.325c.486.122.995.19 1.52.19h.516c.419 0 .758.34.758.76V8.293a.83.83 0 0 0-.83-.833z" opacity=".4"/><path fill="url(#i334246-i3dc949-paint9_linear_64423_1160)" d="M7.914 4.75a.346.346 0 0 0-.342.395 6.22 6.22 0 0 0 6.153 5.332h.516c.42 0 .759.34.759.76V8.292a.83.83 0 0 0-.831-.832h-.344a2.91 2.91 0 0 1-2.782-2.06l-.11-.355a.42.42 0 0 0-.397-.295z" opacity=".7"/><defs><linearGradient id="i334246-i3dc949-paint0_linear_64423_1160" x1="6.444" x2="8.468" y1="2" y2="18.192" gradientUnits="userSpaceOnUse"><stop stop-color="#fff"/><stop offset="1" stop-color="#EBEBEB"/></linearGradient><radialGradient id="i334246-i3dc949-paint1_radial_64423_1160" cx="0" cy="0" r="1" gradientTransform="matrix(8.44444 12.6667 -12.6667 4.75 7.111 6.167)" gradientUnits="userSpaceOnUse"><stop offset=".177" stop-color="#fff"/><stop offset="1" stop-color="#B8B8B8"/></radialGradient><linearGradient id="i334246-i3dc949-paint2_linear_64423_1160" x1="7.167" x2="9.321" y1="2" y2="18.157" gradientUnits="userSpaceOnUse"><stop stop-color="#BBB"/><stop offset="1" stop-color="#888"/></linearGradient><linearGradient id="i334246-i3dc949-paint3_linear_64423_1160" x1="8.137" x2="15.039" y1="15.24" y2="8.351" gradientUnits="userSpaceOnUse"><stop offset=".26" stop-color="#0D7012"/><stop offset="1" stop-color="#085714"/></linearGradient><linearGradient id="i334246-i3dc949-paint4_linear_64423_1160" x1="18.354" x2="5.258" y1="10.278" y2="13.182" gradientUnits="userSpaceOnUse"><stop offset=".04" stop-color="#114A8A"/><stop offset="1" stop-color="#0C59A3" stop-opacity="0"/></linearGradient><linearGradient id="i334246-i3dc949-paint5_linear_64423_1160" x1="-.214" x2="13.062" y1="9.667" y2="9.667" gradientUnits="userSpaceOnUse"><stop stop-color="#107C10"/><stop offset=".96" stop-color="#56B50E"/></linearGradient><radialGradient id="i334246-i3dc949-paint6_radial_64423_1160" cx="0" cy="0" r="1" gradientTransform="matrix(1.40899 -2.11447 -5.38126 -3.60003 11.618 9.125)" gradientUnits="userSpaceOnUse"><stop stop-opacity=".3"/><stop offset="1" stop-opacity="0"/></radialGradient><linearGradient id="i334246-i3dc949-paint7_linear_64423_1160" x1="15.457" x2="8.993" y1="13.165" y2="3.95" gradientUnits="userSpaceOnUse"><stop offset=".04" stop-color="#33980F"/><stop offset="1" stop-color="#BAE884"/></linearGradient><linearGradient id="i334246-i3dc949-paint8_linear_64423_1160" x1="13.449" x2="14.951" y1="9.1" y2="9.1" gradientUnits="userSpaceOnUse"><stop stop-color="#E5FAC1" stop-opacity="0"/><stop offset=".56" stop-color="#E5FAC1" stop-opacity=".52"/><stop offset="1" stop-color="#E5FAC1"/></linearGradient><linearGradient id="i334246-i3dc949-paint9_linear_64423_1160" x1="7.235" x2="11.134" y1=".023" y2="6.758" gradientUnits="userSpaceOnUse"><stop offset=".14" stop-color="#FDE100"/><stop offset=".98" stop-color="#FFC600" stop-opacity="0"/></linearGradient></defs></svg>