<svg xmlns="http://www.w3.org/2000/svg" width="20" height="20" fill="currentColor"><path d="M10 8c3.314 0 6-1.343 6-3s-2.686-3-6-3-6 1.343-6 3 2.686 3 6 3"/><path d="M14.69 8.016c.47-.235.927-.534 1.31-.896v2.087a5.5 5.5 0 0 0-5.745 8.79L10 18c-3.314 0-6-1.343-6-3V7.12c.383.362.84.661 1.31.896C6.562 8.642 8.222 9 10 9s3.438-.358 4.69-.984"/><path d="M10 14.5a4.5 4.5 0 1 0 9 0 4.5 4.5 0 0 0-9 0m6.5-3a.5.5 0 0 1 .5.5v1.5a.5.5 0 0 1-.5.5H15a.5.5 0 0 1 0-1h.468a2 2 0 0 0-2.383.336.5.5 0 0 1-.706-.707A3 3 0 0 1 16 12.152V12a.5.5 0 0 1 .5-.5m-.876 5.532A3 3 0 0 1 13 16.848V17a.5.5 0 0 1-1 0v-1.5a.5.5 0 0 1 .5-.5H14a.5.5 0 0 1 0 1h-.468a2 2 0 0 0 2.383-.336.5.5 0 0 1 .706.707c-.284.285-.624.51-.997.66Z"/></svg>