<svg xmlns="http://www.w3.org/2000/svg" width="20" height="20" fill="currentColor"><path d="M10 8c3.314 0 6-1.343 6-3s-2.686-3-6-3-6 1.343-6 3 2.686 3 6 3m-2 9q0 .435.09.845C5.711 17.445 4 16.323 4 15V7.12c.383.362.84.661 1.31.896 1.103.551 2.523.895 4.061.969A4 4 0 0 0 8 12z"/><path d="M9 12a3 3 0 0 1 3-3h5a3 3 0 0 1 3 3v5a3 3 0 0 1-3 3h-5a3 3 0 0 1-3-3zm3-2a2 2 0 0 0-2 2h2zm1 0v2h3v-2zm4 0v2h2a2 2 0 0 0-2-2m-1 3h-3v3h3zm3 0h-2v3h2zm-3 4h-3v2h3zm1 2a2 2 0 0 0 2-2h-2zm-5-6h-2v3h2zm0 4h-2a2 2 0 0 0 2 2z"/></svg>