<svg xmlns="http://www.w3.org/2000/svg" width="20" height="20" fill="currentColor"><path d="M10 8c3.314 0 6-1.343 6-3s-2.686-3-6-3-6 1.343-6 3 2.686 3 6 3"/><path d="M14.69 8.016c.47-.235.927-.534 1.31-.896v2.087a5.5 5.5 0 0 0-5.745 8.79L10 18c-3.314 0-6-1.343-6-3V7.12c.383.362.84.661 1.31.896C6.562 8.642 8.222 9 10 9s3.438-.358 4.69-.984"/><path d="M14.5 19a4.5 4.5 0 1 1 0-9 4.5 4.5 0 0 1 0 9m.896-6.396.897.896H14.75A2.75 2.75 0 0 0 12 16.25v.25a.5.5 0 0 0 1 0v-.25c0-.966.784-1.75 1.75-1.75h1.543l-.897.896a.5.5 0 0 0 .708.708l1.752-1.753a.5.5 0 0 0-.002-.705l-1.75-1.75a.5.5 0 0 0-.708.708"/></svg>