<svg xmlns="http://www.w3.org/2000/svg" width="20" height="20" fill="currentColor"><path d="M12.928 13.488c.526.32 1.126.497 1.741.513a2.56 2.56 0 0 0 2.668-2.428 2.22 2.22 0 0 0-.873-1.7 2.23 2.23 0 0 0 .873-1.7 2.56 2.56 0 0 0-2.669-2.426 3.5 3.5 0 0 0-1.74.512 5 5 0 0 0-.5.34l-.2.173a.728.728 0 0 0 .212 1.198q.137.06.287.062a.74.74 0 0 0 .517-.214l.086-.071q.16-.125.334-.228a2.1 2.1 0 0 1 1-.312 1.11 1.11 0 0 1 1.214.97.84.84 0 0 1-.4.618 1.83 1.83 0 0 1-1.058.353.728.728 0 0 0 0 1.456c.381.005.75.128 1.058.353a.84.84 0 0 1 .4.618 1.11 1.11 0 0 1-1.214.97 2.1 2.1 0 0 1-1-.313 3 3 0 0 1-.335-.228l-.1-.084a.728.728 0 0 0-1.229.547.78.78 0 0 0 .285.564l.143.118q.238.188.5.339m-5.43-5.426a.75.75 0 0 1-1.496-.11v-.008l.001-.01a1 1 0 0 1 .013-.108 2.5 2.5 0 0 1 .374-.983c.378-.582 1.074-1.091 2.21-1.091.92 0 1.718.314 2.215.995.481.659.573 1.515.424 2.382a2.27 2.27 0 0 1-1.09 1.618c-.347.215-.78.372-1.123.497l-.27.1c-.417.163-.7.32-.896.557-.107.13-.213.316-.282.601H10.5a.75.75 0 0 1 0 1.5H6.75a.75.75 0 0 1-.75-.75c0-1 .243-1.749.704-2.307.448-.541 1.031-.812 1.505-.998q.24-.092.43-.16c.296-.109.515-.189.72-.315a.78.78 0 0 0 .402-.597c.109-.633 0-1.027-.157-1.243-.142-.194-.424-.38-1.004-.38-.614 0-.843.24-.952.409a1 1 0 0 0-.15.402Z"/><path d="M6.002 7.953V7.95l-.01.156.01-.154ZM5 6.751a.75.75 0 0 0-1.385-.398l-.048.075c-.214.342-.36.575-.575.812-.225.247-.547.52-1.128.868a.75.75 0 0 0 .772 1.286c.34-.204.623-.397.864-.588v4.445a.75.75 0 0 0 1.5 0z"/></svg>