<svg xmlns="http://www.w3.org/2000/svg" width="20" height="20" fill="currentColor"><path d="M7.998 8.062a.75.75 0 0 1-1.496-.11v-.008l.001-.01a1 1 0 0 1 .013-.108 2.5 2.5 0 0 1 .374-.983c.378-.582 1.074-1.091 2.21-1.091.92 0 1.718.314 2.215.995.481.659.573 1.515.424 2.382a2.27 2.27 0 0 1-1.09 1.618c-.347.215-.78.372-1.123.497l-.27.1c-.417.163-.7.32-.896.557-.107.13-.213.316-.282.601H11a.75.75 0 0 1 0 1.5H7.25a.75.75 0 0 1-.75-.75c0-1 .243-1.749.704-2.307.448-.541 1.031-.812 1.505-.998q.24-.092.43-.16c.296-.109.515-.189.72-.315a.78.78 0 0 0 .402-.597c.109-.633 0-1.027-.157-1.243-.142-.194-.424-.38-1.004-.38-.614 0-.843.24-.952.409a1 1 0 0 0-.15.397v.005Z"/><path d="M6.502 7.953V7.95l-.01.156.01-.154ZM5.5 6.751a.75.75 0 0 0-1.385-.398l-.048.075c-.214.342-.36.575-.575.812-.225.247-.547.52-1.128.868a.75.75 0 1 0 .772 1.286c.34-.204.623-.397.864-.588v4.445a.75.75 0 0 0 1.5 0zm9.857 2.445c-1.067-.387-1.514-.615-1.514-1.015 0-.922 1.04-.968 1.25-.968s1.25.046 1.25.968c0 .194.078.377.22.513a.79.79 0 0 0 1.06 0 .7.7 0 0 0 .22-.515 2.36 2.36 0 0 0-.223-.985 2.51 2.51 0 0 0-1.514-1.32 2.5 2.5 0 0 0-.987-.112 2.6 2.6 0 0 0-1.035.112 2.5 2.5 0 0 0-1.515 1.32 2.35 2.35 0 0 0-.224.987c0 1.473 1.434 1.993 2.486 2.374 1.067.387 1.514.615 1.514 1.015 0 .921-1.041.968-1.25.968s-1.25-.047-1.25-.968a.7.7 0 0 0-.22-.513.787.787 0 0 0-1.061 0 .7.7 0 0 0-.22.515c.003.342.078.674.224.985q.22.472.614.814a2.58 2.58 0 0 0 1.673.63q.11 0 .214-.012a2.6 2.6 0 0 0 1.936-.617 2.44 2.44 0 0 0 .838-1.8v-.002c0-1.473-1.434-1.993-2.486-2.374"/></svg>