<svg xmlns="http://www.w3.org/2000/svg" width="20" height="20" fill="currentColor"><path fill-rule="evenodd" d="m17.755 7.184-7.411-4.58a.66.66 0 0 0-.656-.011A8030 8030 0 0 1 2.32 7.137a.67.67 0 0 0-.316.567v1.579l5.12-3.162a1.67 1.67 0 0 1 1.758.004l5.313 3.28c.488.293.805.825.805 1.426v5.156a1.498 1.498 0 0 0 2.996 0h.002L18 7.7a.66.66 0 0 0-.245-.516M2.004 12.413v-1.654a.67.67 0 0 1 .32-.499l5.324-3.287a.67.67 0 0 1 .704 0l5.324 3.287a.66.66 0 0 1 .324.571v5.156c0 .564.188 1.084.503 1.502H12v-.004a1 1 0 0 1-1-.997v-2.53c0-.6-.32-1.129-.799-1.42l-3.318-2.047a1.67 1.67 0 0 0-1.758-.004zM10 16.488c0 .363.097.704.267.997l.002.004H4.031L4 17.485a1.995 1.995 0 0 1-1.996-1.993V13.89a.68.68 0 0 1 .312-.495l3.332-2.056a.67.67 0 0 1 .704 0S8.168 12.46 9.68 13.39c.192.116.32.328.32.568z" clip-rule="evenodd"/></svg>