<svg xmlns="http://www.w3.org/2000/svg" width="24" height="24" fill="currentColor"><path fill="url(#iafc145-a)" d="M2.043 3.576A1.252 1.252 0 0 1 3.25 2h12.917C19.388 2 22 3.493 22 5.333v.624l-1.308 9.376H6.726a1.25 1.25 0 0 1-1.188-.86L2.062 3.64A1.25 1.25 0 0 1 3.25 2"/><path fill="url(#iafc145-b)" d="M11.299 18.667h7.313l.055-3.46V7.036c0-.94-1.333-1.702-2.977-1.702H7.822a1.25 1.25 0 0 0-1.191 1.628L10.108 17.8a1.25 1.25 0 0 0 1.19.868Z"/><path fill="url(#iafc145-c)" d="m18.636 17.145.03-1.937V7.035c0-.94-1.332-1.702-2.977-1.702H7.822a1.25 1.25 0 0 0-1.191 1.628l3.267 10.183h8.738Z"/><path fill="url(#iafc145-d)" d="M14.676 21.124c.16.508.633.876 1.193.876h.298C19.388 22 22 20.508 22 18.667V5.333c0 1.841-2.611 3.334-5.833 3.334h-3.774a1.25 1.25 0 0 0-1.19 1.633z"/><path fill="url(#iafc145-e)" d="M5.28 13.667h15.644L22 5.957v-.624C22 3.493 19.388 2 16.167 2H3.25C2.56 2 2 2.56 2 3.25c0 .102.016.2.039.294q.001.015.004.032l.003-.004c.006.023.009.046.017.068l3.216 10.027Z"/><defs><linearGradient id="iafc145-a" x1="1.275" x2="21.777" y1="5.789" y2="11.283" gradientUnits="userSpaceOnUse"><stop stop-color="#D594F0"/><stop offset=".585" stop-color="#524BB5"/><stop offset=".826" stop-color="#0B3B7F"/><stop offset="1" stop-color="#002561"/></linearGradient><linearGradient id="iafc145-b" x1="5.657" x2="19.952" y1="9.833" y2="13.664" gradientUnits="userSpaceOnUse"><stop stop-color="#CFB6FB"/><stop offset=".257" stop-color="#B897F2"/><stop offset=".811" stop-color="#2F65DA"/></linearGradient><linearGradient id="iafc145-c" x1="12.619" x2="12.619" y1="5.333" y2="17.145" gradientUnits="userSpaceOnUse"><stop stop-color="#CFB6FB" stop-opacity=".25"/><stop offset=".15" stop-color="#CFB6FB" stop-opacity="0"/></linearGradient><linearGradient id="iafc145-d" x1="10.766" x2="23.347" y1="10.734" y2="15.313" gradientUnits="userSpaceOnUse"><stop offset=".059" stop-color="#EFCEFD"/><stop offset=".462" stop-color="#CFB6FB"/><stop offset=".673" stop-color="#B5A5F4"/><stop offset="1" stop-color="#8787E8"/></linearGradient><linearGradient id="iafc145-e" x1="12" x2="12" y1="2" y2="13.667" gradientUnits="userSpaceOnUse"><stop stop-color="#D594F0" stop-opacity=".2"/><stop offset=".457" stop-color="#D594F0" stop-opacity="0"/></linearGradient></defs></svg>