<svg xmlns="http://www.w3.org/2000/svg" width="20" height="20" fill="currentColor"><path d="M10 8c3.314 0 6-1.343 6-3 0-1.656-2.686-3-6-3S4 3.344 4 5c0 1.657 2.686 3 6 3"/><path d="M14.69 8.016A5.5 5.5 0 0 0 16 7.121v2.996a1.52 1.52 0 0 0-1.879.796l-.345.8a1.5 1.5 0 0 0-2.776.788v5.458q-.489.04-1 .041c-3.314 0-6-1.343-6-3V7.12c.383.363.84.662 1.31.896 1.252.626 2.912.985 4.69.985s3.438-.359 4.69-.985"/><path d="M12.146 18.854A.5.5 0 0 0 12.5 19h6a.5.5 0 0 0 .5-.5v-6a.5.5 0 0 0-.923-.257l-1 1.662-1.114-2.6a.522.522 0 0 0-.92 0l-1.114 2.6-1-1.662a.5.5 0 0 0-.929.258v6a.5.5 0 0 0 .146.353M18 14.306V18h-5v-3.694l.571.953a.48.48 0 0 0 .463.242.5.5 0 0 0 .426-.3l1.04-2.43 1.04 2.426a.5.5 0 0 0 .889.06z"/></svg>