<svg xmlns="http://www.w3.org/2000/svg" width="24" height="24" fill="currentColor"><path fill="url(#i7b0191-a)" d="M1 6a3 3 0 0 1 3-3h16a3 3 0 0 1 3 3v12a3 3 0 0 1-3 3H4a3 3 0 0 1-3-3z"/><path fill="url(#i7b0191-b)" fill-opacity=".2" d="M1 6a3 3 0 0 1 3-3h16a3 3 0 0 1 3 3v12a3 3 0 0 1-3 3H4a3 3 0 0 1-3-3z"/><path fill="url(#i7b0191-c)" fill-rule="evenodd" d="M20 4H4a2 2 0 0 0-2 2v12a2 2 0 0 0 2 2h16a2 2 0 0 0 2-2V6a2 2 0 0 0-2-2M4 3a3 3 0 0 0-3 3v12a3 3 0 0 0 3 3h16a3 3 0 0 0 3-3V6a3 3 0 0 0-3-3z" clip-rule="evenodd"/><path fill="url(#i7b0191-d)" d="M10 14a1 1 0 1 1-2 0 1 1 0 0 1 2 0"/><path fill="url(#i7b0191-e)" d="M13 14a1 1 0 1 1-2 0 1 1 0 0 1 2 0"/><path fill="url(#i7b0191-f)" d="M16 14a1 1 0 1 1-2 0 1 1 0 0 1 2 0"/><path fill="url(#i7b0191-g)" fill-rule="evenodd" d="M7.805 6c-.292 0-.57.12-.764.331l-2.775 3C3.67 9.975 4.14 11 5.03 11H6v5a2 2 0 0 0 2 2h8a2 2 0 0 0 2-2v-5h.97c.89 0 1.36-1.025.764-1.669l-2.775-3A1.04 1.04 0 0 0 16.195 6zM7 11h10v5a1 1 0 0 1-1 1H8a1 1 0 0 1-1-1z" clip-rule="evenodd"/><defs><linearGradient id="i7b0191-a" x1="7.111" x2="8.984" y1="3" y2="21.308" gradientUnits="userSpaceOnUse"><stop stop-color="#fff"/><stop offset="1" stop-color="#EBEBEB"/></linearGradient><linearGradient id="i7b0191-c" x1="8.104" x2="10.099" y1="3" y2="21.282" gradientUnits="userSpaceOnUse"><stop stop-color="#BBB"/><stop offset="1" stop-color="#888"/></linearGradient><linearGradient id="i7b0191-d" x1="4" x2="15.52" y1="6" y2="21.36" gradientUnits="userSpaceOnUse"><stop stop-color="#7751B8"/><stop offset="1" stop-color="#5A409C"/></linearGradient><linearGradient id="i7b0191-e" x1="4" x2="15.52" y1="6" y2="21.36" gradientUnits="userSpaceOnUse"><stop stop-color="#7751B8"/><stop offset="1" stop-color="#5A409C"/></linearGradient><linearGradient id="i7b0191-f" x1="4" x2="15.52" y1="6" y2="21.36" gradientUnits="userSpaceOnUse"><stop stop-color="#7751B8"/><stop offset="1" stop-color="#5A409C"/></linearGradient><linearGradient id="i7b0191-g" x1="4" x2="15.52" y1="6" y2="21.36" gradientUnits="userSpaceOnUse"><stop stop-color="#7751B8"/><stop offset="1" stop-color="#5A409C"/></linearGradient><radialGradient id="i7b0191-b" cx="0" cy="0" r="1" gradientTransform="matrix(11.6111 14.24997 -13.08402 10.66107 8.028 7.688)" gradientUnits="userSpaceOnUse"><stop offset=".177" stop-color="#fff"/><stop offset="1" stop-color="#B8B8B8"/></radialGradient></defs></svg>