<svg xmlns="http://www.w3.org/2000/svg" width="20" height="20" fill="currentColor"><path fill="#767676" fill-rule="evenodd" d="M16.099 7.068c.673-.994 1.9-.32 1.9.74v4.357c-.02.374-.18.741-.454 1.001l-3.92 3.91c-.3.3-.726.427-1.133.347 0 0-11.598-2.448-5.62-3.95 5.98-1.501 9.227-6.398 9.227-6.398z" clip-rule="evenodd"/><path fill="url(#i733821-a)" fill-rule="evenodd" d="M16.099 7.068c.673-.994 1.9-.32 1.9.74v4.357c-.02.374-.18.741-.454 1.001l-3.92 3.91c-.3.3-.726.427-1.133.347 0 0-11.598-2.448-5.62-3.95 5.98-1.501 9.227-6.398 9.227-6.398z" clip-rule="evenodd"/><path fill="url(#i733821-b)" fill-rule="evenodd" d="M16.099 7.068c.673-.994 1.9-.32 1.9.74v4.357c-.02.374-.18.741-.454 1.001l-3.92 3.91c-.3.3-.726.427-1.133.347 0 0-11.598-2.448-5.62-3.95 5.98-1.501 9.227-6.398 9.227-6.398z" clip-rule="evenodd"/><path fill="#4F1A1A" fill-rule="evenodd" d="m14.552 16.161 2.68-2.669c-.787.794-2.853.808-4.766-.14-1.28-.633-2.16-1.848-2.947-3.075l-4.313-6.84-2.8 2.876c-.233.247-.393.58-.406.941l.013 5.531c-.013.374.12.734.367 1.001l3.553 3.817c.247.26.58.407.927.407h5.312c.327 0 .647-.14.887-.38z" clip-rule="evenodd"/><path fill="url(#i733821-c)" fill-rule="evenodd" d="m14.552 16.161 2.68-2.669c-.787.794-2.853.808-4.766-.14-1.28-.633-2.16-1.848-2.947-3.075l-4.313-6.84-2.8 2.876c-.233.247-.393.58-.406.941l.013 5.531c-.013.374.12.734.367 1.001l3.553 3.817c.247.26.58.407.927.407h5.312c.327 0 .647-.14.887-.38z" clip-rule="evenodd"/><path fill="url(#i733821-d)" fill-rule="evenodd" d="m14.552 16.161 2.68-2.669c-.787.794-2.853.808-4.766-.14-1.28-.633-2.16-1.848-2.947-3.075l-4.313-6.84-2.8 2.876c-.233.247-.393.58-.406.941l.013 5.531c-.013.374.12.734.367 1.001l3.553 3.817c.247.26.58.407.927.407h5.312c.327 0 .647-.14.887-.38z" clip-rule="evenodd"/><path fill="url(#i733821-e)" fill-rule="evenodd" d="m14.552 16.161 2.68-2.669c-.787.794-2.853.808-4.766-.14-1.28-.633-2.16-1.848-2.947-3.075l-4.313-6.84-2.8 2.876c-.233.247-.393.58-.406.941l.013 5.531c-.013.374.12.734.367 1.001l3.553 3.817c.247.26.58.407.927.407h5.312c.327 0 .647-.14.887-.38z" clip-rule="evenodd"/><path fill="#585858" fill-rule="evenodd" d="M4.506 12.352c1.154-2.229 1.527-1.642 5.753-4.964 1.967-1.542 3.1-3.363 3.66-4.437a.638.638 0 0 0-.574-.941H7.12c-.34 0-.666.14-.913.387l-3.82 3.936c-.246.26-.386.6-.386.968v5.518c0 .353.133.687.367.94l3.073 3.297s-2.173-2.329-.94-4.704z" clip-rule="evenodd"/><path fill="url(#i733821-f)" fill-rule="evenodd" d="M4.506 12.352c1.154-2.229 1.527-1.642 5.753-4.964 1.967-1.542 3.1-3.363 3.66-4.437a.638.638 0 0 0-.574-.941H7.12c-.34 0-.666.14-.913.387l-3.82 3.936c-.246.26-.386.6-.386.968v5.518c0 .353.133.687.367.94l3.073 3.297s-2.173-2.329-.94-4.704z" clip-rule="evenodd"/><path fill="url(#i733821-g)" fill-rule="evenodd" d="M4.506 12.352c1.154-2.229 1.527-1.642 5.753-4.964 1.967-1.542 3.1-3.363 3.66-4.437a.638.638 0 0 0-.574-.941H7.12c-.34 0-.666.14-.913.387l-3.82 3.936c-.246.26-.386.6-.386.968v5.518c0 .353.133.687.367.94l3.073 3.297s-2.173-2.329-.94-4.704z" clip-rule="evenodd"/><path fill="url(#i733821-h)" fill-rule="evenodd" d="M4.506 12.352c1.154-2.229 1.527-1.642 5.753-4.964 1.967-1.542 3.1-3.363 3.66-4.437a.638.638 0 0 0-.574-.941H7.12c-.34 0-.666.14-.913.387l-3.82 3.936c-.246.26-.386.6-.386.968v5.518c0 .353.133.687.367.94l3.073 3.297s-2.173-2.329-.94-4.704z" clip-rule="evenodd"/><defs><linearGradient id="i733821-a" x1="12.979" x2="17.69" y1="11.979" y2="6.866" gradientUnits="userSpaceOnUse"><stop stop-color="#114A85"/><stop offset=".8" stop-color="#028EDB"/></linearGradient><linearGradient id="i733821-b" x1="11.832" x2="18.16" y1="13.033" y2="2.743" gradientUnits="userSpaceOnUse"><stop stop-color="#114A85"/><stop offset=".67" stop-color="#028EDB"/></linearGradient><linearGradient id="i733821-c" x1="5.173" x2="13.566" y1="10.717" y2="10.777" gradientUnits="userSpaceOnUse"><stop offset=".07" stop-color="#0669B6"/><stop offset=".26" stop-color="#0E7FCB"/><stop offset=".54" stop-color="#148DD9"/><stop offset=".95" stop-color="#3CC5EE"/></linearGradient><linearGradient id="i733821-d" x1="4.413" x2="13.986" y1="11.351" y2="9.965" gradientUnits="userSpaceOnUse"><stop offset=".31" stop-color="#0094E5"/><stop offset="1" stop-color="#40D8F9"/></linearGradient><linearGradient id="i733821-e" x1="4.32" x2="13.6" y1="10.243" y2="13.001" gradientUnits="userSpaceOnUse"><stop offset=".09" stop-opacity=".2"/><stop offset=".55" stop-opacity="0"/></linearGradient><linearGradient id="i733821-f" x1="12.306" x2="4.142" y1="5.346" y2="10.837" gradientUnits="userSpaceOnUse"><stop stop-color="#BDF5FF"/><stop offset="1" stop-color="#40D9FA"/></linearGradient><linearGradient id="i733821-g" x1="1.467" x2="9.904" y1="12.612" y2="7.008" gradientUnits="userSpaceOnUse"><stop stop-color="#3CC5EE"/><stop offset="1" stop-color="#50E0FF"/></linearGradient><linearGradient id="i733821-h" x1="5.78" x2="8.947" y1="7.654" y2="9.267" gradientUnits="userSpaceOnUse"><stop stop-color="#A1ECFF" stop-opacity="0"/><stop offset=".9" stop-color="#A1ECFF" stop-opacity=".9"/></linearGradient></defs></svg>