<svg xmlns="http://www.w3.org/2000/svg" width="20" height="20" fill="currentColor"><path d="M13.363 10.937a2.5 2.5 0 0 0-.713-1.062 2.5 2.5 0 0 0-1.894-4.124H8.5a.75.75 0 0 0-.75.75v7a.75.75 0 0 0 .75.75H11c.536 0 1.049-.168 1.481-.486s.745-.757.904-1.27a2.5 2.5 0 0 0-.022-1.558M9.25 9.251v-2h1.499c.264 0 .521.108.708.294s.292.442.293.706a1 1 0 0 1-1 1zm1.75 3.5H9.25v-2H11a1.003 1.003 0 0 1 1 1 1.003 1.003 0 0 1-1 1m4.866-5.134A1.25 1.25 0 0 1 18 8.501a.75.75 0 0 0 1.5 0 2.75 2.75 0 1 0-5.5 0v3a2.75 2.75 0 1 0 5.5 0 .75.75 0 0 0-1.5 0 1.25 1.25 0 0 1-2.5 0v-3c0-.332.132-.65.366-.884M1.06 14.205a.76.76 0 0 0 .573-.027.75.75 0 0 0 .386-.427l.447-1.25H5.16l.446 1.249a.75.75 0 0 0 .387.429.8.8 0 0 0 .28.07.75.75 0 0 0 .719-.429.76.76 0 0 0 .026-.571L4.52 6.25a.75.75 0 0 0-1.413-.001l-2.5 6.999a.75.75 0 0 0 .453.959zm3.564-3.204H3.002l.811-2.271z"/></svg>