<svg xmlns="http://www.w3.org/2000/svg" width="24" height="24" fill="currentColor"><path fill="url(#i7bae49-a)" d="M19.5 21.356c1.38 0 2.5-1.118 2.5-2.496V9.125a.82.82 0 0 0-.39-.704c-1.97-1.218-6.86-4.234-9.18-5.667a.84.84 0 0 0-.87.015A7615 7615 0 0 1 2.4 8.421a.84.84 0 0 0-.395.709v9.735a2.5 2.5 0 0 0 2.5 2.496h15z"/><path fill="url(#i7bae49-b)" d="M2 13.273v5.586a2.5 2.5 0 0 0 2.5 2.496h15c1.38 0 2.5-1.118 2.5-2.496v-5.587z"/><path fill="url(#i7bae49-c)" d="M4.5 21.356A2.5 2.5 0 0 1 2 18.859v-5.82c0-.305.165-.57.405-.715L9.06 8.216a.84.84 0 0 1 .88 0l6.655 4.108c.245.145.405.41.405.714v5.821a2.5 2.5 0 0 0 2.5 2.497z"/><path fill="url(#i7bae49-d)" d="M4.5 21.356A2.5 2.5 0 0 1 2 18.859v-5.82c0-.305.165-.57.405-.715L9.06 8.216a.84.84 0 0 1 .88 0l6.655 4.108c.245.145.405.41.405.714v5.821a2.5 2.5 0 0 0 2.5 2.497z"/><path fill="url(#i7bae49-e)" d="M17 18.859v-5.587H2v5.587a2.5 2.5 0 0 0 2.5 2.496h15c-1.38 0-2.5-1.118-2.5-2.496"/><path fill="url(#i7bae49-f)" d="M4.5 21.356c-1.38 0-2.5-1.118-2.5-2.496v-1.907c0-.3.16-.56.395-.71l4.165-2.57a.84.84 0 0 1 .88 0s2.27 1.403 4.16 2.566c.24.145.4.41.4.709v1.912a2.5 2.5 0 0 0 2.5 2.496z"/><path fill="url(#i7bae49-g)" d="M12.415 20.238A2.5 2.5 0 0 1 12 18.865v-1.912a.83.83 0 0 0-.4-.71l-4.16-2.565a.84.84 0 0 0-.88 0l-4.165 2.57a.84.84 0 0 0-.395.71v1.907c0 .509.155.983.415 1.378h10z"/><defs><linearGradient id="i7bae49-a" x1="12" x2="12" y1="21.356" y2="2.635" gradientUnits="userSpaceOnUse"><stop stop-color="#114A85"/><stop offset=".67" stop-color="#028EDB"/></linearGradient><linearGradient id="i7bae49-b" x1="12" x2="12" y1="22.214" y2="14.131" gradientUnits="userSpaceOnUse"><stop stop-opacity=".2"/><stop offset=".55" stop-opacity="0"/></linearGradient><linearGradient id="i7bae49-c" x1="10.75" x2="10.75" y1="21.356" y2="8.091" gradientUnits="userSpaceOnUse"><stop offset=".31" stop-color="#0094E5"/><stop offset="1" stop-color="#40D8F9"/></linearGradient><linearGradient id="i7bae49-e" x1="10.75" x2="10.75" y1="21.355" y2="13.273" gradientUnits="userSpaceOnUse"><stop offset=".09" stop-opacity=".2"/><stop offset=".55" stop-opacity="0"/></linearGradient><linearGradient id="i7bae49-f" x1="8.25" x2="8.25" y1="21.361" y2="13.548" gradientUnits="userSpaceOnUse"><stop stop-color="#3CC5EE"/><stop offset="1" stop-color="#50E0FF"/></linearGradient><linearGradient id="i7bae49-g" x1="7.205" x2="7.205" y1="19.034" y2="12.345" gradientUnits="userSpaceOnUse"><stop stop-color="#A1ECFF" stop-opacity="0"/><stop offset=".9" stop-color="#A1ECFF" stop-opacity=".9"/></linearGradient><radialGradient id="i7bae49-d" cx="0" cy="0" r="1" gradientTransform="matrix(7.34497 0 0 7.33385 7.39 19.628)" gradientUnits="userSpaceOnUse"><stop stop-opacity=".3"/><stop offset="1" stop-opacity="0"/></radialGradient></defs></svg>