<svg xmlns="http://www.w3.org/2000/svg" width="20" height="20" fill="currentColor"><path fill-rule="evenodd" d="m8.7 18.003.279-.466 4.156-6.942 3.086-5.154a.7.7 0 0 0 .093-.357.69.69 0 0 0-.386-.632l-5.62-2.382a.84.84 0 0 0-.666-.004L4.312 4.25 9.34 6.745c.319.18.544.517.544.932a1.1 1.1 0 0 1-.233.673l-2.428 2.72-3.476 3.892a.73.73 0 0 0 .053.965.6.6 0 0 0 .176.123zm2.15-.034 5.356-2.256a.6.6 0 0 0 .178-.124.73.73 0 0 0 .053-.97l-2.628-3.203-3.512 5.866a.49.49 0 0 0 .053.566.45.45 0 0 0 .498.12h.002ZM3.976 5.549q.001-.172.07-.313l4.312 2.138a.544.544 0 0 1 .098.812l-1.778 1.992-2.607-4.27a.7.7 0 0 1-.095-.359" clip-rule="evenodd"/></svg>