<svg xmlns="http://www.w3.org/2000/svg" width="20" height="20" fill="currentColor"><path d="M5.704 5.969a1 1 0 0 1 .953-1.302h6.294c1.315 0 2.382.766 2.382 1.954v.998C16.411 7.043 17 6.172 17 5.167 17 3.391 15.108 2 11.856 2H3a1 1 0 0 0-1 1c0 .081.007.161.031.235.031.098 1.853 5.794 2.8 8.744a1 1 0 0 0 .95.688h2.073z"/><path d="M12 9.333h-.316l2.558 7.962c.198.617.871.779 1.216.677C17.168 17.467 18 16.55 18 15.334V5.167c0 2.074-1.855 4.166-6 4.166"/><path d="M12 8.333h-.317a1 1 0 0 0-.952 1.307l.775 2.414 1.052 3.279h-2.07a1 1 0 0 1-.95-.688l-2.88-8.979h6.293c.666 0 1.382.299 1.382.954v1.403a8.3 8.3 0 0 1-2.333.31"/></svg>