<svg xmlns="http://www.w3.org/2000/svg" width="24" height="24" fill="currentColor"><path fill="url(#i480c54-a)" d="M3 4a3 3 0 0 1 3-3h12a3 3 0 0 1 3 3v16a3 3 0 0 1-3 3H6a3 3 0 0 1-3-3z"/><path fill="url(#i480c54-b)" fill-opacity=".2" d="M3 4a3 3 0 0 1 3-3h12a3 3 0 0 1 3 3v16a3 3 0 0 1-3 3H6a3 3 0 0 1-3-3z"/><path fill="url(#i480c54-c)" fill-rule="evenodd" d="M18 2H6a2 2 0 0 0-2 2v16a2 2 0 0 0 2 2h12a2 2 0 0 0 2-2V4a2 2 0 0 0-2-2M6 1a3 3 0 0 0-3 3v16a3 3 0 0 0 3 3h12a3 3 0 0 0 3-3V4a3 3 0 0 0-3-3z" clip-rule="evenodd"/><path fill="url(#i480c54-d)" d="M11.492 18H16a2 2 0 0 0 2-2v-4.21a2 2 0 0 0-.662-1.486l-4-3.6a2 2 0 0 0-2.675 0l-4 3.6A2 2 0 0 0 6 11.791V16a2 2 0 0 0 2 2h4.508"/><path fill="#B4CDF8" d="M9 12.75a.75.75 0 1 0 0-1.5.75.75 0 0 0 0 1.5m3.75-.75a.75.75 0 1 1-1.5 0 .75.75 0 0 1 1.5 0m3 0a.75.75 0 1 1-1.5 0 .75.75 0 0 1 1.5 0m-3 3a.75.75 0 1 1-1.5 0 .75.75 0 0 1 1.5 0m2.25.75a.75.75 0 1 0 0-1.5.75.75 0 0 0 0 1.5M9.75 15a.75.75 0 1 1-1.5 0 .75.75 0 0 1 1.5 0"/><defs><linearGradient id="i480c54-a" x1="8" x2="11.376" y1="1" y2="23.095" gradientUnits="userSpaceOnUse"><stop stop-color="#fff"/><stop offset="1" stop-color="#EBEBEB"/></linearGradient><linearGradient id="i480c54-c" x1="8.813" x2="12.402" y1="1" y2="23.026" gradientUnits="userSpaceOnUse"><stop stop-color="#BBB"/><stop offset="1" stop-color="#888"/></linearGradient><linearGradient id="i480c54-d" x1="6" x2="18.49" y1="5.5" y2="17.49" gradientUnits="userSpaceOnUse"><stop stop-color="#3477EA"/><stop offset="1" stop-color="#1D53A4"/></linearGradient><radialGradient id="i480c54-b" cx="0" cy="0" r="1" gradientTransform="matrix(9.5 17.41665 -13.72809 7.48806 8.75 6.73)" gradientUnits="userSpaceOnUse"><stop offset=".177" stop-color="#fff"/><stop offset="1" stop-color="#B8B8B8"/></radialGradient></defs></svg>