<svg xmlns="http://www.w3.org/2000/svg" width="20" height="20" fill="currentColor"><path d="M6.639 2.004c-.336 0-.596.3-.548.632a9.96 9.96 0 0 0 9.861 8.532h2.044V7.672c0-.736-.596-1.332-1.332-1.332h-.552a4.67 4.67 0 0 1-4.459-3.296l-.176-.568a.67.67 0 0 0-.635-.472z"/><path d="M6.861 7.336H2.566c-.312 0-.566.3-.566.668v4c0 .368.254.668.566.668h10.16c.313 0 .566-.3.566-.668v-.162a10.98 10.98 0 0 1-6.43-4.506Z"/><path d="M12.727 13.671c.996 0 1.547-.88 1.565-1.629q.814.125 1.66.125h2.044l.004-.004v.172c0 .736-.596 1.332-1.332 1.332h-.552a4.67 4.67 0 0 0-4.458 3.296l-.176.568a.67.67 0 0 1-.636.472H6.63a.546.546 0 0 1-.54-.624c.2-1.351.67-2.604 1.35-3.708h5.286Z"/></svg>