<svg xmlns="http://www.w3.org/2000/svg" width="20" height="20" fill="currentColor"><path fill="url(#ifb7a53-a)" d="M15.997 17.483a2 2 0 0 0 1.999-1.996V7.7a.66.66 0 0 0-.312-.563c-1.576-.974-5.487-3.386-7.342-4.531a.68.68 0 0 0-.696.012c-1.86 1.15-5.75 3.55-7.326 4.52a.67.67 0 0 0-.316.566v7.787c0 1.102.896 1.996 2 1.996H16z"/><path fill="url(#ifb7a53-b)" d="M2 11.018v4.468c0 1.102.896 1.996 2 1.996h11.996c1.104 0 2-.894 2-1.996v-4.468z"/><path fill="url(#ifb7a53-c)" d="M4 17.482c-1.104 0-2-.894-2-1.996V10.83c0-.244.132-.455.324-.57l5.323-3.287a.67.67 0 0 1 .703 0l5.323 3.286a.66.66 0 0 1 .324.571v4.656c0 1.102.896 1.996 2 1.996H3.998Z"/><path fill="url(#ifb7a53-d)" d="M4 17.482c-1.104 0-2-.894-2-1.996V10.83c0-.244.132-.455.324-.57l5.323-3.287a.67.67 0 0 1 .703 0l5.323 3.286a.66.66 0 0 1 .324.571v4.656c0 1.102.896 1.996 2 1.996H3.998Z"/><path fill="url(#ifb7a53-e)" d="M13.997 15.486v-4.468H2v4.468c0 1.102.896 1.996 2 1.996h11.996a2 2 0 0 1-2-1.996Z"/><path fill="url(#ifb7a53-f)" d="M4 17.483c-1.104 0-2-.894-2-1.996V13.96a.67.67 0 0 1 .316-.566l3.331-2.057a.67.67 0 0 1 .704 0s1.815 1.122 3.327 2.053a.66.66 0 0 1 .32.566v1.53c0 1.102.896 1.996 2 1.996h-8Z"/><path fill="url(#ifb7a53-g)" d="M10.33 16.589a2 2 0 0 1-.332-1.098v-1.53a.66.66 0 0 0-.32-.567c-1.512-.93-3.327-2.052-3.327-2.052a.67.67 0 0 0-.704 0l-3.331 2.056a.67.67 0 0 0-.316.567v1.526a2 2 0 0 0 .332 1.102h7.998z"/><defs><linearGradient id="ifb7a53-a" x1="9.998" x2="9.998" y1="17.483" y2="2.51" gradientUnits="userSpaceOnUse"><stop stop-color="#114A85"/><stop offset=".67" stop-color="#028EDB"/></linearGradient><linearGradient id="ifb7a53-b" x1="9.998" x2="9.998" y1="18.169" y2="11.704" gradientUnits="userSpaceOnUse"><stop stop-opacity=".2"/><stop offset=".55" stop-opacity="0"/></linearGradient><linearGradient id="ifb7a53-c" x1="8.998" x2="8.998" y1="17.482" y2="6.873" gradientUnits="userSpaceOnUse"><stop offset=".31" stop-color="#0094E5"/><stop offset="1" stop-color="#40D8F9"/></linearGradient><linearGradient id="ifb7a53-e" x1="8.998" x2="8.998" y1="17.482" y2="11.018" gradientUnits="userSpaceOnUse"><stop offset=".09" stop-opacity=".2"/><stop offset=".55" stop-opacity="0"/></linearGradient><linearGradient id="ifb7a53-f" x1="6.999" x2="6.999" y1="17.487" y2="11.238" gradientUnits="userSpaceOnUse"><stop stop-color="#3CC5EE"/><stop offset="1" stop-color="#50E0FF"/></linearGradient><linearGradient id="ifb7a53-g" x1="6.163" x2="6.163" y1="15.626" y2="10.276" gradientUnits="userSpaceOnUse"><stop stop-color="#A1ECFF" stop-opacity="0"/><stop offset=".9" stop-color="#A1ECFF" stop-opacity=".9"/></linearGradient><radialGradient id="ifb7a53-d" cx="0" cy="0" r="1" gradientTransform="matrix(5.87449 0 0 5.8656 6.31 16.1)" gradientUnits="userSpaceOnUse"><stop stop-opacity=".3"/><stop offset="1" stop-opacity="0"/></radialGradient></defs></svg>