<svg xmlns="http://www.w3.org/2000/svg" width="20" height="20" fill="currentColor"><path d="M10 8c3.314 0 6-1.343 6-3 0-1.656-2.686-3-6-3S4 3.344 4 5c0 1.657 2.686 3 6 3"/><path d="M14.69 8.016A5.5 5.5 0 0 0 16 7.121v2.087a5.5 5.5 0 0 0-5.745 8.79L10 18c-3.314 0-6-1.344-6-3V7.12c.383.362.84.66 1.31.895C6.562 8.641 8.222 9 10 9s3.438-.359 4.69-.985Z"/><path fill-rule="evenodd" d="M19 14.5a4.5 4.5 0 1 1-9 0 4.5 4.5 0 0 1 9 0m-2.146-1.853a.5.5 0 0 1 0 .707l-3 3a.5.5 0 0 1-.708 0l-1-1a.5.5 0 0 1 .708-.707l.646.646 2.646-2.646a.5.5 0 0 1 .708 0" clip-rule="evenodd"/></svg>