<svg xmlns="http://www.w3.org/2000/svg" width="20" height="20" fill="currentColor"><path fill="url(#ie8bec8-a)" d="M10.356 17.93a1 1 0 0 1-.908-.1c-.46-.304-.723-1-.415-1.46l3.89-5.785 3.574 4.01a.665.665 0 0 1-.056.94.6.6 0 0 1-.188.12z"/><path fill="url(#ie8bec8-b)" d="M7.221 11.004 3.435 5.307a.64.64 0 0 1-.1-.348c0-.368.3-.668.667-.668.092 0 .216-.016.296.016l6.158 2.895-.352.7z"/><path fill="url(#ie8bec8-c)" d="M9.644 17.933a1.003 1.003 0 0 1-.476-1.487l7.397-11.135a.665.665 0 0 0-.312-.964l-5.897-2.275A1 1 0 0 0 10 2.004q-.187.002-.356.064L3.746 4.343a.68.68 0 0 1 .516 0l4.654 2.243c.34.176.58.504.58.908a.98.98 0 0 1-.248.655l-5.742 6.446a.665.665 0 0 0 .056.94q.085.076.188.12l5.898 2.274"/><path fill="url(#ie8bec8-d)" d="M4.274 4.343 8.93 6.586c.275.14.48.384.551.684l7.185-2.411a.66.66 0 0 0-.395-.516l-5.898-2.275A1 1 0 0 0 10.016 2c-.124 0-.244.024-.356.064L3.763 4.339a.68.68 0 0 1 .516 0z"/><defs><linearGradient id="ie8bec8-a" x1="10.128" x2="14.586" y1="13.328" y2="17.07" gradientUnits="userSpaceOnUse"><stop stop-color="#292941"/><stop offset=".22" stop-color="#114A85"/><stop offset=".44" stop-color="#0A5BA0"/><stop offset=".65" stop-color="#0669B6"/></linearGradient><linearGradient id="ie8bec8-b" x1="4.918" x2="9.196" y1="3.507" y2="9.621" gradientUnits="userSpaceOnUse"><stop offset=".22" stop-color="#114A85"/><stop offset=".85" stop-color="#0669B6"/></linearGradient><linearGradient id="ie8bec8-c" x1="10" x2="10" y1="17.933" y2="2.004" gradientUnits="userSpaceOnUse"><stop offset=".1" stop-color="#288CD9"/><stop offset=".75" stop-color="#3CC5EE"/></linearGradient><linearGradient id="ie8bec8-d" x1="9.54" x2="10.832" y1="2.096" y2="6.906" gradientUnits="userSpaceOnUse"><stop stop-color="#A1ECFF" stop-opacity=".9"/><stop offset=".92" stop-color="#A1ECFF" stop-opacity="0"/></linearGradient></defs></svg>