<svg xmlns="http://www.w3.org/2000/svg" width="20" height="20" fill="currentColor"><path fill="url(#ie7439d-a)" d="M6.622 17.997a.546.546 0 0 1-.539-.624 9.8 9.8 0 0 1 9.687-8.374h.982c.67 0 1.161-.4 1.161-1.072l.056-.264v4.667a1.33 1.33 0 0 1-1.329 1.332h-.55a4.66 4.66 0 0 0-4.451 3.295l-.176.568a.67.67 0 0 1-.634.472z"/><path fill="url(#ie7439d-b)" d="M6.622 17.997a.546.546 0 0 1-.539-.624 9.8 9.8 0 0 1 9.687-8.374h.982c.67 0 1.161-.4 1.161-1.072l.056-.264v4.667a1.33 1.33 0 0 1-1.329 1.332h-.55a4.66 4.66 0 0 0-4.451 3.295l-.176.568a.67.67 0 0 1-.634.472z"/><path fill="url(#ie7439d-c)" d="M2.667 12.666A.67.67 0 0 1 2 11.998v-4c0-.367.3-.667.667-.667H14.64c.368 0 .667.3.667.668v4c0 .367-.3.667-.667.667z"/><path fill="url(#ie7439d-d)" d="M2.667 12.666A.67.67 0 0 1 2 11.998v-4c0-.367.3-.667.667-.667H14.64c.368 0 .667.3.667.668v4c0 .367-.3.667-.667.667z"/><path fill="url(#ie7439d-e)" d="M6.63 2c-.335 0-.595.3-.547.632a9.95 9.95 0 0 0 9.843 8.53h.826c.67 0 1.213.544 1.213 1.216V7.667a1.33 1.33 0 0 0-1.329-1.332h-.55a4.66 4.66 0 0 1-4.451-3.295l-.176-.568A.67.67 0 0 0 10.825 2z"/><path fill="url(#ie7439d-f)" d="M16.636 6.33h-.55c-.947 0-1.84-.287-2.587-.79v5.318a10 10 0 0 0 2.43.304h.827c.67 0 1.213.544 1.213 1.216V7.667a1.33 1.33 0 0 0-1.33-1.332l-.003-.004Z" opacity=".4"/><path fill="url(#ie7439d-g)" d="M6.662 2c-.336 0-.595.3-.547.632a9.95 9.95 0 0 0 9.842 8.53h.826c.671 0 1.214.544 1.214 1.216V7.667a1.33 1.33 0 0 0-1.33-1.332h-.55a4.66 4.66 0 0 1-4.45-3.295l-.176-.568A.67.67 0 0 0 10.857 2z" opacity=".7"/><defs><linearGradient id="ie7439d-a" x1="7.017" x2="18.059" y1="18.781" y2="7.761" gradientUnits="userSpaceOnUse"><stop offset=".26" stop-color="#0D7012"/><stop offset="1" stop-color="#085714"/></linearGradient><linearGradient id="ie7439d-b" x1="23.361" x2="2.411" y1="10.842" y2="15.488" gradientUnits="userSpaceOnUse"><stop offset=".04" stop-color="#114A8A"/><stop offset="1" stop-color="#0C59A3" stop-opacity="0"/></linearGradient><linearGradient id="ie7439d-c" x1="-6.342" x2="14.896" y1="9.998" y2="9.998" gradientUnits="userSpaceOnUse"><stop stop-color="#107C10"/><stop offset=".96" stop-color="#56B50E"/></linearGradient><linearGradient id="ie7439d-e" x1="18.727" x2="8.387" y1="15.461" y2=".719" gradientUnits="userSpaceOnUse"><stop offset=".04" stop-color="#33980F"/><stop offset="1" stop-color="#BAE884"/></linearGradient><linearGradient id="ie7439d-f" x1="15.514" x2="17.917" y1="8.958" y2="8.958" gradientUnits="userSpaceOnUse"><stop stop-color="#E5FAC1" stop-opacity="0"/><stop offset=".56" stop-color="#E5FAC1" stop-opacity=".52"/><stop offset="1" stop-color="#E5FAC1"/></linearGradient><linearGradient id="ie7439d-g" x1="5.576" x2="11.813" y1="-5.562" y2="5.213" gradientUnits="userSpaceOnUse"><stop offset=".14" stop-color="#FDE100"/><stop offset=".98" stop-color="#FFC600" stop-opacity="0"/></linearGradient><radialGradient id="ie7439d-d" cx="0" cy="0" r="1" gradientTransform="matrix(2.25395 -3.3825 8.61886 5.74324 12.587 9.13)" gradientUnits="userSpaceOnUse"><stop stop-opacity=".3"/><stop offset="1" stop-opacity="0"/></radialGradient></defs></svg>