<svg xmlns="http://www.w3.org/2000/svg" width="20" height="20" fill="currentColor"><path d="m17.228 13.476.322-.321c.268-.266.43-.627.45-1.004V7.797c0-1.06-1.227-1.731-1.9-.74 0 0-1.58 2.38-4.563 4.332.63.787 1.328 1.387 2.071 1.755.834.412 1.682.606 2.378.619.742.014 1.125-.174 1.24-.289z"/><path fill-rule="evenodd" d="M12.182 18c.328-.001.644-.143.884-.377l1.49-1.469 1.402-1.392h-.02c-.847-.021-1.828-.254-2.772-.722-1.14-.563-2.095-1.536-2.843-2.61a18 18 0 0 1-.797-1.163l-.465-.732a91 91 0 0 1-2.457 1.711c-.26.175-.477.32-.658.45-.35.25-.565.435-.753.657-.193.227-.392.533-.663 1.058-.414.798-.284 1.611.035 2.331a5 5 0 0 0 .717 1.145l.657.706a1.28 1.28 0 0 0 .92.407" clip-rule="evenodd"/><path d="M7.688 9.28c-.28.192-.527.358-.75.507-.367.247-.664.446-.917.638-1.221.82-1.635 1.118-2.352 2.5a3.33 3.33 0 0 0-.366 1.83l-.936-1.004A1.38 1.38 0 0 1 2 12.81l.001-5.579c0-.185.035-.307.104-.473.066-.16.16-.306.28-.43L6.214 2.39c.243-.25.57-.389.91-.389h6.223a.638.638 0 0 1 .573.94l-.104.198A13.7 13.7 0 0 1 10.26 7.38a65 65 0 0 1-2.573 1.9Z"/></svg>