<svg xmlns="http://www.w3.org/2000/svg" width="20" height="20" fill="currentColor"><path d="M8 2.501a.5.5 0 1 0-1 0v1.5h-.5a2.5 2.5 0 0 0-2.5 2.5v.5H2.5a.5.5 0 1 0 0 1H4v1.5H2.5a.5.5 0 0 0 0 1H4v1.5H2.5a.5.5 0 1 0 0 1H4v.5a2.5 2.5 0 0 0 2.5 2.5H7v1.5a.5.5 0 0 0 1 0v-1.5h1.5v1.5a.5.5 0 0 0 1 0v-1.5h.188l-.409-.409 2.097-2.097A1.5 1.5 0 0 1 13.5 11H16v-.5h1.5a.5.5 0 0 0 0-1H16V8h1.5a.5.5 0 0 0 0-1H16v-.5A2.5 2.5 0 0 0 13.5 4H13V2.5a.5.5 0 0 0-1 0V4h-1.5V2.5a.5.5 0 0 0-1 0V4H8zm2.986 5.04L10.57 9h1.529a.4.4 0 0 1 .307.656l-2.658 3.19c-.293.35-.856.05-.726-.388L9.455 11H7.9a.4.4 0 0 1-.307-.657l2.668-3.188c.29-.348.85-.051.726.385Z"/><path d="M18.5 12.001h-5a.5.5 0 0 0-.353.854l5 5a.5.5 0 0 0 .853-.354v-5a.5.5 0 0 0-.5-.5m-6.807 3.592 1.5-1.5.707.708-1.5 1.5zm.5 2.5 2.5-2.5.708.707-2.5 2.5zm4-.999-1.5 1.5.707.706 1.5-1.5z"/></svg>