<svg xmlns="http://www.w3.org/2000/svg" width="20" height="20" fill="currentColor"><path d="M8 2.501a.5.5 0 1 0-1 0v1.5h-.5a2.5 2.5 0 0 0-2.5 2.5v.5H2.5a.5.5 0 1 0 0 1H4v1.5H2.5a.5.5 0 0 0 0 1H4v1.5H2.5a.5.5 0 1 0 0 1H4v.5a2.5 2.5 0 0 0 2.5 2.5H7v1.5a.5.5 0 0 0 1 0v-1.5h1.207a5.5 5.5 0 0 1-.207-1.5c0-.54.078-1.062.223-1.555a.41.41 0 0 1-.2-.487L9.454 11H7.9a.4.4 0 0 1-.307-.657l2.668-3.188c.29-.348.85-.051.726.385L10.57 9h1.529a.4.4 0 0 1 .4.375A5.5 5.5 0 0 1 14.5 9a5.5 5.5 0 0 1 1.5.207V8.001h1.5a.5.5 0 0 0 0-1H16v-.5a2.5 2.5 0 0 0-2.5-2.5H13v-1.5a.5.5 0 0 0-1 0v1.5h-1.5v-1.5a.5.5 0 0 0-1 0v1.5H8zm6.5 10.529q.077.117.164.228l.017.022.019.021q.177.204.432.467a4.7 4.7 0 0 0 .916.733 5.4 5.4 0 0 0-.912.732q-.244.24-.46.506a4 4 0 0 0-.179.24c-.049-.074-.155-.215-.155-.215a5 5 0 0 0-.5-.55 6 6 0 0 0-.882-.709q.138-.088.271-.187.326-.245.619-.527a5 5 0 0 0 .649-.761z"/><path d="M19 14.501a4.5 4.5 0 1 1-9 0 4.5 4.5 0 0 1 9 0m-4.5-3.499a.505.505 0 0 0-.5.5c0 .207-.042.41-.125.6a2.6 2.6 0 0 1-.328.539q-.18.23-.391.429-.248.24-.523.446a3 3 0 0 1-.578.343 1.5 1.5 0 0 1-.555.143.5.5 0 1 0 0 1c.193.005.383.053.555.141q.301.143.57.343a5.2 5.2 0 0 1 .923.883q.192.246.32.531c.084.189.13.393.133.6a.5.5 0 0 0 1 0c0-.207.042-.411.125-.6.086-.19.196-.37.328-.531q.184-.225.391-.429a4.3 4.3 0 0 1 1.101-.797c.171-.089.361-.137.554-.141a.5.5 0 0 0 0-1 1.25 1.25 0 0 1-.547-.141 4 4 0 0 1-.578-.343 3.6 3.6 0 0 1-.523-.446q-.235-.24-.4-.429a2.5 2.5 0 0 1-.32-.532c-.085-.192-.13-.4-.132-.609a.505.505 0 0 0-.5-.5"/></svg>