<svg xmlns="http://www.w3.org/2000/svg" width="20" height="20" fill="currentColor"><path d="M14.5 19a4.5 4.5 0 1 1 0-9 4.5 4.5 0 0 1 0 9m1.5-7v.152a3 3 0 0 0-1.448-.401 3 3 0 0 0-2.173.878.5.5 0 0 0 .707.707A2 2 0 0 1 15.468 13H15a.5.5 0 0 0 0 1h1.5a.5.5 0 0 0 .5-.5V12a.5.5 0 0 0-1 0m-1.552 5.25a3 3 0 0 0 2.173-.879.5.5 0 0 0-.707-.707 2 2 0 0 1-2.382.336H14a.5.5 0 0 0 0-1h-1.5a.5.5 0 0 0-.5.5V17a.5.5 0 0 0 1 0v-.152a3 3 0 0 0 1.448.402"/><path d="M12.875 3C13.496 3 14 3.504 14 4.125v2.75C14 7.496 13.496 8 12.875 8h-.993l.787 1.312a5.6 5.6 0 0 0-.913.42L10.716 8H9.282l-2.4 4h.993C8.496 12 9 12.504 9 13.125v2.75C9 16.496 8.496 17 7.875 17h-3.75A1.125 1.125 0 0 1 3 15.875v-2.75C3 12.504 3.504 12 4.125 12h1.59l2.4-4h-.99A1.125 1.125 0 0 1 6 6.875v-2.75C6 3.504 6.504 3 7.125 3z"/></svg>