<svg xmlns="http://www.w3.org/2000/svg" width="20" height="20" fill="currentColor"><path d="M13 4.124c0-.621-.504-1.125-1.125-1.125h-5.75C5.504 2.999 5 3.503 5 4.124v2.75c0 .621.504 1.125 1.125 1.125h.99l-2.4 4h-1.59c-.621 0-1.125.504-1.125 1.125v2.75c0 .621.504 1.125 1.125 1.125h3.75c.621 0 1.125-.504 1.125-1.125v-2.75c0-.621-.504-1.125-1.125-1.125h-.993l2.4-4h1.434l2.4 4h1.166l-2.4-4h.993c.621 0 1.125-.504 1.125-1.125z"/><path d="M12.5 13.499a2.5 2.5 0 0 0 0 5h.5a.5.5 0 1 0 0-1h-.5a1.5 1.5 0 1 1 0-3h.5a.5.5 0 1 0 0-1zm3.5 0a.5.5 0 0 0 0 1h.5a1.5 1.5 0 0 1 0 3H16a.5.5 0 0 0 0 1h.5a2.5 2.5 0 0 0 0-5z"/><path d="M12.5 15.499a.5.5 0 0 0 0 1h4a.5.5 0 1 0 0-1z"/></svg>