<svg xmlns="http://www.w3.org/2000/svg" width="24" height="24" fill="currentColor"><path d="M6 4.744C6 3.78 6.784 3 7.75 3h8.5c.966 0 1.75.781 1.75 1.745v3.49c0 .964-.784 1.746-1.75 1.746h-1.614l3.571 4.986h1.043c.966 0 1.75.781 1.75 1.745v2.543c0 .964-.784 1.745-1.75 1.745h-3.5c-.966 0-1.75-.781-1.75-1.745V16.71c0-.964.784-1.745 1.75-1.745h.614L12.793 9.98h-1.586l-3.571 4.986h.614c.966 0 1.75.781 1.75 1.745v2.543c0 .964-.784 1.745-1.75 1.745h-3.5c-.966 0-1.75-.781-1.75-1.745V16.71c0-.964.784-1.745 1.75-1.745h1.043L9.364 9.98H7.75C6.784 9.98 6 9.198 6 8.234z"/></svg>