<svg xmlns="http://www.w3.org/2000/svg" width="24" height="24" fill="currentColor"><path d="M17.5 23a5.5 5.5 0 1 1 0-11 5.5 5.5 0 0 1 0 11m2.5-8.5v.55A3.5 3.5 0 0 0 17.5 14a3.5 3.5 0 0 0-2.837 1.45.5.5 0 0 0 .81.586A2.5 2.5 0 0 1 17.5 15c.817 0 1.544.392 2 1h-1a.5.5 0 0 0 0 1h2a.5.5 0 0 0 .5-.5v-2a.5.5 0 0 0-1 0m-5 6v-.55A3.5 3.5 0 0 0 17.5 21a3.5 3.5 0 0 0 2.675-1.243.5.5 0 1 0-.764-.645A2.5 2.5 0 0 1 17.5 20a2.5 2.5 0 0 1-2-1h1a.5.5 0 0 0 0-1h-2a.5.5 0 0 0-.5.5v2a.5.5 0 0 0 1 0"/><path d="M7.75 3A1.75 1.75 0 0 0 6 4.75v3.5C6 9.216 6.784 10 7.75 10h1.614l-3.571 5H4.75A1.75 1.75 0 0 0 3 16.75v2.55c0 .966.784 1.75 1.75 1.75h3.5A1.75 1.75 0 0 0 10 19.3v-2.55A1.75 1.75 0 0 0 8.25 15h-.614l3.571-5h1.586l1.371 1.92a6.5 6.5 0 0 1 1.396-.626L14.636 10h1.614A1.75 1.75 0 0 0 18 8.25v-3.5A1.75 1.75 0 0 0 16.25 3z"/></svg>