<svg xmlns="http://www.w3.org/2000/svg" width="20" height="20" fill="currentColor"><path d="M9 2.001v4.5a1.5 1.5 0 0 0 1.5 1.5H15v6.5a1.5 1.5 0 0 1-1.5 1.5h-.25l-.375-.5.824-1.1a1.5 1.5 0 0 0-2.399-1.8l-.3.4-.3-.4a1.5 1.5 0 0 0-1.2-.6 1.48 1.48 0 0 0-1.447 1.14l-.137-.387a1.5 1.5 0 0 0-2.83 0L4.646 14A3.5 3.5 0 0 0 4 13.068V3.501a1.5 1.5 0 0 1 1.5-1.5z"/><path d="M13.946 17.901A3.94 3.94 0 0 0 17 14.061v-5.06a1 1 0 0 0-1-1v6a3 3 0 0 1-2.137 2.874 1.5 1.5 0 0 1 .083 1.026M10 6.501v-4.25l4.75 4.75H10.5a.5.5 0 0 1-.5-.5M.146 13.147a.5.5 0 0 1 .354-.146h1a2.5 2.5 0 0 1 0 5h-1a.5.5 0 0 1-.5-.5v-4a.5.5 0 0 1 .146-.354m.854.854v3h.5a1.5 1.5 0 0 0 0-3zm5.5-1.25a.5.5 0 0 1 .471.334l1.5 4.25a.5.5 0 1 1-.943.332l-.236-.666H5.706l-.235.666a.5.5 0 1 1-.943-.332l1.5-4.25a.5.5 0 0 1 .471-.334Zm0 2-.44 1.25h.88zm6.495-1.321a.5.5 0 0 0-.895-.229L11 14.668l-1.1-1.467a.5.5 0 1 0-.8.6l1.274 1.7-1.274 1.7a.5.5 0 1 0 .8.6l1.1-1.466 1.1 1.466a.5.5 0 0 0 .8-.6l-1.276-1.7 1.276-1.7a.5.5 0 0 0 .095-.37Z"/></svg>