<svg xmlns="http://www.w3.org/2000/svg" width="20" height="20" fill="currentColor"><path d="M10 2v4.5A1.5 1.5 0 0 0 11.5 8H16v3.585c-.446.158-.795.52-.934.974A3.4 3.4 0 0 0 12.6 11.5H12c-.384 0-.735.145-1 .382a1.5 1.5 0 0 0-2.37.509L8 13.807l-.63-1.416A1.5 1.5 0 0 0 5 11.882a1.5 1.5 0 0 0-1-.382v-8A1.5 1.5 0 0 1 5.5 2z"/><path d="M11 2.25V6.5a.5.5 0 0 0 .5.5h4.25zM.5 13a.5.5 0 0 1 .5-.5h3a.5.5 0 0 1 0 1H3v4a.5.5 0 0 1-1 0v-4H1a.5.5 0 0 1-.5-.5M17 13a.5.5 0 0 0-1 0v4.5a.5.5 0 0 0 .5.5H19a.5.5 0 0 0 0-1h-2zm-11.104-.49a.5.5 0 0 1 .56.287L8 16.269l1.543-3.472A.5.5 0 0 1 10.5 13v4.5a.5.5 0 1 1-1 0v-2.144l-1.043 2.347a.5.5 0 0 1-.914 0L6.5 15.356V17.5a.5.5 0 1 1-1 0V13a.5.5 0 0 1 .396-.49M11.5 13a.5.5 0 0 1 .5-.5h.6a2.4 2.4 0 0 1 2.4 2.4v.7a2.4 2.4 0 0 1-2.4 2.4H12a.5.5 0 0 1-.5-.5zm1 .5V17h.1a1.4 1.4 0 0 0 1.4-1.4v-.7a1.4 1.4 0 0 0-1.4-1.4z"/></svg>