<svg xmlns="http://www.w3.org/2000/svg" width="20" height="20" fill="currentColor"><path d="M9.024 11.043 10.731 14H7.317z"/><path d="M10 6.501v-4.5H5.5a1.5 1.5 0 0 0-1.5 1.5v13a1.5 1.5 0 0 0 1.5 1.5h9a1.5 1.5 0 0 0 1.5-1.5v-8.5h-4.5a1.5 1.5 0 0 1-1.5-1.5M11.63 15l-.032.001H6.402a.5.5 0 0 1-.433-.75l2.598-4.5a.5.5 0 0 1 .447-.25.5.5 0 0 1 .468.249l2.598 4.5a.5.5 0 0 1-.433.75h-.018Zm1.065-1.685-.506-.877a1.25 1.25 0 1 0-1.224-2.12l-.506-.876a2.25 2.25 0 1 1 2.236 3.872Z"/><path d="M11 2.251v4.25a.5.5 0 0 0 .5.5h4.25z"/></svg>