<svg xmlns="http://www.w3.org/2000/svg" width="20" height="20" fill="currentColor"><g clip-path="url(#i2a0ffe-a)"><path d="M9 6.501a4.5 4.5 0 1 1-9 0 4.5 4.5 0 0 1 9 0m-2.287-.437-2.97-1.65A.5.5 0 0 0 3 4.85v3.3a.5.5 0 0 0 .743.437l2.97-1.65a.5.5 0 0 0 0-.874Z"/><path d="M5 11.979A5.5 5.5 0 0 0 7.663 2H11v4.5A1.5 1.5 0 0 0 12.5 8H17v2h-4a2 2 0 0 0-2 2v1c0 .487.177.957.5 1.321v1.948a2 2 0 0 0-1 1.731h-4A1.5 1.5 0 0 1 5 16.5z"/><path d="M12 2.251v4.25a.5.5 0 0 0 .5.5h4.25zm4 12.75h2.5v2a1 1 0 0 1 1 1v1a1 1 0 0 1-1 1h-1a1 1 0 0 1-1-1v-1a1 1 0 0 1 1-1v-1h-4v1a1 1 0 0 1 1 1v1a1 1 0 0 1-1 1h-1a1 1 0 0 1-1-1v-1a1 1 0 0 1 1-1v-2H15v-1h-2a1 1 0 0 1-1-1v-1a1 1 0 0 1 1-1h5a1 1 0 0 1 1 1v1a1 1 0 0 1-1 1h-2z"/></g><defs><clipPath id="i2a0ffe-a"><path d="M0 0h20v20H0z"/></clipPath></defs></svg>