<svg xmlns="http://www.w3.org/2000/svg" width="20" height="20" fill="currentColor"><path d="M9 2v4.5A1.5 1.5 0 0 0 10.5 8H15v6.5a1.5 1.5 0 0 1-1.5 1.5h-2.707A5.5 5.5 0 0 0 4 9.207V3.5A1.5 1.5 0 0 1 5.5 2z"/><path d="M9.743 18h3.318A3.94 3.94 0 0 0 17 14.06V9a1 1 0 0 0-1-1v6a3 3 0 0 1-3 3h-2.6a5.5 5.5 0 0 1-.657 1M10 6.5V2.25L14.75 7H10.5a.5.5 0 0 1-.5-.5m0 8a4.5 4.5 0 1 1-9 0 4.5 4.5 0 0 1 9 0m-2.146-1.854a.5.5 0 0 0-.708 0L4.5 15.293l-.646-.647a.5.5 0 0 0-.708.708l1 1a.5.5 0 0 0 .708 0l3-3a.5.5 0 0 0 0-.708"/></svg>