<svg xmlns="http://www.w3.org/2000/svg" width="24" height="24" fill="currentColor"><path d="M4 4.251a2.25 2.25 0 0 1 2.25-2.25h9a2.25 2.25 0 0 1 2.25 2.25v13a2.25 2.25 0 0 1-2.25 2.25h-9A2.25 2.25 0 0 1 4 17.251zm3 2v1.5c0 .414.336.75.75.75h1.5a.75.75 0 0 0 .75-.75v-1.5a.75.75 0 0 0-.75-.75h-1.5a.75.75 0 0 0-.75.75m4.75.25a.75.75 0 0 0 0 1.5h2a.75.75 0 0 0 0-1.5zM7 11.251c0 .414.336.75.75.75h6a.75.75 0 0 0 0-1.5h-6a.75.75 0 0 0-.75.75m.75 2.781a.75.75 0 0 0 0 1.5h6a.75.75 0 0 0 0-1.5z"/><path d="M6.629 20.501a2.25 2.25 0 0 0 2.122 1.5h6.5a4.75 4.75 0 0 0 4.75-4.75V11.37a2.25 2.25 0 0 0-.66-1.591l-.84-.841v8.313a3.25 3.25 0 0 1-3.25 3.25z"/></svg>