<svg xmlns="http://www.w3.org/2000/svg" width="24" height="24" fill="currentColor"><path d="M4 4.25A2.25 2.25 0 0 1 6.25 2h4.254v4.748a2.25 2.25 0 0 0 2.25 2.25H17.5v8.252a2.25 2.25 0 0 1-2.25 2.25h-2.563A6.5 6.5 0 0 0 4 11.498z"/><path d="M11.19 22h4.06A4.75 4.75 0 0 0 20 17.25v-5.881a2.25 2.25 0 0 0-.658-1.591l-.841-.841v8.313a3.25 3.25 0 0 1-3.25 3.25h-2.983A6.5 6.5 0 0 1 11.19 22m.814-19.533v4.28c0 .415.336.75.75.75h4.28a2 2 0 0 0-.193-.22L12.222 2.66a2 2 0 0 0-.218-.192ZM12 17.5a5.5 5.5 0 1 1-11 0 5.5 5.5 0 0 1 11 0m-2.146-2.354a.5.5 0 0 0-.708 0L5.5 18.793l-1.646-1.647a.5.5 0 0 0-.708.708l2 2a.5.5 0 0 0 .708 0l4-4a.5.5 0 0 0 0-.708"/></svg>