<svg xmlns="http://www.w3.org/2000/svg" width="24" height="24" fill="currentColor"><path d="M12 8.001v-6H6a2 2 0 0 0-2 2v8.5h.7c1 0 2 .4 2.7 1.1q.075.076.148.157c.89-.775 1.975-1.257 3.251-1.257 1.3 0 2.3.5 3.2 1.3s1.3 2 1.3 3.2v2c.4.4.7.8.8 1.4.094.56-.075 1.121-.342 1.6H18a2 2 0 0 0 2-2v-10h-6a2 2 0 0 1-2-2"/><path d="M13.5 2.501v5.5a.5.5 0 0 0 .5.5h5.5zM2.719 14.22a.76.76 0 0 1 .531-.219h1.5a2.251 2.251 0 0 1 1.591 3.842 2.25 2.25 0 0 1-1.591.658H4v2.25a.749.749 0 1 1-1.5 0v-6c0-.2.078-.39.219-.531M4 17.001h.75a.749.749 0 1 0 0-1.5H4zm6.75-2.998a3 3 0 0 0-3 3v1.5a3 3 0 0 0 4.874 2.343l.676.507a.75.75 0 0 0 .9-1.2l-.676-.507a3 3 0 0 0 .226-1.143v-1.5a3 3 0 0 0-3-3m.45 3.9a.75.75 0 1 0-.9 1.2l1.04.78a1.5 1.5 0 0 1-2.09-1.38v-1.5a1.5 1.5 0 0 1 3 0v1.5q0 .09-.01.18z"/></svg>