<svg xmlns="http://www.w3.org/2000/svg" width="20" height="20" fill="currentColor"><path d="M11.318 2.318a4.5 4.5 0 1 1 6.364 6.364 4.5 4.5 0 0 1-6.364-6.364m5.096 1.768v-.003a.5.5 0 0 0-.144-.349l-.003-.002-.002-.002a.5.5 0 0 0-.351-.144h-2.829a.5.5 0 1 0 0 1h1.622L12.732 6.56a.5.5 0 0 0 .707.707l1.975-1.975v1.621a.5.5 0 0 0 1 0z"/><path d="M16 10.793v.793c-.446.157-.795.52-.934.973A3.4 3.4 0 0 0 12.6 11.5H12c-.384 0-.735.145-1 .382a1.5 1.5 0 0 0-2.37.509L8 13.807l-.63-1.416A1.5 1.5 0 0 0 5 11.882a1.5 1.5 0 0 0-1-.382v-8A1.5 1.5 0 0 1 5.5 2H10v.336a5.502 5.502 0 0 0 6 8.457M.5 13a.5.5 0 0 1 .5-.5h3a.5.5 0 0 1 0 1H3v4a.5.5 0 0 1-1 0v-4H1a.5.5 0 0 1-.5-.5M17 13a.5.5 0 0 0-1 0v4.5a.5.5 0 0 0 .5.5H19a.5.5 0 0 0 0-1h-2z"/><path d="M5.896 12.51a.5.5 0 0 1 .56.287L8 16.269l1.543-3.472A.5.5 0 0 1 10.5 13v4.5a.5.5 0 1 1-1 0v-2.144l-1.043 2.347a.5.5 0 0 1-.914 0L6.5 15.356V17.5a.5.5 0 1 1-1 0V13a.5.5 0 0 1 .396-.49M11.5 13a.5.5 0 0 1 .5-.5h.6a2.4 2.4 0 0 1 2.4 2.4v.7a2.4 2.4 0 0 1-2.4 2.4H12a.5.5 0 0 1-.5-.5zm1 .5V17h.1a1.4 1.4 0 0 0 1.4-1.4v-.7a1.4 1.4 0 0 0-1.4-1.4z"/></svg>