<svg xmlns="http://www.w3.org/2000/svg" width="20" height="20" fill="currentColor"><path fill="url(#ie27c58-a)" d="M18 10a8 8 0 1 1-16 0 8 8 0 0 1 16 0"/><path fill="url(#ie27c58-b)" fill-opacity=".2" d="M18 10a8 8 0 1 1-16 0 8 8 0 0 1 16 0"/><path fill="url(#ie27c58-c)" fill-rule="evenodd" d="M10 17a7 7 0 1 0 0-14 7 7 0 0 0 0 14m0 1a8 8 0 1 0 0-16 8 8 0 0 0 0 16" clip-rule="evenodd"/><path fill="url(#ie27c58-d)" fill-rule="evenodd" d="M11.474 6.945a.75.75 0 0 0-1.448-.39l-1.75 6.5a.75.75 0 0 0 1.448.39zm1.497 5.085a.75.75 0 0 1 0-1.06l.97-.97-.97-.97a.75.75 0 0 1 1.06-1.06l1.43 1.429a.85.85 0 0 1 0 1.202l-1.43 1.43a.75.75 0 0 1-1.06 0Zm-5.94-4.06a.75.75 0 0 1 0 1.06l-.97.97.97.97a.75.75 0 0 1-1.06 1.06l-1.43-1.429a.85.85 0 0 1 0-1.202l1.43-1.43a.75.75 0 0 1 1.06 0Z" clip-rule="evenodd"/><defs><linearGradient id="ie27c58-a" x1="6.444" x2="8.468" y1="2" y2="18.192" gradientUnits="userSpaceOnUse"><stop stop-color="#fff"/><stop offset="1" stop-color="#EBEBEB"/></linearGradient><linearGradient id="ie27c58-c" x1="7.167" x2="9.321" y1="2" y2="18.157" gradientUnits="userSpaceOnUse"><stop stop-color="#BBB"/><stop offset="1" stop-color="#888"/></linearGradient><linearGradient id="ie27c58-d" x1="4.292" x2="11.812" y1="6" y2="16.732" gradientUnits="userSpaceOnUse"><stop stop-color="#4BA446"/><stop offset="1" stop-color="#3F7D35"/></linearGradient><radialGradient id="ie27c58-b" cx="0" cy="0" r="1" gradientTransform="rotate(56.31 -2.206 9.727)scale(15.2234 13.1741)" gradientUnits="userSpaceOnUse"><stop offset=".177" stop-color="#fff"/><stop offset="1" stop-color="#B8B8B8"/></radialGradient></defs></svg>