<svg xmlns="http://www.w3.org/2000/svg" width="24" height="24" fill="currentColor"><path fill="url(#i30eae5-a)" d="M10.61 2.648a2 2 0 0 1 2.78 0l7 6.767a2 2 0 0 1 .61 1.438V14h-1v-3.147a1 1 0 0 0-.305-.719l-7-6.767a1 1 0 0 0-1.39 0l-7 6.767a1 1 0 0 0-.305.72V19a1 1 0 0 0 1 1h9.725q.057.033.116.06l-.42.42c-.15.15-.265.326-.34.52H5a2 2 0 0 1-2-2v-8.147a2 2 0 0 1 .61-1.438z"/><path fill="url(#i30eae5-b)" d="M21.504 15h-5a.5.5 0 0 0-.216.05l-.015.007-.015.008a.5.5 0 0 0-.16.143l-.014.022-.01.015-.032.064a.5.5 0 0 0-.033.125.5.5 0 0 0 .142.42l5 5a.5.5 0 0 0 .707 0l.008-.01.038-.044.016-.022a.5.5 0 0 0 .084-.278v-5a.5.5 0 0 0-.5-.5"/><path fill="url(#i30eae5-c)" d="M16.56 18.36a.5.5 0 0 0-.706-.707l-.707.707a.5.5 0 1 0 .707.707l.707-.707Z"/><path fill="url(#i30eae5-d)" d="M19.39 20.482a.5.5 0 0 1 0 .707l-.708.707a.5.5 0 1 1-.707-.707l.707-.707a.5.5 0 0 1 .707 0Z"/><path fill="url(#i30eae5-e)" d="M17.975 19.774a.5.5 0 1 0-.707-.707l-2.122 2.122a.5.5 0 1 0 .707.707z"/><defs><linearGradient id="i30eae5-a" x1="3" x2="22.932" y1="2.086" y2="21.068" gradientUnits="userSpaceOnUse"><stop stop-color="#209782"/><stop offset="1" stop-color="#0C695A"/></linearGradient><linearGradient id="i30eae5-b" x1="3" x2="22.932" y1="2.086" y2="21.068" gradientUnits="userSpaceOnUse"><stop stop-color="#209782"/><stop offset="1" stop-color="#0C695A"/></linearGradient><linearGradient id="i30eae5-c" x1="3" x2="22.932" y1="2.086" y2="21.068" gradientUnits="userSpaceOnUse"><stop stop-color="#209782"/><stop offset="1" stop-color="#0C695A"/></linearGradient><linearGradient id="i30eae5-d" x1="3" x2="22.932" y1="2.086" y2="21.068" gradientUnits="userSpaceOnUse"><stop stop-color="#209782"/><stop offset="1" stop-color="#0C695A"/></linearGradient><linearGradient id="i30eae5-e" x1="3" x2="22.932" y1="2.086" y2="21.068" gradientUnits="userSpaceOnUse"><stop stop-color="#209782"/><stop offset="1" stop-color="#0C695A"/></linearGradient></defs></svg>