<svg xmlns="http://www.w3.org/2000/svg" width="20" height="20" fill="currentColor"><path fill="url(#i27e844-a)" d="M11.002 2.388a1.5 1.5 0 0 0-2.005 0l-5.5 4.942A1.5 1.5 0 0 0 3 8.445V15.5A1.5 1.5 0 0 0 4.5 17h7.224a1.46 1.46 0 0 1-.715-1H4.5a.5.5 0 0 1-.5-.5V8.445a.5.5 0 0 1 .166-.371l5.5-4.942a.5.5 0 0 1 .668 0l5.5 4.942a.5.5 0 0 1 .166.371V11h1V8.445a1.5 1.5 0 0 0-.497-1.115z"/><path fill="url(#i27e844-b)" d="M18.504 12h-5a.5.5 0 0 0-.406.208l-.014.022-.01.015-.031.064a.5.5 0 0 0-.029.289c.02.097.067.186.137.256l5 5a.5.5 0 0 0 .753-.054l.016-.022a.5.5 0 0 0 .084-.278v-5a.5.5 0 0 0-.5-.5"/><path fill="url(#i27e844-c)" d="M13.56 15.36a.5.5 0 0 0-.707-.707l-.707.707a.5.5 0 1 0 .707.707z"/><path fill="url(#i27e844-d)" d="M16.39 17.482a.5.5 0 0 1 0 .707l-.708.707a.5.5 0 1 1-.707-.707l.707-.707a.5.5 0 0 1 .707 0Z"/><path fill="url(#i27e844-e)" d="M14.975 16.774a.5.5 0 1 0-.707-.707l-2.122 2.122a.5.5 0 1 0 .707.707z"/><defs><linearGradient id="i27e844-a" x1="3" x2="20.005" y1="2.004" y2="17.977" gradientUnits="userSpaceOnUse"><stop stop-color="#209782"/><stop offset="1" stop-color="#0C695A"/></linearGradient><linearGradient id="i27e844-b" x1="3" x2="20.005" y1="2.004" y2="17.977" gradientUnits="userSpaceOnUse"><stop stop-color="#209782"/><stop offset="1" stop-color="#0C695A"/></linearGradient><linearGradient id="i27e844-c" x1="3" x2="20.005" y1="2.004" y2="17.977" gradientUnits="userSpaceOnUse"><stop stop-color="#209782"/><stop offset="1" stop-color="#0C695A"/></linearGradient><linearGradient id="i27e844-d" x1="3" x2="20.005" y1="2.004" y2="17.977" gradientUnits="userSpaceOnUse"><stop stop-color="#209782"/><stop offset="1" stop-color="#0C695A"/></linearGradient><linearGradient id="i27e844-e" x1="3" x2="20.005" y1="2.004" y2="17.977" gradientUnits="userSpaceOnUse"><stop stop-color="#209782"/><stop offset="1" stop-color="#0C695A"/></linearGradient></defs></svg>