<svg xmlns="http://www.w3.org/2000/svg" width="24" height="24" fill="currentColor"><path fill="url(#i5d1cda-a)" d="M3 4a3 3 0 0 1 3-3h12a3 3 0 0 1 3 3v16a3 3 0 0 1-3 3H6a3 3 0 0 1-3-3z"/><path fill="url(#i5d1cda-b)" fill-opacity=".2" d="M3 4a3 3 0 0 1 3-3h12a3 3 0 0 1 3 3v16a3 3 0 0 1-3 3H6a3 3 0 0 1-3-3z"/><path fill="url(#i5d1cda-c)" fill-rule="evenodd" d="M18 2H6a2 2 0 0 0-2 2v16a2 2 0 0 0 2 2h12a2 2 0 0 0 2-2V4a2 2 0 0 0-2-2M6 1a3 3 0 0 0-3 3v16a3 3 0 0 0 3 3h12a3 3 0 0 0 3-3V4a3 3 0 0 0-3-3z" clip-rule="evenodd"/><path fill="url(#i5d1cda-d)" d="M14 6a5 5 0 0 0-5 5v.375a.5.5 0 0 0 .016.125H9c0 .28-.227.508-.508.508h-1.96a.5.5 0 0 0 0 1h1.96c.833 0 1.508-.675 1.508-1.508h-.016a.5.5 0 0 0 .016-.125V11a4 4 0 0 1 4-4h.5a.5.5 0 1 0 0-1z"/><path fill="url(#i5d1cda-e)" d="M9.094 17.008a5 5 0 0 0 1.521-.236 4.5 4.5 0 0 1-.409-.92 4 4 0 0 1-1.112.156H7.53a.5.5 0 0 0 0 1z"/><path fill="url(#i5d1cda-f)" d="M12.157 10.657A2.5 2.5 0 0 1 14.5 9.031h1a.5.5 0 1 0 0-1h-1a3.5 3.5 0 0 0-3.494 3.3 1 1 0 0 0-.006.075v.094q0 .09-.006.18a4.5 4.5 0 0 1 1.163-1.023"/><path fill="url(#i5d1cda-g)" d="M10 14.5q.002-.577.138-1.112A2.5 2.5 0 0 1 8.5 14h-2a.5.5 0 0 0 0 1h2c.538 0 1.048-.121 1.503-.338z"/><path fill="url(#i5d1cda-h)" fill-rule="evenodd" d="M11.051 14.155a2 2 0 0 0 1.407-2.437l-.009-.032q.37-.27.806-.436a2 2 0 0 0 2.558.026q.458.187.841.487a2 2 0 0 0 1.302 2.201 3.5 3.5 0 0 1 .026.916l-.033.009a2 2 0 0 0-1.407 2.437l.009.033a3.5 3.5 0 0 1-.806.435 2 2 0 0 0-2.557-.026 3.5 3.5 0 0 1-.842-.488 2 2 0 0 0-1.302-2.2 3.5 3.5 0 0 1-.026-.916zm2.699.367a.75.75 0 1 0 1.5 0 .75.75 0 0 0-1.5 0" clip-rule="evenodd"/><defs><linearGradient id="i5d1cda-a" x1="8" x2="11.376" y1="1" y2="23.095" gradientUnits="userSpaceOnUse"><stop stop-color="#fff"/><stop offset="1" stop-color="#EBEBEB"/></linearGradient><linearGradient id="i5d1cda-c" x1="8.813" x2="12.402" y1="1" y2="23.026" gradientUnits="userSpaceOnUse"><stop stop-color="#BBB"/><stop offset="1" stop-color="#888"/></linearGradient><linearGradient id="i5d1cda-d" x1="6" x2="17.792" y1="6" y2="17.998" gradientUnits="userSpaceOnUse"><stop stop-color="#E03F8F"/><stop offset="1" stop-color="#BD1E7B"/></linearGradient><linearGradient id="i5d1cda-e" x1="6" x2="17.792" y1="6" y2="17.998" gradientUnits="userSpaceOnUse"><stop stop-color="#E03F8F"/><stop offset="1" stop-color="#BD1E7B"/></linearGradient><linearGradient id="i5d1cda-f" x1="6" x2="17.792" y1="6" y2="17.998" gradientUnits="userSpaceOnUse"><stop stop-color="#E03F8F"/><stop offset="1" stop-color="#BD1E7B"/></linearGradient><linearGradient id="i5d1cda-g" x1="6" x2="17.792" y1="6" y2="17.998" gradientUnits="userSpaceOnUse"><stop stop-color="#E03F8F"/><stop offset="1" stop-color="#BD1E7B"/></linearGradient><linearGradient id="i5d1cda-h" x1="6" x2="17.792" y1="6" y2="17.998" gradientUnits="userSpaceOnUse"><stop stop-color="#E03F8F"/><stop offset="1" stop-color="#BD1E7B"/></linearGradient><radialGradient id="i5d1cda-b" cx="0" cy="0" r="1" gradientTransform="matrix(9.5 17.41665 -13.72809 7.48806 8.75 6.73)" gradientUnits="userSpaceOnUse"><stop offset=".177" stop-color="#fff"/><stop offset="1" stop-color="#B8B8B8"/></radialGradient></defs></svg>