<svg xmlns="http://www.w3.org/2000/svg" width="20" height="20" fill="currentColor"><path fill="url(#iead426-a)" d="M1 4.5A2.5 2.5 0 0 1 3.5 2h13A2.5 2.5 0 0 1 19 4.5v11a2.5 2.5 0 0 1-2.5 2.5h-13A2.5 2.5 0 0 1 1 15.5z"/><path fill="url(#iead426-b)" fill-opacity=".2" d="M1 4.5A2.5 2.5 0 0 1 3.5 2h13A2.5 2.5 0 0 1 19 4.5v11a2.5 2.5 0 0 1-2.5 2.5h-13A2.5 2.5 0 0 1 1 15.5z"/><path fill="url(#iead426-c)" fill-rule="evenodd" d="M16.5 3h-13A1.5 1.5 0 0 0 2 4.5v11A1.5 1.5 0 0 0 3.5 17h13a1.5 1.5 0 0 0 1.5-1.5v-11A1.5 1.5 0 0 0 16.5 3m-13-1A2.5 2.5 0 0 0 1 4.5v11A2.5 2.5 0 0 0 3.5 18h13a2.5 2.5 0 0 0 2.5-2.5v-11A2.5 2.5 0 0 0 16.5 2z" clip-rule="evenodd"/><path fill="url(#iead426-d)" d="M8.5 11.5a.75.75 0 1 1-1.5 0 .75.75 0 0 1 1.5 0"/><path fill="url(#iead426-e)" d="M10.75 11.5a.75.75 0 1 1-1.5 0 .75.75 0 0 1 1.5 0"/><path fill="url(#iead426-f)" d="M13 11.5a.75.75 0 1 1-1.5 0 .75.75 0 0 1 1.5 0"/><path fill="url(#iead426-g)" fill-rule="evenodd" d="M5.2 5.341A1 1 0 0 1 5.954 5h8.093a1 1 0 0 1 .752.341l1.75 2c.566.647.107 1.659-.752 1.659H15v4.5a1.5 1.5 0 0 1-1.5 1.5h-7A1.5 1.5 0 0 1 5 13.5V9h-.797c-.859 0-1.318-1.012-.752-1.659l1.75-2ZM6 9v4.5a.5.5 0 0 0 .5.5h7a.5.5 0 0 0 .5-.5V9z" clip-rule="evenodd"/><path fill="#F5F5F5" d="M9 16.5a3.5 3.5 0 0 1 3.5-3.5h4a3.5 3.5 0 1 1 0 7h-4A3.5 3.5 0 0 1 9 16.5"/><path fill="url(#iead426-h)" d="M12.5 14a2.5 2.5 0 0 0 0 5h.5a.5.5 0 0 0 0-1h-.5a1.5 1.5 0 0 1 0-3h.5a.5.5 0 0 0 0-1z"/><path fill="url(#iead426-i)" d="M16 14a.5.5 0 0 0 0 1h.5a1.5 1.5 0 0 1 0 3H16a.5.5 0 0 0 0 1h.5a2.5 2.5 0 0 0 0-5z"/><path fill="url(#iead426-j)" d="M12.5 16a.5.5 0 0 0 0 1h4a.5.5 0 0 0 0-1z"/><defs><linearGradient id="iead426-a" x1="6" x2="7.805" y1="2" y2="18.244" gradientUnits="userSpaceOnUse"><stop stop-color="#fff"/><stop offset="1" stop-color="#EBEBEB"/></linearGradient><linearGradient id="iead426-c" x1="6.813" x2="8.734" y1="2" y2="18.217" gradientUnits="userSpaceOnUse"><stop stop-color="#BBB"/><stop offset="1" stop-color="#888"/></linearGradient><linearGradient id="iead426-d" x1="3.201" x2="12.747" y1="5" y2="17.979" gradientUnits="userSpaceOnUse"><stop stop-color="#7751B8"/><stop offset="1" stop-color="#5A409C"/></linearGradient><linearGradient id="iead426-e" x1="3.201" x2="12.747" y1="5" y2="17.979" gradientUnits="userSpaceOnUse"><stop stop-color="#7751B8"/><stop offset="1" stop-color="#5A409C"/></linearGradient><linearGradient id="iead426-f" x1="3.201" x2="12.747" y1="5" y2="17.979" gradientUnits="userSpaceOnUse"><stop stop-color="#7751B8"/><stop offset="1" stop-color="#5A409C"/></linearGradient><linearGradient id="iead426-g" x1="3.201" x2="12.747" y1="5" y2="17.979" gradientUnits="userSpaceOnUse"><stop stop-color="#7751B8"/><stop offset="1" stop-color="#5A409C"/></linearGradient><linearGradient id="iead426-h" x1="10" x2="14.245" y1="14" y2="21.642" gradientUnits="userSpaceOnUse"><stop stop-color="#7751B8"/><stop offset="1" stop-color="#5A409C"/></linearGradient><linearGradient id="iead426-i" x1="10" x2="14.245" y1="14" y2="21.642" gradientUnits="userSpaceOnUse"><stop stop-color="#7751B8"/><stop offset="1" stop-color="#5A409C"/></linearGradient><linearGradient id="iead426-j" x1="10" x2="14.245" y1="14" y2="21.642" gradientUnits="userSpaceOnUse"><stop stop-color="#7751B8"/><stop offset="1" stop-color="#5A409C"/></linearGradient><radialGradient id="iead426-b" cx="0" cy="0" r="1" gradientTransform="matrix(9.49998 12.66664 -11.4 8.55 6.75 6.167)" gradientUnits="userSpaceOnUse"><stop offset=".177" stop-color="#fff"/><stop offset="1" stop-color="#B8B8B8"/></radialGradient></defs></svg>