<svg xmlns="http://www.w3.org/2000/svg" width="24" height="24" fill="currentColor"><path fill="url(#i4472be-a)" d="M2 5a3 3 0 0 1 3-3h14a3 3 0 0 1 3 3v14a3 3 0 0 1-3 3H5a3 3 0 0 1-3-3z"/><path fill="url(#i4472be-b)" fill-opacity=".2" d="M2 5a3 3 0 0 1 3-3h14a3 3 0 0 1 3 3v14a3 3 0 0 1-3 3H5a3 3 0 0 1-3-3z"/><path fill="url(#i4472be-c)" fill-rule="evenodd" d="M19 3H5a2 2 0 0 0-2 2v14a2 2 0 0 0 2 2h14a2 2 0 0 0 2-2V5a2 2 0 0 0-2-2M5 2a3 3 0 0 0-3 3v14a3 3 0 0 0 3 3h14a3 3 0 0 0 3-3V5a3 3 0 0 0-3-3z" clip-rule="evenodd"/><path fill="url(#i4472be-d)" d="M7.25 10.5a1.25 1.25 0 1 0 0-2.5 1.25 1.25 0 0 0 0 2.5"/><path fill="url(#i4472be-e)" d="M12 10.5A1.25 1.25 0 1 0 12 8a1.25 1.25 0 0 0 0 2.5"/><path fill="url(#i4472be-f)" d="M13.25 14.75a1.25 1.25 0 1 1-2.5 0 1.25 1.25 0 0 1 2.5 0"/><path fill="url(#i4472be-g)" d="M7.25 16a1.25 1.25 0 1 0 0-2.5 1.25 1.25 0 0 0 0 2.5"/><path fill="url(#i4472be-h)" d="M18 9.25a1.25 1.25 0 1 1-2.5 0 1.25 1.25 0 0 1 2.5 0"/><path fill="#F5F5F5" d="M14.5 15a4.5 4.5 0 1 0 0 9h5a4.5 4.5 0 1 0 0-9z"/><path fill="url(#i4472be-i)" d="M11 19.5a3.5 3.5 0 0 1 3.5-3.5h1a.5.5 0 0 1 0 1h-1a2.5 2.5 0 0 0 0 5h1a.5.5 0 0 1 0 1h-1a3.5 3.5 0 0 1-3.5-3.5"/><path fill="url(#i4472be-j)" d="M19.5 23a3.5 3.5 0 1 0 0-7h-1.063v.004a.5.5 0 0 0 0 .992V17H19.5a2.5 2.5 0 0 1 0 5h-1a.5.5 0 0 0 0 1z"/><path fill="url(#i4472be-k)" d="M14.5 19a.5.5 0 0 0 0 1h5a.5.5 0 0 0 0-1z"/><defs><linearGradient id="i4472be-a" x1="7.556" x2="10.085" y1="2" y2="22.239" gradientUnits="userSpaceOnUse"><stop stop-color="#fff"/><stop offset="1" stop-color="#EBEBEB"/></linearGradient><linearGradient id="i4472be-c" x1="8.458" x2="11.151" y1="2" y2="22.197" gradientUnits="userSpaceOnUse"><stop stop-color="#BBB"/><stop offset="1" stop-color="#888"/></linearGradient><linearGradient id="i4472be-d" x1="6" x2="13.385" y1="8" y2="19.077" gradientUnits="userSpaceOnUse"><stop stop-color="#7751B8"/><stop offset="1" stop-color="#5A409C"/></linearGradient><linearGradient id="i4472be-e" x1="6" x2="13.385" y1="8" y2="19.077" gradientUnits="userSpaceOnUse"><stop stop-color="#7751B8"/><stop offset="1" stop-color="#5A409C"/></linearGradient><linearGradient id="i4472be-f" x1="6" x2="13.385" y1="8" y2="19.077" gradientUnits="userSpaceOnUse"><stop stop-color="#7751B8"/><stop offset="1" stop-color="#5A409C"/></linearGradient><linearGradient id="i4472be-g" x1="6" x2="13.385" y1="8" y2="19.077" gradientUnits="userSpaceOnUse"><stop stop-color="#7751B8"/><stop offset="1" stop-color="#5A409C"/></linearGradient><linearGradient id="i4472be-h" x1="6" x2="13.385" y1="8" y2="19.077" gradientUnits="userSpaceOnUse"><stop stop-color="#7751B8"/><stop offset="1" stop-color="#5A409C"/></linearGradient><linearGradient id="i4472be-i" x1="11" x2="17.093" y1="16" y2="26.446" gradientUnits="userSpaceOnUse"><stop stop-color="#7751B8"/><stop offset="1" stop-color="#5A409C"/></linearGradient><linearGradient id="i4472be-j" x1="11" x2="17.093" y1="16" y2="26.446" gradientUnits="userSpaceOnUse"><stop stop-color="#7751B8"/><stop offset="1" stop-color="#5A409C"/></linearGradient><linearGradient id="i4472be-k" x1="11" x2="17.093" y1="16" y2="26.446" gradientUnits="userSpaceOnUse"><stop stop-color="#7751B8"/><stop offset="1" stop-color="#5A409C"/></linearGradient><radialGradient id="i4472be-b" cx="0" cy="0" r="1" gradientTransform="rotate(56.31 -2.54 11.442)scale(19.0293 16.4677)" gradientUnits="userSpaceOnUse"><stop offset=".177" stop-color="#fff"/><stop offset="1" stop-color="#B8B8B8"/></radialGradient></defs></svg>