<svg xmlns="http://www.w3.org/2000/svg" width="24" height="24" fill="currentColor"><path fill="url(#ic89614-a)" d="M2 5a3 3 0 0 1 3-3h14a3 3 0 0 1 3 3v14a3 3 0 0 1-3 3H5a3 3 0 0 1-3-3z"/><path fill="url(#ic89614-b)" fill-opacity=".2" d="M2 5a3 3 0 0 1 3-3h14a3 3 0 0 1 3 3v14a3 3 0 0 1-3 3H5a3 3 0 0 1-3-3z"/><path fill="url(#ic89614-c)" fill-rule="evenodd" d="M19 3H5a2 2 0 0 0-2 2v14a2 2 0 0 0 2 2h14a2 2 0 0 0 2-2V5a2 2 0 0 0-2-2M5 2a3 3 0 0 0-3 3v14a3 3 0 0 0 3 3h14a3 3 0 0 0 3-3V5a3 3 0 0 0-3-3z" clip-rule="evenodd"/><path fill="url(#ic89614-d)" d="M9.5 9.937a2 2 0 1 0-1 0v4.126a2 2 0 1 0 1 0V12.5H13a2.5 2.5 0 0 0 2.5-2.5v-.071a2 2 0 1 0-1 .016V10a1.5 1.5 0 0 1-1.5 1.5H9.5z"/><path fill="#F5F5F5" d="M14.5 15a4.5 4.5 0 1 0 0 9h5a4.5 4.5 0 1 0 0-9z"/><path fill="url(#ic89614-e)" d="M11 19.5a3.5 3.5 0 0 1 3.5-3.5h1a.5.5 0 0 1 0 1h-1a2.5 2.5 0 0 0 0 5h1a.5.5 0 0 1 0 1h-1a3.5 3.5 0 0 1-3.5-3.5"/><path fill="url(#ic89614-f)" d="M19.5 23a3.5 3.5 0 1 0 0-7h-1.063v.004a.5.5 0 0 0 0 .992V17H19.5a2.5 2.5 0 0 1 0 5h-1a.5.5 0 0 0 0 1z"/><path fill="url(#ic89614-g)" d="M14.5 19a.5.5 0 0 0 0 1h5a.5.5 0 0 0 0-1z"/><defs><linearGradient id="ic89614-a" x1="7.556" x2="10.085" y1="2" y2="22.239" gradientUnits="userSpaceOnUse"><stop stop-color="#fff"/><stop offset="1" stop-color="#EBEBEB"/></linearGradient><linearGradient id="ic89614-c" x1="8.458" x2="11.151" y1="2" y2="22.197" gradientUnits="userSpaceOnUse"><stop stop-color="#BBB"/><stop offset="1" stop-color="#888"/></linearGradient><linearGradient id="ic89614-d" x1="7" x2="18.797" y1="6" y2="15.8" gradientUnits="userSpaceOnUse"><stop stop-color="#7751B8"/><stop offset="1" stop-color="#5A409C"/></linearGradient><linearGradient id="ic89614-e" x1="11" x2="17.093" y1="16" y2="26.446" gradientUnits="userSpaceOnUse"><stop stop-color="#7751B8"/><stop offset="1" stop-color="#5A409C"/></linearGradient><linearGradient id="ic89614-f" x1="11" x2="17.093" y1="16" y2="26.446" gradientUnits="userSpaceOnUse"><stop stop-color="#7751B8"/><stop offset="1" stop-color="#5A409C"/></linearGradient><linearGradient id="ic89614-g" x1="11" x2="17.093" y1="16" y2="26.446" gradientUnits="userSpaceOnUse"><stop stop-color="#7751B8"/><stop offset="1" stop-color="#5A409C"/></linearGradient><radialGradient id="ic89614-b" cx="0" cy="0" r="1" gradientTransform="rotate(56.31 -2.54 11.442)scale(19.0293 16.4677)" gradientUnits="userSpaceOnUse"><stop offset=".177" stop-color="#fff"/><stop offset="1" stop-color="#B8B8B8"/></radialGradient></defs></svg>