<svg xmlns="http://www.w3.org/2000/svg" width="24" height="24" fill="currentColor"><path fill-rule="evenodd" d="m6.194 9.3 13.9-2.013h.005a.77.77 0 0 0 .637-.564l1.235-3.749A.77.77 0 0 0 21.228 2l-.048.002-.049.003L8.257 3.838A3.46 3.46 0 0 0 5.468 6.34l-1.04 3.83c.16-.592.514-.654 1.766-.872Zm.255 1.528c-1.644.341-2.258.89-2.617 1.693q-.093.21-.168.447l-.86 3.186c.46-.257 1.056-.466 1.736-.577l.01-.001 9.255-1.358c.804-.132 1.021-.947 1.185-1.558l.814-3.223-9.081 1.343zM4.66 17.077c-1.779.289-2.362 1.465-2.502 1.824-.103.27-.159.565-.159.873 0 1.269.947 2.058 2.18 2.194q.516.077 1.18-.019l2.022-.28c.509-.07.924-.439 1.06-.933l1.28-4.401z" clip-rule="evenodd"/></svg>