<svg xmlns="http://www.w3.org/2000/svg" width="20" height="20" fill="currentColor"><path fill-rule="evenodd" d="m5.193 8.074 11.188-1.63h.004a.62.62 0 0 0 .51-.452l1.08-3.213a.616.616 0 0 0-.633-.777l-.038.002L7.023 3.469a2.77 2.77 0 0 0-2.231 2.002L3.91 8.723c.137-.457.392-.5 1.283-.65Zm.366.986c-1.315.273-1.806.711-2.094 1.353a4 4 0 0 0-.134.358l-.663 2.534c.367-.206.82-.359 1.364-.447l7.412-1.087c.642-.106.816-.758.947-1.246l.03-.111.621-2.466zm-1.392 4.79c-1.422.232-1.928 1.18-2.04 1.468a2 2 0 0 0-.127.698c0 1.015.758 1.844 1.744 1.952q.414.062.944-.015l1.617-.224c.407-.056.74-.35.848-.746l1.062-3.726z" clip-rule="evenodd"/></svg>