<svg xmlns="http://www.w3.org/2000/svg" width="24" height="24" fill="currentColor"><path fill="url(#if6f791-a)" fill-rule="evenodd" d="m2.82 15.802-.293 1.072c-.11.343-.262.847-.345 1.295a2.815 2.815 0 0 0 2.32 3.795c.396.057.844.054 1.346-.02l2.307-.318a1.46 1.46 0 0 0 1.21-1.064l1.588-5.832z" clip-rule="evenodd"/><path fill="url(#if6f791-b)" d="M5.07 16.078c-2.431.376-2.93 2.211-2.93 2.211l2.328-8.556 12.168-1.646-1.66 6.027a.85.85 0 0 1-.693.622l-.068.011-9.213 1.342z"/><path fill="url(#if6f791-c)" fill-opacity=".8" d="M5.07 16.078c-2.431.376-2.93 2.211-2.93 2.211l2.328-8.556 12.168-1.646-1.66 6.027a.85.85 0 0 1-.693.622l-.068.011-9.213 1.342z"/><path fill="url(#if6f791-d)" d="m6.45 10.619 13.47-1.99a.8.8 0 0 0 .662-.586l1.39-5.03a.797.797 0 0 0-.87-1.006L8.25 3.905a3.59 3.59 0 0 0-2.89 2.597L3.507 13.22c.372-1.36.6-2.178 2.943-2.602Z"/><path fill="url(#if6f791-e)" d="m6.45 10.619 13.47-1.99a.8.8 0 0 0 .662-.586l1.39-5.03a.797.797 0 0 0-.87-1.006L8.25 3.905a3.59 3.59 0 0 0-2.89 2.597L3.507 13.22c.372-1.36.6-2.178 2.943-2.602Z"/><path fill="url(#if6f791-f)" fill-opacity=".4" d="m6.45 10.619 13.47-1.99a.8.8 0 0 0 .662-.586l1.39-5.03a.797.797 0 0 0-.87-1.006L8.25 3.905a3.59 3.59 0 0 0-2.89 2.597L3.507 13.22c.372-1.36.6-2.178 2.943-2.602Z"/><path fill="url(#if6f791-g)" d="M6.45 10.619c-1.95.353-2.435.981-2.757 1.966L2.139 18.29s.497-1.816 2.899-2.205l9.177-1.337.068-.01a.85.85 0 0 0 .694-.623l1.365-4.958z"/><path fill="url(#if6f791-h)" fill-opacity=".2" d="M6.45 10.619c-1.95.353-2.435.981-2.757 1.966L2.139 18.29s.497-1.816 2.899-2.205l9.177-1.337.068-.01a.85.85 0 0 0 .694-.623l1.365-4.958z"/><path fill="url(#if6f791-i)" fill-rule="evenodd" d="M5.038 16.086c-2.03.328-2.697 1.673-2.856 2.082a2.817 2.817 0 0 0 2.32 3.796c.396.057.844.054 1.346-.02l2.307-.318a1.46 1.46 0 0 0 1.21-1.064l1.448-5.317z" clip-rule="evenodd"/><defs><linearGradient id="if6f791-a" x1="6.477" x2="6.477" y1="22.003" y2="14.73" gradientUnits="userSpaceOnUse"><stop offset=".056" stop-color="#2AAC94"/><stop offset=".155" stop-color="#239C87"/><stop offset=".372" stop-color="#177E71"/><stop offset=".588" stop-color="#0E6961"/><stop offset=".799" stop-color="#095D57"/><stop offset="1" stop-color="#085954"/></linearGradient><linearGradient id="if6f791-b" x1="15.667" x2="8.644" y1="16.726" y2="9.087" gradientUnits="userSpaceOnUse"><stop offset=".042" stop-color="#ABE88E"/><stop offset=".549" stop-color="#2AAA92"/><stop offset=".906" stop-color="#117865"/></linearGradient><linearGradient id="if6f791-c" x1="-1.592" x2="5.092" y1="16.354" y2="14.075" gradientUnits="userSpaceOnUse"><stop stop-color="#6AD6F9"/><stop offset="1" stop-color="#6AD6F9" stop-opacity="0"/></linearGradient><linearGradient id="if6f791-d" x1="3.507" x2="21.297" y1="7.61" y2="7.61" gradientUnits="userSpaceOnUse"><stop offset=".043" stop-color="#25FFD4"/><stop offset=".874" stop-color="#55DDB9"/></linearGradient><linearGradient id="if6f791-e" x1="3.507" x2="19.532" y1="5.124" y2="12.565" gradientUnits="userSpaceOnUse"><stop stop-color="#6AD6F9"/><stop offset=".23" stop-color="#60E9D0"/><stop offset=".651" stop-color="#6DE9BB"/><stop offset=".994" stop-color="#ABE88E"/></linearGradient><linearGradient id="if6f791-f" x1="4.989" x2="13.703" y1="6.516" y2="8.444" gradientUnits="userSpaceOnUse"><stop stop-color="#fff" stop-opacity="0"/><stop offset=".459" stop-color="#fff"/><stop offset="1" stop-color="#fff" stop-opacity="0"/></linearGradient><linearGradient id="if6f791-g" x1="7.879" x2="8.085" y1="13.981" y2="7.87" gradientUnits="userSpaceOnUse"><stop offset=".205" stop-color="#063D3B" stop-opacity="0"/><stop offset=".586" stop-color="#063D3B" stop-opacity=".237"/><stop offset=".872" stop-color="#063D3B" stop-opacity=".75"/></linearGradient><linearGradient id="if6f791-h" x1="1.405" x2="8.851" y1="13.373" y2="14.774" gradientUnits="userSpaceOnUse"><stop stop-color="#fff" stop-opacity="0"/><stop offset=".459" stop-color="#fff"/><stop offset="1" stop-color="#fff" stop-opacity="0"/></linearGradient><linearGradient id="if6f791-i" x1="6.784" x2="5.331" y1="19.988" y2="12.884" gradientUnits="userSpaceOnUse"><stop offset=".064" stop-color="#063D3B" stop-opacity="0"/><stop offset=".17" stop-color="#063D3B" stop-opacity=".135"/><stop offset=".562" stop-color="#063D3B" stop-opacity=".599"/><stop offset=".85" stop-color="#063D3B" stop-opacity=".9"/><stop offset="1" stop-color="#063D3B"/></linearGradient></defs></svg>