<svg xmlns="http://www.w3.org/2000/svg" width="20" height="20" fill="currentColor"><path d="M2 5.5A2.5 2.5 0 0 1 4.5 3h2.664c.325 0 .64.105.9.3l1.6 1.2h4.832a2.5 2.5 0 0 1 2.5 2.5v.002H5.824A1.5 1.5 0 0 0 4.35 8.215l-1.577 8.09A2.5 2.5 0 0 1 2 14.498z"/><path d="M3.773 16.407a.5.5 0 0 0 .491.595H10V15a2 2 0 0 1 3-1.732V11a2 2 0 1 1 4 0v.268q.264-.155.572-.222l.475-2.449a.5.5 0 0 0-.491-.595H5.824a.5.5 0 0 0-.491.404l-1.56 8Z"/><path d="M14 11a1 1 0 1 1 2 0v7a1 1 0 1 1-2 0zm-3 4a1 1 0 1 1 2 0v3a1 1 0 1 1-2 0zm7-3a1 1 0 0 0-1 1v5a1 1 0 1 0 2 0v-5a1 1 0 0 0-1-1"/></svg>