<svg xmlns="http://www.w3.org/2000/svg" width="20" height="20" fill="currentColor"><path fill="#FFB900" d="M10 5 8.586 3.586A2 2 0 0 0 7.172 3H2a1 1 0 0 0-1 1v12a1 1 0 0 0 1 1h16a1 1 0 0 0 1-1V6a1 1 0 0 0-1-1z"/><path fill="#FFD75E" d="M10 5 8.586 6.414A2 2 0 0 1 7.172 7H1v9a1 1 0 0 0 1 1h16a1 1 0 0 0 1-1V6a1 1 0 0 0-1-1z"/><path fill="url(#i803134-a)" d="M10 5 8.586 6.414A2 2 0 0 1 7.172 7H1v9a1 1 0 0 0 1 1h16a1 1 0 0 0 1-1V6a1 1 0 0 0-1-1z"/><path fill="#BF5712" d="M2 16.5c-.373 0-.71-.142-.973-.367.06.492.477.863.973.867h16c.505 0 .905-.38.973-.867-.262.226-.6.367-.973.367z"/><path fill="#fff" d="M8.836 6.914 10.75 5H10L8.586 6.414A2 2 0 0 1 7.172 7H1v.5h6.422a2 2 0 0 0 1.414-.586" opacity=".4"/><defs><linearGradient id="i803134-a" x1="1" x2="1" y1="5" y2="17" gradientUnits="userSpaceOnUse"><stop stop-color="#fff" stop-opacity=".01"/><stop offset=".999" stop-color="#FFD75E" stop-opacity=".3"/></linearGradient></defs></svg>