<svg xmlns="http://www.w3.org/2000/svg" width="24" height="24" fill="currentColor"><g clip-path="url(#icaba47-a)"><path d="M9.815 6.507a.6.6 0 0 0-.227.007.46.46 0 0 0-.332.23c-.097.152-.176.393-.2.717-.002.089-.01.28-.022.539h.963a.75.75 0 1 1 0 1.5H8.96c-.072 1.39-.163 3.043-.196 3.515v.004l-.005.054c-.027.357-.062.827-.19 1.268-.14.48-.41.994-.953 1.346-.819.554-1.683.266-2.226-.031a.75.75 0 0 1 .72-1.316c.182.1.329.147.438.158a.32.32 0 0 0 .23-.055l.02-.014c.147-.093.253-.243.33-.508.083-.283.109-.613.14-1.014.028-.407.1-1.702.165-2.942l.025-.465h-.96a.75.75 0 0 1 0-1.5h1.034l.022-.493.001-.056v-.023l.003-.053c.066-.94.502-2.125 1.785-2.34l.008-.002c.263-.041.521-.05.785.008.265.058.482.172.673.297a.75.75 0 1 1-.824 1.253.5.5 0 0 0-.17-.084m5.036 3.721a.75.75 0 0 1-.017 1.06l-1.393 1.35c.188.325.336.583.382.657l.01.017a.75.75 0 0 1 1.011 1.081l-.009.012c-.04.056-.192.27-.389.403-.301.203-.638.224-.957.158a.8.8 0 0 1-.176-.06 1.35 1.35 0 0 1-.522-.429 2 2 0 0 1-.134-.208l-.025-.043a21 21 0 0 1-.303-.514l-1.057 1.025a.75.75 0 1 1-1.044-1.077l1.331-1.289a44 44 0 0 0-.382-.658l-.01-.017a.75.75 0 0 1-1.011-1.082c.09-.116.247-.306.47-.442a1.12 1.12 0 0 1 1.06-.07c.249.12.422.307.533.45.108.14.19.285.25.4.041.067.113.19.202.344l1.12-1.085a.75.75 0 0 1 1.06.017"/><path d="M2 4A3.5 3.5 0 0 1 5.5.5h9A3.5 3.5 0 0 1 18 4v13a3.5 3.5 0 0 1-3.5 3.5h-9A3.5 3.5 0 0 1 2 17zm3.5-1.5A1.5 1.5 0 0 0 4 4v13a1.5 1.5 0 0 0 1.5 1.5h9A1.5 1.5 0 0 0 16 17V4a1.5 1.5 0 0 0-1.5-1.5z"/><path d="M19.5 17q0 .087-.003.173V19a3 3 0 0 1-3 3h-10a5 5 0 0 0 4 2h6a5 5 0 0 0 5-5V9A5 5 0 0 0 19.5 5.002z"/></g><defs><clipPath id="icaba47-a"><path d="M0 0h24v24H0z"/></clipPath></defs></svg>