<svg xmlns="http://www.w3.org/2000/svg" width="20" height="20" fill="currentColor"><path fill="url(#ie6c4f1-a)" d="M5 5.5A2.5 2.5 0 0 1 7.5 3h8A2.5 2.5 0 0 1 18 5.5V14a5 5 0 0 1-5 5H7.5A2.5 2.5 0 0 1 5 16.5z"/><path fill="url(#ie6c4f1-b)" fill-opacity=".2" d="M5 5.5A2.5 2.5 0 0 1 7.5 3h8A2.5 2.5 0 0 1 18 5.5V14a5 5 0 0 1-5 5H7.5A2.5 2.5 0 0 1 5 16.5z"/><path fill="url(#ie6c4f1-c)" fill-rule="evenodd" d="M15.5 4h-8A1.5 1.5 0 0 0 6 5.5v11A1.5 1.5 0 0 0 7.5 18H13a4 4 0 0 0 4-4V5.5A1.5 1.5 0 0 0 15.5 4m-8-1A2.5 2.5 0 0 0 5 5.5v11A2.5 2.5 0 0 0 7.5 19H13a5 5 0 0 0 5-5V5.5A2.5 2.5 0 0 0 15.5 3z" clip-rule="evenodd"/><path fill="url(#ie6c4f1-d)" d="M2 3.5A2.5 2.5 0 0 1 4.5 1h9A2.5 2.5 0 0 1 16 3.5v11a2.5 2.5 0 0 1-2.5 2.5h-9A2.5 2.5 0 0 1 2 14.5z"/><path fill="url(#ie6c4f1-e)" fill-opacity=".2" d="M2 3.5A2.5 2.5 0 0 1 4.5 1h9A2.5 2.5 0 0 1 16 3.5v11a2.5 2.5 0 0 1-2.5 2.5h-9A2.5 2.5 0 0 1 2 14.5z"/><path fill="url(#ie6c4f1-f)" fill-rule="evenodd" d="M13.5 2h-9A1.5 1.5 0 0 0 3 3.5v11A1.5 1.5 0 0 0 4.5 16h9a1.5 1.5 0 0 0 1.5-1.5v-11A1.5 1.5 0 0 0 13.5 2m-9-1A2.5 2.5 0 0 0 2 3.5v11A2.5 2.5 0 0 0 4.5 17h9a2.5 2.5 0 0 0 2.5-2.5v-11A2.5 2.5 0 0 0 13.5 1z" clip-rule="evenodd"/><path fill="url(#ie6c4f1-g)" d="M8.42 5.01c.17-.02.28-.02.36 0s.16.05.28.12c.24.14.54.07.69-.17.14-.24.07-.54-.17-.69-.18-.11-.37-.2-.6-.24-.22-.04-.45-.04-.7 0-.53.08-.94.36-1.21.74-.26.37-.39.83-.42 1.28v.04c0 .04-.005.152-.013.318l-.027.612H5.6c-.28 0-.5.22-.5.5s.22.5.5.5h.95a326 326 0 0 1-.199 3.26l-.001.02c-.03.38-.06.71-.15 1-.09.27-.22.47-.45.6h-.01c-.26.17-.59.14-1.02-.08a.505.505 0 0 0-.67.22c-.12.25-.02.55.22.67.53.27 1.28.48 1.99.04.49-.29.75-.72.89-1.16.12-.372.155-.77.183-1.097l.007-.073v-.05c.03-.45.13-2.03.2-3.35h1.05c.28 0 .5-.22.5-.5s-.22-.5-.5-.5H7.6l.022-.46c.01-.216.018-.372.018-.44.03-.33.11-.59.24-.77.12-.17.29-.29.54-.33z"/><path fill="url(#ie6c4f1-h)" d="M13.84 9.85c.2-.2.2-.51 0-.71s-.51-.2-.71 0l-1.54 1.54c-.133-.228-.25-.432-.335-.582L11.14 9.9c-.06-.12-.15-.27-.26-.41a1.4 1.4 0 0 0-.5-.42l-.02-.01a.94.94 0 0 0-.83.08c-.2.12-.34.29-.44.42-.17.22-.13.53.09.7s.53.13.7-.09l.024-.03q.043-.054.076-.09l.04-.04q.014.014.028.032l.043.048c.06.08.12.18.17.28 0 .01.01.02.02.03.07.11.31.52.58 1l-1.73 1.73c-.2.2-.2.51 0 .71s.51.2.71 0l1.54-1.54.168.291a62 62 0 0 0 .402.689l.03.05.051.085a1.2 1.2 0 0 0 .548.505c.04.02.08.03.12.04.3.06.58.04.82-.13.16-.11.29-.28.35-.36q.002-.008.01-.015.009-.008.01-.015c.17-.22.13-.53-.09-.7a.496.496 0 0 0-.7.09c-.02.02-.04.05-.05.07v.02s-.05.04-.06.06l-.02.02s-.01 0-.01-.01l-.03-.03a.4.4 0 0 1-.041-.06l-.038-.06-.02-.04-.03-.05-.09-.15c-.046-.071-.163-.273-.316-.537l-.274-.473 1.73-1.73z"/><defs><linearGradient id="ie6c4f1-a" x1="8.611" x2="11.082" y1="3" y2="19.064" gradientUnits="userSpaceOnUse"><stop stop-color="#fff"/><stop offset="1" stop-color="#EBEBEB"/></linearGradient><linearGradient id="ie6c4f1-c" x1="9.198" x2="11.826" y1="3" y2="19.013" gradientUnits="userSpaceOnUse"><stop stop-color="#BBB"/><stop offset="1" stop-color="#888"/></linearGradient><linearGradient id="ie6c4f1-d" x1="5.889" x2="8.191" y1="1" y2="17.116" gradientUnits="userSpaceOnUse"><stop stop-color="#fff"/><stop offset="1" stop-color="#EBEBEB"/></linearGradient><linearGradient id="ie6c4f1-f" x1="6.521" x2="8.97" y1="1" y2="17.071" gradientUnits="userSpaceOnUse"><stop stop-color="#BBB"/><stop offset="1" stop-color="#888"/></linearGradient><linearGradient id="ie6c4f1-g" x1="3.999" x2="14.003" y1="4" y2="13.997" gradientUnits="userSpaceOnUse"><stop stop-color="#4BA446"/><stop offset="1" stop-color="#3F7D35"/></linearGradient><linearGradient id="ie6c4f1-h" x1="3.999" x2="14.003" y1="4" y2="13.997" gradientUnits="userSpaceOnUse"><stop stop-color="#4BA446"/><stop offset="1" stop-color="#3F7D35"/></linearGradient><radialGradient id="ie6c4f1-b" cx="0" cy="0" r="1" gradientTransform="matrix(6.8611 12.66664 -9.94629 5.38757 9.153 7.167)" gradientUnits="userSpaceOnUse"><stop offset=".177" stop-color="#fff"/><stop offset="1" stop-color="#B8B8B8"/></radialGradient><radialGradient id="ie6c4f1-e" cx="0" cy="0" r="1" gradientTransform="rotate(59.744 -1.262 8.218)scale(14.6642 11.9669)" gradientUnits="userSpaceOnUse"><stop offset=".177" stop-color="#fff"/><stop offset="1" stop-color="#B8B8B8"/></radialGradient></defs></svg>