<svg xmlns="http://www.w3.org/2000/svg" width="24" height="24" fill="currentColor"><path fill="url(#i1679a9-a)" d="M4 6a3 3 0 0 1 3-3h12a3 3 0 0 1 3 3v11.5a5.5 5.5 0 0 1-5.5 5.5H7a3 3 0 0 1-3-3z"/><path fill="url(#i1679a9-b)" fill-opacity=".2" d="M4 6a3 3 0 0 1 3-3h12a3 3 0 0 1 3 3v11.5a5.5 5.5 0 0 1-5.5 5.5H7a3 3 0 0 1-3-3z"/><path fill="url(#i1679a9-c)" fill-rule="evenodd" d="M19 4H7a2 2 0 0 0-2 2v14a2 2 0 0 0 2 2h9.5a4.5 4.5 0 0 0 4.5-4.5V6a2 2 0 0 0-2-2M7 3a3 3 0 0 0-3 3v14a3 3 0 0 0 3 3h9.5a5.5 5.5 0 0 0 5.5-5.5V6a3 3 0 0 0-3-3z" clip-rule="evenodd"/><path fill="url(#i1679a9-d)" d="M2 4a3 3 0 0 1 3-3h12a3 3 0 0 1 3 3v14a3 3 0 0 1-3 3H5a3 3 0 0 1-3-3z"/><path fill="url(#i1679a9-e)" fill-opacity=".2" d="M2 4a3 3 0 0 1 3-3h12a3 3 0 0 1 3 3v14a3 3 0 0 1-3 3H5a3 3 0 0 1-3-3z"/><path fill="url(#i1679a9-f)" fill-rule="evenodd" d="M17 2H5a2 2 0 0 0-2 2v14a2 2 0 0 0 2 2h12a2 2 0 0 0 2-2V4a2 2 0 0 0-2-2M5 1a3 3 0 0 0-3 3v14a3 3 0 0 0 3 3h12a3 3 0 0 0 3-3V4a3 3 0 0 0-3-3z" clip-rule="evenodd"/><path fill="url(#i1679a9-g)" d="M11.259 5.02a1.6 1.6 0 0 0-.533.005 1.2 1.2 0 0 0-.832.506c-.193.274-.315.655-.352 1.11-.003.154-.027.66-.064 1.337H11.5a.5.5 0 0 1 0 1H9.423c-.1 1.794-.237 4.046-.285 4.67v.004l-.005.059c-.038.457-.084 1.014-.248 1.528-.177.552-.5 1.09-1.114 1.45-.867.537-1.8.286-2.494-.06a.5.5 0 0 1 .446-.895c.592.295 1.105.365 1.525.103l.013-.007c.348-.203.546-.506.671-.896.13-.404.167-.86.208-1.352l.001-.01v-.002c.048-.625.18-2.828.28-4.592H6.5a.5.5 0 0 1 0-1h1.977a57 57 0 0 0 .067-1.397c.045-.582.204-1.159.532-1.626a2.2 2.2 0 0 1 1.5-.92h.006a2.6 2.6 0 0 1 .873.005c.275.055.51.163.742.302a.5.5 0 1 1-.514.858 1.3 1.3 0 0 0-.424-.18"/><path fill="url(#i1679a9-h)" d="M16.854 10.146a.5.5 0 0 1 0 .708l-2.232 2.231a98 98 0 0 0 .929 1.597l.029.05c.047.08.077.128.103.164a.3.3 0 0 0 .11.099.4.4 0 0 0 .095.003q.014-.002.012-.003a.3.3 0 0 0 .06-.062c.027-.032.047-.059.073-.094l.071-.094a.5.5 0 0 1 .792.61l-.035.048c-.08.108-.22.298-.4.42-.268.18-.58.214-.932.14a.5.5 0 0 1-.117-.04 1.35 1.35 0 0 1-.535-.436 3 3 0 0 1-.16-.249l-.033-.057c-.04-.067-.08-.138-.131-.22a74 74 0 0 1-.664-1.143l-2.035 2.036a.5.5 0 0 1-.708-.708l2.228-2.227a100 100 0 0 0-.797-1.377 2.4 2.4 0 0 0-.223-.364.7.7 0 0 0-.179-.177l-.005.002-.03.014c-.063.04-.145.12-.244.249a.5.5 0 0 1-.792-.61c.118-.154.29-.355.517-.493a1.03 1.03 0 0 1 .967-.075c.243.118.426.308.558.48.13.168.234.35.312.5.095.155.352.602.649 1.118l2.04-2.04a.5.5 0 0 1 .707 0"/><defs><linearGradient id="i1679a9-a" x1="9" x2="11.801" y1="3" y2="23.166" gradientUnits="userSpaceOnUse"><stop stop-color="#fff"/><stop offset="1" stop-color="#EBEBEB"/></linearGradient><linearGradient id="i1679a9-c" x1="9.813" x2="12.792" y1="3" y2="23.114" gradientUnits="userSpaceOnUse"><stop stop-color="#BBB"/><stop offset="1" stop-color="#888"/></linearGradient><linearGradient id="i1679a9-d" x1="7" x2="9.801" y1="1" y2="21.166" gradientUnits="userSpaceOnUse"><stop stop-color="#fff"/><stop offset="1" stop-color="#EBEBEB"/></linearGradient><linearGradient id="i1679a9-f" x1="7.813" x2="10.792" y1="1" y2="21.114" gradientUnits="userSpaceOnUse"><stop stop-color="#BBB"/><stop offset="1" stop-color="#888"/></linearGradient><linearGradient id="i1679a9-g" x1="5" x2="17.959" y1="4" y2="15.962" gradientUnits="userSpaceOnUse"><stop stop-color="#4BA446"/><stop offset="1" stop-color="#3F7D35"/></linearGradient><linearGradient id="i1679a9-h" x1="5" x2="17.959" y1="4" y2="15.962" gradientUnits="userSpaceOnUse"><stop stop-color="#4BA446"/><stop offset="1" stop-color="#3F7D35"/></linearGradient><radialGradient id="i1679a9-b" cx="0" cy="0" r="1" gradientTransform="matrix(9.50002 15.83334 -13.09743 7.85847 9.75 8.208)" gradientUnits="userSpaceOnUse"><stop offset=".177" stop-color="#fff"/><stop offset="1" stop-color="#B8B8B8"/></radialGradient><radialGradient id="i1679a9-e" cx="0" cy="0" r="1" gradientTransform="matrix(9.50002 15.83334 -13.09743 7.85847 7.75 6.208)" gradientUnits="userSpaceOnUse"><stop offset=".177" stop-color="#fff"/><stop offset="1" stop-color="#B8B8B8"/></radialGradient></defs></svg>