<svg xmlns="http://www.w3.org/2000/svg" width="20" height="20" fill="none"><path fill="#000" d="M9 5.502c.003-.87.213-1.727.612-2.5H3.5a1.5 1.5 0 0 0-1.386.917A1.5 1.5 0 0 0 2 4.502a1.44 1.44 0 0 0 .47 1.086l5.061 4.828q.11.108.2.234a1.4 1.4 0 0 1 .27.852v4a1.5 1.5 0 0 0 1.5 1.5h1a1.5 1.5 0 0 0 1.5-1.5v-4a1.4 1.4 0 0 1 .272-.852c.023-.032.052-.06.077-.091A5.48 5.48 0 0 1 9 5.502m9.914-.878a4.5 4.5 0 1 0-8.828 1.753 4.5 4.5 0 0 0 8.828-1.753m-2.06 1.232a.5.5 0 0 1-.354.146H15v1.5a.5.5 0 0 1-1 0v-1.5h-1.5a.5.5 0 0 1 0-1H14v-1.5a.5.5 0 0 1 1 0v1.5h1.5a.5.5 0 0 1 .354.854"/></svg>