<svg xmlns="http://www.w3.org/2000/svg" width="20" height="20" fill="currentColor"><path d="M10 18q.523 0 1.029-.066.105-.192.27-.359l.4-.4c-.2-.1-.3-.2-.4-.3-.6-.6-.6-1.5 0-2.1l.7-.7c.05-.05.126-.1.2-.15.076-.05.15-.1.2-.15l-.1-.1c-.2-.2-.354-.44-.4-.8-.045-.357 0-.6.1-.9s.3-.5.6-.7.5-.3.8-.3h1.506a5 5 0 0 0-.246-2.793.5.5 0 0 1 .932-.364 6 6 0 0 1 .33 3.157h2.02A8 8 0 1 0 10 18m1.819-12.66a5.002 5.002 0 0 0-5.355 8.196.5.5 0 0 1-.707.707 6 6 0 0 1 6.425-9.834.5.5 0 0 1-.364.932Zm2.266.48a.5.5 0 0 1 .111.625l-.11.196-.686 1.206-.23.402-.298.518-.422.727c-.2.345-.395.675-.567.963a30 30 0 0 1-.492.793l-.074.108a1.5 1.5 0 1 1-2.371-1.83c.072-.085.203-.205.343-.329.15-.132.343-.296.56-.479.436-.364.982-.81 1.514-1.24.533-.432 1.055-.85 1.443-1.16l.275-.219.369-.293a.5.5 0 0 1 .635.011Z"/><path d="M13.484 12.004h5a.5.5 0 0 1 .5.5v5a.5.5 0 0 1-.853.354l-5-5a.5.5 0 0 1 .353-.854m.056 2.653a.5.5 0 0 1 0 .707l-.706.707a.5.5 0 1 1-.708-.707l.708-.707a.5.5 0 0 1 .707 0Zm2.83 2.829a.5.5 0 0 1 0 .707l-.708.707a.5.5 0 1 1-.707-.707l.707-.707a.5.5 0 0 1 .707 0Zm-1.415-1.414a.5.5 0 0 1 0 .707l-2.121 2.12a.5.5 0 1 1-.708-.706l2.122-2.122a.5.5 0 0 1 .707 0Z"/></svg>