<svg xmlns="http://www.w3.org/2000/svg" width="24" height="24" fill="currentColor"><path d="M13.217 21.927A10 10 0 0 1 12 22C6.477 22 2 17.523 2 12S6.477 2 12 2s10 4.477 10 10q0 .737-.104 1.446l-2.795.021a7.3 7.3 0 0 0-.258-3.865.75.75 0 0 0-1.415.495 5.8 5.8 0 0 1 .13 3.382l-1.345.01c-1.618.013-2.492 1.8-1.68 3.066a2.3 2.3 0 0 0-.597.428l-.707.707a2.25 2.25 0 0 0 .4 3.501 2.2 2.2 0 0 0-.412.736m3.456-15.275a.625.625 0 0 0-.794.015l-.214.184a364 364 0 0 0-2.314 2.002 154 154 0 0 0-1.833 1.621c-.263.238-.495.452-.677.625-.169.16-.327.316-.413.425a1.875 1.875 0 1 0 2.94 2.327c.087-.109.202-.299.32-.5.126-.217.28-.492.451-.803.343-.623.757-1.4 1.157-2.157a374 374 0 0 0 1.416-2.712l.13-.25a.625.625 0 0 0-.169-.777m-9.8 10.474a.75.75 0 0 0 1.061-1.06 5.75 5.75 0 0 1 5.394-9.662.75.75 0 1 0 .344-1.46 7.25 7.25 0 0 0-6.799 12.182m8.727 4.206-.003.002 1.345-1.346a.75.75 0 0 1 .53-.22.75.75 0 0 1 .533 1.28l-2.121 2.122a.75.75 0 0 1-1.061-1.06z"/><path d="M22.548 14.94a.5.5 0 0 1 .504.505l-.05 6.32a.5.5 0 0 1-.853.35l-3.06-3.061h-.002l-1.944-1.944-1.06-1.061h-.001l-.207-.206a.5.5 0 0 1 .35-.854h.002l6.32-.048Zm-7.02 2.884a.75.75 0 0 0-.53.22l-.707.706a.75.75 0 1 0 1.062 1.062l.707-.707a.75.75 0 0 0-.532-1.28Zm4.42 4.109a.75.75 0 0 1 0 1.06l-.707.708a.75.75 0 0 1-1.06-1.06l.707-.708a.75.75 0 0 1 1.06 0"/></svg>