<svg xmlns="http://www.w3.org/2000/svg" width="24" height="24" fill="currentColor"><path fill="url(#id1aa78-a)" d="M2 5a3 3 0 0 1 3-3h14a3 3 0 0 1 3 3v14a3 3 0 0 1-3 3H5a3 3 0 0 1-3-3z"/><path fill="url(#id1aa78-b)" fill-opacity=".2" d="M2 5a3 3 0 0 1 3-3h14a3 3 0 0 1 3 3v14a3 3 0 0 1-3 3H5a3 3 0 0 1-3-3z"/><path fill="url(#id1aa78-c)" fill-rule="evenodd" d="M19 3H5a2 2 0 0 0-2 2v14a2 2 0 0 0 2 2h14a2 2 0 0 0 2-2V5a2 2 0 0 0-2-2M5 2a3 3 0 0 0-3 3v14a3 3 0 0 0 3 3h14a3 3 0 0 0 3-3V5a3 3 0 0 0-3-3z" clip-rule="evenodd"/><path fill="#7A7A7A" fill-rule="evenodd" d="M10.83 6.114a6 6 0 0 1 2.34 0 .5.5 0 0 1-.194.981 5 5 0 0 0-1.952 0 .5.5 0 0 1-.194-.98Zm3.81 1.034a.5.5 0 0 1 .694-.137 6 6 0 0 1 1.655 1.655.5.5 0 0 1-.83.556 5 5 0 0 0-1.381-1.38.5.5 0 0 1-.138-.694m-5.28 0a.5.5 0 0 1-.138.694 5 5 0 0 0-1.38 1.38.5.5 0 1 1-.831-.556 6 6 0 0 1 1.655-1.655.5.5 0 0 1 .694.137m7.938 3.288a.5.5 0 0 1 .588.394 6 6 0 0 1 0 2.34.5.5 0 1 1-.981-.194 5 5 0 0 0 0-1.952.5.5 0 0 1 .393-.588m-10.596 0a.5.5 0 0 1 .393.588 5 5 0 0 0 0 1.952.5.5 0 0 1-.98.194 6 6 0 0 1 0-2.34.5.5 0 0 1 .587-.394m10.15 4.204a.5.5 0 0 1 .137.694 6 6 0 0 1-1.655 1.655.5.5 0 0 1-.556-.83 5 5 0 0 0 1.38-1.381.5.5 0 0 1 .694-.138m-9.704 0a.5.5 0 0 1 .694.138 5 5 0 0 0 1.38 1.38.5.5 0 0 1-.556.831 6 6 0 0 1-1.655-1.655.5.5 0 0 1 .137-.694m3.288 2.658a.5.5 0 0 1 .588-.393 5 5 0 0 0 1.952 0 .5.5 0 0 1 .194.98 6 6 0 0 1-2.34 0 .5.5 0 0 1-.394-.587" clip-rule="evenodd"/><defs><linearGradient id="id1aa78-a" x1="7.556" x2="10.085" y1="2" y2="22.239" gradientUnits="userSpaceOnUse"><stop stop-color="#fff"/><stop offset="1" stop-color="#EBEBEB"/></linearGradient><linearGradient id="id1aa78-c" x1="8.458" x2="11.151" y1="2" y2="22.197" gradientUnits="userSpaceOnUse"><stop stop-color="#BBB"/><stop offset="1" stop-color="#888"/></linearGradient><radialGradient id="id1aa78-b" cx="0" cy="0" r="1" gradientTransform="rotate(56.31 -2.54 11.442)scale(19.0293 16.4677)" gradientUnits="userSpaceOnUse"><stop offset=".177" stop-color="#fff"/><stop offset="1" stop-color="#B8B8B8"/></radialGradient></defs></svg>