<svg xmlns="http://www.w3.org/2000/svg" width="20" height="20" fill="currentColor"><path d="M13.5 4.25a.75.75 0 1 0 0-1.5.75.75 0 0 0 0 1.5M6.5 8a3 3 0 0 1 3-3A3.5 3.5 0 0 1 13 8.5a4 4 0 0 1-4 4 .5.5 0 0 1 0-1 3 3 0 0 0 3-3A2.5 2.5 0 0 0 9.5 6a2 2 0 0 0-2 2A1.5 1.5 0 0 0 9 9.5a1 1 0 0 0 1-1 .5.5 0 0 0-.5-.5.5.5 0 0 1-1 0 1 1 0 0 1 1-1A1.5 1.5 0 0 1 11 8.5a2 2 0 0 1-2 2A2.5 2.5 0 0 1 6.5 8"/><path d="M5.054 10h1.073c.389.557.934.995 1.573 1.25A1.5 1.5 0 0 0 9 13.5c.828 0 1.61-.201 2.297-.558l-2.079 4.162a2 2 0 0 0-.213.896H6.5A2.5 2.5 0 0 1 4 15.5v-4.117L2.257 12.43a.5.5 0 1 1-.514-.858l2.025-1.215A2.5 2.5 0 0 1 5.054 10M17 5.5a.5.5 0 0 0-1 0V6h-.5a.5.5 0 0 0 0 1h.5v.5a.5.5 0 0 0 1 0V7h.5a.5.5 0 0 0 0-1H17zm-3.397 5.054-3.496 6.998A1 1 0 0 0 11.002 19h6.996a1 1 0 0 0 .895-1.448l-3.5-6.999a1 1 0 0 0-1.79 0Zm1.395 1.941v3.002a.5.5 0 1 1-1 0v-3.002a.5.5 0 1 1 1 0m-.5 5.504a.5.5 0 1 1 0-1 .5.5 0 0 1 0 1"/></svg>