<svg xmlns="http://www.w3.org/2000/svg" width="20" height="20" fill="none"><path fill="url(#i5d2f67-i835db9-paint0_radial_62220_1889)" d="M12.34 2C14.307 2 16 3.684 16 5.76c0 2.473-2.016 3.772-4.555 3.468-.154-.023-.471-.109-.782-.19-.934-.244-1.538-.759-2.147-1.174.128-.949.202-1.87.317-2.779C9.066 3.247 10.537 2 12.341 2"/><path fill="url(#i5d2f67-i835db9-paint1_linear_62220_1889)" d="M12.34 2C14.307 2 16 3.684 16 5.76c0 2.473-2.016 3.772-4.555 3.468-.154-.023-.471-.109-.782-.19-.934-.244-1.538-.759-2.147-1.174.128-.949.202-1.87.317-2.779C9.066 3.247 10.537 2 12.341 2"/><path fill="url(#i5d2f67-i835db9-paint2_radial_62220_1889)" d="m10.305 12.452.505.06c1.554.246 2.69 1.266 2.69 2.742C13.5 16.77 12.196 18 10.692 18S7.97 16.77 7.97 15.254c0-.996-.152-2.056-1.296-2.401q.07.004.141.004c.327 0 .608-.045.93-.111.619-.128 1.352-.332 2.56-.295"/><path fill="url(#i5d2f67-i835db9-paint3_radial_62220_1889)" d="m10.305 12.452.505.06c1.554.246 2.69 1.266 2.69 2.742C13.5 16.77 12.196 18 10.692 18S7.97 16.77 7.97 15.254c0-.996-.152-2.056-1.296-2.401q.07.004.141.004c.327 0 .608-.045.93-.111.619-.128 1.352-.332 2.56-.295"/><path fill="url(#i5d2f67-i835db9-paint4_linear_62220_1889)" d="M6.815 7.25c1.543 0 2.147 1.344 3.848 1.788.337.089.682.184.818.196a6 6 0 0 0-.934 0C9.67 9.27 9 9.921 9 10.844c0 .766.73 1.392 1.395 1.61-1.263-.05-2.017.161-2.651.292a4.4 4.4 0 0 1-.93.111C5.253 12.857 4 11.557 4 9.924S5.252 7.25 6.815 7.25"/><path fill="url(#i5d2f67-i835db9-paint5_linear_62220_1889)" fill-opacity=".2" d="M6.815 7.25c1.543 0 2.147 1.344 3.848 1.788.337.089.682.184.818.196a6 6 0 0 0-.934 0C9.67 9.27 9 9.921 9 10.844c0 .766.73 1.392 1.395 1.61-1.263-.05-2.017.161-2.651.292a4.4 4.4 0 0 1-.93.111C5.253 12.857 4 11.557 4 9.924S5.252 7.25 6.815 7.25"/><path fill="url(#i5d2f67-i835db9-paint6_linear_62220_1889)" fill-opacity=".8" d="M6.815 7.25c1.543 0 2.147 1.344 3.848 1.788.337.089.682.184.818.196a6 6 0 0 0-.934 0C9.67 9.27 9 9.921 9 10.844c0 .766.73 1.392 1.395 1.61-1.263-.05-2.017.161-2.651.292a4.4 4.4 0 0 1-.93.111C5.253 12.857 4 11.557 4 9.924S5.252 7.25 6.815 7.25"/><defs><radialGradient id="i5d2f67-i835db9-paint0_radial_62220_1889" cx="0" cy="0" r="1" gradientTransform="rotate(129.483 6.599 4.336)scale(8.70735 32.5726)" gradientUnits="userSpaceOnUse"><stop offset=".034" stop-color="#FF6F47"/><stop offset=".207" stop-color="#FB5937"/><stop offset=".404" stop-color="#F83F54"/><stop offset=".721" stop-color="#CA2134"/></radialGradient><linearGradient id="i5d2f67-i835db9-paint1_linear_62220_1889" x1="10.145" x2="8.102" y1="6.676" y2="8.526" gradientUnits="userSpaceOnUse"><stop stop-color="#560B14" stop-opacity="0"/><stop offset="1" stop-color="#560B14" stop-opacity=".9"/></linearGradient><radialGradient id="i5d2f67-i835db9-paint2_radial_62220_1889" cx="0" cy="0" r="1" gradientTransform="rotate(135.673 3.787 9.298)scale(6.72172 8.98825)" gradientUnits="userSpaceOnUse"><stop offset=".019" stop-color="#E82C41"/><stop offset=".529" stop-color="#AA1D2D"/><stop offset=".889" stop-color="#70101B"/></radialGradient><radialGradient id="i5d2f67-i835db9-paint3_radial_62220_1889" cx="0" cy="0" r="1" gradientTransform="matrix(1.01898 2.04642 -8.6577 4.31093 7.775 12.346)" gradientUnits="userSpaceOnUse"><stop offset=".045" stop-color="#560B14"/><stop offset="1" stop-color="#8B1321" stop-opacity="0"/></radialGradient><linearGradient id="i5d2f67-i835db9-paint4_linear_62220_1889" x1="8.52" x2="5.102" y1="7" y2="15.208" gradientUnits="userSpaceOnUse"><stop stop-color="#FF6F47"/><stop offset=".718" stop-color="#E82C41"/></linearGradient><linearGradient id="i5d2f67-i835db9-paint5_linear_62220_1889" x1="5.596" x2="10.222" y1="12.698" y2="10.145" gradientUnits="userSpaceOnUse"><stop offset=".364" stop-color="#FF6F47" stop-opacity="0"/><stop offset=".745" stop-color="#FF835C"/></linearGradient><linearGradient id="i5d2f67-i835db9-paint6_linear_62220_1889" x1="9.734" x2="6.567" y1="4.804" y2="13.779" gradientUnits="userSpaceOnUse"><stop offset=".253" stop-color="#FFE4BE"/><stop offset="1" stop-color="#FFC470" stop-opacity="0"/></linearGradient></defs></svg>