<svg xmlns="http://www.w3.org/2000/svg" width="24" height="24" fill="none"><path fill="url(#ie84800-i875c83-paint0_linear_62220_684)" d="M4 6a3 3 0 0 1 3-3h12a3 3 0 0 1 3 3v11.5a5.5 5.5 0 0 1-5.5 5.5H7a3 3 0 0 1-3-3z"/><path fill="url(#ie84800-i875c83-paint1_radial_62220_684)" fill-opacity=".2" d="M4 6a3 3 0 0 1 3-3h12a3 3 0 0 1 3 3v11.5a5.5 5.5 0 0 1-5.5 5.5H7a3 3 0 0 1-3-3z"/><path fill="url(#ie84800-i875c83-paint2_linear_62220_684)" fill-rule="evenodd" d="M19 4H7a2 2 0 0 0-2 2v14a2 2 0 0 0 2 2h9.5a4.5 4.5 0 0 0 4.5-4.5V6a2 2 0 0 0-2-2M7 3a3 3 0 0 0-3 3v14a3 3 0 0 0 3 3h9.5a5.5 5.5 0 0 0 5.5-5.5V6a3 3 0 0 0-3-3z" clip-rule="evenodd"/><path fill="url(#ie84800-i875c83-paint3_linear_62220_684)" d="M1.953 4a3 3 0 0 1 3-3h12a3 3 0 0 1 3 3v14a3 3 0 0 1-3 3h-12a3 3 0 0 1-3-3z"/><path fill="url(#ie84800-i875c83-paint4_radial_62220_684)" fill-opacity=".2" d="M1.953 4a3 3 0 0 1 3-3h12a3 3 0 0 1 3 3v14a3 3 0 0 1-3 3h-12a3 3 0 0 1-3-3z"/><path fill="url(#ie84800-i875c83-paint5_linear_62220_684)" fill-rule="evenodd" d="M17 2H5a2 2 0 0 0-2 2v14a2 2 0 0 0 2 2h12a2 2 0 0 0 2-2V4a2 2 0 0 0-2-2M5 1a3 3 0 0 0-3 3v14a3 3 0 0 0 3 3h12a3 3 0 0 0 3-3V4a3 3 0 0 0-3-3z" clip-rule="evenodd"/><path fill="#448C3C" fill-rule="evenodd" d="M11 3.5c.799 0 1.45.624 1.496 1.411l3.18 1.836a1.5 1.5 0 1 1 .541 2.725l-.929 1.585.902 1.475q.15-.031.31-.032a1.5 1.5 0 1 1-.824 2.752l-3.18 1.837-.003.03.002.022h-.002a1.5 1.5 0 0 1-2.986 0l-.001-.013-.002-.04-3.179-1.836a1.5 1.5 0 1 1-.514-2.72l.902-1.475-.929-1.585a1.5 1.5 0 1 1 .541-2.725l3.18-1.836A1.5 1.5 0 0 1 11 3.5M6.98 13.76q.019.119.02.24-.001.235-.068.448l2.677 1.546-1.63-2.778zm5.414 2.233 2.675-1.544a1.5 1.5 0 0 1-.048-.688l-1-.545zm-3.536-3.256 1.642 2.801v-3.125a1.5 1.5 0 0 1-.5-.299zm3.144-.624c-.145.13-.314.234-.502.3v3.125l1.643-2.802zm-5.1.554.572-.312-.187-.319zm7.625-.313.573.313-.386-.632zM7.88 11.066l.474.809 1.168-.638A1.5 1.5 0 0 1 9.5 11q.001-.143.026-.276l-1.064-.612zm4.61-.248a1.5 1.5 0 0 1-.009.418l1.168.638.474-.808-.537-.878zm-5.184-.73.29-.475-.858-.493zm7.147-.399.244.399.477-.813zm-3.14-3.222a1.5 1.5 0 0 1-.622 0L8.983 9.259l1.045.6a1.493 1.493 0 0 1 2.014.063l1.021-.588zm.852-.523 1.767 2.892 1.086-.625a1.5 1.5 0 0 1 .053-.661l-2.868-1.655zM6.932 7.551A1.5 1.5 0 0 1 7 8q0 .058-.006.114l1.122.646 1.72-2.815-.037-.05z" clip-rule="evenodd"/><defs><linearGradient id="ie84800-i875c83-paint0_linear_62220_684" x1="9" x2="11.801" y1="3" y2="23.166" gradientUnits="userSpaceOnUse"><stop stop-color="#fff"/><stop offset="1" stop-color="#EBEBEB"/></linearGradient><radialGradient id="ie84800-i875c83-paint1_radial_62220_684" cx="0" cy="0" r="1" gradientTransform="matrix(9.50002 15.83334 -13.09743 7.85847 9.75 8.208)" gradientUnits="userSpaceOnUse"><stop offset=".177" stop-color="#fff"/><stop offset="1" stop-color="#B8B8B8"/></radialGradient><linearGradient id="ie84800-i875c83-paint2_linear_62220_684" x1="9.813" x2="12.792" y1="3" y2="23.114" gradientUnits="userSpaceOnUse"><stop stop-color="#BBB"/><stop offset="1" stop-color="#888"/></linearGradient><linearGradient id="ie84800-i875c83-paint3_linear_62220_684" x1="6.953" x2="9.754" y1="1" y2="21.166" gradientUnits="userSpaceOnUse"><stop stop-color="#fff"/><stop offset="1" stop-color="#EBEBEB"/></linearGradient><radialGradient id="ie84800-i875c83-paint4_radial_62220_684" cx="0" cy="0" r="1" gradientTransform="matrix(9.50002 15.83334 -13.09743 7.85847 7.703 6.208)" gradientUnits="userSpaceOnUse"><stop offset=".177" stop-color="#fff"/><stop offset="1" stop-color="#B8B8B8"/></radialGradient><linearGradient id="ie84800-i875c83-paint5_linear_62220_684" x1="7.813" x2="10.792" y1="1" y2="21.114" gradientUnits="userSpaceOnUse"><stop stop-color="#BBB"/><stop offset="1" stop-color="#888"/></linearGradient></defs></svg>