<svg xmlns="http://www.w3.org/2000/svg" width="24" height="24" fill="currentColor"><path d="M12.848 15.617c.846-.053 1.616-.034 2.216.105q.298.07.505.167a3.63 3.63 0 0 1 .681 2.158 3.8 3.8 0 0 1-.245 1.338l-.016.042a4 4 0 0 1-.286.583l-.032.054-.049.076-.103.15-.067.091a4 4 0 0 1-.205.247l-.023.025-.09.096-.05.052a5 5 0 0 1-.28.254l-.105.083-.038.03-.096.069a4 4 0 0 1-.228.15q-.047.03-.096.058l-.08.045-.09.048-.064.032q-.058.03-.116.056l-.056.024a3 3 0 0 1-.218.089l-.067.026-.116.039-.07.022-.087.024a4 4 0 0 1-.447.097l-.04.007-.107.014a3.8 3.8 0 0 1-1.046-.009q-.024-.002-.046-.006l-.089-.016-.1-.019-.145-.035-.032-.008-.157-.047-.022-.007-.112-.039-.073-.026-.088-.036-.083-.035a4 4 0 0 1-.272-.136l-.05-.028q-.055-.032-.107-.066l-.044-.027-.109-.073-.046-.033-.07-.052-.092-.072-.06-.05-.062-.053-.078-.071-.064-.062-.059-.06-.07-.074-.051-.055a4 4 0 0 1-.496-.704l-.027-.05a4 4 0 0 1-.096-.19l-.03-.068a4 4 0 0 1-.209-.571l-.016-.054a4 4 0 0 1-.114-.567 5 5 0 0 1-.041-.605c0-.62-.085-1.243-.316-1.79l.272-.01c.49-.025 1.22-.143 1.976-.256.784-.117 1.65-.238 2.489-.29ZM8.592 7l.003.002c.077.048.184.15.326.36s.284.47.46.802c.172.32.37.692.605 1.07.44.702 1.032 1.45 1.925 2.047-.343.198-.62.537-.62 1.199 0 .546.13.865.307 1.079.18.216.482.412.996.574a33 33 0 0 0-2.455.292c-.814.121-1.438.22-1.832.241h-.008c-2.826.175-3.557-.716-3.639-.867a.75.75 0 0 0-.2-.235c-.303-.632-.46-1.366-.46-2.165C4 8.717 6.032 6.878 8.592 7m6.024-5C17.048 2 19 3.996 19 6.5l-.008.28c-.073 1.387-.693 2.559-1.686 3.338a4.7 4.7 0 0 1-1.581.802c-1.26-.073-2.15-.378-2.805-.773-.755-.456-1.259-1.066-1.662-1.71-.204-.326-.378-.653-.553-.98-.168-.315-.347-.65-.542-.937l-.02-.029.17-.772c.26-1.178.757-2.125 1.518-2.775C12.598 2.29 13.558 2 14.616 2"/></svg>