<svg xmlns="http://www.w3.org/2000/svg" width="24" height="24" fill="none"><path fill="url(#i9c0a57-ib68695-paint0_radial_62220_1876)" d="M15.267 2C17.872 2 20 4.104 20 6.7c0 3.187-2.71 4.61-6.233 4.257-1.064-.219-2.665-.572-3.582-1.555.177-1.211.275-2.387.431-3.546C10.925 3.56 12.876 2 15.266 2"/><path fill="url(#i9c0a57-ib68695-paint1_linear_62220_1876)" d="M15.267 2C17.872 2 20 4.104 20 6.7c0 3.187-2.71 4.61-6.233 4.257-1.064-.219-2.665-.572-3.582-1.555.177-1.211.275-2.387.431-3.546C10.925 3.56 12.876 2 15.266 2"/><path fill="url(#i9c0a57-ib68695-paint2_radial_62220_1876)" d="M8.846 15.434c.805-.131 1.684-.434 3.26-.381l.72.087c1.902.308 3.174 1.583 3.174 3.428C16 20.463 14.522 22 12.68 22c-1.843 0-3.336-1.537-3.336-3.432 0-1.235-.442-2.628-1.817-3.071l.121.003c.418 0 .79 0 1.198-.066"/><path fill="url(#i9c0a57-ib68695-paint3_radial_62220_1876)" d="M8.846 15.434c.805-.131 1.684-.434 3.26-.381l.72.087c1.902.308 3.174 1.583 3.174 3.428C16 20.463 14.522 22 12.68 22c-1.843 0-3.336-1.537-3.336-3.432 0-1.235-.442-2.628-1.817-3.071l.121.003c.418 0 .79 0 1.198-.066"/><path fill="url(#i9c0a57-ib68695-paint4_linear_62220_1876)" d="M7.656 8.5c.98 0 1.87.257 2.52.894.926 1 2.558 1.352 3.625 1.57-1.746 0-3.301.146-3.301 2.114 0 .943.815 1.709 1.664 1.977-1.613-.062-2.503.246-3.318.379-.409.066-.78.066-1.198.066-1.997 0-3.608-1.492-3.608-3.5s1.619-3.5 3.616-3.5"/><path fill="url(#i9c0a57-ib68695-paint5_linear_62220_1876)" fill-opacity=".2" d="M7.656 8.5c.98 0 1.87.257 2.52.894.926 1 2.558 1.352 3.625 1.57-1.746 0-3.301.146-3.301 2.114 0 .943.815 1.709 1.664 1.977-1.613-.062-2.503.246-3.318.379-.409.066-.78.066-1.198.066-1.997 0-3.608-1.492-3.608-3.5s1.619-3.5 3.616-3.5"/><path fill="url(#i9c0a57-ib68695-paint6_linear_62220_1876)" fill-opacity=".8" d="M7.656 8.5c.98 0 1.87.257 2.52.894.926 1 2.558 1.352 3.625 1.57-1.746 0-3.301.146-3.301 2.114 0 .943.815 1.709 1.664 1.977-1.613-.062-2.503.246-3.318.379-.409.066-.78.066-1.198.066-1.997 0-3.608-1.492-3.608-3.5s1.619-3.5 3.616-3.5"/><defs><radialGradient id="i9c0a57-ib68695-paint0_radial_62220_1876" cx="0" cy="0" r="1" gradientTransform="matrix(-7.33995 8.40061 -31.72745 -27.72153 17.653 2)" gradientUnits="userSpaceOnUse"><stop offset=".034" stop-color="#FF6F47"/><stop offset=".207" stop-color="#FB5937"/><stop offset=".404" stop-color="#F83F54"/><stop offset=".721" stop-color="#CA2134"/></radialGradient><linearGradient id="i9c0a57-ib68695-paint1_linear_62220_1876" x1="12.354" x2="9.791" y1="7.845" y2="10.308" gradientUnits="userSpaceOnUse"><stop stop-color="#560B14" stop-opacity="0"/><stop offset="1" stop-color="#560B14" stop-opacity=".9"/></linearGradient><radialGradient id="i9c0a57-ib68695-paint2_radial_62220_1876" cx="0" cy="0" r="1" gradientTransform="matrix(-5.88995 5.87106 -7.85286 -7.87812 15.5 16.129)" gradientUnits="userSpaceOnUse"><stop offset=".019" stop-color="#E82C41"/><stop offset=".529" stop-color="#AA1D2D"/><stop offset=".889" stop-color="#70101B"/></radialGradient><radialGradient id="i9c0a57-ib68695-paint3_radial_62220_1876" cx="0" cy="0" r="1" gradientTransform="matrix(1.24816 2.55803 -10.68931 5.2157 9.107 14.933)" gradientUnits="userSpaceOnUse"><stop offset=".045" stop-color="#560B14"/><stop offset="1" stop-color="#8B1321" stop-opacity="0"/></radialGradient><linearGradient id="i9c0a57-ib68695-paint4_linear_62220_1876" x1="9.838" x2="5.744" y1="8.364" y2="18.573" gradientUnits="userSpaceOnUse"><stop stop-color="#FF6F47"/><stop offset=".718" stop-color="#E82C41"/></linearGradient><linearGradient id="i9c0a57-ib68695-paint5_linear_62220_1876" x1="6.101" x2="11.906" y1="15.375" y2="12.048" gradientUnits="userSpaceOnUse"><stop offset=".364" stop-color="#FF6F47" stop-opacity="0"/><stop offset=".745" stop-color="#FF835C"/></linearGradient><linearGradient id="i9c0a57-ib68695-paint6_linear_62220_1876" x1="11.389" x2="7.606" y1="5.661" y2="16.794" gradientUnits="userSpaceOnUse"><stop offset=".253" stop-color="#FFE4BE"/><stop offset="1" stop-color="#FFC470" stop-opacity="0"/></linearGradient></defs></svg>