<svg xmlns="http://www.w3.org/2000/svg" width="20" height="20" fill="currentColor"><path d="M10.548 12.597c.592-.038 1.143-.031 1.6.047q.165.15.3.321.31.402.448.93.07.265.092.564.012.15.012.307l-.015.321a3.5 3.5 0 0 1-.11.604l-.031.101q-.027.09-.059.179a3.4 3.4 0 0 1-.254.537l-.068.11q-.043.068-.09.135a3.1 3.1 0 0 1-.592.623 3 3 0 0 1-.375.256l-.036.02q-.104.057-.213.105l-.048.02q-.111.048-.23.085l-.025.01a3 3 0 0 1-.359.085l-.026.005-.093.013-.071.008-.03.003a3 3 0 0 1-.68-.013l-.064-.008a3 3 0 0 1-.219-.042l-.062-.016a3 3 0 0 1-.217-.063l-.04-.014a3 3 0 0 1-.214-.084l-.049-.022a3 3 0 0 1-.434-.251l-.071-.055a3 3 0 0 1-.159-.125l-.061-.058q-.067-.06-.129-.123-.046-.048-.09-.1l-.097-.113-.077-.103a3 3 0 0 1-.351-.623 3 3 0 0 1-.116-.322l-.023-.073a3 3 0 0 1-.059-.252l-.007-.032a3 3 0 0 1-.041-.303L7 14.87q0-.24-.012-.468a5 5 0 0 0-.042-.442 2.7 2.7 0 0 0-.286-.915q.163-.004.335-.014c.382-.02.956-.113 1.56-.203a24 24 0 0 1 1.993-.232ZM7.22 6.073q.205 0 .403.023.106.183.231.415c.136.254.292.548.477.844.375.597.886 1.233 1.684 1.714q.077.045.158.087-.163.05-.304.13c-.31.176-.554.482-.555 1.055 0 .447.114.727.286.926.117.136.283.256.51.362-.594.053-1.184.135-1.702.212-.644.096-1.149.177-1.47.193h-.004c-1.981.123-2.715-.405-2.93-.654-.324-.525-.504-1.162-.504-1.88 0-2.123 1.762-3.51 3.72-3.427m4.955-4.068c1.801.09 3.325 1.577 3.325 3.495l-.006.22c-.057 1.086-.537 2.006-1.306 2.622a3.6 3.6 0 0 1-.883.516l-.029-.003c-1.266 0-2.129-.27-2.745-.642s-1.027-.87-1.352-1.39c-.165-.262-.304-.524-.443-.784l-.12-.22c.053-.291.1-.581.138-.882C8.974 3.203 10.255 2 12 2z"/></svg>