<svg xmlns="http://www.w3.org/2000/svg" width="24" height="24" fill="currentColor"><path fill="url(#i1d19e8-a)" fill-rule="evenodd" d="M4.5 5a3 3 0 1 1 6 0 3 3 0 0 1-6 0m3-2a2 2 0 1 0 0 4 2 2 0 0 0 0-4" clip-rule="evenodd"/><path fill="url(#i1d19e8-b)" fill-rule="evenodd" d="M12 8a3 3 0 1 0 0 6 3 3 0 0 0 0-6m-2 3a2 2 0 1 1 4 0 2 2 0 0 1-4 0" clip-rule="evenodd"/><path fill="url(#i1d19e8-c)" fill-rule="evenodd" d="M16.8 19.703c.7-1.167.7-2.367.7-2.576v-.36c0-.976-.791-1.767-1.768-1.767H8.268c-.977 0-1.768.791-1.768 1.768v.36c0 .207 0 1.408.7 2.575C7.943 20.937 9.387 22 12 22s4.058-1.063 4.8-2.297m-.3-2.576c0 .166-.003 1.136-.558 2.06C15.398 20.095 14.296 21 12 21s-3.398-.906-3.942-1.812c-.555-.925-.558-1.895-.558-2.06v-.36c0-.424.344-.768.768-.768h7.464c.424 0 .768.344.768.768v.36Z" clip-rule="evenodd"/><path fill="url(#i1d19e8-d)" d="M21.3 13.703c-.548.91-1.477 1.727-2.975 2.093a2.8 2.8 0 0 0-.556-.903c1.456-.265 2.24-.985 2.673-1.705.555-.925.558-1.895.558-2.06v-.36a.77.77 0 0 0-.768-.768h-4.358a4 4 0 0 0-.409-1h4.767C21.21 9 22 9.791 22 10.768v.36c0 .207 0 1.408-.7 2.575"/><path fill="url(#i1d19e8-e)" d="M8.535 9H3.768C2.79 9 2 9.791 2 10.768v.36c0 .207 0 1.408.7 2.575.548.91 1.477 1.727 2.975 2.093.127-.337.317-.643.556-.903-1.456-.265-2.24-.985-2.673-1.705-.555-.925-.558-1.895-.558-2.06v-.36c0-.424.344-.768.768-.768h4.358q.138-.534.41-1Z"/><path fill="url(#i1d19e8-f)" fill-rule="evenodd" d="M16.5 2a3 3 0 1 0 0 6 3 3 0 0 0 0-6m-2 3a2 2 0 1 1 4 0 2 2 0 0 1-4 0" clip-rule="evenodd"/><defs><linearGradient id="i1d19e8-a" x1="2" x2="22" y1="2" y2="22" gradientUnits="userSpaceOnUse"><stop stop-color="#209782"/><stop offset="1" stop-color="#0C695A"/></linearGradient><linearGradient id="i1d19e8-b" x1="2" x2="22" y1="2" y2="22" gradientUnits="userSpaceOnUse"><stop stop-color="#209782"/><stop offset="1" stop-color="#0C695A"/></linearGradient><linearGradient id="i1d19e8-c" x1="2" x2="22" y1="2" y2="22" gradientUnits="userSpaceOnUse"><stop stop-color="#209782"/><stop offset="1" stop-color="#0C695A"/></linearGradient><linearGradient id="i1d19e8-d" x1="2" x2="22" y1="2" y2="22" gradientUnits="userSpaceOnUse"><stop stop-color="#209782"/><stop offset="1" stop-color="#0C695A"/></linearGradient><linearGradient id="i1d19e8-e" x1="2" x2="22" y1="2" y2="22" gradientUnits="userSpaceOnUse"><stop stop-color="#209782"/><stop offset="1" stop-color="#0C695A"/></linearGradient><linearGradient id="i1d19e8-f" x1="2" x2="22" y1="2" y2="22" gradientUnits="userSpaceOnUse"><stop stop-color="#209782"/><stop offset="1" stop-color="#0C695A"/></linearGradient></defs></svg>