<svg xmlns="http://www.w3.org/2000/svg" width="24" height="24" fill="currentColor"><path fill="url(#i9c821f-a)" d="M2 5a3 3 0 0 1 3-3h14a3 3 0 0 1 3 3v14a3 3 0 0 1-3 3H5a3 3 0 0 1-3-3z"/><path fill="url(#i9c821f-b)" fill-opacity=".2" d="M2 5a3 3 0 0 1 3-3h14a3 3 0 0 1 3 3v14a3 3 0 0 1-3 3H5a3 3 0 0 1-3-3z"/><path fill="url(#i9c821f-c)" fill-rule="evenodd" d="M19 3H5a2 2 0 0 0-2 2v14a2 2 0 0 0 2 2h14a2 2 0 0 0 2-2V5a2 2 0 0 0-2-2M5 2a3 3 0 0 0-3 3v14a3 3 0 0 0 3 3h14a3 3 0 0 0 3-3V5a3 3 0 0 0-3-3z" clip-rule="evenodd"/><path fill="url(#i9c821f-d)" d="M11.541 7.948a3.25 3.25 0 0 0-4.595-.012 3.25 3.25 0 0 0 .012 4.595l4.707 4.708a.5.5 0 0 0 .707 0l1.59-1.589a1.5 1.5 0 0 1-.867-.873l-.362-.968A1.5 1.5 0 0 1 12 14h-1.5a1.5 1.5 0 0 1 0-3h.525l.604-1.36a1.5 1.5 0 0 1 2.776.083l.238.637a1.5 1.5 0 0 1 2.699-.03l.34.681q.114.014.222.044a3.26 3.26 0 0 0-.861-3.09 3.25 3.25 0 0 0-4.601-.012l-.447.448z"/><path fill="url(#i9c821f-e)" d="M16.303 12.724a.5.5 0 0 0 .447.276h.75a.5.5 0 0 0 0-1h-.441l-.612-1.224a.5.5 0 0 0-.901.014l-.998 2.163-1.08-2.879a.5.5 0 0 0-.925-.027L11.675 12H10.5a.5.5 0 0 0 0 1H12a.5.5 0 0 0 .457-.297l.504-1.134 1.07 2.857a.5.5 0 0 0 .923.034l1.064-2.306z"/><defs><linearGradient id="i9c821f-a" x1="7.556" x2="10.085" y1="2" y2="22.239" gradientUnits="userSpaceOnUse"><stop stop-color="#fff"/><stop offset="1" stop-color="#EBEBEB"/></linearGradient><linearGradient id="i9c821f-c" x1="8.458" x2="11.151" y1="2" y2="22.197" gradientUnits="userSpaceOnUse"><stop stop-color="#BBB"/><stop offset="1" stop-color="#888"/></linearGradient><linearGradient id="i9c821f-d" x1="6" x2="16.289" y1="6.99" y2="18.868" gradientUnits="userSpaceOnUse"><stop stop-color="#7751B8"/><stop offset="1" stop-color="#5A409C"/></linearGradient><linearGradient id="i9c821f-e" x1="6" x2="16.289" y1="6.99" y2="18.868" gradientUnits="userSpaceOnUse"><stop stop-color="#7751B8"/><stop offset="1" stop-color="#5A409C"/></linearGradient><radialGradient id="i9c821f-b" cx="0" cy="0" r="1" gradientTransform="rotate(56.31 -2.54 11.442)scale(19.0293 16.4677)" gradientUnits="userSpaceOnUse"><stop offset=".177" stop-color="#fff"/><stop offset="1" stop-color="#B8B8B8"/></radialGradient></defs></svg>