<svg xmlns="http://www.w3.org/2000/svg" width="24" height="24" fill="currentColor"><path d="M3.556 19.854a1.75 1.75 0 0 1-.875-1.516v-3.175c0-.626.333-1.203.875-1.516l2.75-1.588a1.75 1.75 0 0 1 1.75 0l2.75 1.588c.541.313.875.89.875 1.516v3.175a1.75 1.75 0 0 1-.875 1.516l-2.75 1.587a1.75 1.75 0 0 1-1.75 0zm10.124-1.516c0 .625.334 1.203.876 1.516l2.75 1.587a1.75 1.75 0 0 0 1.75 0l2.75-1.587a1.75 1.75 0 0 0 .875-1.516v-3.175a1.75 1.75 0 0 0-.875-1.516l-2.75-1.588a1.75 1.75 0 0 0-1.75 0l-2.75 1.588a1.75 1.75 0 0 0-.875 1.516zm-5.5-9.5c0 .625.334 1.203.876 1.516l2.75 1.587a1.75 1.75 0 0 0 1.75 0l2.75-1.587a1.75 1.75 0 0 0 .875-1.516V5.663a1.75 1.75 0 0 0-.875-1.516l-2.75-1.588a1.75 1.75 0 0 0-1.75 0l-2.75 1.588a1.75 1.75 0 0 0-.875 1.516z"/></svg>