<svg xmlns="http://www.w3.org/2000/svg" width="20" height="20" fill="currentColor"><path d="M6.3 7.704c0 .447.24.86.626 1.083l2.75 1.586c.342.197.755.22 1.113.068a5.5 5.5 0 0 1 2.103-1.202l.783-.452a1.25 1.25 0 0 0 .626-1.083v-3.17c0-.446-.239-.86-.626-1.082l-2.75-1.586a1.25 1.25 0 0 0-1.249 0l-2.75 1.586a1.25 1.25 0 0 0-.625 1.082zm2.875 3.508c.24.139.423.35.527.597A5.5 5.5 0 0 0 9 14.5c0 .678.123 1.328.348 1.928a1.3 1.3 0 0 1-.173.12l-2.75 1.586a1.25 1.25 0 0 1-1.249 0l-2.75-1.586a1.25 1.25 0 0 1-.625-1.083v-3.17c0-.447.238-.86.625-1.083l2.75-1.585a1.25 1.25 0 0 1 1.25 0zM19 14.5a4.5 4.5 0 1 1-9 0 4.5 4.5 0 0 1 9 0m-4-2a.5.5 0 0 0-1 0V14h-1.5a.5.5 0 0 0 0 1H14v1.5a.5.5 0 0 0 1 0V15h1.5a.5.5 0 0 0 0-1H15z"/></svg>