<svg xmlns="http://www.w3.org/2000/svg" width="24" height="24" fill="currentColor"><path d="M10.537 2.534a2.25 2.25 0 0 1 2.903-.002L20.2 8.23c.507.427.8 1.057.8 1.72v2.5l-4.857.038a1.982 1.982 0 0 0-1.657 3.065 2.3 2.3 0 0 0-.62.429l-.706.707a2.227 2.227 0 0 0 .414 3.5 2.24 2.24 0 0 0-.537 1.31H4.75A1.75 1.75 0 0 1 3 19.75v-9.8c0-.662.292-1.29.797-1.718z"/><path d="m16.155 13.99 6.32-.05a.5.5 0 0 1 .502.505l-.048 6.32a.5.5 0 0 1-.854.35l-6.27-6.272a.5.5 0 0 1 .35-.853m1.535 4.835a.75.75 0 0 1 .243 1.224l-2.122 2.12a.75.75 0 0 1-1.06-1.06l2.12-2.121a.75.75 0 0 1 .818-.163Zm-1.703-.72-.707.707a.75.75 0 0 1-1.06-1.061l.707-.707a.75.75 0 0 1 1.06 1.06Zm2.121 3.535.707-.707a.751.751 0 1 1 1.06 1.06l-.706.707a.75.75 0 0 1-1.061-1.06"/></svg>