<svg xmlns="http://www.w3.org/2000/svg" width="20" height="20" fill="currentColor"><path d="M4 13V8.953a2.4 2.4 0 0 1-.813-.328 2.6 2.6 0 0 1-.632-.563 2.4 2.4 0 0 1-.407-.75A2.9 2.9 0 0 1 2 6.446q0-.507.203-.953t.547-.773q.344-.328.797-.524a2.47 2.47 0 0 1 1.906-.008q.453.188.797.524t.547.781Q7 5.939 7 6.446q0 .453-.14.867a2.4 2.4 0 0 1-.407.743 2.8 2.8 0 0 1-.633.57 2.2 2.2 0 0 1-.82.328V13h3V8.5q0-.234.172-.383l3.5-3A.5.5 0 0 1 12 5q.187 0 .328.117l3.5 3A.48.48 0 0 1 16 8.5V13h1.5a.48.48 0 0 1 .352.148.48.48 0 0 1 .148.352.48.48 0 0 1-.148.352.48.48 0 0 1-.352.148h-15a.48.48 0 0 1-.352-.148A.48.48 0 0 1 2 13.5a.48.48 0 0 1 .148-.352A.48.48 0 0 1 2.5 13zm13.5 2a.48.48 0 0 1 .352.148.48.48 0 0 1 .148.352.48.48 0 0 1-.148.352.48.48 0 0 1-.352.148h-15a.48.48 0 0 1-.352-.148A.48.48 0 0 1 2 15.5a.48.48 0 0 1 .148-.352A.48.48 0 0 1 2.5 15z"/></svg>