<svg xmlns="http://www.w3.org/2000/svg" width="24" height="24" fill="currentColor"><path d="M9.537 2.532a2.25 2.25 0 0 1 2.903-.002l6.76 5.699c.507.428.8 1.057.8 1.72v2.774a2.27 2.27 0 0 0-2-1.225 2.24 2.24 0 0 0-2.152 1.596c-.011.031-.03.077-.048.12l-.003.005a2.3 2.3 0 0 1-.255.438c-.231.307-.388.332-.446.341h-.181c-.063-.009-.225-.032-.456-.34a3 3 0 0 1-.155-.238 3 3 0 0 1-.137-.287l-.015-.035a2.248 2.248 0 0 0-3.52-1.134 2.26 2.26 0 0 0-.798 1.17l-.039.1q-.088.201-.223.375a.92.92 0 0 1-.822.39 2.25 2.25 0 1 0 0 4.5 5.5 5.5 0 0 0 .946-.073 2 2 0 0 1-.124.183.92.92 0 0 1-.822.39 2.25 2.25 0 0 0-2.121 1.499H3.75A1.75 1.75 0 0 1 2 18.748v-8.8c0-.662.292-1.29.797-1.718z"/><path d="M16.743 14.548c.1-.134.186-.269.257-.395v.001a4 4 0 0 0 .279-.613l.003-.011a.75.75 0 0 1 1.441.02l.003.009.018.054a3.3 3.3 0 0 0 .504.922c.384.49.996.963 2.002.963a.75.75 0 0 1 0 1.5c-1.574 0-2.587-.777-3.183-1.537L18 15.372l-.056.076c-.473.63-1.238 1.32-2.358 1.503a3.6 3.6 0 0 1-1.191-.003c-1.11-.188-1.868-.873-2.339-1.5l-.055-.076-.068.089c-.596.76-1.61 1.537-3.183 1.537a.75.75 0 1 1 0-1.5c1.006 0 1.618-.473 2.002-.963a3.3 3.3 0 0 0 .505-.922l.017-.054.003-.009a.75.75 0 0 1 1.44-.02l.004.011.02.058a4 4 0 0 0 .259.556v-.002c.071.126.157.261.257.395.338.45.802.84 1.453.93a2.1 2.1 0 0 0 .623-.006c.628-.101 1.08-.484 1.41-.924m0 5c.1-.134.186-.269.257-.395v.001a4 4 0 0 0 .279-.613l.003-.011a.75.75 0 0 1 1.441.02l.003.009.018.054a3.3 3.3 0 0 0 .504.922c.384.49.996.963 2.002.963a.75.75 0 0 1 0 1.5c-1.574 0-2.587-.777-3.183-1.537L18 20.372l-.056.076c-.473.63-1.238 1.32-2.358 1.503a3.6 3.6 0 0 1-1.191-.003c-1.11-.188-1.868-.873-2.339-1.5l-.055-.076-.068.089c-.596.76-1.61 1.537-3.183 1.537a.75.75 0 1 1 0-1.5c1.006 0 1.618-.473 2.002-.963a3.3 3.3 0 0 0 .505-.922l.017-.054.003-.009a.75.75 0 0 1 1.44-.02l.004.011.02.058a4 4 0 0 0 .259.556v-.002c.071.126.157.261.257.395.338.45.802.84 1.453.93a2.1 2.1 0 0 0 .623-.006c.628-.101 1.08-.484 1.41-.924"/></svg>