<svg xmlns="http://www.w3.org/2000/svg" width="24" height="24" fill="currentColor"><path fill="url(#i0c9954-a)" d="M3 5a3 3 0 0 1 3-3h10a3 3 0 0 1 3 3v6.174a6.5 6.5 0 0 0-1-.155V5a2 2 0 0 0-2-2H6a2 2 0 0 0-2 2v14a2 2 0 0 0 2 2h6.022q.346.54.788 1H6a3 3 0 0 1-3-3z"/><path fill="url(#i0c9954-b)" d="M20 11.498a6.5 6.5 0 0 1 1.5.878v-1.313a.56.56 0 0 0-.563-.563H20z"/><path fill="url(#i0c9954-c)" d="m14.578 11.692 1.268-1.268a.6.6 0 0 0 0-.848l-2.023-2.023a.5.5 0 1 0-.707.707l1.74 1.74-1.74 1.74a.5.5 0 0 0 .163.816 6.5 6.5 0 0 1 1.299-.864"/><path fill="url(#i0c9954-d)" d="M12.485 6.621a.5.5 0 1 0-.97-.242l-1.75 7a.5.5 0 0 0 .97.242z"/><path fill="url(#i0c9954-e)" d="M8.916 8.291a.5.5 0 1 0-.707-.707L6.217 9.576a.6.6 0 0 0 0 .848l1.992 1.992a.5.5 0 0 0 .707-.707L7.206 10z"/><path fill="url(#i0c9954-f)" d="M20 6h.938c.31 0 .562.252.562.563v1.875c0 .31-.252.562-.563.562H20z"/><path fill="url(#i0c9954-g)" fill-rule="evenodd" d="M23 17.5a5.5 5.5 0 1 0-11 0 5.5 5.5 0 0 0 11 0m-5 .5.001 2.503a.5.5 0 1 1-1 0V18h-2.505a.5.5 0 0 1 0-1H17v-2.5a.5.5 0 1 1 1 0V17h2.497a.5.5 0 0 1 0 1z" clip-rule="evenodd"/><defs><linearGradient id="i0c9954-a" x1="3" x2="23.975" y1="2" y2="21.976" gradientUnits="userSpaceOnUse"><stop stop-color="#209782"/><stop offset="1" stop-color="#0C695A"/></linearGradient><linearGradient id="i0c9954-b" x1="3" x2="23.975" y1="2" y2="21.976" gradientUnits="userSpaceOnUse"><stop stop-color="#209782"/><stop offset="1" stop-color="#0C695A"/></linearGradient><linearGradient id="i0c9954-c" x1="3" x2="23.975" y1="2" y2="21.976" gradientUnits="userSpaceOnUse"><stop stop-color="#209782"/><stop offset="1" stop-color="#0C695A"/></linearGradient><linearGradient id="i0c9954-d" x1="3" x2="23.975" y1="2" y2="21.976" gradientUnits="userSpaceOnUse"><stop stop-color="#209782"/><stop offset="1" stop-color="#0C695A"/></linearGradient><linearGradient id="i0c9954-e" x1="3" x2="23.975" y1="2" y2="21.976" gradientUnits="userSpaceOnUse"><stop stop-color="#209782"/><stop offset="1" stop-color="#0C695A"/></linearGradient><linearGradient id="i0c9954-f" x1="3" x2="23.975" y1="2" y2="21.976" gradientUnits="userSpaceOnUse"><stop stop-color="#209782"/><stop offset="1" stop-color="#0C695A"/></linearGradient><linearGradient id="i0c9954-g" x1="3" x2="23.975" y1="2" y2="21.976" gradientUnits="userSpaceOnUse"><stop stop-color="#209782"/><stop offset="1" stop-color="#0C695A"/></linearGradient></defs></svg>