<svg xmlns="http://www.w3.org/2000/svg" width="24" height="24" fill="none"><path fill="url(#i877eb9-paint0_linear_45747_653)" d="M18.187 13.895c1.08 0 2.106.87 2.46 1.824a2.503 2.503 0 0 1-2.352 3.364h-1.296c-2.209 0-4.082.666-5.235 2.695a.418.418 0 0 1-.788-.194V13.66z"/><path fill="url(#i877eb9-paint1_linear_45747_653)" d="M18.187 13.895c1.08 0 2.106.87 2.46 1.824a2.503 2.503 0 0 1-2.352 3.364h-1.296c-2.209 0-4.082.666-5.235 2.695a.418.418 0 0 1-.788-.194V13.66z"/><path fill="url(#i877eb9-paint2_linear_45747_653)" d="M20.646 15.72a2.51 2.51 0 0 0-2.353-1.637H4.925A2.92 2.92 0 0 1 2 11.167c0-1.61 1.404-3.068 3.019-3.068l5.32-.175 7.13-.046.16.336 3.017 7.505"/><path fill="url(#i877eb9-paint3_linear_45747_653)" d="M20.646 15.72a2.51 2.51 0 0 0-2.353-1.637H4.925A2.92 2.92 0 0 1 2 11.167c0-1.61 1.404-3.068 3.019-3.068l5.32-.175 7.13-.046.16.336 3.017 7.505"/><path fill="url(#i877eb9-paint4_linear_45747_653)" d="m21.948 7.125-1.665-4.137A1.67 1.67 0 0 0 18.758 2H5.519a1.67 1.67 0 0 0-1.608 1.214l-1.83 7.285C2.423 9.267 3.528 8.25 4.87 8.25h16.294a.834.834 0 0 0 .783-1.125"/><defs><linearGradient id="i877eb9-paint0_linear_45747_653" x1="10.04" x2="20.552" y1="18.144" y2="15.328" gradientUnits="userSpaceOnUse"><stop offset=".536" stop-color="#0A5BAB"/><stop offset=".726" stop-color="#0A4B95"/><stop offset=".889" stop-color="#0B3B7F"/></linearGradient><linearGradient id="i877eb9-paint1_linear_45747_653" x1="15.888" x2="15.888" y1="18.042" y2="9.702" gradientUnits="userSpaceOnUse"><stop offset=".309" stop-opacity="0"/><stop offset=".563" stop-opacity=".4"/></linearGradient><linearGradient id="i877eb9-paint2_linear_45747_653" x1="21.186" x2="2.557" y1="13.709" y2="8.718" gradientUnits="userSpaceOnUse"><stop offset=".1" stop-color="#A0A4F3"/><stop offset=".6" stop-color="#3D7DEB"/><stop offset=".95" stop-color="#2C57C2"/></linearGradient><linearGradient id="i877eb9-paint3_linear_45747_653" x1="11.324" x2="11.324" y1="12.714" y2="4.873" gradientUnits="userSpaceOnUse"><stop offset=".28" stop-color="#2C57C2" stop-opacity="0"/><stop offset=".564" stop-color="#2849AB" stop-opacity=".5"/></linearGradient><linearGradient id="i877eb9-paint4_linear_45747_653" x1="15.98" x2="8.019" y1=".137" y2="13.927" gradientUnits="userSpaceOnUse"><stop offset=".24" stop-color="#BBC2FB"/><stop offset=".8" stop-color="#79B6FB"/></linearGradient></defs></svg>