<svg xmlns="http://www.w3.org/2000/svg" width="24" height="24" fill="currentColor"><path d="M19 4.491a2.5 2.5 0 0 1-3.012 2.448l-1.28 2.117c.572.527.99 1.217 1.18 1.997A3.501 3.501 0 0 0 14.05 17h-.277q-.451.002-.858.135l-.383-1.17a4 4 0 0 1-3.752-1.593l-1.795.848a2.5 2.5 0 1 1-.608-1.372l1.754-.829a4 4 0 0 1 .784-3.566l-.991-1.13a2.5 2.5 0 1 1 1.164-.948l.983 1.12A4 4 0 0 1 12 8c.505 0 .99.094 1.434.265l1.245-2.06A2.5 2.5 0 1 1 19 4.492Z"/><path d="M19 14.5a2.5 2.5 0 1 1-5 0 2.5 2.5 0 0 1 5 0m2 5.375C21 21.431 19.714 23 16.5 23S12 21.437 12 19.875v-.103c0-.98.794-1.772 1.773-1.772h5.454c.98 0 1.773.793 1.773 1.772z"/></svg>