<svg xmlns="http://www.w3.org/2000/svg" width="20" height="20" fill="currentColor"><g clip-path="url(#ia415a4-a)"><path fill="url(#ia415a4-b)" d="M2 3.5A2.5 2.5 0 0 1 4.5 1h11A2.5 2.5 0 0 1 18 3.5v13a2.5 2.5 0 0 1-2.5 2.5h-11A2.5 2.5 0 0 1 2 16.5z"/><path fill="url(#ia415a4-c)" fill-opacity=".2" d="M2 3.5A2.5 2.5 0 0 1 4.5 1h11A2.5 2.5 0 0 1 18 3.5v13a2.5 2.5 0 0 1-2.5 2.5h-11A2.5 2.5 0 0 1 2 16.5z"/><path fill="url(#ia415a4-d)" fill-rule="evenodd" d="M15.5 2h-11A1.5 1.5 0 0 0 3 3.5v13A1.5 1.5 0 0 0 4.5 18h11a1.5 1.5 0 0 0 1.5-1.5v-13A1.5 1.5 0 0 0 15.5 2m-11-1A2.5 2.5 0 0 0 2 3.5v13A2.5 2.5 0 0 0 4.5 19h11a2.5 2.5 0 0 0 2.5-2.5v-13A2.5 2.5 0 0 0 15.5 1z" clip-rule="evenodd"/><path fill="url(#ia415a4-e)" fill-rule="evenodd" d="M8.5 5A1.5 1.5 0 0 0 7 6.5V12h4.5a.5.5 0 0 1 .5.5v2a.5.5 0 0 0 1 0V5zM13 4H8.5A2.5 2.5 0 0 0 6 6.5V12H4.5a.5.5 0 0 0-.5.5v1A2.5 2.5 0 0 0 6.5 16h5.945v-.001L12.5 16a1.5 1.5 0 0 0 1.5-1.5V10h1.5a.5.5 0 0 0 .5-.5V6a2 2 0 0 0-2-2zM8 7.5a.5.5 0 0 1 .5-.5h3a.5.5 0 0 1 0 1h-3a.5.5 0 0 1-.5-.5M8.5 9a.5.5 0 0 0 0 1h3a.5.5 0 0 0 0-1z" clip-rule="evenodd"/><path fill="#F5F5F5" d="M19.56 11.44c-.28-.28-.66-.44-1.06-.44h-5c-.19 0-.38.04-.55.11l-.14.07-.13.08c-.15.1-.28.23-.44.46l-.04.07-.08.14c-.03.07-.05.13-.07.2l-.03.12v.06c-.03.16-.02.32 0 .49.06.29.2.56.41.76l.1.1c-.15.07-.28.16-.4.28l-.71.71a1.5 1.5 0 0 0 0 2.12c.12.12.27.22.42.29l-.42.42a1.499 1.499 0 1 0 2.12 2.12l.42-.42c.07.15.17.3.29.42a1.5 1.5 0 0 0 2.12 0l.71-.71c.12-.12.2-.26.27-.41l.08.08c.21.21.48.36.76.41l.2.03h.1c.2 0 .39-.04.59-.12.11-.05.2-.1.25-.14l.13-.1.06-.06.15-.17.05-.08c.17-.25.26-.54.26-.84V12.5c0-.4-.16-.78-.44-1.06z"/><path fill="url(#ia415a4-f)" d="M13.504 12h5a.5.5 0 0 1 .5.5v5a.5.5 0 0 1-.084.278l-.016.022a.5.5 0 0 1-.208.162.5.5 0 0 1-.545-.108l-5-5a.5.5 0 0 1-.077-.609l.01-.015.014-.022a.5.5 0 0 1 .406-.208"/><path fill="url(#ia415a4-g)" d="M13.56 14.653a.5.5 0 0 1 0 .707l-.707.708a.5.5 0 0 1-.707-.708l.707-.707a.5.5 0 0 1 .708 0Z"/><path fill="url(#ia415a4-h)" d="M16.39 17.482a.5.5 0 0 1 0 .707l-.708.707a.5.5 0 1 1-.707-.707l.707-.707a.5.5 0 0 1 .707 0Z"/><path fill="url(#ia415a4-i)" d="M14.975 16.068a.5.5 0 0 1 0 .707l-2.121 2.121a.5.5 0 1 1-.707-.707l2.12-2.121a.5.5 0 0 1 .708 0"/></g><defs><linearGradient id="ia415a4-b" x1="6.444" x2="8.996" y1="1" y2="19.141" gradientUnits="userSpaceOnUse"><stop stop-color="#fff"/><stop offset="1" stop-color="#EBEBEB"/></linearGradient><linearGradient id="ia415a4-d" x1="7.167" x2="9.881" y1="1" y2="19.093" gradientUnits="userSpaceOnUse"><stop stop-color="#BBB"/><stop offset="1" stop-color="#888"/></linearGradient><linearGradient id="ia415a4-e" x1="4" x2="16" y1="4" y2="16" gradientUnits="userSpaceOnUse"><stop stop-color="#4BA446"/><stop offset="1" stop-color="#3F7D35"/></linearGradient><linearGradient id="ia415a4-f" x1="12" x2="19.042" y1="12" y2="19.004" gradientUnits="userSpaceOnUse"><stop stop-color="#4BA446"/><stop offset="1" stop-color="#3F7D35"/></linearGradient><linearGradient id="ia415a4-g" x1="12" x2="19.042" y1="12" y2="19.004" gradientUnits="userSpaceOnUse"><stop stop-color="#4BA446"/><stop offset="1" stop-color="#3F7D35"/></linearGradient><linearGradient id="ia415a4-h" x1="12" x2="19.042" y1="12" y2="19.004" gradientUnits="userSpaceOnUse"><stop stop-color="#4BA446"/><stop offset="1" stop-color="#3F7D35"/></linearGradient><linearGradient id="ia415a4-i" x1="12" x2="19.042" y1="12" y2="19.004" gradientUnits="userSpaceOnUse"><stop stop-color="#4BA446"/><stop offset="1" stop-color="#3F7D35"/></linearGradient><radialGradient id="ia415a4-c" cx="0" cy="0" r="1" gradientTransform="matrix(8.44455 14.25 -11.71825 6.94424 7.111 5.687)" gradientUnits="userSpaceOnUse"><stop offset=".177" stop-color="#fff"/><stop offset="1" stop-color="#B8B8B8"/></radialGradient><clipPath id="ia415a4-a"><path fill="#fff" d="M0 0h20v20H0z"/></clipPath></defs></svg>