<svg xmlns="http://www.w3.org/2000/svg" width="24" height="24" fill="currentColor"><g clip-path="url(#i612ecd-a)"><path fill="url(#i612ecd-b)" d="M3 4a3 3 0 0 1 3-3h12a3 3 0 0 1 3 3v16a3 3 0 0 1-3 3H6a3 3 0 0 1-3-3z"/><path fill="url(#i612ecd-c)" fill-opacity=".2" d="M3 4a3 3 0 0 1 3-3h12a3 3 0 0 1 3 3v16a3 3 0 0 1-3 3H6a3 3 0 0 1-3-3z"/><path fill="url(#i612ecd-d)" fill-rule="evenodd" d="M18 2H6a2 2 0 0 0-2 2v16a2 2 0 0 0 2 2h12a2 2 0 0 0 2-2V4a2 2 0 0 0-2-2M6 1a3 3 0 0 0-3 3v16a3 3 0 0 0 3 3h12a3 3 0 0 0 3-3V4a3 3 0 0 0-3-3z" clip-rule="evenodd"/><path fill="url(#i612ecd-e)" fill-rule="evenodd" d="M10.5 7A1.5 1.5 0 0 0 9 8.5V14h4.5a.5.5 0 0 1 .5.5v2a.5.5 0 0 0 1 0V7zM15 6h-4.5A2.5 2.5 0 0 0 8 8.5V14H6.5a.5.5 0 0 0-.5.5v1A2.5 2.5 0 0 0 8.5 18h5.945v-.001L14.5 18a1.5 1.5 0 0 0 1.5-1.5V12h1.5a.5.5 0 0 0 .5-.5V8a2 2 0 0 0-2-2zm-5 3.5a.5.5 0 0 1 .5-.5h3a.5.5 0 0 1 0 1h-3a.5.5 0 0 1-.5-.5m.5 1.5a.5.5 0 0 0 0 1h3a.5.5 0 0 0 0-1z" clip-rule="evenodd"/><path fill="#F5F5F5" d="M23.56 15.44c-.28-.28-.66-.44-1.06-.44h-5c-.19 0-.38.04-.55.11l-.14.07-.13.08c-.15.1-.28.23-.44.46l-.04.07-.08.14c-.03.07-.05.13-.07.2l-.03.12v.06c-.03.16-.02.32 0 .49.06.29.2.56.41.76l.1.1c-.15.07-.28.16-.4.28l-.71.71a1.5 1.5 0 0 0 0 2.12c.12.12.27.22.42.29l-.42.42a1.499 1.499 0 1 0 2.12 2.12l.42-.42c.07.15.17.3.29.42a1.5 1.5 0 0 0 2.12 0l.71-.71c.12-.12.2-.26.27-.41l.08.08c.21.21.48.36.76.41l.2.03h.1c.2 0 .39-.04.59-.12.11-.05.2-.1.25-.14l.13-.1.06-.06.15-.17.05-.08c.17-.25.26-.54.26-.84V16.5c0-.4-.16-.78-.44-1.06z"/><path fill="url(#i612ecd-f)" d="M17.504 16h5a.5.5 0 0 1 .5.5v5a.5.5 0 0 1-.084.278l-.016.022a.5.5 0 0 1-.208.162.5.5 0 0 1-.545-.108l-5-5a.5.5 0 0 1-.077-.609l.01-.015.014-.022a.5.5 0 0 1 .406-.208"/><path fill="url(#i612ecd-g)" d="M17.56 18.653a.5.5 0 0 1 0 .707l-.706.708a.5.5 0 0 1-.707-.708l.707-.707a.5.5 0 0 1 .707 0Z"/><path fill="url(#i612ecd-h)" d="M20.39 21.482a.5.5 0 0 1 0 .707l-.708.707a.5.5 0 1 1-.707-.707l.707-.707a.5.5 0 0 1 .707 0Z"/><path fill="url(#i612ecd-i)" d="M18.975 20.068a.5.5 0 0 1 0 .707l-2.122 2.121a.5.5 0 1 1-.707-.707l2.122-2.121a.5.5 0 0 1 .707 0"/></g><defs><linearGradient id="i612ecd-b" x1="8" x2="11.376" y1="1" y2="23.095" gradientUnits="userSpaceOnUse"><stop stop-color="#fff"/><stop offset="1" stop-color="#EBEBEB"/></linearGradient><linearGradient id="i612ecd-d" x1="8.813" x2="12.402" y1="1" y2="23.026" gradientUnits="userSpaceOnUse"><stop stop-color="#BBB"/><stop offset="1" stop-color="#888"/></linearGradient><linearGradient id="i612ecd-e" x1="6" x2="18" y1="6" y2="18" gradientUnits="userSpaceOnUse"><stop stop-color="#4BA446"/><stop offset="1" stop-color="#3F7D35"/></linearGradient><linearGradient id="i612ecd-f" x1="16" x2="23.042" y1="16" y2="23.004" gradientUnits="userSpaceOnUse"><stop stop-color="#4BA446"/><stop offset="1" stop-color="#3F7D35"/></linearGradient><linearGradient id="i612ecd-g" x1="16" x2="23.042" y1="16" y2="23.004" gradientUnits="userSpaceOnUse"><stop stop-color="#4BA446"/><stop offset="1" stop-color="#3F7D35"/></linearGradient><linearGradient id="i612ecd-h" x1="16" x2="23.042" y1="16" y2="23.004" gradientUnits="userSpaceOnUse"><stop stop-color="#4BA446"/><stop offset="1" stop-color="#3F7D35"/></linearGradient><linearGradient id="i612ecd-i" x1="16" x2="23.042" y1="16" y2="23.004" gradientUnits="userSpaceOnUse"><stop stop-color="#4BA446"/><stop offset="1" stop-color="#3F7D35"/></linearGradient><radialGradient id="i612ecd-c" cx="0" cy="0" r="1" gradientTransform="matrix(9.5 17.41665 -13.72809 7.48806 8.75 6.73)" gradientUnits="userSpaceOnUse"><stop offset=".177" stop-color="#fff"/><stop offset="1" stop-color="#B8B8B8"/></radialGradient><clipPath id="i612ecd-a"><path fill="#fff" d="M0 0h24v24H0z"/></clipPath></defs></svg>