<svg xmlns="http://www.w3.org/2000/svg" width="24" height="24" fill="currentColor"><path fill="url(#i9e73b4-a)" d="M3 4a3 3 0 0 1 3-3h12a3 3 0 0 1 3 3v16a3 3 0 0 1-3 3H6a3 3 0 0 1-3-3z"/><path fill="url(#i9e73b4-b)" fill-opacity=".2" d="M3 4a3 3 0 0 1 3-3h12a3 3 0 0 1 3 3v16a3 3 0 0 1-3 3H6a3 3 0 0 1-3-3z"/><path fill="url(#i9e73b4-c)" fill-rule="evenodd" d="M18 2H6a2 2 0 0 0-2 2v16a2 2 0 0 0 2 2h12a2 2 0 0 0 2-2V4a2 2 0 0 0-2-2M6 1a3 3 0 0 0-3 3v16a3 3 0 0 0 3 3h12a3 3 0 0 0 3-3V4a3 3 0 0 0-3-3z" clip-rule="evenodd"/><path fill="url(#i9e73b4-d)" d="M10.99 17.69a1.5 1.5 0 0 0-.154.31H8a2 2 0 0 1-2-2v-4.209a2 2 0 0 1 .662-1.487l4-3.6a2 2 0 0 1 2.676 0l4 3.6A2 2 0 0 1 18 11.791v2.25l-.04-.01-.01-.02a.6.6 0 0 1-.06-.12c-.07-.19-.18-.36-.33-.52-.14-.14-.31-.25-.49-.33l-.09-.04a1.5 1.5 0 0 0-.94-.01l-.12.05c-.37.15-.66.44-.81.81-.01.02-.05.07-.11.13-.06-.05-.11-.11-.11-.13a1.49 1.49 0 0 0-1.39-.93h-.14c-.57.05-1.05.42-1.26.95-.04.08-.06.13-.06.13a.3.3 0 0 1-.09.03l-.03.01a1.5 1.5 0 0 0-1.13 1.79 1.46 1.46 0 0 0 1.264 1.15l-.004.01q-.012.01-.09.03l-.03.01c-.39.09-.73.32-.94.66Z"/><path fill="url(#i9e73b4-e)" d="M16.347 13.935a.5.5 0 0 0-.31.287c-.071.176-.22.379-.422.536-.2.157-.418.242-.622.242s-.417-.085-.613-.24a1.4 1.4 0 0 1-.417-.537.5.5 0 0 0-.929.007c-.103.265-.218.426-.343.533s-.294.191-.55.25a.5.5 0 1 0 .219.975c.369-.083.7-.224.982-.466q.1-.087.188-.185.107.111.23.207c.325.258.751.456 1.233.456.48 0 .909-.197 1.238-.453a3 3 0 0 0 .238-.213q.087.1.19.188c.28.242.613.383.982.466a.5.5 0 1 0 .22-.976c-.257-.058-.426-.141-.551-.249-.126-.107-.24-.268-.343-.533a.5.5 0 0 0-.278-.282h-.002a.5.5 0 0 0-.34-.013"/><path fill="url(#i9e73b4-f)" d="M13.342 18.522q.1-.087.188-.185.107.111.23.207c.325.258.751.456 1.233.456.48 0 .909-.197 1.238-.453q.126-.1.238-.212.087.1.19.187c.28.242.613.383.982.466a.5.5 0 1 0 .22-.976c-.257-.058-.426-.141-.551-.249-.126-.107-.24-.268-.343-.533a.498.498 0 0 0-.813-.18.5.5 0 0 0-.117.173c-.071.175-.22.378-.422.535-.2.157-.418.242-.622.242s-.417-.085-.613-.24a1.4 1.4 0 0 1-.417-.537.5.5 0 0 0-.929.007c-.103.265-.218.426-.343.533s-.294.191-.55.25a.5.5 0 1 0 .219.975c.369-.083.7-.224.982-.466"/><defs><linearGradient id="i9e73b4-a" x1="8" x2="11.376" y1="1" y2="23.095" gradientUnits="userSpaceOnUse"><stop stop-color="#fff"/><stop offset="1" stop-color="#EBEBEB"/></linearGradient><linearGradient id="i9e73b4-c" x1="8.813" x2="12.402" y1="1" y2="23.026" gradientUnits="userSpaceOnUse"><stop stop-color="#BBB"/><stop offset="1" stop-color="#888"/></linearGradient><linearGradient id="i9e73b4-d" x1="6" x2="18.796" y1="6.191" y2="18.429" gradientUnits="userSpaceOnUse"><stop stop-color="#3477EA"/><stop offset="1" stop-color="#1D53A4"/></linearGradient><linearGradient id="i9e73b4-e" x1="6" x2="18.796" y1="6.191" y2="18.429" gradientUnits="userSpaceOnUse"><stop stop-color="#3477EA"/><stop offset="1" stop-color="#1D53A4"/></linearGradient><linearGradient id="i9e73b4-f" x1="6" x2="18.796" y1="6.191" y2="18.429" gradientUnits="userSpaceOnUse"><stop stop-color="#3477EA"/><stop offset="1" stop-color="#1D53A4"/></linearGradient><radialGradient id="i9e73b4-b" cx="0" cy="0" r="1" gradientTransform="matrix(9.5 17.41665 -13.72809 7.48806 8.75 6.73)" gradientUnits="userSpaceOnUse"><stop offset=".177" stop-color="#fff"/><stop offset="1" stop-color="#B8B8B8"/></radialGradient></defs></svg>