<svg xmlns="http://www.w3.org/2000/svg" width="20" height="20" fill="currentColor"><path fill="url(#i21c904-a)" d="M2 3.5A2.5 2.5 0 0 1 4.5 1h11A2.5 2.5 0 0 1 18 3.5v13a2.5 2.5 0 0 1-2.5 2.5h-11A2.5 2.5 0 0 1 2 16.5z"/><path fill="url(#i21c904-b)" fill-opacity=".2" d="M2 3.5A2.5 2.5 0 0 1 4.5 1h11A2.5 2.5 0 0 1 18 3.5v13a2.5 2.5 0 0 1-2.5 2.5h-11A2.5 2.5 0 0 1 2 16.5z"/><path fill="url(#i21c904-c)" fill-rule="evenodd" d="M15.5 2h-11A1.5 1.5 0 0 0 3 3.5v13A1.5 1.5 0 0 0 4.5 18h11a1.5 1.5 0 0 0 1.5-1.5v-13A1.5 1.5 0 0 0 15.5 2m-11-1A2.5 2.5 0 0 0 2 3.5v13A2.5 2.5 0 0 0 4.5 19h11a2.5 2.5 0 0 0 2.5-2.5v-13A2.5 2.5 0 0 0 15.5 1z" clip-rule="evenodd"/><path fill="url(#i21c904-d)" d="M8.99 14.69a1.5 1.5 0 0 0-.153.31H6.5A1.5 1.5 0 0 1 5 13.5V9.668c0-.425.18-.83.497-1.115l3.5-3.15a1.5 1.5 0 0 1 2.007 0l3.5 3.15A1.5 1.5 0 0 1 15 9.668v.34L14.98 10a1.5 1.5 0 0 0-.94-.01l-.12.05c-.37.15-.66.44-.81.81-.01.02-.05.07-.11.13-.06-.05-.11-.11-.11-.13a1.49 1.49 0 0 0-1.39-.93h-.14c-.57.05-1.05.42-1.26.95-.04.08-.06.13-.06.13a.3.3 0 0 1-.09.031l-.03.009a1.5 1.5 0 0 0-1.13 1.79 1.46 1.46 0 0 0 1.264 1.15l-.004.01a.3.3 0 0 1-.09.031l-.03.009c-.39.09-.73.32-.94.66"/><path fill="url(#i21c904-e)" d="M14.347 10.935a.5.5 0 0 0-.31.287c-.071.176-.22.379-.422.536-.2.157-.418.242-.622.242s-.417-.085-.613-.24a1.4 1.4 0 0 1-.417-.537.5.5 0 0 0-.929.007c-.103.265-.218.426-.343.533s-.294.191-.55.25a.5.5 0 1 0 .219.975c.369-.083.7-.224.982-.466q.1-.087.188-.185.107.111.23.207c.325.258.751.456 1.233.456.48 0 .909-.197 1.238-.453a3 3 0 0 0 .238-.213q.087.1.19.188c.28.242.613.383.982.466a.5.5 0 1 0 .22-.976c-.257-.058-.426-.141-.551-.249-.126-.107-.24-.268-.344-.533a.5.5 0 0 0-.277-.282h-.002a.5.5 0 0 0-.34-.013"/><path fill="url(#i21c904-f)" d="M11.342 15.522q.1-.087.188-.185.107.111.23.207c.325.258.751.456 1.233.456.48 0 .909-.197 1.238-.453q.126-.1.238-.212.087.1.19.187c.28.242.613.383.982.466a.5.5 0 1 0 .22-.976c-.257-.058-.426-.141-.551-.249-.126-.107-.24-.268-.344-.533a.498.498 0 0 0-.812-.18.5.5 0 0 0-.117.173c-.071.175-.22.378-.422.535-.2.157-.418.242-.622.242s-.417-.085-.613-.24a1.4 1.4 0 0 1-.417-.537.5.5 0 0 0-.929.007c-.103.265-.218.426-.343.533s-.294.191-.55.25a.5.5 0 1 0 .219.975c.369-.083.7-.224.982-.466"/><defs><linearGradient id="i21c904-a" x1="6.444" x2="8.996" y1="1" y2="19.141" gradientUnits="userSpaceOnUse"><stop stop-color="#fff"/><stop offset="1" stop-color="#EBEBEB"/></linearGradient><linearGradient id="i21c904-c" x1="7.167" x2="9.881" y1="1" y2="19.093" gradientUnits="userSpaceOnUse"><stop stop-color="#BBB"/><stop offset="1" stop-color="#888"/></linearGradient><linearGradient id="i21c904-d" x1="5" x2="15.979" y1="5.018" y2="16.265" gradientUnits="userSpaceOnUse"><stop stop-color="#3477EA"/><stop offset="1" stop-color="#1D53A4"/></linearGradient><linearGradient id="i21c904-e" x1="5" x2="15.979" y1="5.018" y2="16.265" gradientUnits="userSpaceOnUse"><stop stop-color="#3477EA"/><stop offset="1" stop-color="#1D53A4"/></linearGradient><linearGradient id="i21c904-f" x1="5" x2="15.979" y1="5.018" y2="16.265" gradientUnits="userSpaceOnUse"><stop stop-color="#3477EA"/><stop offset="1" stop-color="#1D53A4"/></linearGradient><radialGradient id="i21c904-b" cx="0" cy="0" r="1" gradientTransform="matrix(8.44455 14.25 -11.71825 6.94424 7.111 5.687)" gradientUnits="userSpaceOnUse"><stop offset=".177" stop-color="#fff"/><stop offset="1" stop-color="#B8B8B8"/></radialGradient></defs></svg>