<svg xmlns="http://www.w3.org/2000/svg" width="20" height="20" fill="currentColor"><path d="M14.5 10a4.5 4.5 0 1 1 0 9 4.5 4.5 0 0 1 0-9m0 2a.5.5 0 0 0-.5.5V14h-1.5a.5.5 0 0 0 0 1H14v1.5a.5.5 0 0 0 1 0V15h1.5a.5.5 0 0 0 0-1H15v-1.5a.5.5 0 0 0-.5-.5m-5.41 3.49c.09.492.243.962.455 1.4l-.05-.025-6.008-3.502a1 1 0 0 1-.416-1.26zm.093-2.402a5.5 5.5 0 0 0-.17 1.043L3.487 10.91a1 1 0 0 1-.416-1.26z"/><path d="M9.494 3.117a1 1 0 0 1 1.01 0l6.01 3.52a1 1 0 0 1-.002 1.726l-1.198.697a5.5 5.5 0 0 0-5.678 2.871 1 1 0 0 1-.14-.066L3.487 8.363a1 1 0 0 1-.002-1.727l6.009-3.52Z"/></svg>