<svg xmlns="http://www.w3.org/2000/svg" width="20" height="20" fill="currentColor"><g clip-path="url(#i67ad22-a)"><path d="M3.5 2.001c-.829 0-1.5.67-1.5 1.498v6.903a2.997 2.997 0 0 1 3.999.938V3.5a1.5 1.5 0 0 0-1.5-1.498zm4.5 15.5q0 .193-.023.384.246.091.52.093h1c.829 0 1.5-.67 1.5-1.498V3.5c0-.827-.671-1.498-1.5-1.498h-1c-.827 0-1.499.67-1.499 1.498v12A2.5 2.5 0 0 1 8 17.502Zm7.718-11.343a1.5 1.5 0 0 0-1.87-1.106l-.745.21a1.5 1.5 0 0 0-1.06 1.742l2.003 9.799a1.5 1.5 0 0 0 1.839 1.151l.985-.25c.79-.2 1.274-.994 1.092-1.787zM5.5 13.001a2 2 0 1 1-4 0 2 2 0 0 1 4 0m1.5 4.5c0 1.245-1 2.5-3.5 2.5s-3.5-1.25-3.5-2.5a1.5 1.5 0 0 1 1.5-1.5h4a1.5 1.5 0 0 1 1.5 1.5"/></g><defs><clipPath id="i67ad22-a"><path d="M0 0h20v20H0z"/></clipPath></defs></svg>