<svg xmlns="http://www.w3.org/2000/svg" width="20" height="20" fill="currentColor"><path d="M9.898 12.99c.306 0 .607.067.883.193q.226.1.424.252h.001a.5.5 0 0 1-.611.792 1.14 1.14 0 0 0-.834-.229l-.059.007-.058-.007a.58.58 0 0 0-.644.519.23.23 0 0 0 .047.127.6.6 0 0 0 .166.138l.145.076c.153.07.323.119.478.162l.059.016c.185.051.511.14.792.312l.127.085q.12.088.224.207l.027.033a1.3 1.3 0 0 1 .178.283 1.2 1.2 0 0 1 .091.296l.01.05.004.03q.008.074.01.153v.016c0 .545-.216.959-.588 1.213a1.4 1.4 0 0 1-.182.102 2 2 0 0 1-.867.185A2 2 0 0 1 9.41 18l-.005-.001a2.2 2.2 0 0 1-.635-.14l-.013-.007-.11-.047-.082-.038a2 2 0 0 1-.173-.101l-.061-.038q-.076-.052-.148-.11a.5.5 0 0 1-.15-.563.5.5 0 0 1 .15-.213.5.5 0 0 1 .632.001c.236.193.538.285.841.259l.022-.001H9.7l.164-.008a1 1 0 0 0 .258-.061.3.3 0 0 0 .132-.084c.045-.046.088-.121.1-.26l.004-.087a.3.3 0 0 0-.02-.11c-.024-.074-.076-.131-.172-.19-.152-.093-.339-.145-.54-.201l-.062-.018-.021-.005-.009.026.007-.027c-.144-.041-.377-.106-.613-.215a2 2 0 0 1-.236-.124c-.281-.172-.588-.46-.67-.904A1.3 1.3 0 0 1 8 14.501v-.017l.001-.017a1.58 1.58 0 0 1 .684-1.197l.028-.017q.045-.029.09-.055l.044-.024q.062-.033.128-.06l.15-.054q.09-.025.183-.041l.06-.01a2 2 0 0 1 .184-.015l.144.005a2 2 0 0 1 .202-.01Z"/><path d="M10 2a3 3 0 0 1 3 3v1h1a3 3 0 0 1 3 3v3.086c-.388.137-.703.43-.87.804l-.009-.011a2.997 2.997 0 0 0-4.144-.089 2 2 0 0 0-.16-.146A3.14 3.14 0 0 0 9.68 12a2.6 2.6 0 0 0-.613.046l-.23.056a2.6 2.6 0 0 0-.702.333l-.21.158q-.302.252-.515.582l-.13.226a2.6 2.6 0 0 0-.246.739l-.032.275L7 14.45v.051c0 .64.25 1.12.552 1.467a2 2 0 0 0-.11.1l-.103.113A1.5 1.5 0 0 0 7.279 18H6a3 3 0 0 1-3-3V9a3 3 0 0 1 3-3h1V5a3 3 0 0 1 3-3m0 1a2 2 0 0 0-2 2v1h4V5a2 2 0 0 0-2-2"/><path d="m14 13 .197.01q.093.009.184.027l.057.014q.06.013.12.03l.062.02q.062.018.122.043l.048.02a2 2 0 0 1 .345.19l.071.053.071.055q.072.059.137.124l.133.146q.06.074.111.15l.027.043a2 2 0 0 1 .268.653l.009.04q.014.07.021.14l.007.058A2 2 0 0 1 16 15v1l-.01.196a2 2 0 0 1-.025.171l-.013.058q-.014.07-.034.139l-.005.018q-.028.09-.063.18l.33.248.12.09a.5.5 0 0 1-.6.8l-.451-.338a2 2 0 0 1-2.663-.148A2 2 0 0 1 12 16v-1a2 2 0 0 1 .009-.184l.007-.058a2 2 0 0 1 .202-.662l.028-.056q.031-.059.069-.115l.026-.042q.052-.078.112-.15l.133-.147A2 2 0 0 1 14 13m0 1a1 1 0 0 0-.707.293l-.066.073A1 1 0 0 0 13 15v1a1 1 0 0 0 1.393.92l-.693-.52a.5.5 0 0 1-.177-.544.5.5 0 0 1 .077-.156l.016-.017a.5.5 0 0 1 .684-.083l.693.52A1 1 0 0 0 15 16v-1a1 1 0 0 0-.227-.634l-.066-.073a1 1 0 0 0-.608-.288zm3.5-1a.5.5 0 0 1 .5.5V17h1.5a.5.5 0 0 1 0 1h-2a.5.5 0 0 1-.5-.5v-4a.5.5 0 0 1 .5-.5"/></svg>