<svg xmlns="http://www.w3.org/2000/svg" width="24" height="24" fill="currentColor"><path fill="url(#i71578e-a)" d="M2 5a3 3 0 0 1 3-3h14a3 3 0 0 1 3 3v14a3 3 0 0 1-3 3H5a3 3 0 0 1-3-3z"/><path fill="url(#i71578e-b)" fill-opacity=".2" d="M2 5a3 3 0 0 1 3-3h14a3 3 0 0 1 3 3v14a3 3 0 0 1-3 3H5a3 3 0 0 1-3-3z"/><path fill="url(#i71578e-c)" fill-rule="evenodd" d="M19 3H5a2 2 0 0 0-2 2v14a2 2 0 0 0 2 2h14a2 2 0 0 0 2-2V5a2 2 0 0 0-2-2M5 2a3 3 0 0 0-3 3v14a3 3 0 0 0 3 3h14a3 3 0 0 0 3-3V5a3 3 0 0 0-3-3z" clip-rule="evenodd"/><path fill="url(#i71578e-d)" d="M12 10c2.21 0 4-.672 4-1.5S14.21 7 12 7s-4 .672-4 1.5S9.79 10 12 10"/><path fill="url(#i71578e-e)" d="M12 10c2.21 0 4-.672 4-1.5S14.21 7 12 7s-4 .672-4 1.5S9.79 10 12 10"/><path fill="url(#i71578e-f)" d="M12 11c1.193 0 2.317-.18 3.18-.503.283-.106.56-.237.811-.397L16 15.75c0 .775-.614 1.341-1.3 1.685-.715.358-1.668.565-2.694.565s-1.98-.207-2.695-.565c-.686-.343-1.3-.91-1.3-1.685l-.008-5.654c.252.162.532.294.818.401.863.323 1.987.503 3.18.503Z"/><path fill="url(#i71578e-g)" d="M8.009 8.603C8.15 9.383 9.883 10 11.999 10c2.158 0 3.916-.64 3.998-1.442L16 8.5c0-.828-1.79-1.5-3.998-1.5-2.205 0-3.992.672-3.992 1.5a.6.6 0 0 0 .012.113z"/><path fill="url(#i71578e-h)" d="M18 17.761a.85.85 0 0 0-1.403-.645l-2.154 1.846a.85.85 0 0 0-.086 1.205l2.154 2.461c.516.591 1.49.225 1.49-.56v-4.307Z"/><path fill="url(#i71578e-i)" d="M19 17.761a.85.85 0 0 1 1.403-.645l2.154 1.846a.85.85 0 0 1 .086 1.205l-2.154 2.461c-.516.591-1.49.225-1.49-.56v-4.307Z"/><path fill="#F5F5F5" fill-rule="evenodd" d="M19 22.094v-4.358a.85.85 0 0 1 1.403-.62l2.154 1.846a.85.85 0 0 1 .086 1.205l-2.154 2.461c-.51.584-1.468.233-1.489-.534m-.5 1.247c.696.727 1.96.84 2.742-.054l2.154-2.462a1.85 1.85 0 0 0-.189-2.622l-2.153-1.847c-.81-.694-1.92-.53-2.554.135-.634-.666-1.743-.83-2.554-.135l-2.153 1.846a1.85 1.85 0 0 0-.189 2.623l2.154 2.462c.783.894 2.046.781 2.742.054m-.5-1.247v-4.358a.85.85 0 0 0-1.403-.62l-2.154 1.846a.85.85 0 0 0-.086 1.205l2.154 2.461c.51.584 1.468.233 1.489-.534" clip-rule="evenodd"/><defs><linearGradient id="i71578e-a" x1="7.556" x2="10.085" y1="2" y2="22.239" gradientUnits="userSpaceOnUse"><stop stop-color="#fff"/><stop offset="1" stop-color="#EBEBEB"/></linearGradient><linearGradient id="i71578e-c" x1="8.458" x2="11.151" y1="2" y2="22.197" gradientUnits="userSpaceOnUse"><stop stop-color="#BBB"/><stop offset="1" stop-color="#888"/></linearGradient><linearGradient id="i71578e-d" x1="8" x2="9.973" y1="7" y2="12.26" gradientUnits="userSpaceOnUse"><stop stop-color="#008EE6"/><stop offset="1" stop-color="#006094"/></linearGradient><linearGradient id="i71578e-e" x1="8" x2="9.973" y1="7" y2="12.26" gradientUnits="userSpaceOnUse"><stop stop-color="#008EE6"/><stop offset="1" stop-color="#006094"/></linearGradient><linearGradient id="i71578e-f" x1="8.002" x2="18.466" y1="7" y2="14.608" gradientUnits="userSpaceOnUse"><stop stop-color="#008EE6"/><stop offset="1" stop-color="#006094"/></linearGradient><linearGradient id="i71578e-g" x1="8.002" x2="18.466" y1="7" y2="14.608" gradientUnits="userSpaceOnUse"><stop stop-color="#008EE6"/><stop offset="1" stop-color="#006094"/></linearGradient><linearGradient id="i71578e-h" x1="14.146" x2="19.767" y1="16.909" y2="25.051" gradientUnits="userSpaceOnUse"><stop stop-color="#008EE6"/><stop offset="1" stop-color="#006094"/></linearGradient><linearGradient id="i71578e-i" x1="14.146" x2="19.767" y1="16.909" y2="25.051" gradientUnits="userSpaceOnUse"><stop stop-color="#008EE6"/><stop offset="1" stop-color="#006094"/></linearGradient><radialGradient id="i71578e-b" cx="0" cy="0" r="1" gradientTransform="rotate(56.31 -2.54 11.442)scale(19.0293 16.4677)" gradientUnits="userSpaceOnUse"><stop offset=".177" stop-color="#fff"/><stop offset="1" stop-color="#B8B8B8"/></radialGradient></defs></svg>