<svg xmlns="http://www.w3.org/2000/svg" width="24" height="24" fill="none"><path fill="url(#i74109c-i8a0159-paint0_linear_62917_1951)" d="M2 5a3 3 0 0 1 3-3h14a3 3 0 0 1 3 3v14a3 3 0 0 1-3 3H5a3 3 0 0 1-3-3z"/><path fill="url(#i74109c-i8a0159-paint1_radial_62917_1951)" fill-opacity=".2" d="M2 5a3 3 0 0 1 3-3h14a3 3 0 0 1 3 3v14a3 3 0 0 1-3 3H5a3 3 0 0 1-3-3z"/><path fill="url(#i74109c-i8a0159-paint2_linear_62917_1951)" fill-rule="evenodd" d="M19 3H5a2 2 0 0 0-2 2v14a2 2 0 0 0 2 2h14a2 2 0 0 0 2-2V5a2 2 0 0 0-2-2M5 2a3 3 0 0 0-3 3v14a3 3 0 0 0 3 3h14a3 3 0 0 0 3-3V5a3 3 0 0 0-3-3z" clip-rule="evenodd"/><path fill="url(#i74109c-i8a0159-paint3_linear_62917_1951)" d="M8.25 6a.75.75 0 0 1 .75.75v10.5a.75.75 0 0 1-1.5 0V6.75A.75.75 0 0 1 8.25 6M12 9a.75.75 0 0 1 .75.75v7.5a.75.75 0 0 1-1.5 0v-7.5A.75.75 0 0 1 12 9"/><path fill="#F5F5F5" fill-rule="evenodd" d="M21.5 12a2.5 2.5 0 0 1 2.5 2.5v7a2.5 2.5 0 0 1-2.5 2.5h-4a2.5 2.5 0 0 1-2.5-2.5v-7a2.5 2.5 0 0 1 2.5-2.5z" clip-rule="evenodd"/><path fill="url(#i74109c-i8a0159-paint4_linear_62917_1951)" d="M16 14.5a1.5 1.5 0 0 1 1.5-1.5h4a1.5 1.5 0 0 1 1.5 1.5v7a1.5 1.5 0 0 1-1.5 1.5h-4a1.5 1.5 0 0 1-1.5-1.5z"/><path fill="#F5F5F5" d="M20.5 20.5a.5.5 0 0 1 0 1h-2a.5.5 0 0 1 0-1z"/><defs><linearGradient id="i74109c-i8a0159-paint0_linear_62917_1951" x1="7.556" x2="10.085" y1="2" y2="22.239" gradientUnits="userSpaceOnUse"><stop stop-color="#fff"/><stop offset="1" stop-color="#EBEBEB"/></linearGradient><radialGradient id="i74109c-i8a0159-paint1_radial_62917_1951" cx="0" cy="0" r="1" gradientTransform="matrix(10.5556 15.8333 -15.8333 5.9375 8.389 7.208)" gradientUnits="userSpaceOnUse"><stop offset=".177" stop-color="#fff"/><stop offset="1" stop-color="#B8B8B8"/></radialGradient><linearGradient id="i74109c-i8a0159-paint2_linear_62917_1951" x1="8.458" x2="11.151" y1="2" y2="22.197" gradientUnits="userSpaceOnUse"><stop stop-color="#BBB"/><stop offset="1" stop-color="#888"/></linearGradient><linearGradient id="i74109c-i8a0159-paint3_linear_62917_1951" x1="7.5" x2="16.313" y1="6" y2="9.856" gradientUnits="userSpaceOnUse"><stop stop-color="#C28400"/><stop offset="1" stop-color="#A86500"/></linearGradient><linearGradient id="i74109c-i8a0159-paint4_linear_62917_1951" x1="16" x2="25.396" y1="13" y2="19.577" gradientUnits="userSpaceOnUse"><stop stop-color="#C28400"/><stop offset="1" stop-color="#A86500"/></linearGradient></defs></svg>