<svg xmlns="http://www.w3.org/2000/svg" width="20" height="20" fill="none"><path fill="url(#ic272f8-i6a8c89-paint0_linear_62917_1969)" d="M2 4.5A2.5 2.5 0 0 1 4.5 2h11A2.5 2.5 0 0 1 18 4.5v11a2.5 2.5 0 0 1-2.5 2.5h-11A2.5 2.5 0 0 1 2 15.5z"/><path fill="url(#ic272f8-i6a8c89-paint1_radial_62917_1969)" fill-opacity=".2" d="M2 4.5A2.5 2.5 0 0 1 4.5 2h11A2.5 2.5 0 0 1 18 4.5v11a2.5 2.5 0 0 1-2.5 2.5h-11A2.5 2.5 0 0 1 2 15.5z"/><path fill="url(#ic272f8-i6a8c89-paint2_linear_62917_1969)" fill-rule="evenodd" d="M15.5 3h-11A1.5 1.5 0 0 0 3 4.5v11A1.5 1.5 0 0 0 4.5 17h11a1.5 1.5 0 0 0 1.5-1.5v-11A1.5 1.5 0 0 0 15.5 3m-11-1A2.5 2.5 0 0 0 2 4.5v11A2.5 2.5 0 0 0 4.5 18h11a2.5 2.5 0 0 0 2.5-2.5v-11A2.5 2.5 0 0 0 15.5 2z" clip-rule="evenodd"/><path fill="url(#ic272f8-i6a8c89-paint3_linear_62917_1969)" fill-rule="evenodd" d="M5.5 14.25v-8.5a.75.75 0 0 1 1.5 0v8.5a.75.75 0 0 1-1.5 0" clip-rule="evenodd"/><path fill="url(#ic272f8-i6a8c89-paint4_linear_62917_1969)" fill-rule="evenodd" d="M9.25 14.25v-5.5a.75.75 0 0 1 1.5 0v5.5a.75.75 0 0 1-1.5 0" clip-rule="evenodd"/><path fill="url(#ic272f8-i6a8c89-paint5_linear_62917_1969)" fill-rule="evenodd" d="M13.75 11a.75.75 0 0 1 .75.75v2.5a.75.75 0 0 1-1.5 0v-2.5a.75.75 0 0 1 .75-.75" clip-rule="evenodd"/><path fill="#F5F5F5" fill-rule="evenodd" d="M17.5 8a2.5 2.5 0 0 1 2.5 2.5v7a2.5 2.5 0 0 1-2.5 2.5h-4a2.5 2.5 0 0 1-2.5-2.5v-7A2.5 2.5 0 0 1 13.5 8z" clip-rule="evenodd"/><path fill="url(#ic272f8-i6a8c89-paint6_linear_62917_1969)" d="M12 10.5A1.5 1.5 0 0 1 13.5 9h4a1.5 1.5 0 0 1 1.5 1.5v7a1.5 1.5 0 0 1-1.5 1.5h-4a1.5 1.5 0 0 1-1.5-1.5z"/><path fill="#F5F5F5" d="M16.5 16.5a.5.5 0 0 1 0 1h-2a.5.5 0 0 1 0-1z"/><defs><linearGradient id="ic272f8-i6a8c89-paint0_linear_62917_1969" x1="6.444" x2="8.468" y1="2" y2="18.192" gradientUnits="userSpaceOnUse"><stop stop-color="#fff"/><stop offset="1" stop-color="#EBEBEB"/></linearGradient><radialGradient id="ic272f8-i6a8c89-paint1_radial_62917_1969" cx="0" cy="0" r="1" gradientTransform="matrix(8.44444 12.6667 -12.6667 4.75 7.111 6.167)" gradientUnits="userSpaceOnUse"><stop offset=".177" stop-color="#fff"/><stop offset="1" stop-color="#B8B8B8"/></radialGradient><linearGradient id="ic272f8-i6a8c89-paint2_linear_62917_1969" x1="7.167" x2="9.321" y1="2" y2="18.157" gradientUnits="userSpaceOnUse"><stop stop-color="#BBB"/><stop offset="1" stop-color="#888"/></linearGradient><linearGradient id="ic272f8-i6a8c89-paint3_linear_62917_1969" x1="5.5" x2="15.445" y1="5" y2="13.95" gradientUnits="userSpaceOnUse"><stop stop-color="#C28400"/><stop offset="1" stop-color="#A86500"/></linearGradient><linearGradient id="ic272f8-i6a8c89-paint4_linear_62917_1969" x1="5.5" x2="15.445" y1="5" y2="13.95" gradientUnits="userSpaceOnUse"><stop stop-color="#C28400"/><stop offset="1" stop-color="#A86500"/></linearGradient><linearGradient id="ic272f8-i6a8c89-paint5_linear_62917_1969" x1="5.5" x2="15.445" y1="5" y2="13.95" gradientUnits="userSpaceOnUse"><stop stop-color="#C28400"/><stop offset="1" stop-color="#A86500"/></linearGradient><linearGradient id="ic272f8-i6a8c89-paint6_linear_62917_1969" x1="12" x2="21.396" y1="9" y2="15.577" gradientUnits="userSpaceOnUse"><stop stop-color="#C28400"/><stop offset="1" stop-color="#A86500"/></linearGradient></defs></svg>