<svg xmlns="http://www.w3.org/2000/svg" width="24" height="24" fill="currentColor"><path fill="url(#i6c1542-a)" d="M2 5a3 3 0 0 1 3-3h14a3 3 0 0 1 3 3v14a3 3 0 0 1-3 3H5a3 3 0 0 1-3-3z"/><path fill="url(#i6c1542-b)" fill-opacity=".2" d="M2 5a3 3 0 0 1 3-3h14a3 3 0 0 1 3 3v14a3 3 0 0 1-3 3H5a3 3 0 0 1-3-3z"/><path fill="url(#i6c1542-c)" fill-rule="evenodd" d="M19 3H5a2 2 0 0 0-2 2v14a2 2 0 0 0 2 2h14a2 2 0 0 0 2-2V5a2 2 0 0 0-2-2M5 2a3 3 0 0 0-3 3v14a3 3 0 0 0 3 3h14a3 3 0 0 0 3-3V5a3 3 0 0 0-3-3z" clip-rule="evenodd"/><path fill="url(#i6c1542-d)" fill-rule="evenodd" d="M10.913 17.503q.06.03.122.054l.021.01a1 1 0 0 0 .24.08 2.5 2.5 0 0 0 1.359.005 1 1 0 0 0 .265-.085l.113-.054.03-.014 2.986-1.43a2.5 2.5 0 0 0 1.42-2.255V9.716a1.5 1.5 0 0 0-.804-1.329l-3.52-1.844a2.5 2.5 0 0 0-2.314-.004L7.277 8.387a1.5 1.5 0 0 0-.808 1.33v4.098a2.5 2.5 0 0 0 1.429 2.259zm.525-.862.05.019v-3.59a2 2 0 0 0-1.136-1.803L7.508 9.904v3.91a1.5 1.5 0 0 0 .852 1.353zm1.05.016q.06-.022.12-.05l3.009-1.44a1.5 1.5 0 0 0 .852-1.353v-3.91l-2.845 1.363a2 2 0 0 0-1.136 1.803z" clip-rule="evenodd"/><defs><linearGradient id="i6c1542-a" x1="7.556" x2="10.085" y1="2" y2="22.239" gradientUnits="userSpaceOnUse"><stop stop-color="#fff"/><stop offset="1" stop-color="#EBEBEB"/></linearGradient><linearGradient id="i6c1542-c" x1="8.458" x2="11.151" y1="2" y2="22.197" gradientUnits="userSpaceOnUse"><stop stop-color="#BBB"/><stop offset="1" stop-color="#888"/></linearGradient><linearGradient id="i6c1542-d" x1="6.469" x2="17.945" y1="6.257" y2="17.247" gradientUnits="userSpaceOnUse"><stop stop-color="#4BA446"/><stop offset="1" stop-color="#3F7D35"/></linearGradient><radialGradient id="i6c1542-b" cx="0" cy="0" r="1" gradientTransform="rotate(56.31 -2.54 11.442)scale(19.0293 16.4677)" gradientUnits="userSpaceOnUse"><stop offset=".177" stop-color="#fff"/><stop offset="1" stop-color="#B8B8B8"/></radialGradient></defs></svg>