<svg xmlns="http://www.w3.org/2000/svg" width="20" height="20" fill="currentColor"><path fill="url(#i173c11-a)" d="M2 4.5A2.5 2.5 0 0 1 4.5 2h11A2.5 2.5 0 0 1 18 4.5v11a2.5 2.5 0 0 1-2.5 2.5h-11A2.5 2.5 0 0 1 2 15.5z"/><path fill="url(#i173c11-b)" fill-opacity=".2" d="M2 4.5A2.5 2.5 0 0 1 4.5 2h11A2.5 2.5 0 0 1 18 4.5v11a2.5 2.5 0 0 1-2.5 2.5h-11A2.5 2.5 0 0 1 2 15.5z"/><path fill="url(#i173c11-c)" fill-rule="evenodd" d="M15.5 3h-11A1.5 1.5 0 0 0 3 4.5v11A1.5 1.5 0 0 0 4.5 17h11a1.5 1.5 0 0 0 1.5-1.5v-11A1.5 1.5 0 0 0 15.5 3m-11-1A2.5 2.5 0 0 0 2 4.5v11A2.5 2.5 0 0 0 4.5 18h11a2.5 2.5 0 0 0 2.5-2.5v-11A2.5 2.5 0 0 0 15.5 2z" clip-rule="evenodd"/><path fill="url(#i173c11-d)" fill-rule="evenodd" d="M8.925 14.315q.06.028.12.053l.023.011q.12.057.24.08c.444.127.914.129 1.358.005a1 1 0 0 0 .266-.085l.118-.056.025-.013 2.005-.96a2.5 2.5 0 0 0 1.42-2.254V8.17a1.5 1.5 0 0 0-.804-1.328l-2.54-1.331a2.5 2.5 0 0 0-2.313-.004L6.277 6.843a1.5 1.5 0 0 0-.808 1.33v2.922a2.5 2.5 0 0 0 1.429 2.26zm1.096-4.949-.021.01-.02-.007.02.029zm-.573 4.086.052.02v-2.416a2 2 0 0 0-1.136-1.803L6.5 8.36v2.736a1.5 1.5 0 0 0 .852 1.352zm1.052.016a1 1 0 0 0 .124-.05l2.024-.97a1.5 1.5 0 0 0 .852-1.352V8.36l-1.864.893a2 2 0 0 0-1.136 1.803z" clip-rule="evenodd"/><defs><linearGradient id="i173c11-a" x1="6.444" x2="8.468" y1="2" y2="18.192" gradientUnits="userSpaceOnUse"><stop stop-color="#fff"/><stop offset="1" stop-color="#EBEBEB"/></linearGradient><linearGradient id="i173c11-c" x1="7.167" x2="9.321" y1="2" y2="18.157" gradientUnits="userSpaceOnUse"><stop stop-color="#BBB"/><stop offset="1" stop-color="#888"/></linearGradient><linearGradient id="i173c11-d" x1="5.469" x2="14.793" y1="5.226" y2="14.253" gradientUnits="userSpaceOnUse"><stop stop-color="#4BA446"/><stop offset="1" stop-color="#3F7D35"/></linearGradient><radialGradient id="i173c11-b" cx="0" cy="0" r="1" gradientTransform="rotate(56.31 -2.206 9.727)scale(15.2234 13.1741)" gradientUnits="userSpaceOnUse"><stop offset=".177" stop-color="#fff"/><stop offset="1" stop-color="#B8B8B8"/></radialGradient></defs></svg>