<svg xmlns="http://www.w3.org/2000/svg" width="20" height="20" fill="currentColor"><path d="M5.5 10a4.5 4.5 0 0 0 4.445 4.5c0 1.045.292 2.022.798 2.854a.75.75 0 0 1-1.493-.104v-1.296a6 6 0 0 1-5.204-5.204H2.75a.75.75 0 0 1 0-1.5h1.296A6 6 0 0 1 9.25 4.046V2.75a.75.75 0 0 1 1.5 0v1.296a6 6 0 0 1 5.17 4.974 5.6 5.6 0 0 0-1.51.077A4.502 4.502 0 0 0 5.5 10"/><path d="m10 13 .153-.004a5.51 5.51 0 0 1 2.819-3.41A3 3 0 1 0 10 13"/><path d="M15.5 11a3.5 3.5 0 1 0 2.684 5.747l.71.709a4.5 4.5 0 1 1-1.517-7.047q-.214.105-.393.282l-.032.033-.371.446A3.5 3.5 0 0 0 15.5 11"/><path d="M18.398 11.399a.5.5 0 0 1 0 .707l-1.932 2.324a1 1 0 1 1-.707-.707l1.932-2.325a.5.5 0 0 1 .707 0Z"/></svg>