<svg xmlns="http://www.w3.org/2000/svg" width="24" height="24" fill="currentColor"><path d="M18.999 4.25A2.25 2.25 0 0 0 16.749 2H6.25A2.25 2.25 0 0 0 4 4.25v15.5A2.25 2.25 0 0 0 6.25 22h10.499a2.25 2.25 0 0 0 2.25-2.25zm-6.077 2.72-1.356 5.424a.75.75 0 0 1-1.456-.364l1.357-5.424a.75.75 0 1 1 1.455.364m.505 4.416a.75.75 0 0 1 0-1.06l.825-.826-.825-.826a.75.75 0 0 1 1.06-1.06l1.286 1.285a.85.85 0 0 1 0 1.202l-1.286 1.285a.75.75 0 0 1-1.06 0M9.605 8.674l-.826.826.826.826a.75.75 0 1 1-1.061 1.06l-1.285-1.285a.85.85 0 0 1 0-1.202l1.285-1.285a.75.75 0 0 1 1.06 1.06Zm11.145 6.328H20V18h.75l.102-.007a.75.75 0 0 0 .648-.743v-1.498l-.007-.102a.75.75 0 0 0-.743-.648m0-4H20V14h.75l.102-.007a.75.75 0 0 0 .648-.743v-1.498l-.007-.102a.75.75 0 0 0-.743-.648m0-4H20V10h.75l.102-.007a.75.75 0 0 0 .648-.743V7.752l-.007-.102a.75.75 0 0 0-.743-.648"/></svg>