<svg xmlns="http://www.w3.org/2000/svg" width="24" height="24" fill="currentColor"><path fill="url(#i16a5c6-a)" fill-rule="evenodd" d="M18 1.5H6.5c-1.243 0-3 1.257-3 2.5v17c.5 1 2.265 1.5 3 1.5h11c.828 0 3-1.672 3-2.5V4c0-.828-1.672-2.5-2.5-2.5" clip-rule="evenodd"/><path fill="url(#i16a5c6-b)" fill-opacity=".2" fill-rule="evenodd" d="M18 1.5H6.5c-1.243 0-3 1.257-3 2.5v17c.5 1 2.265 1.5 3 1.5h11c.828 0 3-1.672 3-2.5V4c0-.828-1.672-2.5-2.5-2.5" clip-rule="evenodd"/><path fill="url(#i16a5c6-c)" d="M13.676 5.032a.5.5 0 0 1 .292.644l-3 8a.5.5 0 1 1-.936-.351l3-8a.5.5 0 0 1 .644-.293"/><path fill="url(#i16a5c6-d)" d="M15.146 7.146a.5.5 0 0 1 .707 0l1.93 1.93a.6.6 0 0 1 0 .848l-1.93 1.93a.5.5 0 0 1-.707-.708L16.793 9.5l-1.647-1.646a.5.5 0 0 1 0-.708"/><path fill="url(#i16a5c6-e)" d="M8.105 7.146a.5.5 0 1 1 .707.708L7.167 9.5l1.646 1.646a.5.5 0 0 1-.707.708l-1.929-1.93a.6.6 0 0 1 0-.848l1.93-1.93Z"/><path fill="url(#i16a5c6-f)" fill-rule="evenodd" d="M17.5 23a3.5 3.5 0 0 0 3.5-3.5v-15A3.5 3.5 0 0 0 17.5 1h-11A3.5 3.5 0 0 0 3 4.5v15.625h.003A3 3 0 0 0 6 23zm0-1a2.5 2.5 0 0 0 2.5-2.5v-.05a3.5 3.5 0 0 1-2.5 1.05h-11a.5.5 0 0 1 0-1h11A2.5 2.5 0 0 0 20 17v-.05A3.5 3.5 0 0 1 17.5 18H6a2 2 0 1 0 0 4zM4 17.764A3 3 0 0 1 6 17h11.5a2.5 2.5 0 0 0 2.5-2.5v-10A2.5 2.5 0 0 0 17.5 2h-11A2.5 2.5 0 0 0 4 4.5z" clip-rule="evenodd"/><defs><linearGradient id="i16a5c6-a" x1="8.222" x2="11.477" y1="1.5" y2="22.581" gradientUnits="userSpaceOnUse"><stop stop-color="#fff"/><stop offset="1" stop-color="#EBEBEB"/></linearGradient><linearGradient id="i16a5c6-c" x1="6" x2="14.649" y1="5" y2="16.491" gradientUnits="userSpaceOnUse"><stop stop-color="#4BA446"/><stop offset="1" stop-color="#3F7D35"/></linearGradient><linearGradient id="i16a5c6-d" x1="6" x2="14.649" y1="5" y2="16.491" gradientUnits="userSpaceOnUse"><stop stop-color="#4BA446"/><stop offset="1" stop-color="#3F7D35"/></linearGradient><linearGradient id="i16a5c6-e" x1="6" x2="14.649" y1="5" y2="16.491" gradientUnits="userSpaceOnUse"><stop stop-color="#4BA446"/><stop offset="1" stop-color="#3F7D35"/></linearGradient><linearGradient id="i16a5c6-f" x1="8.813" x2="12.402" y1="1" y2="23.026" gradientUnits="userSpaceOnUse"><stop stop-color="#BBB"/><stop offset="1" stop-color="#888"/></linearGradient><radialGradient id="i16a5c6-b" cx="0" cy="0" r="1" gradientTransform="rotate(61.645 -1.375 10.968)scale(18.8916 14.8045)" gradientUnits="userSpaceOnUse"><stop offset=".177" stop-color="#fff"/><stop offset="1" stop-color="#B8B8B8"/></radialGradient></defs></svg>