<svg xmlns="http://www.w3.org/2000/svg" width="24" height="24" fill="currentColor"><path d="M8.5 15.5a1 1 0 1 0 0-2 1 1 0 0 0 0 2"/><path d="M3 5.25A3.25 3.25 0 0 1 6.25 2h11.5A3.25 3.25 0 0 1 21 5.25v12.5A3.25 3.25 0 0 1 17.75 21H6.25A3.25 3.25 0 0 1 3 17.75zm3 1.5c0 .414.336.75.75.75h3.5a.75.75 0 0 0 0-1.5h-3.5a.75.75 0 0 0-.75.75m0 3c0 .414.336.75.75.75h3.5a.75.75 0 0 0 0-1.5h-3.5a.75.75 0 0 0-.75.75m7-3c0 .414.336.75.75.75h3.5a.75.75 0 0 0 0-1.5h-3.5a.75.75 0 0 0-.75.75m0 3c0 .414.336.75.75.75h3.5a.75.75 0 0 0 0-1.5h-3.5a.75.75 0 0 0-.75.75m0 3c0 .414.336.75.75.75h3.5a.75.75 0 0 0 0-1.5h-3.5a.75.75 0 0 0-.75.75M8.5 17a2.5 2.5 0 1 0 0-5 2.5 2.5 0 0 0 0 5"/></svg>