<svg xmlns="http://www.w3.org/2000/svg" width="20" height="20" fill="currentColor"><path d="M9.082 12.618c.186-.037.453-.153.796-.374a14.7 14.7 0 0 1-1.775-2.468C7.237 8.264 6.75 7.002 6.55 5.94c-1.06 1.866-1.158 4.342-.015 6.702.704.156 1.545.172 2.547-.024m2.78-2.073c-.402.407-.8.78-1.18 1.098a13.7 13.7 0 0 1-1.711-2.365c-1.18-2.06-1.555-3.512-1.528-4.534.02-.764.266-1.287.568-1.642l.002-.002c1.244-1.245 3.292-1.216 4.573.064q.187.188.34.396a6.85 6.85 0 0 1 4.991 7.548c-1.272-1.989-4.324-2.317-6.055-.563"/><path d="M4.222 5.827A3.76 3.76 0 0 1 6.083 4.81c-1.416 1.965-1.769 4.647-.874 7.235a4 4 0 0 1-.907-.684c-1.55-1.55-1.586-4.027-.08-5.534"/><path d="M15.976 14.985a6.9 6.9 0 0 0 1.451-2.836c-.681-1.946-3.422-2.491-4.923-.97-1.152 1.167-2.348 2.147-3.248 2.323-5.203 1.022-7.095-3.059-7.036-5.241a7.93 7.93 0 0 0 12.856 7.602l.022-.018q.475-.398.878-.86"/></svg>