<svg xmlns="http://www.w3.org/2000/svg" width="24" height="24" fill="currentColor"><path fill="url(#i29d7e4-a)" d="M4 6a3 3 0 0 1 3-3h12a3 3 0 0 1 3 3v11.5a5.5 5.5 0 0 1-5.5 5.5H7a3 3 0 0 1-3-3z"/><path fill="url(#i29d7e4-b)" fill-opacity=".2" d="M4 6a3 3 0 0 1 3-3h12a3 3 0 0 1 3 3v11.5a5.5 5.5 0 0 1-5.5 5.5H7a3 3 0 0 1-3-3z"/><path fill="url(#i29d7e4-c)" fill-rule="evenodd" d="M19 4H7a2 2 0 0 0-2 2v14a2 2 0 0 0 2 2h9.5a4.5 4.5 0 0 0 4.5-4.5V6a2 2 0 0 0-2-2M7 3a3 3 0 0 0-3 3v14a3 3 0 0 0 3 3h9.5a5.5 5.5 0 0 0 5.5-5.5V6a3 3 0 0 0-3-3z" clip-rule="evenodd"/><path fill="url(#i29d7e4-d)" d="M2 4a3 3 0 0 1 3-3h12a3 3 0 0 1 3 3v14a3 3 0 0 1-3 3H5a3 3 0 0 1-3-3z"/><path fill="url(#i29d7e4-e)" fill-opacity=".2" d="M2 4a3 3 0 0 1 3-3h12a3 3 0 0 1 3 3v14a3 3 0 0 1-3 3H5a3 3 0 0 1-3-3z"/><path fill="url(#i29d7e4-f)" fill-rule="evenodd" d="M17 2H5a2 2 0 0 0-2 2v14a2 2 0 0 0 2 2h12a2 2 0 0 0 2-2V4a2 2 0 0 0-2-2M5 1a3 3 0 0 0-3 3v14a3 3 0 0 0 3 3h12a3 3 0 0 0 3-3V4a3 3 0 0 0-3-3z" clip-rule="evenodd"/><path fill="url(#i29d7e4-g)" d="M6 5a1 1 0 0 0-1 1v3a1 1 0 0 0 1 1h3a1 1 0 0 0 1-1V6a1 1 0 0 0-1-1z"/><path fill="url(#i29d7e4-h)" d="M12 6.5a.5.5 0 0 1 .5-.5h4a.5.5 0 0 1 0 1h-4a.5.5 0 0 1-.5-.5"/><path fill="url(#i29d7e4-i)" d="M12 9.5a.5.5 0 0 1 .5-.5h4a.5.5 0 0 1 0 1h-4a.5.5 0 0 1-.5-.5"/><path fill="url(#i29d7e4-j)" d="M5.5 12a.5.5 0 0 0 0 1h11a.5.5 0 0 0 0-1z"/><path fill="url(#i29d7e4-k)" d="M5 15.5a.5.5 0 0 1 .5-.5h11a.5.5 0 0 1 0 1h-11a.5.5 0 0 1-.5-.5"/><defs><linearGradient id="i29d7e4-a" x1="9" x2="11.801" y1="3" y2="23.166" gradientUnits="userSpaceOnUse"><stop stop-color="#fff"/><stop offset="1" stop-color="#EBEBEB"/></linearGradient><linearGradient id="i29d7e4-c" x1="9.813" x2="12.792" y1="3" y2="23.114" gradientUnits="userSpaceOnUse"><stop stop-color="#BBB"/><stop offset="1" stop-color="#888"/></linearGradient><linearGradient id="i29d7e4-d" x1="7" x2="9.801" y1="1" y2="21.166" gradientUnits="userSpaceOnUse"><stop stop-color="#fff"/><stop offset="1" stop-color="#EBEBEB"/></linearGradient><linearGradient id="i29d7e4-f" x1="7.813" x2="10.792" y1="1" y2="21.114" gradientUnits="userSpaceOnUse"><stop stop-color="#BBB"/><stop offset="1" stop-color="#888"/></linearGradient><linearGradient id="i29d7e4-g" x1="5" x2="15.959" y1="5" y2="16.955" gradientUnits="userSpaceOnUse"><stop stop-color="#C28400"/><stop offset="1" stop-color="#A86500"/></linearGradient><linearGradient id="i29d7e4-h" x1="5" x2="15.959" y1="5" y2="16.955" gradientUnits="userSpaceOnUse"><stop stop-color="#C28400"/><stop offset="1" stop-color="#A86500"/></linearGradient><linearGradient id="i29d7e4-i" x1="5" x2="15.959" y1="5" y2="16.955" gradientUnits="userSpaceOnUse"><stop stop-color="#C28400"/><stop offset="1" stop-color="#A86500"/></linearGradient><linearGradient id="i29d7e4-j" x1="5" x2="15.959" y1="5" y2="16.955" gradientUnits="userSpaceOnUse"><stop stop-color="#C28400"/><stop offset="1" stop-color="#A86500"/></linearGradient><linearGradient id="i29d7e4-k" x1="5" x2="15.959" y1="5" y2="16.955" gradientUnits="userSpaceOnUse"><stop stop-color="#C28400"/><stop offset="1" stop-color="#A86500"/></linearGradient><radialGradient id="i29d7e4-b" cx="0" cy="0" r="1" gradientTransform="matrix(9.50002 15.83334 -13.09743 7.85847 9.75 8.208)" gradientUnits="userSpaceOnUse"><stop offset=".177" stop-color="#fff"/><stop offset="1" stop-color="#B8B8B8"/></radialGradient><radialGradient id="i29d7e4-e" cx="0" cy="0" r="1" gradientTransform="matrix(9.50002 15.83334 -13.09743 7.85847 7.75 6.208)" gradientUnits="userSpaceOnUse"><stop offset=".177" stop-color="#fff"/><stop offset="1" stop-color="#B8B8B8"/></radialGradient></defs></svg>