<svg xmlns="http://www.w3.org/2000/svg" width="20" height="20" fill="currentColor"><path fill="url(#ib8cac3-a)" d="M4 5.5A2.5 2.5 0 0 1 6.5 3h9A2.5 2.5 0 0 1 18 5.5v9a4.5 4.5 0 0 1-4.5 4.5h-7A2.5 2.5 0 0 1 4 16.5z"/><path fill="url(#ib8cac3-b)" fill-opacity=".2" d="M4 5.5A2.5 2.5 0 0 1 6.5 3h9A2.5 2.5 0 0 1 18 5.5v9a4.5 4.5 0 0 1-4.5 4.5h-7A2.5 2.5 0 0 1 4 16.5z"/><path fill="url(#ib8cac3-c)" fill-rule="evenodd" d="M15.5 4h-9A1.5 1.5 0 0 0 5 5.5v11A1.5 1.5 0 0 0 6.5 18h7a3.5 3.5 0 0 0 3.5-3.5v-9A1.5 1.5 0 0 0 15.5 4m-9-1A2.5 2.5 0 0 0 4 5.5v11A2.5 2.5 0 0 0 6.5 19h7a4.5 4.5 0 0 0 4.5-4.5v-9A2.5 2.5 0 0 0 15.5 3z" clip-rule="evenodd"/><path fill="url(#ib8cac3-d)" d="M2 3.5A2.5 2.5 0 0 1 4.5 1h9A2.5 2.5 0 0 1 16 3.5v11a2.5 2.5 0 0 1-2.5 2.5h-9A2.5 2.5 0 0 1 2 14.5z"/><path fill="url(#ib8cac3-e)" fill-opacity=".2" d="M2 3.5A2.5 2.5 0 0 1 4.5 1h9A2.5 2.5 0 0 1 16 3.5v11a2.5 2.5 0 0 1-2.5 2.5h-9A2.5 2.5 0 0 1 2 14.5z"/><path fill="url(#ib8cac3-f)" fill-rule="evenodd" d="M13.5 2h-9A1.5 1.5 0 0 0 3 3.5v11A1.5 1.5 0 0 0 4.5 16h9a1.5 1.5 0 0 0 1.5-1.5v-11A1.5 1.5 0 0 0 13.5 2m-9-1A2.5 2.5 0 0 0 2 3.5v11A2.5 2.5 0 0 0 4.5 17h9a2.5 2.5 0 0 0 2.5-2.5v-11A2.5 2.5 0 0 0 13.5 1z" clip-rule="evenodd"/><path fill="url(#ib8cac3-g)" d="M9 4.5a.5.5 0 0 1 .5-.5h4a.5.5 0 0 1 0 1h-4a.5.5 0 0 1-.5-.5"/><path fill="url(#ib8cac3-h)" d="M9 7.5a.5.5 0 0 1 .5-.5h4a.5.5 0 0 1 0 1h-4a.5.5 0 0 1-.5-.5"/><path fill="url(#ib8cac3-i)" d="M4.5 10a.5.5 0 0 0 0 1h9a.5.5 0 0 0 0-1z"/><path fill="url(#ib8cac3-j)" d="M4 13.5a.5.5 0 0 1 .5-.5h9a.5.5 0 0 1 0 1h-9a.5.5 0 0 1-.5-.5"/><path fill="url(#ib8cac3-k)" d="M5 4a1 1 0 0 0-1 1v2a1 1 0 0 0 1 1h2a1 1 0 0 0 1-1V5a1 1 0 0 0-1-1z"/><defs><linearGradient id="ib8cac3-a" x1="7.889" x2="10.191" y1="3" y2="19.116" gradientUnits="userSpaceOnUse"><stop stop-color="#fff"/><stop offset="1" stop-color="#EBEBEB"/></linearGradient><linearGradient id="ib8cac3-c" x1="8.521" x2="10.97" y1="3" y2="19.071" gradientUnits="userSpaceOnUse"><stop stop-color="#BBB"/><stop offset="1" stop-color="#888"/></linearGradient><linearGradient id="ib8cac3-d" x1="5.889" x2="8.191" y1="1" y2="17.116" gradientUnits="userSpaceOnUse"><stop stop-color="#fff"/><stop offset="1" stop-color="#EBEBEB"/></linearGradient><linearGradient id="ib8cac3-f" x1="6.521" x2="8.97" y1="1" y2="17.071" gradientUnits="userSpaceOnUse"><stop stop-color="#BBB"/><stop offset="1" stop-color="#888"/></linearGradient><linearGradient id="ib8cac3-g" x1="4" x2="14" y1="4" y2="14" gradientUnits="userSpaceOnUse"><stop stop-color="#C28400"/><stop offset="1" stop-color="#A86500"/></linearGradient><linearGradient id="ib8cac3-h" x1="4" x2="14" y1="4" y2="14" gradientUnits="userSpaceOnUse"><stop stop-color="#C28400"/><stop offset="1" stop-color="#A86500"/></linearGradient><linearGradient id="ib8cac3-i" x1="4" x2="14" y1="4" y2="14" gradientUnits="userSpaceOnUse"><stop stop-color="#C28400"/><stop offset="1" stop-color="#A86500"/></linearGradient><linearGradient id="ib8cac3-j" x1="4" x2="14" y1="4" y2="14" gradientUnits="userSpaceOnUse"><stop stop-color="#C28400"/><stop offset="1" stop-color="#A86500"/></linearGradient><linearGradient id="ib8cac3-k" x1="4" x2="14" y1="4" y2="14" gradientUnits="userSpaceOnUse"><stop stop-color="#C28400"/><stop offset="1" stop-color="#A86500"/></linearGradient><radialGradient id="ib8cac3-b" cx="0" cy="0" r="1" gradientTransform="rotate(59.744 -2.003 10.959)scale(14.6642 11.9669)" gradientUnits="userSpaceOnUse"><stop offset=".177" stop-color="#fff"/><stop offset="1" stop-color="#B8B8B8"/></radialGradient><radialGradient id="ib8cac3-e" cx="0" cy="0" r="1" gradientTransform="rotate(59.744 -1.262 8.218)scale(14.6642 11.9669)" gradientUnits="userSpaceOnUse"><stop offset=".177" stop-color="#fff"/><stop offset="1" stop-color="#B8B8B8"/></radialGradient></defs></svg>