<svg xmlns="http://www.w3.org/2000/svg" width="24" height="24" fill="currentColor"><path fill="url(#i00e3e0-a)" d="M2 5a3 3 0 0 1 3-3h14a3 3 0 0 1 3 3v14a3 3 0 0 1-3 3H5a3 3 0 0 1-3-3z"/><path fill="url(#i00e3e0-b)" fill-opacity=".2" d="M2 5a3 3 0 0 1 3-3h14a3 3 0 0 1 3 3v14a3 3 0 0 1-3 3H5a3 3 0 0 1-3-3z"/><path fill="url(#i00e3e0-c)" fill-rule="evenodd" d="M19 3H5a2 2 0 0 0-2 2v14a2 2 0 0 0 2 2h14a2 2 0 0 0 2-2V5a2 2 0 0 0-2-2M5 2a3 3 0 0 0-3 3v14a3 3 0 0 0 3 3h14a3 3 0 0 0 3-3V5a3 3 0 0 0-3-3z" clip-rule="evenodd"/><path fill="url(#i00e3e0-d)" fill-rule="evenodd" d="M7.5 6.75A1.5 1.5 0 0 0 6 8.25v8a1.5 1.5 0 0 0 3 0V15h6v1.25a1.5 1.5 0 0 0 3 0v-8a1.5 1.5 0 0 0-3 0V9H9v-.75a1.5 1.5 0 0 0-1.5-1.5m.5 9.5v-8a.5.5 0 0 0-1 0v8a.5.5 0 0 0 1 0m9-8v8a.5.5 0 0 1-1 0v-8a.5.5 0 0 1 1 0" clip-rule="evenodd"/><defs><linearGradient id="i00e3e0-a" x1="7.556" x2="10.085" y1="2" y2="22.239" gradientUnits="userSpaceOnUse"><stop stop-color="#fff"/><stop offset="1" stop-color="#EBEBEB"/></linearGradient><linearGradient id="i00e3e0-c" x1="8.458" x2="11.151" y1="2" y2="22.197" gradientUnits="userSpaceOnUse"><stop stop-color="#BBB"/><stop offset="1" stop-color="#888"/></linearGradient><linearGradient id="i00e3e0-d" x1="6" x2="16.959" y1="6.75" y2="18.705" gradientUnits="userSpaceOnUse"><stop stop-color="#4BA446"/><stop offset="1" stop-color="#3F7D35"/></linearGradient><radialGradient id="i00e3e0-b" cx="0" cy="0" r="1" gradientTransform="rotate(56.31 -2.54 11.442)scale(19.0293 16.4677)" gradientUnits="userSpaceOnUse"><stop offset=".177" stop-color="#fff"/><stop offset="1" stop-color="#B8B8B8"/></radialGradient></defs></svg>