<svg xmlns="http://www.w3.org/2000/svg" width="24" height="24" fill="none"><path fill="url(#i52087c-i1627b0-paint0_linear_65420_293)" d="M2 5a3 3 0 0 1 3-3h14a3 3 0 0 1 3 3v14a3 3 0 0 1-3 3H5a3 3 0 0 1-3-3z"/><path fill="url(#i52087c-i1627b0-paint1_radial_65420_293)" fill-opacity=".2" d="M2 5a3 3 0 0 1 3-3h14a3 3 0 0 1 3 3v14a3 3 0 0 1-3 3H5a3 3 0 0 1-3-3z"/><path fill="url(#i52087c-i1627b0-paint2_linear_65420_293)" fill-rule="evenodd" d="M19 3H5a2 2 0 0 0-2 2v14a2 2 0 0 0 2 2h14a2 2 0 0 0 2-2V5a2 2 0 0 0-2-2M5 2a3 3 0 0 0-3 3v14a3 3 0 0 0 3 3h14a3 3 0 0 0 3-3V5a3 3 0 0 0-3-3z" clip-rule="evenodd"/><path fill="url(#i52087c-i1627b0-paint3_linear_65420_293)" d="M12 6c.428 0 .845.046 1.247.13l-.807.81q-.037.036-.07.075a5 5 0 1 0 4.614 4.614q.04-.032.076-.069l.808-.808A6 6 0 1 1 12 6"/><path fill="url(#i52087c-i1627b0-paint4_linear_65420_293)" d="M12 9.5a2.5 2.5 0 1 0 2.5 2.5h1A3.5 3.5 0 1 1 12 8.5z"/><path fill="url(#i52087c-i1627b0-paint5_linear_65420_293)" d="M14.647 6.146a.5.5 0 0 1 .853.354v2h2a.5.5 0 0 1 .354.854l-1.5 1.5A.5.5 0 0 1 16 11h-2.293l-.742.741A.996.996 0 0 1 12 13a1 1 0 1 1 .258-1.966l.742-.741V8a.5.5 0 0 1 .146-.354z"/><defs><linearGradient id="i52087c-i1627b0-paint0_linear_65420_293" x1="7.556" x2="10.085" y1="2" y2="22.239" gradientUnits="userSpaceOnUse"><stop stop-color="#fff"/><stop offset="1" stop-color="#EBEBEB"/></linearGradient><radialGradient id="i52087c-i1627b0-paint1_radial_65420_293" cx="0" cy="0" r="1" gradientTransform="matrix(10.5556 15.8333 -15.8333 5.9375 8.389 7.208)" gradientUnits="userSpaceOnUse"><stop offset=".177" stop-color="#fff"/><stop offset="1" stop-color="#B8B8B8"/></radialGradient><linearGradient id="i52087c-i1627b0-paint2_linear_65420_293" x1="8.458" x2="11.151" y1="2" y2="22.197" gradientUnits="userSpaceOnUse"><stop stop-color="#BBB"/><stop offset="1" stop-color="#888"/></linearGradient><linearGradient id="i52087c-i1627b0-paint3_linear_65420_293" x1="6" x2="18" y1="6" y2="18" gradientUnits="userSpaceOnUse"><stop stop-color="#7751B8"/><stop offset="1" stop-color="#5A409C"/></linearGradient><linearGradient id="i52087c-i1627b0-paint4_linear_65420_293" x1="6" x2="18" y1="6" y2="18" gradientUnits="userSpaceOnUse"><stop stop-color="#7751B8"/><stop offset="1" stop-color="#5A409C"/></linearGradient><linearGradient id="i52087c-i1627b0-paint5_linear_65420_293" x1="6" x2="18" y1="6" y2="18" gradientUnits="userSpaceOnUse"><stop stop-color="#7751B8"/><stop offset="1" stop-color="#5A409C"/></linearGradient></defs></svg>