<svg xmlns="http://www.w3.org/2000/svg" width="24" height="24" fill="currentColor"><path fill="url(#i9585e0-a)" d="M12.833 2a.833.833 0 0 0-.833.833V22h6.167c.46 0 .833-.373.833-.833V2.833A.833.833 0 0 0 18.167 2z"/><path fill="#000" fill-opacity=".5" d="M8.833 7A.833.833 0 0 0 8 7.833V12h-.5v10h1V8h5.667c.184 0 .333.15.333.333V22h1V8.333C15.5 7.597 14.903 7 14.167 7z" opacity=".25"/><path fill="url(#i9585e0-b)" d="M8.833 7A.833.833 0 0 0 8 7.833V22h7V7.833A.833.833 0 0 0 14.167 7z"/><path fill="url(#i9585e0-c)" d="M4.833 12a.833.833 0 0 0-.833.833v8.334c0 .46.373.833.833.833H11v-9.167a.833.833 0 0 0-.833-.833z"/><defs><linearGradient id="i9585e0-a" x1="10.833" x2="19.35" y1="2" y2="20.956" gradientUnits="userSpaceOnUse"><stop stop-color="#E6AD10"/><stop offset="1" stop-color="#C87E0E"/></linearGradient><linearGradient id="i9585e0-b" x1="7.999" x2="15.181" y1="7" y2="21.624" gradientUnits="userSpaceOnUse"><stop stop-color="#F6D751"/><stop offset="1" stop-color="#E6AD10"/></linearGradient><linearGradient id="i9585e0-c" x1="3.999" x2="7.946" y1="12" y2="21.821" gradientUnits="userSpaceOnUse"><stop stop-color="#F9E589"/><stop offset="1" stop-color="#F6D751"/></linearGradient></defs></svg>