<svg xmlns="http://www.w3.org/2000/svg" width="24" height="24" fill="currentColor"><path fill-rule="evenodd" d="M3.938 22.818q.033.03.069.059h-.07zM19 3.246c0-.69-.56-1.25-1.25-1.25h-4c-.69 0-1.25.56-1.25 1.25v2.25h1.25a2.75 2.75 0 0 1 2.75 2.75V22h1.25c.69 0 1.25-.56 1.25-1.25zM15 22h-2.5v-8.754a2.75 2.75 0 0 0-2.75-2.75H8.5v-2.25c0-.69.56-1.25 1.25-1.25h4c.69 0 1.25.56 1.25 1.25zM5.75 11.996c-.69 0-1.25.56-1.25 1.25v7.504c0 .69.56 1.25 1.25 1.25H11v-8.754c0-.69-.56-1.25-1.25-1.25z" clip-rule="evenodd"/></svg>