<svg xmlns="http://www.w3.org/2000/svg" width="24" height="24" fill="currentColor"><path d="M12 22c5.523 0 10-4.477 10-10S17.523 2 12 2 2 6.477 2 12s4.477 10 10 10m0-14.999a4.999 4.999 0 1 1 0 9.998.75.75 0 0 1 0-1.5 3.499 3.499 0 1 0 0-6.998.75.75 0 0 1 0-1.5m-3.295 8.76a5 5 0 0 1-1.346-1.903.75.75 0 0 1 1.392-.557c.204.51.53.97.942 1.33a.75.75 0 0 1-.988 1.13M7.97 11.38a.7.7 0 0 1-.233-.04.74.74 0 0 1-.475-.934l.007-.02.006-.018A4.94 4.94 0 0 1 8.5 8.428a.75.75 0 1 1 1.049 1.073c-.39.383-.679.84-.858 1.362a.77.77 0 0 1-.72.517Z"/></svg>