<svg xmlns="http://www.w3.org/2000/svg" width="24" height="24" fill="currentColor"><path d="M17.766 3a2.25 2.25 0 0 1 2.25 2.25v6.836A3.5 3.5 0 0 0 17.482 11c-.66 0-1.276.183-1.803.5h-1.411a.75.75 0 0 0-.671.414l-1.003 2.004-2.381-5.947a.75.75 0 0 0-1.384-.022l-1.556 3.55H5.768a.75.75 0 0 0 0 1.5h1.995a.75.75 0 0 0 .687-.448l1.035-2.362 2.336 5.835a.75.75 0 0 0 1.367.057l.794-1.586v.005c0 .98.403 1.865 1.05 2.5h-.277a2.77 2.77 0 0 0-2.773 2.772v.103c0 .38.057.76.173 1.127H4.268a2.25 2.25 0 0 1-2.25-2.25V5.25A2.25 2.25 0 0 1 4.268 3z"/><path d="M19.982 14.5a2.5 2.5 0 1 1-5 0 2.5 2.5 0 0 1 5 0m2 5.375c0 1.556-1.285 3.125-4.5 3.125s-4.5-1.563-4.5-3.125v-.103c0-.98.794-1.772 1.773-1.772h5.455c.979 0 1.772.793 1.772 1.772z"/></svg>