<svg xmlns="http://www.w3.org/2000/svg" width="24" height="24" fill="currentColor"><path fill="url(#i3ff8de-a)" d="m22.736 16.556-6.45-11.175a12.05 12.05 0 0 1 .973 5.42l-1.115-.084s.739.23.902.583c.508 1.079-1.176 4.635-1.758 5.508-.945 1.417-2.773 3.242-3.25 3.242-.149 0-.213-.052-.213-.052-1.734 1.073-3.781 2.122-5.886 2.252h13.51c2.922 0 4.747-3.163 3.287-5.694"/><path fill="url(#i3ff8de-b)" fill-opacity=".5" d="m22.736 16.556-6.45-11.175a12.05 12.05 0 0 1 .973 5.42l-1.115-.084s.739.23.902.583c.508 1.079-1.176 4.635-1.758 5.508-.945 1.417-2.773 3.242-3.25 3.242-.149 0-.213-.052-.213-.052-1.734 1.073-3.781 2.122-5.886 2.252h13.51c2.922 0 4.747-3.163 3.287-5.694"/><path fill="url(#i3ff8de-c)" fill-opacity=".2" d="m22.736 16.556-6.45-11.175a12.05 12.05 0 0 1 .973 5.42l-1.115-.084s.739.23.902.583c.508 1.079-1.176 4.635-1.758 5.508-.945 1.417-2.773 3.242-3.25 3.242-.149 0-.213-.052-.213-.052-1.734 1.073-3.781 2.122-5.886 2.252h13.51c2.922 0 4.747-3.163 3.287-5.694"/><path fill="url(#i3ff8de-d)" d="M21.79 15.015q.198.274.379.555L15.287 3.648c-1.461-2.53-5.113-2.53-6.573 0l-6.765 11.72c1.038-1.55 3.313-2.717 4.96-3.528 0 0-.057-.346.077-.584.135-.239.32-.304.498-.376 5.032-2.028 10.983-.46 14.306 4.135"/><path fill="url(#i3ff8de-e)" fill-opacity=".36" d="M21.79 15.015q.198.274.379.555L15.287 3.648c-1.461-2.53-5.113-2.53-6.573 0l-6.765 11.72c1.038-1.55 3.313-2.717 4.96-3.528 0 0-.057-.346.077-.584.135-.239.32-.304.498-.376 5.032-2.028 10.983-.46 14.306 4.135"/><path fill="url(#i3ff8de-f)" d="M18.122 22.248H4.551c-2.922 0-4.747-3.163-3.287-5.694L8.141 4.641a12.09 12.09 0 0 0 .954 12.626 12.06 12.06 0 0 0 9.027 4.98Z"/><path fill="url(#i3ff8de-g)" fill-opacity=".25" d="M18.122 22.248H4.551c-2.922 0-4.747-3.163-3.287-5.694L8.141 4.641a12.09 12.09 0 0 0 .954 12.626 12.06 12.06 0 0 0 9.027 4.98Z"/><path fill="url(#i3ff8de-h)" d="M18.122 22.248H4.551c-2.922 0-4.747-3.163-3.287-5.694L8.141 4.641a12.09 12.09 0 0 0 .954 12.626 12.06 12.06 0 0 0 9.027 4.98Z"/><defs><radialGradient id="i3ff8de-b" cx="0" cy="0" r="1" gradientTransform="rotate(87.455 3.367 15.16)scale(4.80277 4.42994)" gradientUnits="userSpaceOnUse"><stop stop-color="#041642"/><stop offset="1" stop-color="#041642" stop-opacity="0"/></radialGradient><radialGradient id="i3ff8de-c" cx="0" cy="0" r="1" gradientTransform="rotate(-23.666 56.952 -19.62)scale(9.19354 10.4603)" gradientUnits="userSpaceOnUse"><stop/><stop offset="1" stop-opacity="0"/></radialGradient><radialGradient id="i3ff8de-d" cx="0" cy="0" r="1" gradientTransform="rotate(119.825 6.266 4.534)scale(9.25009 15.1986)" gradientUnits="userSpaceOnUse"><stop stop-color="#51DEFF"/><stop offset=".349" stop-color="#1ABAFD"/><stop offset="1" stop-color="#247FE0"/></radialGradient><radialGradient id="i3ff8de-e" cx="0" cy="0" r="1" gradientTransform="rotate(-39.249 23.08 10.656)scale(14.3912 9.41798)" gradientUnits="userSpaceOnUse"><stop offset=".475"/><stop offset="1" stop-opacity="0"/></radialGradient><radialGradient id="i3ff8de-g" cx="0" cy="0" r="1" gradientTransform="matrix(-.59844 3.8886 -5.70249 -.8776 6.857 10.455)" gradientUnits="userSpaceOnUse"><stop offset=".177" stop-color="#CCF9FF"/><stop offset="1" stop-color="#4FE3FF" stop-opacity=".12"/></radialGradient><linearGradient id="i3ff8de-a" x1="20.923" x2="21.347" y1="6.539" y2="19.201" gradientUnits="userSpaceOnUse"><stop stop-color="#033E9A"/><stop offset="1" stop-color="#0055C6"/></linearGradient><linearGradient id="i3ff8de-f" x1="5.846" x2="11.56" y1="7.916" y2="23.018" gradientUnits="userSpaceOnUse"><stop stop-color="#59E7FD"/><stop offset=".587" stop-color="#23D4F9"/><stop offset="1" stop-color="#32BBF2"/></linearGradient><linearGradient id="i3ff8de-h" x1="9.909" x2="7.363" y1="21.505" y2="15.454" gradientUnits="userSpaceOnUse"><stop stop-color="#08B0F8"/><stop offset="1" stop-color="#52E5FF" stop-opacity="0"/></linearGradient></defs></svg>