<svg xmlns="http://www.w3.org/2000/svg" width="24" height="24" fill="currentColor"><g clip-path="url(#i622f0d-i5fc0cb-a)"><mask id="i622f0d-i5fc0cb-b" width="24" height="24" x="0" y="0" maskUnits="userSpaceOnUse" style="mask-type:luminance"><path fill="#fff" d="M24 0H0v24h24z"/></mask><g mask="url(#i622f0d-i5fc0cb-b)"><path fill="url(#i622f0d-i5fc0cb-c)" d="M4 6a3 3 0 0 1 3-3h12a3 3 0 0 1 3 3v11.5a5.5 5.5 0 0 1-5.5 5.5H7a3 3 0 0 1-3-3z"/><path fill="url(#i622f0d-i5fc0cb-d)" fill-opacity=".2" d="M4 6a3 3 0 0 1 3-3h12a3 3 0 0 1 3 3v11.5a5.5 5.5 0 0 1-5.5 5.5H7a3 3 0 0 1-3-3z"/><path fill="url(#i622f0d-i5fc0cb-e)" d="M19 3a3 3 0 0 1 3 3v11.5a5.5 5.5 0 0 1-5.5 5.5h-.083v-1h.083a4.5 4.5 0 0 0 4.5-4.5V6a2 2 0 0 0-2-2H7a2 2 0 0 0-2 2v14a2 2 0 0 0 2 2h5.62v1H7a3 3 0 0 1-3-3V6a3 3 0 0 1 3-3z"/><path fill="url(#i622f0d-i5fc0cb-f)" d="M1.953 4a3 3 0 0 1 3-3h12a3 3 0 0 1 3 3v14a3 3 0 0 1-3 3h-12a3 3 0 0 1-3-3z"/><path fill="url(#i622f0d-i5fc0cb-g)" fill-opacity=".2" d="M1.953 4a3 3 0 0 1 3-3h12a3 3 0 0 1 3 3v14a3 3 0 0 1-3 3h-12a3 3 0 0 1-3-3z"/><path fill="url(#i622f0d-i5fc0cb-h)" fill-rule="evenodd" d="M17 2H5a2 2 0 0 0-2 2v14a2 2 0 0 0 2 2h12a2 2 0 0 0 2-2V4a2 2 0 0 0-2-2M5 1a3 3 0 0 0-3 3v14a3 3 0 0 0 3 3h12a3 3 0 0 0 3-3V4a3 3 0 0 0-3-3z" clip-rule="evenodd"/><path fill="url(#i622f0d-i5fc0cb-i)" d="M7.276 5a.75.75 0 0 1 .75.75v10.5a.75.75 0 0 1-1.5 0V5.75a.75.75 0 0 1 .75-.75m3.75 3a.75.75 0 0 1 .75.75v7.5a.75.75 0 0 1-1.5 0v-7.5a.75.75 0 0 1 .75-.75m3.75 3.25a.75.75 0 0 1 .75.75v4.25a.75.75 0 0 1-1.5 0V12a.75.75 0 0 1 .75-.75"/><path fill="#F5F5F5" fill-rule="evenodd" d="M13.813 17c.588 0 1.128.206 1.555.547A1.5 1.5 0 0 1 16.526 17h1.25a2.5 2.5 0 0 1 1.58.564 1.5 1.5 0 0 1 1.17-.564l.155.008a1.5 1.5 0 0 1 1.345 1.492V21h.501a1.5 1.5 0 0 1 0 3h-2c-.475 0-.897-.22-1.172-.564-.368.3-.823.5-1.323.551l-.256.013h-1.25c-.289 0-.558-.083-.787-.225a1.5 1.5 0 0 1-.782.225h-.002a1.58 1.58 0 0 1-1.233-.599 1.5 1.5 0 0 1-1.195.599 1.5 1.5 0 0 1-1.502-1.5v-4a1.5 1.5 0 0 1 1.501-1.5z" clip-rule="evenodd"/><path fill="url(#i622f0d-i5fc0cb-j)" d="M13.813 18a1.497 1.497 0 0 1 .879 2.713c.142.204.245.42.318.604.105.269.185.562.235.717l.028.083a.498.498 0 0 1-.318.883.58.58 0 0 1-.389-.153.7.7 0 0 1-.147-.194 2 2 0 0 1-.126-.312c-.07-.22-.124-.427-.215-.658-.162-.414-.34-.627-.585-.673l-.11-.01h-.357v1.5a.5.5 0 0 1-1 0v-4a.5.5 0 0 1 .5-.5zm3.963 0a1.5 1.5 0 0 1 1.5 1.5v2a1.5 1.5 0 0 1-1.5 1.5h-1.25a.5.5 0 0 1-.5-.5v-4a.5.5 0 0 1 .5-.5zm2.75 0a.5.5 0 0 1 .5.5V22h1.5a.5.5 0 0 1 0 1h-2a.5.5 0 0 1-.5-.5v-4a.5.5 0 0 1 .5-.5m-3.5 4h.75a.5.5 0 0 0 .5-.5v-2a.5.5 0 0 0-.5-.5h-.75zm-4-2h.787a.5.5 0 0 0 0-1h-.787z"/></g></g><defs><linearGradient id="i622f0d-i5fc0cb-c" x1="9" x2="11.801" y1="3" y2="23.166" gradientUnits="userSpaceOnUse"><stop stop-color="#fff"/><stop offset="1" stop-color="#EBEBEB"/></linearGradient><linearGradient id="i622f0d-i5fc0cb-e" x1="9.813" x2="12.792" y1="3" y2="23.114" gradientUnits="userSpaceOnUse"><stop stop-color="#BBB"/><stop offset="1" stop-color="#888"/></linearGradient><linearGradient id="i622f0d-i5fc0cb-f" x1="6.953" x2="9.754" y1="1" y2="21.166" gradientUnits="userSpaceOnUse"><stop stop-color="#fff"/><stop offset="1" stop-color="#EBEBEB"/></linearGradient><linearGradient id="i622f0d-i5fc0cb-h" x1="7.813" x2="10.792" y1="1" y2="21.114" gradientUnits="userSpaceOnUse"><stop stop-color="#BBB"/><stop offset="1" stop-color="#888"/></linearGradient><linearGradient id="i622f0d-i5fc0cb-i" x1="6.526" x2="18.046" y1="5" y2="13.64" gradientUnits="userSpaceOnUse"><stop stop-color="#C28400"/><stop offset="1" stop-color="#A86500"/></linearGradient><linearGradient id="i622f0d-i5fc0cb-j" x1="12.026" x2="15.793" y1="18" y2="26.288" gradientUnits="userSpaceOnUse"><stop stop-color="#C28400"/><stop offset="1" stop-color="#A86500"/></linearGradient><radialGradient id="i622f0d-i5fc0cb-d" cx="0" cy="0" r="1" gradientTransform="matrix(9.5 15.8333 -14.25 5.9375 9.75 8.208)" gradientUnits="userSpaceOnUse"><stop offset=".177" stop-color="#fff"/><stop offset="1" stop-color="#B8B8B8"/></radialGradient><radialGradient id="i622f0d-i5fc0cb-g" cx="0" cy="0" r="1" gradientTransform="matrix(9.5 15.8333 -14.25 5.9375 7.703 6.208)" gradientUnits="userSpaceOnUse"><stop offset=".177" stop-color="#fff"/><stop offset="1" stop-color="#B8B8B8"/></radialGradient><clipPath id="i622f0d-i5fc0cb-a"><path fill="#fff" d="M0 0h24v24H0z"/></clipPath></defs></svg>