<svg xmlns="http://www.w3.org/2000/svg" width="20" height="20" fill="currentColor"><path d="M18 8.334c-.01-.72-.63-1.34-1.342-1.34h-5.136l-.31 1.14a4.334 4.334 0 0 1-4.186 3.192H2.831c-.46 0-.831.37-.831.83s.36.82.821.83h9.902c.11 0 .22.01.33.04.06.02.121.05.181.07.04.02.08.031.12.051.08.04.15.1.22.16.01 0 .03.02.04.03.07.07.14.14.21.24L17.5 9.415c.07-.11-.09.1 0 0 0 0 .25-.28.34-.44.05-.09.09-.19.12-.29.031-.11.041-.23.041-.351Zm-8.751 5.663-.74 2.742a1 1 0 0 0-.041.26 1.004 1.004 0 0 0 1.742.68l2.774-3.142c.05-.06.08-.13.08-.21 0-.18-.15-.33-.33-.33H9.248Z"/><path d="M7.026 10.335c.681 0 1.362-.22 1.923-.62.6-.43 1.031-1.04 1.261-1.741l1.282-4.713c.02-.08.04-.17.04-.26a1.004 1.004 0 0 0-1.742-.68l-7.06 8.013h4.295c.02 0-.02 0 0 0Z"/></svg>