<svg xmlns="http://www.w3.org/2000/svg" width="24" height="24" fill="none"><path fill="url(#ib606b3-paint0_linear_54787_1109)" d="m11.69 14.652-1.565 5.769q-.045.158-.045.33a1.25 1.25 0 0 0 2.17.85l9.305-10.558a1.66 1.66 0 0 1-1.23.545H15.71c-1.92 0-3.54 1.3-4.02 3.07"/><path fill="url(#ib606b3-paint1_linear_54787_1109)" d="M21.995 9.918c0-.92-.745-1.665-1.665-1.665H7.54l-3.875 4.165a1.664 1.664 0 1 0 0 3.329H13.72a1.664 1.664 0 0 1 1.24 2.774l6.05-6.863.54-.61h-.005c.28-.3.455-.695.455-1.135z"/><path fill="url(#ib606b3-paint2_radial_54787_1109)" d="M21.995 9.918c0-.92-.745-1.665-1.665-1.665H7.54l-3.875 4.165a1.664 1.664 0 1 0 0 3.329H13.72a1.664 1.664 0 0 1 1.24 2.774l6.05-6.863.54-.61h-.005c.28-.3.455-.695.455-1.135z"/><path fill="url(#ib606b3-paint3_linear_54787_1109)" d="M12.295 9.348 13.86 3.58q.045-.157.045-.33a1.25 1.25 0 0 0-2.17-.85L2.43 12.958a1.66 1.66 0 0 1 1.23-.545h4.615c1.92 0 3.54-1.3 4.02-3.07"/><defs><linearGradient id="ib606b3-paint0_linear_54787_1109" x1="10.785" x2="18.168" y1="22.83" y2="10.042" gradientUnits="userSpaceOnUse"><stop offset=".227" stop-color="#CA2134"/><stop offset=".497" stop-color="#670938"/></linearGradient><linearGradient id="ib606b3-paint1_linear_54787_1109" x1="3" x2="20" y1="7.5" y2="18" gradientUnits="userSpaceOnUse"><stop offset=".132" stop-color="#CA2134"/><stop offset=".555" stop-color="#E82C41"/><stop offset=".647" stop-color="#F83F54"/><stop offset=".897" stop-color="#FFA43D"/></linearGradient><radialGradient id="ib606b3-paint2_radial_54787_1109" cx="0" cy="0" r="1" gradientTransform="matrix(2 5 -8.04481 3.21792 6.75 10.25)" gradientUnits="userSpaceOnUse"><stop offset=".14" stop-color="#4A0829"/><stop offset=".958" stop-color="#670938" stop-opacity="0"/></radialGradient><linearGradient id="ib606b3-paint3_linear_54787_1109" x1="12" x2="6.126" y1="11" y2="6.568" gradientUnits="userSpaceOnUse"><stop stop-color="#FF9C70"/><stop offset=".285" stop-color="#FF835C"/><stop offset=".8" stop-color="#F83F54"/></linearGradient></defs></svg>