<svg xmlns="http://www.w3.org/2000/svg" width="24" height="24" fill="currentColor"><path d="M6.178 4a2.25 2.25 0 0 0-2.25 2.25v7.233l5.534-.042a2 2 0 0 1 2.015 2.015l-.039 5.044h5.74a3.25 3.25 0 0 0 3.25-3.25V14h-3.5V6.25A2.25 2.25 0 0 0 14.678 4zm11 15h-.25v-3.5h2v1.75a1.75 1.75 0 0 1-1.75 1.75M6.928 8.75a.75.75 0 0 1 .75-.75h5.5a.75.75 0 0 1 0 1.5h-5.5a.75.75 0 0 1-.75-.75m0 3.5a.75.75 0 0 1 .75-.75h5.5a.75.75 0 0 1 0 1.5h-5.5a.75.75 0 0 1-.75-.75"/><path d="M9.48 14.94a.5.5 0 0 1 .5.505l-.05 6.32a.5.5 0 0 1-.853.35L7.462 20.5H7.46l-3.532-3.532v-.002l-1.123-1.123a.5.5 0 0 1 .35-.854l6.318-.048h.006Zm-4.547 6.109a.75.75 0 0 0-1.06-1.06l-2.122 2.12a.75.75 0 1 0 1.06 1.061zm-1.946-1.944a.75.75 0 0 0-1.06-1.061l-.707.707a.75.75 0 0 0 1.06 1.06zm3.889 2.828a.75.75 0 0 1 0 1.06l-.707.708a.75.75 0 0 1-1.06-1.06l.706-.708a.75.75 0 0 1 1.061 0"/></svg>