<svg xmlns="http://www.w3.org/2000/svg" width="20" height="20" fill="currentColor"><path d="M9.763 3.565a2.626 2.626 0 0 1 4.253 2.06.5.5 0 0 0 1 0A3.626 3.626 0 0 0 8 4.338V2.515a.5.5 0 0 0-1 0v3a.5.5 0 0 0 .5.5h3.029a.5.5 0 0 0 0-1H8.836a2.63 2.63 0 0 1 .927-1.45M2 10.5C2 9.124 3.124 8 4.5 8h2A2.51 2.51 0 0 1 9 10.5v6c0 .301-.054.59-.152.858l-.004.011A2.51 2.51 0 0 1 6.5 19h-2A2.506 2.506 0 0 1 2 16.5zm7.718 7.374c.246.082.51.126.782.126h1a2.503 2.503 0 0 0 2.5-2.5v-4A2.503 2.503 0 0 0 11.5 9h-1q-.411.002-.782.126c.182.422.282.886.282 1.374v6c0 .488-.1.952-.282 1.374M14.662 17h.838c1.376 0 2.5-1.124 2.5-2.5v-2c0-1.376-1.124-2.5-2.5-2.5h-.838c.216.455.338.964.338 1.5v4a3.5 3.5 0 0 1-.338 1.5"/></svg>