<svg xmlns="http://www.w3.org/2000/svg" width="24" height="24" fill="currentColor"><path fill="url(#ic788e7-a)" d="M2 5a3 3 0 0 1 3-3h14a3 3 0 0 1 3 3v14a3 3 0 0 1-3 3H5a3 3 0 0 1-3-3z"/><path fill="url(#ic788e7-b)" fill-opacity=".2" d="M2 5a3 3 0 0 1 3-3h14a3 3 0 0 1 3 3v14a3 3 0 0 1-3 3H5a3 3 0 0 1-3-3z"/><path fill="url(#ic788e7-c)" fill-rule="evenodd" d="M19 3H5a2 2 0 0 0-2 2v14a2 2 0 0 0 2 2h14a2 2 0 0 0 2-2V5a2 2 0 0 0-2-2M5 2a3 3 0 0 0-3 3v14a3 3 0 0 0 3 3h14a3 3 0 0 0 3-3V5a3 3 0 0 0-3-3z" clip-rule="evenodd"/><path fill="url(#ic788e7-d)" fill-rule="evenodd" d="M7.5 17.25V6.75a.75.75 0 0 1 1.5 0v10.5a.75.75 0 0 1-1.5 0m3.75 0v-7.5a.75.75 0 0 1 1.5 0v7.5a.75.75 0 0 1-1.5 0M16.5 13a.75.75 0 0 0-1.5 0v4.25a.75.75 0 0 0 1.5 0z" clip-rule="evenodd"/><path fill="#F5F5F5" d="M24 18a6 6 0 1 1-12 0 6 6 0 0 1 12 0"/><path fill="url(#ic788e7-e)" fill-rule="evenodd" d="M21.535 14.464a5 5 0 1 1-7.07 7.071 5 5 0 0 1 7.07-7.07Zm-.375 1.083a4 4 0 0 1-5.613 5.613zm-.707-.707-5.613 5.613a4 4 0 0 1 5.613-5.613" clip-rule="evenodd"/><defs><linearGradient id="ic788e7-a" x1="7.556" x2="10.085" y1="2" y2="22.239" gradientUnits="userSpaceOnUse"><stop stop-color="#fff"/><stop offset="1" stop-color="#EBEBEB"/></linearGradient><linearGradient id="ic788e7-c" x1="8.458" x2="11.151" y1="2" y2="22.197" gradientUnits="userSpaceOnUse"><stop stop-color="#BBB"/><stop offset="1" stop-color="#888"/></linearGradient><linearGradient id="ic788e7-d" x1="7.5" x2="19.02" y1="6" y2="14.64" gradientUnits="userSpaceOnUse"><stop stop-color="#C28400"/><stop offset="1" stop-color="#A86500"/></linearGradient><linearGradient id="ic788e7-e" x1="13" x2="23" y1="13" y2="23" gradientUnits="userSpaceOnUse"><stop stop-color="#C28400"/><stop offset="1" stop-color="#A86500"/></linearGradient><radialGradient id="ic788e7-b" cx="0" cy="0" r="1" gradientTransform="rotate(56.31 -2.54 11.442)scale(19.0293 16.4677)" gradientUnits="userSpaceOnUse"><stop offset=".177" stop-color="#fff"/><stop offset="1" stop-color="#B8B8B8"/></radialGradient></defs></svg>