<svg xmlns="http://www.w3.org/2000/svg" width="24" height="24" fill="currentColor"><path fill="url(#i91122d-a)" d="M2 5a3 3 0 0 1 3-3h14a3 3 0 0 1 3 3v14a3 3 0 0 1-3 3H5a3 3 0 0 1-3-3z"/><path fill="url(#i91122d-b)" fill-opacity=".2" d="M2 5a3 3 0 0 1 3-3h14a3 3 0 0 1 3 3v14a3 3 0 0 1-3 3H5a3 3 0 0 1-3-3z"/><path fill="url(#i91122d-c)" fill-rule="evenodd" d="M19 3H5a2 2 0 0 0-2 2v14a2 2 0 0 0 2 2h14a2 2 0 0 0 2-2V5a2 2 0 0 0-2-2M5 2a3 3 0 0 0-3 3v14a3 3 0 0 0 3 3h14a3 3 0 0 0 3-3V5a3 3 0 0 0-3-3z" clip-rule="evenodd"/><path fill="url(#i91122d-d)" d="M6.5 7.034a.5.5 0 0 1 .5-.5h.037a1.5 1.5 0 0 1 1.435 1.063L8.9 9h7.08a1 1 0 0 1 .918 1.396l-1.165 2.699a1.5 1.5 0 0 1-1.377.905h-3.899a1.5 1.5 0 0 1-1.452-1.124l-.167-.645-1.321-4.342a.5.5 0 0 0-.479-.355H7a.5.5 0 0 1-.5-.5"/><path fill="url(#i91122d-e)" d="M11.75 16.375a1.375 1.375 0 1 1-2.75 0 1.375 1.375 0 0 1 2.75 0"/><path fill="url(#i91122d-f)" d="M15.5 16.375a1.375 1.375 0 1 1-2.75 0 1.375 1.375 0 0 1 2.75 0"/><defs><linearGradient id="i91122d-a" x1="7.556" x2="10.085" y1="2" y2="22.239" gradientUnits="userSpaceOnUse"><stop stop-color="#fff"/><stop offset="1" stop-color="#EBEBEB"/></linearGradient><linearGradient id="i91122d-c" x1="8.458" x2="11.151" y1="2" y2="22.197" gradientUnits="userSpaceOnUse"><stop stop-color="#BBB"/><stop offset="1" stop-color="#888"/></linearGradient><linearGradient id="i91122d-d" x1="6.5" x2="17.69" y1="6.534" y2="16.99" gradientUnits="userSpaceOnUse"><stop stop-color="#7751B8"/><stop offset="1" stop-color="#5A409C"/></linearGradient><linearGradient id="i91122d-e" x1="6.5" x2="17.69" y1="6.534" y2="16.99" gradientUnits="userSpaceOnUse"><stop stop-color="#7751B8"/><stop offset="1" stop-color="#5A409C"/></linearGradient><linearGradient id="i91122d-f" x1="6.5" x2="17.69" y1="6.534" y2="16.99" gradientUnits="userSpaceOnUse"><stop stop-color="#7751B8"/><stop offset="1" stop-color="#5A409C"/></linearGradient><radialGradient id="i91122d-b" cx="0" cy="0" r="1" gradientTransform="rotate(56.31 -2.54 11.442)scale(19.0293 16.4677)" gradientUnits="userSpaceOnUse"><stop offset=".177" stop-color="#fff"/><stop offset="1" stop-color="#B8B8B8"/></radialGradient></defs></svg>