<svg xmlns="http://www.w3.org/2000/svg" width="24" height="24" fill="none"><path fill="url(#i4808b3-if4f4a2-paint0_linear_64423_1009)" d="M2 5a3 3 0 0 1 3-3h14a3 3 0 0 1 3 3v14a3 3 0 0 1-3 3H5a3 3 0 0 1-3-3z"/><path fill="url(#i4808b3-if4f4a2-paint1_radial_64423_1009)" fill-opacity=".2" d="M2 5a3 3 0 0 1 3-3h14a3 3 0 0 1 3 3v14a3 3 0 0 1-3 3H5a3 3 0 0 1-3-3z"/><path fill="url(#i4808b3-if4f4a2-paint2_linear_64423_1009)" fill-rule="evenodd" d="M19 3H5a2 2 0 0 0-2 2v14a2 2 0 0 0 2 2h14a2 2 0 0 0 2-2V5a2 2 0 0 0-2-2M5 2a3 3 0 0 0-3 3v14a3 3 0 0 0 3 3h14a3 3 0 0 0 3-3V5a3 3 0 0 0-3-3z" clip-rule="evenodd"/><path fill="url(#i4808b3-if4f4a2-paint3_linear_64423_1009)" d="M16 7a2 2 0 1 1-1.9 2.625h-1.006a.5.5 0 0 0-.5.5v4a.5.5 0 0 0 .5.5h.943A1.999 1.999 0 1 1 16 17a2 2 0 0 1-1.9-1.375h-1.006a1.5 1.5 0 0 1-1.5-1.5v-1.562H9.918a2 2 0 1 1 .032-1h1.644v-1.438a1.5 1.5 0 0 1 1.5-1.5h.943A2 2 0 0 1 16 7"/><defs><linearGradient id="i4808b3-if4f4a2-paint0_linear_64423_1009" x1="7.556" x2="10.085" y1="2" y2="22.239" gradientUnits="userSpaceOnUse"><stop stop-color="#fff"/><stop offset="1" stop-color="#EBEBEB"/></linearGradient><radialGradient id="i4808b3-if4f4a2-paint1_radial_64423_1009" cx="0" cy="0" r="1" gradientTransform="matrix(10.5556 15.8333 -15.8333 5.9375 8.389 7.208)" gradientUnits="userSpaceOnUse"><stop offset=".177" stop-color="#fff"/><stop offset="1" stop-color="#B8B8B8"/></radialGradient><linearGradient id="i4808b3-if4f4a2-paint2_linear_64423_1009" x1="8.458" x2="11.151" y1="2" y2="22.197" gradientUnits="userSpaceOnUse"><stop stop-color="#BBB"/><stop offset="1" stop-color="#888"/></linearGradient><linearGradient id="i4808b3-if4f4a2-paint3_linear_64423_1009" x1="6" x2="15.836" y1="7" y2="18.803" gradientUnits="userSpaceOnUse"><stop stop-color="#E03F8F"/><stop offset="1" stop-color="#BD1E7B"/></linearGradient></defs></svg>