<svg xmlns="http://www.w3.org/2000/svg" width="24" height="24" fill="currentColor"><path fill="url(#ib9e4e1-a)" fill-rule="evenodd" d="M4.5 3a.5.5 0 0 0-.5.5V14h15.5l-3.9-5.2a.5.5 0 0 1 0-.6L19.5 3zM4 15v6.5a.5.5 0 0 1-1 0v-18A1.5 1.5 0 0 1 4.5 2h16a.5.5 0 0 1 .4.8l-4.275 5.7 4.275 5.7a.5.5 0 0 1-.4.8z" clip-rule="evenodd"/><defs><linearGradient id="ib9e4e1-a" x1="3" x2="22.89" y1="2" y2="19.901" gradientUnits="userSpaceOnUse"><stop stop-color="#209782"/><stop offset="1" stop-color="#0C695A"/></linearGradient></defs></svg>