<svg xmlns="http://www.w3.org/2000/svg" width="24" height="24" fill="currentColor"><path fill="url(#i31b935-a)" d="M2 5a3 3 0 0 1 3-3h14a3 3 0 0 1 3 3v14a3 3 0 0 1-3 3H5a3 3 0 0 1-3-3z"/><path fill="url(#i31b935-b)" fill-opacity=".2" d="M2 5a3 3 0 0 1 3-3h14a3 3 0 0 1 3 3v14a3 3 0 0 1-3 3H5a3 3 0 0 1-3-3z"/><path fill="url(#i31b935-c)" fill-rule="evenodd" d="M19 3H5a2 2 0 0 0-2 2v14a2 2 0 0 0 2 2h14a2 2 0 0 0 2-2V5a2 2 0 0 0-2-2M5 2a3 3 0 0 0-3 3v14a3 3 0 0 0 3 3h14a3 3 0 0 0 3-3V5a3 3 0 0 0-3-3z" clip-rule="evenodd"/><path fill="url(#i31b935-d)" fill-rule="evenodd" d="M7 9.5a2.5 2.5 0 0 0 2.163 2.477A3 3 0 0 0 11.5 13.96v1.54h-.9A1.6 1.6 0 0 0 9 17.1c0 .22.18.4.4.4h5.2a.4.4 0 0 0 .4-.4 1.6 1.6 0 0 0-1.6-1.6h-.9v-1.541a3 3 0 0 0 2.337-1.982A2.5 2.5 0 0 0 17 9.5v-1A1.5 1.5 0 0 0 15.5 7h-.552c-.163-.577-.694-1-1.323-1h-3.25c-.63 0-1.16.423-1.323 1H8.5A1.5 1.5 0 0 0 7 8.5zM8.5 8H9v2.915A1.5 1.5 0 0 1 8 9.5v-1a.5.5 0 0 1 .5-.5m6.5 2.915A1.5 1.5 0 0 0 16 9.5v-1a.5.5 0 0 0-.5-.5H15z" clip-rule="evenodd"/><defs><linearGradient id="i31b935-a" x1="7.556" x2="10.085" y1="2" y2="22.239" gradientUnits="userSpaceOnUse"><stop stop-color="#fff"/><stop offset="1" stop-color="#EBEBEB"/></linearGradient><linearGradient id="i31b935-c" x1="8.458" x2="11.151" y1="2" y2="22.197" gradientUnits="userSpaceOnUse"><stop stop-color="#BBB"/><stop offset="1" stop-color="#888"/></linearGradient><linearGradient id="i31b935-d" x1="7" x2="18.389" y1="6" y2="15.903" gradientUnits="userSpaceOnUse"><stop stop-color="#C28400"/><stop offset="1" stop-color="#A86500"/></linearGradient><radialGradient id="i31b935-b" cx="0" cy="0" r="1" gradientTransform="rotate(56.31 -2.54 11.442)scale(19.0293 16.4677)" gradientUnits="userSpaceOnUse"><stop offset=".177" stop-color="#fff"/><stop offset="1" stop-color="#B8B8B8"/></radialGradient></defs></svg>