<svg xmlns="http://www.w3.org/2000/svg" width="20" height="20" fill="currentColor"><path d="M10 5.5a4.5 4.5 0 1 1-9 0 4.5 4.5 0 0 1 9 0m-4-2a.5.5 0 0 0-1 0V5H3.5a.5.5 0 0 0 0 1H5v1.5a.5.5 0 0 0 1 0V6h1.5a.5.5 0 0 0 0-1H6z"/><path d="M5.5 11a5.5 5.5 0 0 0 4.243-9h6.82q.224.006.437.05a2.5 2.5 0 0 0-1.997 2.325H15v8.126-.009a1.5 1.5 0 0 0-3 .013.5.5 0 0 1-.037.184q-.083.18-.206.336a3 3 0 0 1-.295.324 4 4 0 0 1-.491.41A1 1 0 0 0 10 13H4v-2.207A5.5 5.5 0 0 0 5.5 11m4.5 3.088a1.5 1.5 0 0 0-.966 1.702 1.5 1.5 0 0 0 1.09 1.16c.115.389.308.745.56 1.05h-7.31C2.085 18 1 17.021 1 15.687V14.5a.5.5 0 0 1 .5-.5H10z"/><path d="M18 7a1 1 0 0 0 1-1V4.5a1.5 1.5 0 0 0-3 0V7zm-4.597 5.013A.5.5 0 0 0 13 12.5c0 .207-.042.411-.125.6a2.6 2.6 0 0 1-.328.54q-.18.228-.391.428-.248.24-.523.446a3 3 0 0 1-.578.343A1.5 1.5 0 0 1 10.5 15a.5.5 0 0 0 0 1c.193.006.383.055.555.143q.302.143.57.343a5.2 5.2 0 0 1 .923.883q.192.246.32.531c.084.19.129.393.132.6a.5.5 0 0 0 1 0c0-.206.042-.41.125-.6q.13-.287.328-.53.183-.226.391-.43a4.4 4.4 0 0 1 .523-.446q.273-.201.578-.35c.172-.09.362-.139.555-.144a.5.5 0 0 0 0-1 1.25 1.25 0 0 1-.547-.14 4 4 0 0 1-.578-.344 3.7 3.7 0 0 1-.523-.446 11 11 0 0 1-.4-.429 2.5 2.5 0 0 1-.32-.532A1.5 1.5 0 0 1 14 12.5a.5.5 0 0 0-.597-.487m.097 2.015q.077.117.164.228l.018.021.019.022q.177.204.432.467a4.6 4.6 0 0 0 .916.733 5.3 5.3 0 0 0-.912.732 6 6 0 0 0-.46.506 4 4 0 0 0-.179.24 3 3 0 0 0-.155-.215 6.2 6.2 0 0 0-1.123-1.08 4 4 0 0 0-.259-.179q.138-.087.271-.187.326-.245.619-.527a4.7 4.7 0 0 0 .649-.76Z"/></svg>