<svg xmlns="http://www.w3.org/2000/svg" width="24" height="24" fill="currentColor"><path d="M12.012 2.25c.734.008 1.465.093 2.182.253a.75.75 0 0 1 .582.649l.17 1.527a1.384 1.384 0 0 0 1.927 1.116l1.4-.615a.75.75 0 0 1 .85.174 9.8 9.8 0 0 1 2.205 3.792.75.75 0 0 1-.272.825l-1.241.916a1.4 1.4 0 0 0-.276.27A3.5 3.5 0 0 0 16.05 17h-.278A2.77 2.77 0 0 0 13 19.772v.103c0 .605.143 1.211.443 1.765a9.5 9.5 0 0 1-3.645-.149.75.75 0 0 1-.572-.647l-.169-1.524a1.382 1.382 0 0 0-1.925-1.11l-1.406.616a.75.75 0 0 1-.85-.175 9.8 9.8 0 0 1-2.203-3.796.75.75 0 0 1 .272-.826l1.243-.916a1.38 1.38 0 0 0 0-2.226l-1.243-.914a.75.75 0 0 1-.272-.826 9.8 9.8 0 0 1 2.205-3.792.75.75 0 0 1 .85-.174l1.4.615a1.387 1.387 0 0 0 1.93-1.118l.17-1.526a.75.75 0 0 1 .583-.65 10.7 10.7 0 0 1 2.201-.252M12 9a3 3 0 1 0 0 6 3 3 0 0 0 0-6"/><path d="M21 14.5a2.5 2.5 0 1 1-5 0 2.5 2.5 0 0 1 5 0m2 5.375C23 21.431 21.714 23 18.5 23S14 21.437 14 19.875v-.103c0-.98.794-1.772 1.773-1.772h5.454c.98 0 1.773.793 1.773 1.772z"/></svg>