<svg xmlns="http://www.w3.org/2000/svg" width="20" height="20" fill="currentColor"><path d="M13 3a5 5 0 0 0-4.274 2.405 2.17 2.17 0 0 1 1.153.96l1.912 3.31A2.5 2.5 0 0 1 13.5 9h2c.85 0 1.6.424 2.052 1.072A5 5 0 0 0 13 3M9.013 6.864l2.155 3.733a2.5 2.5 0 0 0-.126.445A2.5 2.5 0 0 0 9 13.5v3.486H3.17a1.17 1.17 0 0 1-1.014-1.755l4.83-8.367a1.17 1.17 0 0 1 2.027 0"/><path d="M12 12v-.5a1.5 1.5 0 0 1 1.5-1.5h2a1.5 1.5 0 0 1 1.5 1.5v.5h.5a1.5 1.5 0 0 1 1.5 1.5V15h-2v-.5a.5.5 0 0 0-1 0v.5h-3v-.5a.5.5 0 0 0-1 0v.5h-2v-1.5a1.5 1.5 0 0 1 1.5-1.5zm1-.5v.5h3v-.5a.5.5 0 0 0-.5-.5h-2a.5.5 0 0 0-.5.5m4 4.5h2v1.5a1.5 1.5 0 0 1-1.5 1.5h-6a1.5 1.5 0 0 1-1.5-1.5V16h2v.5a.5.5 0 0 0 1 0V16h3v.5a.5.5 0 0 0 1 0z"/></svg>