<svg xmlns="http://www.w3.org/2000/svg" width="20" height="20" fill="currentColor"><path d="M13 3a5 5 0 0 0-4.274 2.405 2.17 2.17 0 0 1 1.153.96l2.21 3.826.111-.268A1.5 1.5 0 0 1 13.585 9h3.473c.294 0 .564.083.791.224A5 5 0 0 0 13 3M9.013 6.864l2.592 4.489-1.488 3.57a1.5 1.5 0 0 0 1.176 2.063H3.17a1.17 1.17 0 0 1-1.014-1.755l4.83-8.367a1.17 1.17 0 0 1 2.027 0"/><path d="M12.612 16a.5.5 0 0 1 .485.621l-.435 1.738c-.12.483.462.827.826.487l4.873-4.548A.75.75 0 0 0 17.849 13h-.403a.5.5 0 0 1-.475-.658l.562-1.684a.5.5 0 0 0-.475-.658h-3.473a.5.5 0 0 0-.461.308l-2.084 5a.5.5 0 0 0 .462.692z"/></svg>