<svg xmlns="http://www.w3.org/2000/svg" width="20" height="20" fill="currentColor"><path d="M2 6.5A2.5 2.5 0 0 1 4.5 4h11A2.5 2.5 0 0 1 18 6.5v3.033a4 4 0 0 0-5 6.11V16H4.5A2.5 2.5 0 0 1 2 13.5zm3 1a.5.5 0 0 0 .5.5h4a.5.5 0 0 0 0-1h-4a.5.5 0 0 0-.5.5M5 10a.5.5 0 0 0 .5.5h7a.5.5 0 0 0 0-1h-7a.5.5 0 0 0-.5.5m0 2.5a.5.5 0 0 0 .5.5h5a.5.5 0 0 0 0-1h-5a.5.5 0 0 0-.5.5"/><path d="M16 16a3 3 0 1 0 0-6 3 3 0 0 0 0 6m0 1c.729 0 1.412-.195 2-.535v2.285a.25.25 0 0 1-.378.215L16 18l-1.622.965A.25.25 0 0 1 14 18.75v-2.285c.588.34 1.271.535 2 .535"/></svg>