<svg xmlns="http://www.w3.org/2000/svg" width="24" height="24" fill="currentColor"><g clip-path="url(#id4a88a-a)"><mask id="id4a88a-b" width="24" height="24" x="0" y="0" maskUnits="userSpaceOnUse" style="mask-type:luminance"><path fill="#fff" d="M24 0H0v24h24z"/></mask><g mask="url(#id4a88a-b)"><path fill="url(#id4a88a-c)" d="M2 5a3 3 0 0 1 3-3h14a3 3 0 0 1 3 3v14a3 3 0 0 1-3 3H5a3 3 0 0 1-3-3z"/><path fill="url(#id4a88a-d)" fill-opacity=".2" d="M2 5a3 3 0 0 1 3-3h14a3 3 0 0 1 3 3v14a3 3 0 0 1-3 3H5a3 3 0 0 1-3-3z"/><path fill="url(#id4a88a-e)" fill-rule="evenodd" d="M19 3H5a2 2 0 0 0-2 2v14a2 2 0 0 0 2 2h14a2 2 0 0 0 2-2V5a2 2 0 0 0-2-2M5 2a3 3 0 0 0-3 3v14a3 3 0 0 0 3 3h14a3 3 0 0 0 3-3V5a3 3 0 0 0-3-3z" clip-rule="evenodd"/><path fill="url(#id4a88a-f)" d="M12 11c1.193 0 2.317-.18 3.18-.503.283-.106.56-.237.811-.397L16 15.75c0 .775-.614 1.341-1.3 1.685-.715.358-1.668.565-2.694.565s-1.98-.207-2.695-.565c-.686-.343-1.3-.91-1.3-1.685l-.008-5.654c.252.162.532.294.818.401.863.323 1.987.503 3.18.503Z"/><path fill="url(#id4a88a-g)" d="M8.009 8.603C8.15 9.383 9.883 10 11.999 10c2.158 0 3.916-.64 3.998-1.442L16 8.5c0-.828-1.79-1.5-3.998-1.5-2.205 0-3.992.672-3.992 1.5a.6.6 0 0 0 .012.113z"/><path fill="#F5F5F5" d="M22.5 21H22v-2.5c0-.83-.67-1.5-1.5-1.5-.61 0-1.13.36-1.37.89-.57-.57-1.32-.88-2.12-.88-.73 0-1.42.26-1.97.74-.04-.03-.07-.07-.11-.1-.56-.43-1.24-.66-1.93-.66h-.31c-.26.01-.51.04-.75.11a2.6 2.6 0 0 0-1.56 1.3c-.16.31-.25.65-.28 1v.1c0 .55.19 1.06.55 1.47q-.12.09-.21.21c-.52.64-.43 1.59.21 2.11.56.46 1.28.71 2.01.71h.17c.62 0 1.16-.16 1.61-.46.17-.12.33-.25.46-.41.57.56 1.31.87 2.11.87.41 0 .81-.08 1.18-.24.24.16.52.24.82.24.26 0 .52-.07.75-.2.22.13.48.2.75.2h2c.83 0 1.5-.67 1.5-1.5s-.67-1.5-1.5-1.5z"/><path fill="url(#id4a88a-h)" d="M14.305 18.434a2.14 2.14 0 0 0-1.51-.436 1.58 1.58 0 0 0-1.694 1.468l-.001.017v.017c0 .578.364.936.692 1.136.306.186.657.285.85.339l.022.006.062.018c.2.056.387.108.54.201.14.085.192.166.192.3 0 .255-.085.341-.152.387-.1.069-.272.113-.506.113h-.022l-.021.002a1.17 1.17 0 0 1-.841-.26.5.5 0 1 0-.633.774 2.17 2.17 0 0 0 1.538.484c.32-.002.717-.06 1.049-.287.372-.254.588-.668.588-1.213 0-.582-.33-.945-.672-1.154-.28-.17-.606-.26-.792-.31l-.059-.017c-.207-.058-.44-.126-.623-.237-.163-.1-.207-.183-.212-.266a.583.583 0 0 1 .643-.519l.059.007.058-.007a1.14 1.14 0 0 1 .834.229.5.5 0 0 0 .611-.791Z"/><path fill="url(#id4a88a-i)" fill-rule="evenodd" d="M17 18a2 2 0 0 0-2 2v1a2 2 0 0 0 3.25 1.562l.45.338a.5.5 0 0 0 .6-.8l-.45-.338A2 2 0 0 0 19 21v-1a2 2 0 0 0-2-2m.3 2.6.693.52A1 1 0 0 0 18 21v-1a1 1 0 0 0-2 0v1a1 1 0 0 0 1.393.92l-.693-.52a.5.5 0 0 1 .6-.8" clip-rule="evenodd"/><path fill="url(#id4a88a-j)" d="M20.996 18.5a.5.5 0 0 0-1 0v4a.5.5 0 0 0 .5.5h2a.5.5 0 0 0 0-1h-1.5z"/></g></g><defs><linearGradient id="id4a88a-c" x1="7.556" x2="10.085" y1="2" y2="22.239" gradientUnits="userSpaceOnUse"><stop stop-color="#fff"/><stop offset="1" stop-color="#EBEBEB"/></linearGradient><linearGradient id="id4a88a-e" x1="8.458" x2="11.151" y1="2" y2="22.197" gradientUnits="userSpaceOnUse"><stop stop-color="#BBB"/><stop offset="1" stop-color="#888"/></linearGradient><linearGradient id="id4a88a-f" x1="8.002" x2="18.466" y1="7" y2="14.608" gradientUnits="userSpaceOnUse"><stop stop-color="#008EE6"/><stop offset="1" stop-color="#006094"/></linearGradient><linearGradient id="id4a88a-g" x1="8.002" x2="18.466" y1="7" y2="14.608" gradientUnits="userSpaceOnUse"><stop stop-color="#008EE6"/><stop offset="1" stop-color="#006094"/></linearGradient><linearGradient id="id4a88a-h" x1="11.1" x2="14.694" y1="17.988" y2="26.509" gradientUnits="userSpaceOnUse"><stop stop-color="#008EE6"/><stop offset="1" stop-color="#006094"/></linearGradient><linearGradient id="id4a88a-i" x1="11.1" x2="14.694" y1="17.988" y2="26.509" gradientUnits="userSpaceOnUse"><stop stop-color="#008EE6"/><stop offset="1" stop-color="#006094"/></linearGradient><linearGradient id="id4a88a-j" x1="11.1" x2="14.694" y1="17.988" y2="26.509" gradientUnits="userSpaceOnUse"><stop stop-color="#008EE6"/><stop offset="1" stop-color="#006094"/></linearGradient><radialGradient id="id4a88a-d" cx="0" cy="0" r="1" gradientTransform="rotate(56.31 -2.54 11.442)scale(19.0293 16.4677)" gradientUnits="userSpaceOnUse"><stop offset=".177" stop-color="#fff"/><stop offset="1" stop-color="#B8B8B8"/></radialGradient><clipPath id="id4a88a-a"><path fill="#fff" d="M0 0h24v24H0z"/></clipPath></defs></svg>