<svg xmlns="http://www.w3.org/2000/svg" width="24" height="24" fill="currentColor"><path d="M10 2a3.5 3.5 0 0 0-3.465 3h2.05A1.5 1.5 0 0 1 10 4h8.5A1.5 1.5 0 0 1 20 5.5v7.96l2-.015V5.5A3.5 3.5 0 0 0 18.5 2z"/><path d="M17.5 10.5v2.98l-1.287.01a2 2 0 0 0-.713.131V10.5A1.5 1.5 0 0 0 14 9H5.5A1.5 1.5 0 0 0 4 10.5V19a1.5 1.5 0 0 0 1.5 1.5h7.428a2.26 2.26 0 0 0 .702.691c-.32.38-.495.84-.524 1.309H5.5A3.5 3.5 0 0 1 2 19v-8.5A3.5 3.5 0 0 1 5.5 7H14a3.5 3.5 0 0 1 3.5 3.5"/><path d="M15.5 17.825a.75.75 0 0 0-.501.219l-.707.707a.75.75 0 0 0 1.06 1.06l.708-.706a.75.75 0 0 0-.56-1.28m1.915 1.945a.75.75 0 0 0-.473.218l-2.12 2.121a.75.75 0 0 0-.194.335h.001a.75.75 0 0 0 1.255.726l2.121-2.121a.75.75 0 0 0-.59-1.278Zm.085-2.302-1.625-1.625a.5.5 0 0 1 .35-.854h.002l6.32-.048a.5.5 0 0 1 .505.504l-.05 6.32a.5.5 0 0 1-.853.35l-4.649-4.65zm2.448 4.465a.75.75 0 0 1 0 1.06l-.707.708a.75.75 0 0 1-1.06-1.06l.707-.708a.75.75 0 0 1 1.06 0"/></svg>