<svg xmlns="http://www.w3.org/2000/svg" width="20" height="20" fill="currentColor"><path d="M3.998 4.524a2.5 2.5 0 0 1 2.493-2.507L12.521 2a2.5 2.5 0 0 1 2.506 2.493l.001.508-5.538.016a2.5 2.5 0 0 0-2.493 2.506l.001.486-2.506.007q-.25 0-.484.048z"/><path d="m13.998 13.985 1.5-.004a1.5 1.5 0 0 0 .5-.087v-2.41a1.5 1.5 0 0 1 .99-1.41l-.008-2.578A1.5 1.5 0 0 0 15.476 6l-5.983.017A1.5 1.5 0 0 0 7.997 7.52l.001.485L10.475 8a2.5 2.5 0 0 1 2.507 2.493l.004 1.573a1.5 1.5 0 0 1 1.012 1.419z"/><path d="m11.983 10.495.004 1.49h-.489a1.5 1.5 0 0 0-1.5 1.5v3.497l-5.48.015a1.5 1.5 0 0 1-1.504-1.496L3 10.521a1.5 1.5 0 0 1 1.496-1.505L10.479 9a1.5 1.5 0 0 1 1.504 1.495m5.015.99a.5.5 0 0 1 .5-.5h1a.5.5 0 0 1 .5.5v6a.5.5 0 0 1-.5.5h-1a.5.5 0 0 1-.5-.5z"/><path d="M11.498 12.985a.5.5 0 0 0-.5.5v4a.5.5 0 0 0 .5.5h1a.5.5 0 0 0 .5-.5v-4a.5.5 0 0 0-.5-.5zm3 2a.5.5 0 0 0-.5.5v2a.5.5 0 0 0 .5.5h1a.5.5 0 0 0 .5-.5v-2a.5.5 0 0 0-.5-.5z"/></svg>