<svg xmlns="http://www.w3.org/2000/svg" width="24" height="24" fill="currentColor"><path d="M6.25 3A3.25 3.25 0 0 0 3 6.25v11.5A3.25 3.25 0 0 0 6.25 21h5.16a2.253 2.253 0 0 1 1.84-2.919v-2.332c0-1.24 1.01-2.25 2.25-2.25 1.101 0 2.022.798 2.213 1.845l1.186-1.186a2.22 2.22 0 0 1 1.588-.659q.265 0 .513.056V6.25A3.25 3.25 0 0 0 17.75 3z"/><path d="M14.96 22.78a.75.75 0 0 0 .535.22.75.75 0 0 0 .537-.22l1.938-1.938a.75.75 0 1 0-1.061-1.061l-.657.657v-4.689a.75.75 0 0 0-1.5 0v4.7l-.668-.668a.75.75 0 1 0-1.061 1.061zm6.947-4.562-.669-.668v4.7a.75.75 0 0 1-1.5 0v-4.689l-.657.657a.75.75 0 1 1-1.06-1.061l1.938-1.938a.75.75 0 0 1 .535-.22.75.75 0 0 1 .537.22l1.938 1.938a.75.75 0 1 1-1.063 1.061Z"/></svg>