<svg xmlns="http://www.w3.org/2000/svg" width="20" height="20" fill="currentColor"><path d="M3.5 4A1.5 1.5 0 0 0 2 5.5v2A1.5 1.5 0 0 0 3.5 9h2A1.5 1.5 0 0 0 7 7.5v-2A1.5 1.5 0 0 0 5.5 4zm6 0A1.5 1.5 0 0 0 8 5.5v2A1.5 1.5 0 0 0 9.5 9h2A1.5 1.5 0 0 0 13 7.5v-2A1.5 1.5 0 0 0 11.5 4zM14 5.5A1.5 1.5 0 0 1 15.5 4h2A1.5 1.5 0 0 1 19 5.5v2A1.5 1.5 0 0 1 17.5 9h-2A1.5 1.5 0 0 1 14 7.5zm-3.788 5.306a.75.75 0 0 1 .819.163l1.649 1.65a.75.75 0 0 1-1.06 1.06l-.004-.002-.366-.367v4.19a.75.75 0 1 1-1.5 0v-4.19l-.37.37a.75.75 0 0 1-1.06-1.06l.003-.004 1.646-1.647a.8.8 0 0 1 .243-.163"/></svg>