<svg xmlns="http://www.w3.org/2000/svg" width="20" height="20" fill="currentColor"><path d="M6.491 2.017a2.5 2.5 0 0 0-2.493 2.507l.01 3.54q.234-.046.484-.048L7 8.01v-.486a2.5 2.5 0 0 1 2.492-2.507l5.536-.015-.001-.508A2.5 2.5 0 0 0 12.52 2z"/><path d="m15.5 13.98-2.508.007-.01-3.494A2.5 2.5 0 0 0 10.475 8L8 8.006V7.52a1.5 1.5 0 0 1 1.495-1.504L15.478 6a1.5 1.5 0 0 1 1.504 1.495l.014 4.981A1.5 1.5 0 0 1 15.5 13.98"/><path d="m4.443 9.017.053-.001L10.479 9a1.5 1.5 0 0 1 1.504 1.495l.014 4.981A1.5 1.5 0 0 1 10.5 16.98l-5.983.017a1.5 1.5 0 0 1-1.504-1.496L3 10.521a1.5 1.5 0 0 1 1.443-1.504"/></svg>