<svg xmlns="http://www.w3.org/2000/svg" width="20" height="20" fill="currentColor"><g clip-path="url(#ifb50b0-a)"><path d="M18 13.5v-5a4.45 4.45 0 0 0-1-2.794V13.5a3.5 3.5 0 0 1-3.5 3.5H9.4a5.5 5.5 0 0 1-.658 1H13.5a4.505 4.505 0 0 0 4.5-4.5"/><path d="M13.5 16H9.791a5.5 5.5 0 0 0 .208-1.5 5.48 5.48 0 0 0-1.068-3.257l1.08-1.08A1 1 0 0 0 11 11h2a1 1 0 0 0 1-1V8a1 1 0 0 0-1-1h-2a1 1 0 0 0-.976.786L8 5.763V5a1 1 0 0 0-1-1H5a1 1 0 0 0-1 1v2a1 1 0 0 0 1 1h2a1 1 0 0 0 .986-.836l1.806 1.805-1.524 1.525A5.48 5.48 0 0 0 4.5 9c-.9 0-1.75.216-2.5.6V4.5A2.5 2.5 0 0 1 4.5 2h9A2.5 2.5 0 0 1 16 4.5v9a2.5 2.5 0 0 1-2.5 2.5"/><path d="M13 8v2h-2V8zM7 5v2H5V5zm0 13.242a4.5 4.5 0 1 1-5-7.483 4.5 4.5 0 0 1 5 7.483m-2.147-6.096A.5.5 0 0 0 4 12.5V14H2.5a.5.5 0 0 0 0 1H4v1.5a.5.5 0 0 0 1 0V15h1.5a.5.5 0 0 0 0-1H5v-1.5a.5.5 0 0 0-.147-.354"/></g><defs><clipPath id="ifb50b0-a"><path d="M0 0h20v20H0z"/></clipPath></defs></svg>