<svg xmlns="http://www.w3.org/2000/svg" width="24" height="24" fill="currentColor"><path d="M6.25 3A3.25 3.25 0 0 0 3 6.25v11.5A3.25 3.25 0 0 0 6.25 21h1.264a2.253 2.253 0 0 1 2.236-2.002c.373 0 .603-.108.821-.388a2 2 0 0 0 .128-.188q-.463.075-.949.076a2.253 2.253 0 0 1-2.25-2.25c0-1.24 1.009-2.25 2.25-2.25.373 0 .603-.108.821-.388.11-.141.183-.283.225-.378l.049-.117c.313-.972 1.164-1.603 2.123-1.617 1.028 0 1.894.641 2.185 1.593a3 3 0 0 0 .153.324c.042.072.095.155.155.237.23.308.393.332.456.34l.001.001.179-.002c.06-.01.218-.037.447-.343a2.5 2.5 0 0 0 .305-.562A2.24 2.24 0 0 1 19 11.498a2.28 2.28 0 0 1 2 1.22V6.25A3.25 3.25 0 0 0 17.75 3z"/><path d="M17.743 14.548c.1-.134.186-.269.257-.396v.002a4 4 0 0 0 .259-.555l.02-.058.004-.01a.75.75 0 0 1 1.441.02l.003.008.017.054a3.3 3.3 0 0 0 .504.923c.384.49.996.963 2.002.963a.75.75 0 0 1 0 1.5c-1.574 0-2.587-.777-3.183-1.537l-.02-.027-.048-.062-.056.076c-.473.631-1.238 1.32-2.358 1.503a3.7 3.7 0 0 1-1.191-.003c-1.109-.188-1.868-.873-2.338-1.5L13 15.373l-.068.09c-.596.76-1.609 1.536-3.183 1.536a.75.75 0 0 1 0-1.5c1.006 0 1.618-.473 2.002-.963a3.3 3.3 0 0 0 .504-.923l.015-.047.002-.007.003-.009a.75.75 0 0 1 1.441-.02l.004.011.002.007.018.051a3.7 3.7 0 0 0 .259.555v-.002c.071.127.157.262.257.396.337.45.802.84 1.453.93a2.1 2.1 0 0 0 .623-.006c.628-.1 1.08-.484 1.409-.924zm0 5c.1-.134.186-.269.257-.396v.002a4 4 0 0 0 .259-.555l.018-.05.002-.008.004-.01a.75.75 0 0 1 1.441.02l.003.008.017.054a3.3 3.3 0 0 0 .504.923c.384.49.996.963 2.002.963a.75.75 0 0 1 0 1.5c-1.574 0-2.587-.777-3.183-1.537l-.02-.027-.048-.062-.056.076c-.473.631-1.238 1.32-2.358 1.503a3.7 3.7 0 0 1-1.191-.003c-1.109-.188-1.868-.873-2.338-1.5L13 20.373l-.068.09c-.596.76-1.609 1.536-3.183 1.536a.75.75 0 0 1 0-1.5c1.006 0 1.618-.473 2.002-.963a3.3 3.3 0 0 0 .504-.923l.015-.047.002-.007.003-.009a.75.75 0 0 1 1.441-.02l.004.011.002.007.018.051a3.7 3.7 0 0 0 .259.555v-.002c.071.127.157.262.257.396.337.45.802.84 1.453.93a2.1 2.1 0 0 0 .623-.006c.628-.1 1.08-.484 1.409-.924z"/></svg>