<svg xmlns="http://www.w3.org/2000/svg" width="20" height="20" fill="currentColor"><path d="M6 3a3 3 0 0 0-3 3v8a3 3 0 0 0 3 3h3.007a1.5 1.5 0 0 1 .843-1.502 5.5 5.5 0 1 1 3.791-1.376v.13q.081-.124.189-.231l1.591-1.591A1.5 1.5 0 0 1 17 12.082V6a3 3 0 0 0-3-3z"/><path d="M8.51 9.5c.047-1.128.25-2.123.54-2.85.167-.417.353-.722.535-.914.18-.19.32-.236.415-.236s.235.046.415.236c.182.192.368.497.535.914.29.727.493 1.722.54 2.85zm-.18-3.68a5 5 0 0 0-.209.459c-.344.862-.565 1.987-.612 3.221H5.527A4.5 4.5 0 0 1 8.33 5.82m3.34 0q.112.218.208.459c.345.862.565 1.987.612 3.221h1.982a4.5 4.5 0 0 0-2.802-3.68m2.802 4.68H12.49a12 12 0 0 1-.152 1.513 1.49 1.49 0 0 1 1.155.824c.53-.653.882-1.457.98-2.337Zm-3.204 1.784a1.5 1.5 0 0 0-.621 1.217v.457a2 2 0 0 1-.232.306c-.18.19-.32.236-.415.236s-.235-.046-.415-.236c-.182-.192-.368-.497-.535-.914-.29-.727-.493-1.722-.54-2.85h2.98c-.027.647-.105 1.25-.222 1.784M8.33 14.18a4.5 4.5 0 0 1-2.803-3.68H7.51c.047 1.234.268 2.36.612 3.221q.097.24.208.459m10.17.613-1.646-1.647a.5.5 0 0 0-.708 0L14.5 14.793a.5.5 0 0 0 .707.707l.793-.793V18.5a.5.5 0 0 0 1 0v-3.793l.793.793a.5.5 0 0 0 .707-.707M13.44 16.5l-.794.793V13.5a.5.5 0 1 0-1 0v3.793l-.792-.793a.5.5 0 0 0-.708.707l1.647 1.647a.5.5 0 0 0 .707 0l1.646-1.647a.5.5 0 0 0-.707-.707Z"/></svg>