<svg xmlns="http://www.w3.org/2000/svg" width="24" height="24" fill="currentColor"><path d="M2 4.5a1 1 0 0 0 2 0v-1a.5.5 0 0 1 .5-.5h15a.5.5 0 0 1 .5.5v1a1 1 0 1 0 2 0v-1A2.5 2.5 0 0 0 19.5 1h-15A2.5 2.5 0 0 0 2 3.5z"/><path d="M13.75 5a5.25 5.25 0 0 0-5.25 5.25v.5a.75.75 0 0 1-.75.75h-1a.75.75 0 0 0 0 1.5h1A2.25 2.25 0 0 0 10 10.75v-.5a3.75 3.75 0 0 1 3.75-3.75h1.5a.75.75 0 0 0 0-1.5z"/><path d="M11 10.75a3.25 3.25 0 0 1 3.25-3.25h2a.75.75 0 0 1 0 1.5h-2a1.75 1.75 0 0 0-1.75 1.75v.418a4.49 4.49 0 0 0-1.478 3.803 3.24 3.24 0 0 1-1.772.525h-2.5a.75.75 0 1 1 0-1.5h2.5a1.75 1.75 0 0 0 1.75-1.75v-.877q0-.03.002-.06L11 11.248zm.308 5.412a3.7 3.7 0 0 1-1.558.338h-2a.75.75 0 0 0 0 1.5h2c.839 0 1.632-.197 2.336-.547a4.5 4.5 0 0 1-.778-1.291"/><path d="M22 18.5a1 1 0 0 0-2 0v1a.5.5 0 0 1-.5.5h-15a.5.5 0 0 1-.5-.5v-1a1 1 0 0 0-2 0v1A2.5 2.5 0 0 0 4.5 22h15a2.5 2.5 0 0 0 2.5-2.5z"/><path d="M13.458 11.718a2 2 0 0 1-1.407 2.437l-.033.009a3.5 3.5 0 0 0 .026.916 2 2 0 0 1 1.302 2.2q.383.301.842.488a2 2 0 0 1 2.557.026q.435-.166.806-.435l-.009-.033a2 2 0 0 1 1.407-2.437l.033-.009a3.5 3.5 0 0 0-.026-.916 2 2 0 0 1-1.302-2.201 3.5 3.5 0 0 0-.841-.487 2 2 0 0 1-2.558-.026q-.435.166-.806.436zm2.042 3.554a.75.75 0 1 1 0-1.5.75.75 0 0 1 0 1.5"/></svg>