<svg xmlns="http://www.w3.org/2000/svg" width="20" height="20" fill="currentColor"><g clip-path="url(#i558058-a)"><mask id="i558058-b" width="20" height="20" x="0" y="0" maskUnits="userSpaceOnUse" style="mask-type:luminance"><path fill="#fff" d="M20 0H0v20h20z"/></mask><g mask="url(#i558058-b)"><path fill="url(#i558058-c)" d="M2 4.5A2.5 2.5 0 0 1 4.5 2h11A2.5 2.5 0 0 1 18 4.5v11a2.5 2.5 0 0 1-2.5 2.5h-11A2.5 2.5 0 0 1 2 15.5z"/><path fill="url(#i558058-d)" fill-opacity=".2" d="M2 4.5A2.5 2.5 0 0 1 4.5 2h11A2.5 2.5 0 0 1 18 4.5v11a2.5 2.5 0 0 1-2.5 2.5h-11A2.5 2.5 0 0 1 2 15.5z"/><path fill="url(#i558058-e)" fill-rule="evenodd" d="M15.5 3h-11A1.5 1.5 0 0 0 3 4.5v11A1.5 1.5 0 0 0 4.5 17h11a1.5 1.5 0 0 0 1.5-1.5v-11A1.5 1.5 0 0 0 15.5 3m-11-1A2.5 2.5 0 0 0 2 4.5v11A2.5 2.5 0 0 0 4.5 18h11a2.5 2.5 0 0 0 2.5-2.5v-11A2.5 2.5 0 0 0 15.5 2z" clip-rule="evenodd"/><path fill="url(#i558058-f)" d="M6 9a1 1 0 1 0 0-2 1 1 0 0 0 0 2"/><path fill="url(#i558058-g)" d="M10 9a1 1 0 1 0 0-2 1 1 0 0 0 0 2"/><path fill="url(#i558058-h)" d="M15 8a1 1 0 1 1-2 0 1 1 0 0 1 2 0"/><path fill="url(#i558058-i)" d="M10 13a1 1 0 1 0 0-2 1 1 0 0 0 0 2"/><path fill="url(#i558058-j)" d="M7 12a1 1 0 1 1-2 0 1 1 0 0 1 2 0"/><path fill="#F5F5F5" d="M17.815 19.962a1.5 1.5 0 0 0 1.182-1.233c.06-.371.063-.67.063-.949a6.78 6.78 0 0 0-7.797-6.701 1.5 1.5 0 0 0-1.261 1.415H10v5.2A2.306 2.306 0 0 0 12.306 20h5.226q.154 0 .283-.038"/><path fill="url(#i558058-k)" d="M12.28 13a4.4 4.4 0 0 0-.7.054.5.5 0 1 1-.159-.988 5.78 5.78 0 0 1 6.639 5.714c0 .266-.004.5-.05.791a.5.5 0 0 1-.988-.158q.02-.127.028-.247c.006-.08.008-.16.01-.251v-.135A4.78 4.78 0 0 0 12.28 13"/><path fill="url(#i558058-l)" d="M12.12 14.97c-.179 0-.356.017-.522.05a.5.5 0 1 1-.196-.98c.234-.047.477-.07.718-.07a3.92 3.92 0 0 1 3.864 4.588.5.5 0 1 1-.988-.156 5 5 0 0 0 .03-.228 3 3 0 0 0 .014-.284 2.92 2.92 0 0 0-2.92-2.92"/><path fill="url(#i558058-m)" d="M13.8 17.5a1.25 1.25 0 1 1-2.5 0 1.25 1.25 0 0 1 2.5 0"/></g></g><defs><linearGradient id="i558058-c" x1="6.444" x2="8.468" y1="2" y2="18.192" gradientUnits="userSpaceOnUse"><stop stop-color="#fff"/><stop offset="1" stop-color="#EBEBEB"/></linearGradient><linearGradient id="i558058-e" x1="7.167" x2="9.321" y1="2" y2="18.157" gradientUnits="userSpaceOnUse"><stop stop-color="#BBB"/><stop offset="1" stop-color="#888"/></linearGradient><linearGradient id="i558058-f" x1="5" x2="10.294" y1="7" y2="15.823" gradientUnits="userSpaceOnUse"><stop stop-color="#7751B8"/><stop offset="1" stop-color="#5A409C"/></linearGradient><linearGradient id="i558058-g" x1="5" x2="10.294" y1="7" y2="15.823" gradientUnits="userSpaceOnUse"><stop stop-color="#7751B8"/><stop offset="1" stop-color="#5A409C"/></linearGradient><linearGradient id="i558058-h" x1="5" x2="10.294" y1="7" y2="15.823" gradientUnits="userSpaceOnUse"><stop stop-color="#7751B8"/><stop offset="1" stop-color="#5A409C"/></linearGradient><linearGradient id="i558058-i" x1="5" x2="10.294" y1="7" y2="15.823" gradientUnits="userSpaceOnUse"><stop stop-color="#7751B8"/><stop offset="1" stop-color="#5A409C"/></linearGradient><linearGradient id="i558058-j" x1="5" x2="10.294" y1="7" y2="15.823" gradientUnits="userSpaceOnUse"><stop stop-color="#7751B8"/><stop offset="1" stop-color="#5A409C"/></linearGradient><linearGradient id="i558058-k" x1="11" x2="17.992" y1="12" y2="19.06" gradientUnits="userSpaceOnUse"><stop stop-color="#7751B8"/><stop offset="1" stop-color="#5A409C"/></linearGradient><linearGradient id="i558058-l" x1="11" x2="17.992" y1="12" y2="19.06" gradientUnits="userSpaceOnUse"><stop stop-color="#7751B8"/><stop offset="1" stop-color="#5A409C"/></linearGradient><linearGradient id="i558058-m" x1="11" x2="17.992" y1="12" y2="19.06" gradientUnits="userSpaceOnUse"><stop stop-color="#7751B8"/><stop offset="1" stop-color="#5A409C"/></linearGradient><radialGradient id="i558058-d" cx="0" cy="0" r="1" gradientTransform="rotate(56.31 -2.206 9.727)scale(15.2234 13.1741)" gradientUnits="userSpaceOnUse"><stop offset=".177" stop-color="#fff"/><stop offset="1" stop-color="#B8B8B8"/></radialGradient><clipPath id="i558058-a"><path fill="#fff" d="M0 0h20v20H0z"/></clipPath></defs></svg>