<svg xmlns="http://www.w3.org/2000/svg" width="20" height="20" fill="currentColor"><path d="M4 5.5A1.5 1.5 0 0 1 5.5 4H8v3h4V3H5.5A2.5 2.5 0 0 0 3 5.5v9A2.5 2.5 0 0 0 5.5 17H11v-3.5q0-.257.05-.5H8v3H5.5A1.5 1.5 0 0 1 4 14.5zM17 8v3h-3.5q-.257 0-.5.05V8z"/><path d="M12 11.5V8H8v4h3.5q.214-.286.5-.5M17 7h-4V3h1.5A2.5 2.5 0 0 1 17 5.5zm-3.5 6a.5.5 0 0 0-.5.5v4a.5.5 0 0 0 .5.5h1a.5.5 0 0 1 0 1h-1a1.5 1.5 0 0 1-1.5-1.5v-4a1.5 1.5 0 0 1 1.5-1.5h1a.5.5 0 0 1 0 1zm5 0a.5.5 0 0 1 .5.5v4a.5.5 0 0 1-.5.5h-1a.5.5 0 0 0 0 1h1a1.5 1.5 0 0 0 1.5-1.5v-4a1.5 1.5 0 0 0-1.5-1.5h-1a.5.5 0 0 0 0 1z"/></svg>