<svg xmlns="http://www.w3.org/2000/svg" width="20" height="20" fill="currentColor"><g clip-path="url(#i120203-a)"><path d="M17 18.242a4.5 4.5 0 1 1-5-7.483 4.5 4.5 0 0 1 5 7.483m-2.147-6.096A.5.5 0 0 0 14 12.5V14h-1.5a.5.5 0 0 0 0 1H14v1.5a.5.5 0 0 0 1 0V15h1.5a.5.5 0 0 0 0-1H15v-1.5a.5.5 0 0 0-.146-.354ZM10.257 18a5.5 5.5 0 0 1-.658-1H6.5A3.5 3.5 0 0 1 3 13.5V9.965a2.5 2.5 0 0 1-1 0V13.5A4.5 4.5 0 0 0 6.5 18zM13 9.207A5.5 5.5 0 0 0 10.256 11H9V7h4z"/><path d="M18 10.257a5.48 5.48 0 0 0-4-1.235V7h4zM9.268 4.268 9 4.536V6h4V2H9.95a2.5 2.5 0 0 1-.682 2.268M4.267 9.284A2.5 2.5 0 0 1 4 9.516V11h4V7H5v.516a2.5 2.5 0 0 1-.733 1.768M4 12h4v4H6.5A2.5 2.5 0 0 1 4 13.5zm14-6h-4V2h1.5A2.5 2.5 0 0 1 18 4.5zM5.854.146a.5.5 0 0 0-.708.708L6.3 2A4.5 4.5 0 0 0 2 6.5v1.016a.5.5 0 0 0 1 0V6.5a3.5 3.5 0 0 1 3.286-3.494l-1.14 1.14a.5.5 0 0 0 .708.708l2-2a.5.5 0 0 0 0-.708z"/></g><defs><clipPath id="i120203-a"><path d="M0 0h20v20H0z"/></clipPath></defs></svg>