<svg xmlns="http://www.w3.org/2000/svg" width="20" height="20" fill="currentColor"><path d="M13 7h4V5.5A2.5 2.5 0 0 0 14.5 3H13zm-6 5V8H3v4zm5-3.53c-.288.19-.541.434-.747.724-.348.494-.556 1.112-.603 1.789v.037h-.051c-.644 0-1.195.409-1.407.98H8V8h4zM9.178 13c.19.56.7.972 1.313 1.016a379 379 0 0 1-.14 2.207 7 7 0 0 1-.083.75l-.118-.056a1.5 1.5 0 0 0-.653-.148 1.5 1.5 0 0 0-.804.231H8v-4zM13 8v.065A3.3 3.3 0 0 1 13.642 8a2.67 2.67 0 0 1 1.46.417c.704.439.926 1.336.513 2.046-.296.473-.773.739-1.294.739h-.015c.317.173.564.456.691.798H17V8zm-6 5H3v1.5A2.5 2.5 0 0 0 5.5 17H7zm5-6V3H8v4zM7 3v4H3V5.5A2.5 2.5 0 0 1 5.5 3z"/><path d="M13.78 10.01a1 1 0 0 0-.36 0v.01c-.25.04-.42.16-.54.33-.13.18-.21.44-.24.77 0 .068-.008.224-.018.44l-.022.46h.99c.28 0 .5.22.5.5s-.22.5-.5.5h-1.05c-.07 1.32-.17 2.9-.2 3.35v.05l-.006.073c-.029.328-.063.725-.184 1.097-.14.44-.4.87-.89 1.16-.71.44-1.46.23-1.99-.04a.505.505 0 0 1-.22-.67c.12-.24.42-.34.67-.22.43.22.76.25 1.02.08h.01c.23-.13.36-.33.45-.6.09-.29.12-.62.15-1l.001-.02c.032-.484.13-1.989.199-3.26h-.95c-.28 0-.5-.22-.5-.5s.22-.5.5-.5h1.01l.027-.611c.008-.166.013-.278.013-.319v-.04c.03-.45.16-.91.42-1.28.27-.38.68-.66 1.21-.74.25-.04.48-.04.7 0 .23.04.42.13.6.24.24.15.31.45.17.69-.15.24-.45.31-.69.17-.12-.07-.2-.1-.28-.12m5.06 4.13c.2.2.2.51 0 .71l.01.01-1.73 1.73.275.473c.153.264.27.466.316.537l.09.15.03.05.02.04.038.06a.4.4 0 0 0 .041.06l.03.03c0 .01.01.01.01.01l.02-.02c.01-.02.06-.06.06-.06v-.02c.01-.02.03-.05.05-.07.17-.22.48-.26.7-.09s.26.48.09.7q-.001.008-.01.015-.009.008-.01.015c-.06.08-.19.25-.35.36-.24.17-.52.19-.82.13a.6.6 0 0 1-.12-.04 1.2 1.2 0 0 1-.548-.505l-.052-.085-.03-.05-.032-.057a61 61 0 0 1-.369-.631l-.168-.292-1.54 1.54c-.2.2-.51.2-.71 0s-.2-.51 0-.71l1.73-1.73c-.27-.48-.51-.89-.58-1-.01-.01-.02-.02-.02-.03-.05-.1-.11-.2-.17-.28q-.024-.025-.043-.048-.014-.018-.027-.032l-.04.04q-.035.036-.077.09l-.024.03c-.17.22-.48.26-.7.09a.496.496 0 0 1-.09-.7c.1-.13.24-.3.44-.42.22-.13.51-.2.83-.08l.02.01a1.4 1.4 0 0 1 .5.42c.11.14.2.29.26.41l.114.198c.086.15.203.354.336.582l1.54-1.54c.2-.2.51-.2.71 0"/></svg>