<svg xmlns="http://www.w3.org/2000/svg" width="20" height="20" fill="currentColor"><path d="M18.677 1h-2.828a.5.5 0 0 0 0 1h1.621l-5.292 5.293a.5.5 0 0 0 .707.707l5.292-5.293v1.621a.5.5 0 0 0 1 0V1.5a.5.5 0 0 0-.144-.351l-.002-.003-.002-.002A.5.5 0 0 0 18.68 1z"/><path d="M14.5 3q.26 0 .505.051L13 5.056V3zm-.908 5.707a1.5 1.5 0 0 1-.592.365V12h4V8h-2.701zM11.073 8A1.5 1.5 0 0 0 12 9.05V12H8V8zm.397-1.414.53-.53V3H8v4h3.177q.108-.227.293-.414M15.299 7l1.694-1.694Q17 5.402 17 5.5V7zM13 17h1.5a2.5 2.5 0 0 0 2.5-2.5V13h-4zm-1-4H8v4h4zm-5-1V8H3v4zm0 1H3v1.5A2.5 2.5 0 0 0 5.5 17H7zM7 3v4H3V5.5A2.5 2.5 0 0 1 5.5 3z"/></svg>