<svg xmlns="http://www.w3.org/2000/svg" width="20" height="20" fill="currentColor"><path d="M13 7h4V5.5A2.5 2.5 0 0 0 14.5 3H13zm-6 5V8H3v4zm1 0h4V8H8zm8-3q.513 0 1 .123V8h-4v2.354a3.9 3.9 0 0 1 1.476-1.046A4.3 4.3 0 0 1 15.973 9zm-6.559 6.941L12 13.383V13H8v4h1c0-.41.162-.78.441-1.059M7 13H3v1.5A2.5 2.5 0 0 0 5.5 17H7zm5-6V3H8v4zM7 3v4H3V5.5A2.5 2.5 0 0 1 5.5 3z"/><path fill-rule="evenodd" d="M10.148 18.852A.48.48 0 0 0 10.5 19h2a.6.6 0 0 0 .273-.07.37.37 0 0 0 .149-.172.9.9 0 0 0 .062-.235 2 2 0 0 0 .016-.257V18q.36-.008.563-.023a.47.47 0 0 0 .304-.118.46.46 0 0 0 .117-.297q.015-.195.016-.562h.5q.165 0 .266-.07a.5.5 0 0 0 .156-.172.7.7 0 0 0 .07-.235q.015-.133.016-.273a3 3 0 0 1-.008-.227v-.195q.258.094.523.133.266.039.54.039a2.87 2.87 0 0 0 2.078-.898q.405-.423.632-.961Q19 13.601 19 13q0-.625-.234-1.172a3 3 0 0 0-.641-.953 3 3 0 0 0-.953-.64A2.9 2.9 0 0 0 16 10a3.2 3.2 0 0 0-1.148.234 2.9 2.9 0 0 0-.954.625 3.1 3.1 0 0 0-.656.938 2.7 2.7 0 0 0-.242 1.14q0 .367.086.774l-2.938 2.937A.48.48 0 0 0 10 17v1.5q0 .203.148.352m7.133-7.133a.72.72 0 0 1 .219.531.72.72 0 0 1-.219.531.72.72 0 0 1-.531.219.72.72 0 0 1-.531-.219.72.72 0 0 1-.219-.531q0-.312.219-.531a.72.72 0 0 1 .531-.219q.312 0 .531.219" clip-rule="evenodd"/></svg>