<svg xmlns="http://www.w3.org/2000/svg" width="20" height="20" fill="currentColor"><path d="M3.5 3a2.5 2.5 0 0 0 0 5H4a.5.5 0 0 0 0-1h-.5a1.5 1.5 0 1 1 0-3H4a.5.5 0 0 0 0-1zM7 3a.5.5 0 0 0 0 1h.5a1.5 1.5 0 1 1 0 3H7a.5.5 0 0 0 0 1h.5a2.5 2.5 0 0 0 0-5z"/><path d="M3 5.5a.5.5 0 0 1 .5-.5h4a.5.5 0 0 1 0 1h-4a.5.5 0 0 1-.5-.5M10.663 7H12V3H9.95A3.5 3.5 0 0 1 11 5.5c0 .537-.12 1.045-.337 1.5M8 12V8.965A3.5 3.5 0 0 0 9.95 8H12v4zm-5 0V8.965Q3.245 9 3.5 9H7v3zm14-5h-4V3h1.5A2.5 2.5 0 0 1 17 5.5zm-4 1v2.404l.2-.48A1.5 1.5 0 0 1 14.585 9H17V8zm-5 5h3.918l-.801 1.923A1.5 1.5 0 0 0 12 16.915V17H8zm-1 0H3v1.5A2.5 2.5 0 0 0 5.5 17H7zm7.252 3h-1.75a.5.5 0 0 1-.462-.692l2.084-5a.5.5 0 0 1 .461-.308h3.473a.5.5 0 0 1 .475.658L17.752 13h1.097a.75.75 0 0 1 .512 1.298l-4.873 4.548c-.364.34-.947-.004-.826-.487z"/></svg>