<svg xmlns="http://www.w3.org/2000/svg" width="20" height="20" fill="currentColor"><path d="M8.286 13.335a.75.75 0 0 0 .475.17h3.5a.75.75 0 1 0 0-1.5h-2.5a2.4 2.4 0 0 1 1.163-.84l.013-.003.012-.006c1.005-.455 1.535-1 1.804-1.542.265-.534.26-1.034.258-1.355v-.014a2.33 2.33 0 0 0-2.464-2.241 2.45 2.45 0 0 0-2.362 1.467l-.004.01a.75.75 0 0 0 1.396.551.98.98 0 0 1 .951-.528h.035a.9.9 0 0 1 .949.843c.002.235-.001.439-.128.656-.129.222-.41.494-1.053.783-1.298.586-1.894 1.322-2.152 1.95-.256.623-.166 1.106-.153 1.168a.75.75 0 0 0 .26.431m-1.292.169a.75.75 0 1 0 0-1.5.75.75 0 0 0 0 1.5M4.488 8.156l-.34.226a.75.75 0 0 1-.832-1.248l.006-.004 1.5-1a.75.75 0 0 1 1.166.624v6a.75.75 0 0 1-1.5 0z"/></svg>