<svg xmlns="http://www.w3.org/2000/svg" width="20" height="20" fill="currentColor"><path d="M8.76 13.504a.75.75 0 0 1-.734-.6c-.013-.062-.103-.545.153-1.168.258-.628.854-1.364 2.152-1.95.643-.29.924-.561 1.053-.783.127-.217.13-.42.128-.656a.9.9 0 0 0-.95-.843h-.034a.98.98 0 0 0-.951.528.75.75 0 0 1-1.396-.55l.004-.01a2.45 2.45 0 0 1 2.362-1.468 2.33 2.33 0 0 1 2.463 2.241v.014c.004.321.008.821-.257 1.355-.27.543-.8 1.087-1.804 1.542l-.012.005-.013.005a2.4 2.4 0 0 0-1.163.838h2.5a.75.75 0 0 1 0 1.5h-3.5Zm-1.016-.75a.75.75 0 1 1-1.5 0 .75.75 0 0 1 1.5 0M4.147 8.382l.34-.226v4.598a.75.75 0 0 0 1.5 0v-6a.75.75 0 0 0-1.165-.624l-1.5 1-.006.004a.75.75 0 0 0 .831 1.248M14.22 6.224a.75.75 0 0 1 .53-.22h3a.75.75 0 1 1 0 1.5H15.5v1.5h1.25a.75.75 0 1 1 0 1.5H15.5v2.25a.75.75 0 1 1-1.5 0v-6a.75.75 0 0 1 .22-.53"/></svg>