<svg xmlns="http://www.w3.org/2000/svg" width="24" height="24" fill="currentColor"><path d="M3 6.25A3.25 3.25 0 0 1 6.25 3h11.5A3.25 3.25 0 0 1 21 6.25v5.482A6.5 6.5 0 0 0 18 11c-.621 0-1.222.087-1.791.25H11.25a.75.75 0 1 0 0 1.5h2.313A6.5 6.5 0 0 0 11.998 15h-.748a.75.75 0 1 0 0 1.5h.326q-.075.49-.076 1a6.47 6.47 0 0 0 1.022 3.5H6.25A3.25 3.25 0 0 1 3 17.75zm4.75 3a1 1 0 1 0 0-2 1 1 0 0 0 0 2m3.5-1.75a.75.75 0 0 0 0 1.5h5.5a.75.75 0 0 0 0-1.5zM8.75 12a1 1 0 1 0-2 0 1 1 0 0 0 2 0m-1 4.75a1 1 0 1 0 0-2 1 1 0 0 0 0 2"/><path d="M23.5 17.5a5.5 5.5 0 1 0-11 0 5.5 5.5 0 0 0 11 0m-6.985-3a.5.5 0 0 1 .46.342l1.053 3.16 1.004-2.678a.5.5 0 0 1 .915-.048L20.81 17h.691a.5.5 0 0 1 0 1h-1a.5.5 0 0 1-.447-.276l-.487-.975-1.098 2.927a.5.5 0 0 1-.942-.018l-1.069-3.205-.493 1.233A.5.5 0 0 1 15.5 18h-1a.5.5 0 0 1 0-1h.662l.874-2.186a.5.5 0 0 1 .479-.314"/></svg>