<svg xmlns="http://www.w3.org/2000/svg" width="20" height="20" fill="currentColor"><path fill-rule="evenodd" d="M7.75 6c-1.027 0-1.77.487-2.213 1.254C5.13 7.964 5 8.87 5 9.75s.129 1.786.537 2.495c.442.768 1.186 1.255 2.213 1.255s1.77-.487 2.213-1.255c.408-.71.537-1.614.537-2.495 0-.88-.129-1.786-.537-2.496C9.52 6.487 8.777 6 7.75 6M6.5 9.75c0-.776.121-1.371.338-1.747.183-.319.44-.503.912-.503s.73.184.912.503c.217.376.338.97.338 1.747 0 .776-.121 1.371-.338 1.747-.183.319-.44.503-.912.503s-.73-.184-.912-.503c-.217-.376-.338-.97-.338-1.747"/><path d="m12.472 8.151-.34.227A.75.75 0 0 1 11.3 7.13l.005-.004 1.5-1a.75.75 0 0 1 1.166.624v6a.75.75 0 1 1-1.5 0z"/></svg>