<svg xmlns="http://www.w3.org/2000/svg" width="24" height="24" fill="currentColor"><path fill="url(#i6457d7-i1125ad-a)" d="M2 5a3 3 0 0 1 3-3h14a3 3 0 0 1 3 3v14a3 3 0 0 1-3 3H5a3 3 0 0 1-3-3z"/><path fill="url(#i6457d7-i1125ad-b)" fill-opacity=".2" d="M2 5a3 3 0 0 1 3-3h14a3 3 0 0 1 3 3v14a3 3 0 0 1-3 3H5a3 3 0 0 1-3-3z"/><path fill="url(#i6457d7-i1125ad-c)" fill-rule="evenodd" d="M19 3H5a2 2 0 0 0-2 2v14a2 2 0 0 0 2 2h14a2 2 0 0 0 2-2V5a2 2 0 0 0-2-2M5 2a3 3 0 0 0-3 3v14a3 3 0 0 0 3 3h14a3 3 0 0 0 3-3V5a3 3 0 0 0-3-3z" clip-rule="evenodd"/><path fill="url(#i6457d7-i1125ad-d)" d="M12.259 6.02a1.6 1.6 0 0 0-.533.005 1.2 1.2 0 0 0-.832.506c-.193.274-.315.655-.352 1.11-.002.154-.027.66-.064 1.337H12.5a.5.5 0 0 1 0 1h-2.077a381 381 0 0 1-.285 4.67v.004l-.005.059c-.038.457-.084 1.014-.248 1.528-.177.552-.5 1.09-1.114 1.451-.867.536-1.8.285-2.494-.061a.5.5 0 1 1 .446-.895c.592.295 1.105.365 1.525.103l.013-.007c.348-.203.546-.506.671-.896.13-.404.167-.86.208-1.352l.001-.01v-.002c.048-.625.18-2.828.28-4.592H7.5a.5.5 0 0 1 0-1h1.977a57 57 0 0 0 .067-1.397c.045-.582.204-1.159.532-1.626a2.2 2.2 0 0 1 1.5-.92h.006a2.6 2.6 0 0 1 .873.005c.275.055.51.163.742.302a.5.5 0 1 1-.514.858 1.3 1.3 0 0 0-.424-.18"/><path fill="url(#i6457d7-i1125ad-e)" d="M17.854 11.146a.5.5 0 0 1 0 .708l-2.232 2.231a98 98 0 0 0 .929 1.597l.029.05c.047.08.077.128.103.164a.3.3 0 0 0 .11.099.4.4 0 0 0 .095.003q.014-.002.012-.003a.3.3 0 0 0 .06-.062c.027-.032.047-.059.073-.094l.071-.094a.5.5 0 0 1 .792.61l-.035.048c-.08.109-.22.298-.4.42-.268.18-.58.214-.932.14a.5.5 0 0 1-.117-.04 1.35 1.35 0 0 1-.535-.436 3 3 0 0 1-.16-.249l-.033-.057a74 74 0 0 1-.795-1.364l-2.035 2.037a.5.5 0 0 1-.708-.707l2.228-2.228a100 100 0 0 0-.797-1.377 2.4 2.4 0 0 0-.223-.364.8.8 0 0 0-.179-.177l-.005.002-.03.015a1 1 0 0 0-.244.248.5.5 0 0 1-.792-.61c.118-.154.29-.355.517-.493a1.03 1.03 0 0 1 .967-.075c.243.118.426.308.558.48.13.168.234.35.312.5.095.155.352.602.649 1.118l2.04-2.04a.5.5 0 0 1 .707 0"/><defs><linearGradient id="i6457d7-i1125ad-a" x1="7.556" x2="10.085" y1="2" y2="22.239" gradientUnits="userSpaceOnUse"><stop stop-color="#fff"/><stop offset="1" stop-color="#EBEBEB"/></linearGradient><linearGradient id="i6457d7-i1125ad-c" x1="8.458" x2="11.151" y1="2" y2="22.197" gradientUnits="userSpaceOnUse"><stop stop-color="#BBB"/><stop offset="1" stop-color="#888"/></linearGradient><linearGradient id="i6457d7-i1125ad-d" x1="6" x2="18.959" y1="5" y2="16.962" gradientUnits="userSpaceOnUse"><stop stop-color="#4BA446"/><stop offset="1" stop-color="#3F7D35"/></linearGradient><linearGradient id="i6457d7-i1125ad-e" x1="6" x2="18.959" y1="5" y2="16.962" gradientUnits="userSpaceOnUse"><stop stop-color="#4BA446"/><stop offset="1" stop-color="#3F7D35"/></linearGradient><radialGradient id="i6457d7-i1125ad-b" cx="0" cy="0" r="1" gradientTransform="rotate(56.31 -2.54 11.442)scale(19.0293 16.4677)" gradientUnits="userSpaceOnUse"><stop offset=".177" stop-color="#fff"/><stop offset="1" stop-color="#B8B8B8"/></radialGradient></defs></svg>