<svg xmlns="http://www.w3.org/2000/svg" width="24" height="24" fill="none"><path fill="url(#i4433f7-ibf98c0-paint0_linear_62447_413)" d="M2 5a3 3 0 0 1 3-3h14a3 3 0 0 1 3 3v14a3 3 0 0 1-3 3H5a3 3 0 0 1-3-3z"/><path fill="url(#i4433f7-ibf98c0-paint1_radial_62447_413)" fill-opacity=".2" d="M2 5a3 3 0 0 1 3-3h14a3 3 0 0 1 3 3v14a3 3 0 0 1-3 3H5a3 3 0 0 1-3-3z"/><path fill="url(#i4433f7-ibf98c0-paint2_linear_62447_413)" fill-rule="evenodd" d="M19 3H5a2 2 0 0 0-2 2v14a2 2 0 0 0 2 2h14a2 2 0 0 0 2-2V5a2 2 0 0 0-2-2M5 2a3 3 0 0 0-3 3v14a3 3 0 0 0 3 3h14a3 3 0 0 0 3-3V5a3 3 0 0 0-3-3z" clip-rule="evenodd"/><path fill="url(#i4433f7-ibf98c0-paint3_linear_62447_413)" d="M8.25 6a2.044 2.044 0 0 0-2.044 2.044v1.069l.003.198c.013.617.032 1.547-.817 2.03a.748.748 0 0 0 0 1.318c.85.482.83 1.412.817 2.03l-.003.198v1.069C6.206 17.085 7.12 18 8.25 18a.75.75 0 0 0 0-1.5.544.544 0 0 1-.544-.544v-1.069q0-.026.004-.085c.023-.386.107-1.77-.785-2.802.892-1.032.808-2.416.785-2.802l-.004-.085V8.044c0-.3.243-.544.544-.544a.75.75 0 1 0 0-1.5"/><path fill="url(#i4433f7-ibf98c0-paint4_linear_62447_413)" d="M10.983 9.31a.75.75 0 1 0-1.216.88L11.075 12l-1.308 1.81a.75.75 0 0 0 1.216.88L12 13.28l1.017 1.408a.75.75 0 1 0 1.216-.878L12.925 12l1.308-1.812a.75.75 0 0 0-1.216-.878L12 10.719z"/><path fill="url(#i4433f7-ibf98c0-paint5_linear_62447_413)" d="M17.795 8.044A2.045 2.045 0 0 0 15.75 6a.75.75 0 0 0 0 1.5c.3 0 .544.244.544.544v1.069q0 .026-.004.085c-.023.386-.107 1.77.785 2.802-.892 1.032-.808 2.416-.785 2.802l.005.085v1.069c0 .3-.244.544-.545.544a.75.75 0 0 0 0 1.5c1.13 0 2.044-.915 2.044-2.044v-1.069l-.002-.198c-.013-.617-.033-1.547.816-2.03a.749.749 0 0 0 0-1.318c-.85-.482-.83-1.413-.816-2.03l.002-.198z"/><defs><linearGradient id="i4433f7-ibf98c0-paint0_linear_62447_413" x1="7.556" x2="10.085" y1="2" y2="22.239" gradientUnits="userSpaceOnUse"><stop stop-color="#fff"/><stop offset="1" stop-color="#EBEBEB"/></linearGradient><radialGradient id="i4433f7-ibf98c0-paint1_radial_62447_413" cx="0" cy="0" r="1" gradientTransform="matrix(10.5556 15.8333 -15.8333 5.9375 8.389 7.208)" gradientUnits="userSpaceOnUse"><stop offset=".177" stop-color="#fff"/><stop offset="1" stop-color="#B8B8B8"/></radialGradient><linearGradient id="i4433f7-ibf98c0-paint2_linear_62447_413" x1="8.458" x2="11.151" y1="2" y2="22.197" gradientUnits="userSpaceOnUse"><stop stop-color="#BBB"/><stop offset="1" stop-color="#888"/></linearGradient><linearGradient id="i4433f7-ibf98c0-paint3_linear_62447_413" x1="5" x2="16.859" y1="6" y2="19.835" gradientUnits="userSpaceOnUse"><stop stop-color="#4BA446"/><stop offset="1" stop-color="#3F7D35"/></linearGradient><linearGradient id="i4433f7-ibf98c0-paint4_linear_62447_413" x1="5" x2="16.859" y1="6" y2="19.835" gradientUnits="userSpaceOnUse"><stop stop-color="#4BA446"/><stop offset="1" stop-color="#3F7D35"/></linearGradient><linearGradient id="i4433f7-ibf98c0-paint5_linear_62447_413" x1="5" x2="16.859" y1="6" y2="19.835" gradientUnits="userSpaceOnUse"><stop stop-color="#4BA446"/><stop offset="1" stop-color="#3F7D35"/></linearGradient></defs></svg>