<svg xmlns="http://www.w3.org/2000/svg" width="20" height="20" fill="none"><path fill="url(#i4a3b9a-ic28aa5-paint0_linear_62447_417)" d="M2 4.5A2.5 2.5 0 0 1 4.5 2h11A2.5 2.5 0 0 1 18 4.5v11a2.5 2.5 0 0 1-2.5 2.5h-11A2.5 2.5 0 0 1 2 15.5z"/><path fill="url(#i4a3b9a-ic28aa5-paint1_radial_62447_417)" fill-opacity=".2" d="M2 4.5A2.5 2.5 0 0 1 4.5 2h11A2.5 2.5 0 0 1 18 4.5v11a2.5 2.5 0 0 1-2.5 2.5h-11A2.5 2.5 0 0 1 2 15.5z"/><path fill="url(#i4a3b9a-ic28aa5-paint2_linear_62447_417)" fill-rule="evenodd" d="M15.5 3h-11A1.5 1.5 0 0 0 3 4.5v11A1.5 1.5 0 0 0 4.5 17h11a1.5 1.5 0 0 0 1.5-1.5v-11A1.5 1.5 0 0 0 15.5 3m-11-1A2.5 2.5 0 0 0 2 4.5v11A2.5 2.5 0 0 0 4.5 18h11a2.5 2.5 0 0 0 2.5-2.5v-11A2.5 2.5 0 0 0 15.5 2z" clip-rule="evenodd"/><path fill="url(#i4a3b9a-ic28aa5-paint3_linear_62447_417)" d="M7.25 5A1.75 1.75 0 0 0 5.5 6.75v1.247c0 .15-.017.462-.13.747-.105.263-.266.45-.56.528a.75.75 0 0 0-.56.728.75.75 0 0 0 .56.728c.294.077.455.264.56.528.113.285.13.596.13.746v1.248c0 .966.784 1.75 1.75 1.75a.75.75 0 0 0 0-1.5.25.25 0 0 1-.25-.25v-1.248c0-.222-.02-.757-.237-1.302a2.6 2.6 0 0 0-.415-.7c.188-.222.322-.466.415-.7C6.98 8.754 7 8.22 7 7.997V6.75a.25.25 0 0 1 .25-.25.75.75 0 1 0 0-1.5"/><path fill="url(#i4a3b9a-ic28aa5-paint4_linear_62447_417)" d="M8.314 7.64a.75.75 0 0 1 1.046.174l.64.896.64-.896a.75.75 0 0 1 1.22.872L10.922 10l.938 1.314a.75.75 0 1 1-1.22.872L10 11.29l-.64.896a.75.75 0 0 1-1.22-.872L9.078 10 8.14 8.686a.75.75 0 0 1 .174-1.046"/><path fill="url(#i4a3b9a-ic28aa5-paint5_linear_62447_417)" d="M14.5 6.75A1.75 1.75 0 0 0 12.75 5a.75.75 0 0 0 0 1.5.25.25 0 0 1 .25.25v1.248c0 .222.02.757.237 1.302.093.234.227.478.415.7a2.6 2.6 0 0 0-.415.7A3.6 3.6 0 0 0 13 12.002v1.248a.25.25 0 0 1-.25.25.75.75 0 0 0 0 1.5 1.75 1.75 0 0 0 1.75-1.75v-1.248c0-.15.017-.461.13-.746.105-.264.266-.451.56-.528a.75.75 0 0 0 .56-.728.75.75 0 0 0-.56-.728c-.294-.077-.455-.264-.56-.528a2.1 2.1 0 0 1-.13-.746z"/><defs><linearGradient id="i4a3b9a-ic28aa5-paint0_linear_62447_417" x1="6.444" x2="8.468" y1="2" y2="18.192" gradientUnits="userSpaceOnUse"><stop stop-color="#fff"/><stop offset="1" stop-color="#EBEBEB"/></linearGradient><radialGradient id="i4a3b9a-ic28aa5-paint1_radial_62447_417" cx="0" cy="0" r="1" gradientTransform="matrix(8.44444 12.6667 -12.6667 4.75 7.111 6.167)" gradientUnits="userSpaceOnUse"><stop offset=".177" stop-color="#fff"/><stop offset="1" stop-color="#B8B8B8"/></radialGradient><linearGradient id="i4a3b9a-ic28aa5-paint2_linear_62447_417" x1="7.167" x2="9.321" y1="2" y2="18.157" gradientUnits="userSpaceOnUse"><stop stop-color="#BBB"/><stop offset="1" stop-color="#888"/></linearGradient><linearGradient id="i4a3b9a-ic28aa5-paint3_linear_62447_417" x1="4.25" x2="14.153" y1="5" y2="16.389" gradientUnits="userSpaceOnUse"><stop stop-color="#4BA446"/><stop offset="1" stop-color="#3F7D35"/></linearGradient><linearGradient id="i4a3b9a-ic28aa5-paint4_linear_62447_417" x1="4.25" x2="14.153" y1="5" y2="16.389" gradientUnits="userSpaceOnUse"><stop stop-color="#4BA446"/><stop offset="1" stop-color="#3F7D35"/></linearGradient><linearGradient id="i4a3b9a-ic28aa5-paint5_linear_62447_417" x1="4.25" x2="14.153" y1="5" y2="16.389" gradientUnits="userSpaceOnUse"><stop stop-color="#4BA446"/><stop offset="1" stop-color="#3F7D35"/></linearGradient></defs></svg>