<svg xmlns="http://www.w3.org/2000/svg" width="20" height="20" fill="currentColor"><g clip-path="url(#i38d546-a)"><path d="M3.001 6a3 3 0 0 1 3-3h8a3 3 0 0 1 3 3v3.473a4.5 4.5 0 0 0-1-.36V7h-12v7a2 2 0 0 0 2 2h5.53c.057.279.193.544.41.76q.125.126.26.24H6a3 3 0 0 1-3-3z"/><path d="M13.558 11.429c.447-.268.858-.429 1.443-.429 1.335 0 2.5 1.087 2.5 2.5 0 1.424-1.076 2.5-2.5 2.5-.672 0-1.243-.25-1.646-.654a.5.5 0 0 0-.708.708c.597.596 1.426.946 2.354.946 1.806 0 3.234-1.273 3.467-3H19.5a.5.5 0 0 0 0-1h-1.034c-.247-1.735-1.76-3-3.465-3-.815 0-1.403.239-1.957.571a.5.5 0 1 0 .514.858"/><path d="M15.001 14.75a1.25 1.25 0 0 1-1.146-.75h-3.354a.5.5 0 1 1 0-1h3.354a1.25 1.25 0 1 1 1.146 1.75"/></g><defs><clipPath id="i38d546-a"><path d="M0 0h20v20H0z"/></clipPath></defs></svg>