<svg xmlns="http://www.w3.org/2000/svg" width="20" height="20" fill="currentColor"><path d="M12.501 0a1.5 1.5 0 0 0-1.5 1.5V2h-5.5a1.5 1.5 0 0 0-1.5 1.5V6h-2.5a1.5 1.5 0 0 0-1.5 1.5V8h8v-.5a1.5 1.5 0 0 0-1.5-1.5h-1.5V3.5a.5.5 0 0 1 .5-.5h5.5v3.5a1.5 1.5 0 0 0 1.5 1.5h5a1.5 1.5 0 0 0 1.5-1.5V3h-8V2h8v-.5a1.5 1.5 0 0 0-1.5-1.5zm-4.5 9h-8v3.5a1.5 1.5 0 0 0 1.5 1.5h2.5v2.5a1.5 1.5 0 0 0 1.5 1.5h5.5v.5a1.5 1.5 0 0 0 1.5 1.5h5a1.5 1.5 0 0 0 1.5-1.5V15h-8v2h-5.5a.5.5 0 0 1-.5-.5V14h1.5a1.5 1.5 0 0 0 1.5-1.5z"/><path d="M11.001 14h8v-.5a1.5 1.5 0 0 0-1.5-1.5h-5a1.5 1.5 0 0 0-1.5 1.5z"/></svg>