<svg xmlns="http://www.w3.org/2000/svg" width="20" height="20" fill="currentColor"><path d="M6.001 3a3 3 0 0 0-3 3v8a3 3 0 0 0 3 3h3.6a5.5 5.5 0 0 1-.393-1H6.001a2 2 0 0 1-2-2V7h12v2.207q.524.149 1 .393V6a3 3 0 0 0-3-3z"/><path d="M9.414 12.405c.303-.735.76-1.39 1.332-1.924l-.246.142V8.5a.5.5 0 0 0-1 0v2.123L7.652 9.556a.5.5 0 0 0-.5.866L9 11.489l-1.848 1.067a.5.5 0 1 0 .5.866zm7.587 5.837a4.5 4.5 0 1 1-5-7.483 4.5 4.5 0 0 1 5 7.483m-2.147-6.096a.5.5 0 0 0-.853.354V14h-1.5a.5.5 0 0 0 0 1h1.5v1.5a.5.5 0 0 0 1 0V15h1.5a.5.5 0 0 0 0-1h-1.5v-1.5a.5.5 0 0 0-.146-.354Z"/></svg>