<svg xmlns="http://www.w3.org/2000/svg" width="24" height="24" fill="currentColor"><path d="M10.67 10.415a.75.75 0 0 0-1.34 0L7.785 13.5H6.75a.75.75 0 0 0 0 1.5h1.5a.75.75 0 0 0 .67-.415L10 12.427l2.08 4.158a.75.75 0 0 0 1.34 0L15 13.427l.58 1.158a.75.75 0 0 0 .67.415h1a.75.75 0 0 0 0-1.5h-.537l-1.042-2.085a.75.75 0 0 0-1.342 0l-1.579 3.158z"/><path d="M6.25 3A3.25 3.25 0 0 0 3 6.25v11.5A3.25 3.25 0 0 0 6.25 21h11.5A3.25 3.25 0 0 0 21 17.75V6.25A3.25 3.25 0 0 0 17.75 3zm0 16.5a1.75 1.75 0 0 1-1.75-1.75V8.5h15v9.25a1.75 1.75 0 0 1-1.75 1.75z"/></svg>