<svg xmlns="http://www.w3.org/2000/svg" width="24" height="24" fill="currentColor"><path d="M12.75 10.75a.75.75 0 0 0-1.5 0v2l-1.6-.924a.75.75 0 1 0-.75 1.299l1.6.924-1.779 1.027a.75.75 0 0 0 .75 1.299l1.779-1.027v1.902a.75.75 0 0 0 1.5 0v-1.902l1.779 1.027a.75.75 0 1 0 .75-1.3L13.5 14.05l1.6-.924a.75.75 0 0 0-.75-1.3l-1.6.925v-2Z"/><path fill-rule="evenodd" d="M6.25 3A3.25 3.25 0 0 0 3 6.25v11.5A3.25 3.25 0 0 0 6.25 21h11.5A3.25 3.25 0 0 0 21 17.75V6.25A3.25 3.25 0 0 0 17.75 3zm0 16.5a1.75 1.75 0 0 1-1.75-1.75V8.5h15v9.25a1.75 1.75 0 0 1-1.75 1.75z" clip-rule="evenodd"/></svg>