<svg xmlns="http://www.w3.org/2000/svg" width="20" height="20" fill="currentColor"><path d="M14.5 10a4.5 4.5 0 1 1 0 9 4.5 4.5 0 0 1 0-9m-1.056 2.5a.5.5 0 0 0-.475.303l-.584 1.364H12a.5.5 0 0 0 0 1h.714c.2 0 .381-.12.46-.304l.213-.495.642 1.8a.5.5 0 0 0 .935.018l.673-1.673.208.39a.5.5 0 0 0 .441.264H17a.5.5 0 0 0 0-1h-.415l-.573-1.07a.5.5 0 0 0-.905.05l-.58 1.444-.628-1.759a.5.5 0 0 0-.455-.332"/><path d="M15 2a3 3 0 0 1 3 3v5.257a5.5 5.5 0 0 0-1-.656V5a2 2 0 0 0-2-2H5a2 2 0 0 0-2 2v10a2 2 0 0 0 2 2h4.602q.274.538.656 1H5a3 3 0 0 1-3-3V5a3 3 0 0 1 3-3z"/><path d="M8 11a1 1 0 0 1 1 1v2a1 1 0 0 1-1 1H6a1 1 0 0 1-1-1v-2a1 1 0 0 1 1-1zm0-6a1 1 0 0 1 1 1v2a1 1 0 0 1-1 1H6a1 1 0 0 1-1-1V6a1 1 0 0 1 1-1zm6 0a1 1 0 0 1 1 1v2a1 1 0 0 1-1 1h-2a1 1 0 0 1-1-1V6a1 1 0 0 1 1-1z"/></svg>