<svg xmlns="http://www.w3.org/2000/svg" width="20" height="20" fill="currentColor"><path d="M5.5 3.5A.5.5 0 0 1 6 3h8a.5.5 0 0 1 0 1h-.996v4.684q0 .212.026.422a1.5 1.5 0 0 0-.83.817L11.335 12h-5.65l.89-1.653a3.5 3.5 0 0 0 .42-1.66V4H6a.5.5 0 0 1-.5-.5m4.617 11.423L10.918 13H5.146l-.964 1.79a1.5 1.5 0 0 0 1.32 2.212h6.468V17h-.468a1.5 1.5 0 0 1-1.385-2.077"/><path d="M11.502 16h1.75l-.59 2.36c-.121.482.462.826.826.486l4.872-4.548A.75.75 0 0 0 17.85 13h-1.1l.781-2.342a.5.5 0 0 0-.474-.658h-3.473a.5.5 0 0 0-.462.308l-2.083 5a.5.5 0 0 0 .462.692Z"/></svg>