<svg xmlns="http://www.w3.org/2000/svg" width="20" height="20" fill="currentColor"><path d="M15.81 10.548a1.87 1.87 0 1 1 2.644 2.644l-4.829 4.83a2.2 2.2 0 0 1-1.021.578l-1.498.375a.89.89 0 0 1-1.079-1.08l.374-1.497c.097-.387.297-.74.579-1.021l4.83-4.83Z"/><path d="M7 2a3 3 0 0 1 .854 5.876c.178.222.417.483.721.744.726.622 1.834 1.252 3.425 1.362a3 3 0 0 1 5.861-.885 2.87 2.87 0 0 0-2.76.744l-2.25 2.25a3 3 0 0 1-.683-1.098c-1.96-.078-3.342-.84-4.243-1.613a7 7 0 0 1-.425-.4v3.06a3 3 0 0 1 2.499 2.941c-.267.347-.46.746-.567 1.173l-.216.86A2.99 2.99 0 0 1 7 18a3 3 0 0 1-.5-5.959V7.959A3.001 3.001 0 0 1 7 2"/></svg>