<svg xmlns="http://www.w3.org/2000/svg" width="20" height="20" fill="currentColor"><path d="M9 5a3 3 0 0 1-2.5 2.959V10H12a1.5 1.5 0 0 0 1.5-1.5v-.541a3 3 0 1 1 1 0V8.5c0 .818-.393 1.544-1 2h-1c-.66 0-1.277.183-1.804.5H6.5v1.041a3 3 0 1 1-1 0V7.96A3 3 0 1 1 9 5"/><path d="M12.5 11.5a2.5 2.5 0 0 0 0 5h.5a.5.5 0 0 0 0-1h-.5a1.5 1.5 0 0 1 0-3h.5a.5.5 0 0 0 0-1zm3.5 0a.5.5 0 0 0 0 1h.5a1.5 1.5 0 0 1 0 3H16a.5.5 0 0 0 0 1h.5a2.5 2.5 0 0 0 0-5z"/><path d="M12 14a.5.5 0 0 1 .5-.5h4a.5.5 0 0 1 0 1h-4a.5.5 0 0 1-.5-.5"/></svg>