<svg xmlns="http://www.w3.org/2000/svg" width="20" height="20" fill="currentColor"><path fill-rule="evenodd" d="M13.5 2h-7A2.5 2.5 0 0 0 4 4.5v11A2.5 2.5 0 0 0 6.5 18h2.594c.006-.236.07-.476.205-.7l3.139-5.473A.999.999 0 0 1 13 10c.185 0 .358.05.506.137.284-.237.638-.337.993-.337.5 0 1 .3 1.3.7l.201.35V4.5A2.5 2.5 0 0 0 13.5 2m-6 2h5A1.5 1.5 0 0 1 14 5.5v1A1.5 1.5 0 0 1 12.5 8h-5A1.5 1.5 0 0 1 6 6.5v-1A1.5 1.5 0 0 1 7.5 4m.5 7a1 1 0 1 1-2 0 1 1 0 0 1 2 0m0 3a1 1 0 1 1-2 0 1 1 0 0 1 2 0m2-2a1 1 0 1 1 0-2 1 1 0 0 1 0 2m1 2a1 1 0 1 1-2 0 1 1 0 0 1 2 0" clip-rule="evenodd"/><path d="M18.83 17.845h.004a.5.5 0 0 1-.433.75h-7.8a.5.5 0 0 1-.436-.75l3.9-6.75a.52.52 0 0 1 .866 0l3.9 6.75Z"/></svg>