<svg xmlns="http://www.w3.org/2000/svg" width="20" height="20" fill="currentColor"><path d="M4.75 2A2.75 2.75 0 0 0 2 4.75v10.5A2.75 2.75 0 0 0 4.75 18h1.5a.75.75 0 0 0 0-1.5h-1.5c-.69 0-1.25-.56-1.25-1.25V4.75c0-.69.56-1.25 1.25-1.25h1.5a.75.75 0 0 0 0-1.5zM18 4.75A2.75 2.75 0 0 0 15.25 2h-1.5a.75.75 0 0 0 0 1.5h1.5c.69 0 1.25.56 1.25 1.25V9h1q.255 0 .5.035z"/><path d="M13 6.5v2.837c-.428.203-.807.49-1.118.84A.5.5 0 0 0 11.5 10h-1a.5.5 0 0 0 0 1h.837c-.148.31-.251.647-.302 1H10.5a.5.5 0 0 0 0 1h.5v1H7.5A1.5 1.5 0 0 1 6 12.5v-6A1.5 1.5 0 0 1 7.5 5h4A1.5 1.5 0 0 1 13 6.5m-6 0a.5.5 0 0 0 .5.5h4a.5.5 0 0 0 0-1h-4a.5.5 0 0 0-.5.5M7.5 8a.5.5 0 0 0 0 1h1a.5.5 0 0 0 0-1zM7 10.5a.5.5 0 0 0 .5.5h1a.5.5 0 0 0 0-1h-1a.5.5 0 0 0-.5.5m.5 1.5a.5.5 0 0 0 0 1h1a.5.5 0 0 0 0-1zM10 8.5a.5.5 0 0 0 .5.5h1a.5.5 0 0 0 0-1h-1a.5.5 0 0 0-.5.5m6.374 6.5h-.97l.222-1.005h.972z"/><path d="M12 12.5a2.5 2.5 0 0 1 2.5-2.5h3a2.5 2.5 0 0 1 2.5 2.5v4a2.5 2.5 0 0 1-2.5 2.5h-3a2.5 2.5 0 0 1-2.5-2.5zm1.5.995a.5.5 0 0 0 .5.5h.601L14.38 15h-.88a.5.5 0 1 0 0 1h.658l-.142.638a.5.5 0 0 0 .977.216l.189-.854h.969l-.143.637a.5.5 0 0 0 .976.218l.191-.855H18a.5.5 0 0 0 0-1h-.602l.225-1.005h.877a.5.5 0 1 0 0-1h-.654l.141-.633a.5.5 0 0 0-.976-.218l-.19.851h-.974l.14-.634a.5.5 0 1 0-.976-.216l-.188.85H14a.5.5 0 0 0-.5.5"/></svg>