<svg xmlns="http://www.w3.org/2000/svg" width="20" height="20" fill="currentColor"><path d="M14.5 3A2.5 2.5 0 0 1 17 5.5v5.02a3.5 3.5 0 0 0-.5-.036h-4c-.751 0-1.447.237-2.017.64a1 1 0 0 0-1.227 1.544A3.5 3.5 0 0 0 10.722 17H5.5A2.5 2.5 0 0 1 3 14.5v-9A2.5 2.5 0 0 1 5.5 3zM7 11a1 1 0 1 0 0 2 1 1 0 0 0 0-2m0-4a1 1 0 1 0 0 2 1 1 0 0 0 0-2m3 0a1 1 0 1 0 0 2 1 1 0 0 0 0-2m3 0a1 1 0 1 0 0 2 1 1 0 0 0 0-2"/><path d="M12.5 11.484a2.5 2.5 0 0 0 0 5h.5a.5.5 0 0 0 0-1h-.5a1.5 1.5 0 0 1 0-3h.5a.5.5 0 0 0 0-1zm3.5 0a.5.5 0 1 0 0 1h.5a1.5 1.5 0 1 1 0 3H16a.5.5 0 1 0 0 1h.5a2.5 2.5 0 0 0 0-5z"/><path d="M12 13.984a.5.5 0 0 1 .5-.5h4a.5.5 0 1 1 0 1h-4a.5.5 0 0 1-.5-.5"/></svg>