<svg xmlns="http://www.w3.org/2000/svg" width="20" height="20" fill="currentColor"><path d="M10 4c2.817 0 4.415 1.923 4.647 4.246h.07c1.814 0 3.283 1.512 3.283 3.377q0 .129-.01.255l-.448-.448a1.5 1.5 0 0 0-2.121 0l-1.591 1.59a1.5 1.5 0 0 0-.189.231V12.5a1.5 1.5 0 1 0-3 0v1.857A1.5 1.5 0 0 0 9.264 15H5.282C3.469 15 2 13.488 2 11.623s1.47-3.377 3.282-3.377h.071C5.587 5.908 7.183 4 10 4"/><path d="m18.5 13.793-1.646-1.647a.5.5 0 0 0-.708 0L14.5 13.793a.5.5 0 0 0 .707.707l.793-.793V17.5a.5.5 0 0 0 1 0v-3.793l.793.793a.5.5 0 0 0 .707-.707M13.44 15.5l-.794.793V12.5a.5.5 0 1 0-1 0v3.793l-.792-.793a.5.5 0 0 0-.708.707l1.647 1.647a.5.5 0 0 0 .707 0l1.646-1.647a.5.5 0 0 0-.707-.707Z"/></svg>