<svg xmlns="http://www.w3.org/2000/svg" width="20" height="20" fill="currentColor"><path fill="url(#i0437fa-a)" d="M2 4.5A2.5 2.5 0 0 1 4.5 2h11A2.5 2.5 0 0 1 18 4.5v11a2.5 2.5 0 0 1-2.5 2.5h-11A2.5 2.5 0 0 1 2 15.5z"/><path fill="url(#i0437fa-b)" fill-opacity=".2" d="M2 4.5A2.5 2.5 0 0 1 4.5 2h11A2.5 2.5 0 0 1 18 4.5v11a2.5 2.5 0 0 1-2.5 2.5h-11A2.5 2.5 0 0 1 2 15.5z"/><path fill="url(#i0437fa-c)" fill-rule="evenodd" d="M15.5 3h-11A1.5 1.5 0 0 0 3 4.5v11A1.5 1.5 0 0 0 4.5 17h11a1.5 1.5 0 0 0 1.5-1.5v-11A1.5 1.5 0 0 0 15.5 3m-11-1A2.5 2.5 0 0 0 2 4.5v11A2.5 2.5 0 0 0 4.5 18h11a2.5 2.5 0 0 0 2.5-2.5v-11A2.5 2.5 0 0 0 15.5 2z" clip-rule="evenodd"/><path fill="url(#i0437fa-d)" fill-rule="evenodd" d="M11.5 12.472v-.568a3 3 0 0 1-.173.104c-.582.324-1.318.493-2.077.493s-1.495-.17-2.077-.492A3 3 0 0 1 7 11.903v1.954h.008C7.106 14.498 8.072 15 9.25 15s2.144-.503 2.242-1.143h.008v-.38q.245.022.5.022c.752 0 1.457-.151 1.992-.419.506-.253 1.01-.694 1.01-1.331H15V6.802a1 1 0 0 0 0-.104v-.034h-.002c-.043-.59-.523-1.004-1.006-1.245C13.457 5.15 12.752 5 12.001 5s-1.457.151-1.992.419c-.483.241-.963.654-1.006 1.245H9v1.342Q9.124 8 9.25 8c.723 0 1.425.153 1.993.447q.367.053.758.053c.75 0 1.456-.151 1.991-.419L14 8.077v3.673h.001c0 .054-.056.237-.456.437-.37.184-.915.313-1.544.313q-.262 0-.501-.028m-1.044-6.159c-.4.2-.456.383-.456.437s.057.237.456.437c.37.184.915.313 1.545.313s1.175-.129 1.544-.313c.369-.185.445-.355.455-.422v-.03c-.01-.067-.086-.237-.455-.422C13.175 6.13 12.63 6 12.001 6c-.63 0-1.176.129-1.545.313" clip-rule="evenodd"/><path fill="url(#i0437fa-e)" d="M7 10.25c0-.643.875-1.173 2-1.242a4 4 0 0 1 1 .063c.874.172 1.5.635 1.5 1.18 0 .69-1.007 1.25-2.25 1.25S7 10.94 7 10.25"/><path fill="url(#i0437fa-f)" d="M6.146 5.646a.5.5 0 0 1 .708 0l1 1a.5.5 0 0 1 0 .708l-1 1a.5.5 0 1 1-.708-.708l.009-.008c-.39.204-.655.612-.655 1.081V9.5a.5.5 0 0 1-1 0v-.78c0-1.093.789-2 1.827-2.186l-.18-.18a.5.5 0 0 1 0-.708Z"/><defs><linearGradient id="i0437fa-a" x1="6.444" x2="8.468" y1="2" y2="18.192" gradientUnits="userSpaceOnUse"><stop stop-color="#fff"/><stop offset="1" stop-color="#EBEBEB"/></linearGradient><linearGradient id="i0437fa-c" x1="7.167" x2="9.321" y1="2" y2="18.157" gradientUnits="userSpaceOnUse"><stop stop-color="#BBB"/><stop offset="1" stop-color="#888"/></linearGradient><linearGradient id="i0437fa-d" x1="4.5" x2="14.489" y1="5" y2="15.489" gradientUnits="userSpaceOnUse"><stop stop-color="#4BA446"/><stop offset="1" stop-color="#3F7D35"/></linearGradient><linearGradient id="i0437fa-e" x1="4.5" x2="14.489" y1="5" y2="15.489" gradientUnits="userSpaceOnUse"><stop stop-color="#4BA446"/><stop offset="1" stop-color="#3F7D35"/></linearGradient><linearGradient id="i0437fa-f" x1="4.5" x2="14.489" y1="5" y2="15.489" gradientUnits="userSpaceOnUse"><stop stop-color="#4BA446"/><stop offset="1" stop-color="#3F7D35"/></linearGradient><radialGradient id="i0437fa-b" cx="0" cy="0" r="1" gradientTransform="rotate(56.31 -2.206 9.727)scale(15.2234 13.1741)" gradientUnits="userSpaceOnUse"><stop offset=".177" stop-color="#fff"/><stop offset="1" stop-color="#B8B8B8"/></radialGradient></defs></svg>