<svg xmlns="http://www.w3.org/2000/svg" width="20" height="20" fill="currentColor"><path d="M16 5c0 1.657-2.686 3-6 3S4 6.657 4 5c0-1.656 2.686-3 6-3s6 1.344 6 3"/><path d="M16 7.12c-.383.363-.84.662-1.31.896-1.252.626-2.912.985-4.69.985s-3.438-.359-4.69-.985A5.5 5.5 0 0 1 4 7.121v2.087a5.5 5.5 0 0 1 5.745 8.79L10 18c3.314 0 6-1.344 6-3z"/><path fill-rule="evenodd" d="M5.5 10a4.5 4.5 0 1 1 0 9 4.5 4.5 0 0 1 0-9m2.353 4.854-2 2a.5.5 0 1 1-.707-.707L6.293 15H3.5a.5.5 0 0 1 0-1h2.793l-1.147-1.147a.5.5 0 1 1 .708-.707l2 2a.5.5 0 0 1 .146.35v.007a.5.5 0 0 1-.144.348z" clip-rule="evenodd"/></svg>