<svg xmlns="http://www.w3.org/2000/svg" width="20" height="20" fill="currentColor"><path d="M3 2.49a.5.5 0 0 0-1 .01v15a.5.5 0 0 0 .5.5h10.313a9 9 0 0 1-.74-1H3z"/><path d="M16 5.5v3.528A5 5 0 0 0 15.501 9C12.851 9 11 11.163 11 13.682c0 .737.177 1.524.532 2.317H4V8.287l2.797-1.243a.5.5 0 0 1 .451.022l3.205 1.832 4.735-3.788A.5.5 0 0 1 16 5.5"/><path fill-rule="evenodd" d="M15.501 10.002c2.034 0 3.499 1.648 3.499 3.68 0 1.525-.979 3.53-3.253 5.237a.41.41 0 0 1-.491 0C12.982 17.213 12 15.207 12 13.683c0-2.033 1.468-3.681 3.501-3.681M15.5 15a1.5 1.5 0 1 0 0-3 1.5 1.5 0 0 0 0 3" clip-rule="evenodd"/></svg>