<svg xmlns="http://www.w3.org/2000/svg" width="20" height="20" fill="currentColor"><path d="M10 8c3.314 0 6-1.343 6-3 0-1.656-2.686-3-6-3S4 3.344 4 5c0 1.657 2.686 3 6 3"/><path d="M14.69 8.016A5.5 5.5 0 0 0 16 7.121v2.087a5.5 5.5 0 0 0-5.745 8.79L10 18c-3.314 0-6-1.344-6-3V7.12c.383.362.84.66 1.31.895C6.562 8.641 8.222 9 10 9s3.438-.359 4.69-.985Z"/><path fill-rule="evenodd" d="M19 14.5a4.5 4.5 0 1 0-9 0 4.5 4.5 0 0 0 9 0m-5.556-2a.5.5 0 0 1 .455.332l.629 1.759.58-1.444a.5.5 0 0 1 .904-.05l.573 1.07H17a.5.5 0 1 1 0 1h-.714a.5.5 0 0 1-.441-.264l-.209-.39-.672 1.674a.5.5 0 0 1-.935-.018l-.643-1.8-.212.495a.5.5 0 0 1-.46.303H12a.5.5 0 0 1 0-1h.385l.584-1.364a.5.5 0 0 1 .475-.302Z" clip-rule="evenodd"/></svg>