<svg xmlns="http://www.w3.org/2000/svg" width="20" height="20" fill="currentColor"><path d="M3 2.5a.5.5 0 0 0-1 0v15a.5.5 0 0 0 .5.5h15a.5.5 0 0 0 0-1H3v-3.94a.8.8 0 0 0 .243-.062l3.654-1.63 2.896 2.227c.11.084.24.137.379.151l4.75.5a.75.75 0 0 0 .376-.057l2.53-1.094a.75.75 0 1 0-.594-1.377l-2.35 1.016-4.345-.457-3.082-2.371a.75.75 0 0 0-.762-.09L3 11.464V9.24a.8.8 0 0 0 .202-.065l3.77-1.827 6.656 3.804a.75.75 0 0 0 .937-.158l3.5-4a.75.75 0 1 0-1.13-.987L13.84 9.545 7.372 5.849a.75.75 0 0 0-.699-.023L3 7.606z"/></svg>