<svg xmlns="http://www.w3.org/2000/svg" width="20" height="20" fill="currentColor"><path d="M14.245 2.042a.75.75 0 0 1 .464.953l-5 14.5a.75.75 0 1 1-1.418-.489l5-14.5a.75.75 0 0 1 .954-.464M2.604 7.506c.528-.917 1.433-1.505 2.646-1.505s2.118.588 2.646 1.505c.472.821.604 1.83.604 2.745 0 .916-.132 1.924-.604 2.745-.528.917-1.433 1.505-2.646 1.505s-2.118-.588-2.646-1.505c-.472-.82-.604-1.83-.604-2.745 0-.916.132-1.924.604-2.745m2.646-.005c-.657 0-1.076.285-1.346.753-.28.488-.404 1.186-.404 1.997 0 .81.124 1.51.404 1.997.27.468.689.753 1.346.753s1.076-.285 1.346-.753c.28-.488.404-1.186.404-1.997 0-.81-.124-1.51-.404-1.997-.27-.468-.689-.753-1.346-.753M18 6.752a.751.751 0 0 0-1.385-.399l-.048.076c-.214.343-.36.575-.575.813-.225.247-.547.52-1.128.87a.752.752 0 0 0 .772 1.288c.34-.204.623-.398.864-.59l.017 4.94a.75.75 0 1 0 1.5 0z"/></svg>