<svg xmlns="http://www.w3.org/2000/svg" width="20" height="20" fill="currentColor"><path d="M10 8c3.314 0 6-1.343 6-3 0-1.656-2.686-3-6-3S4 3.344 4 5c0 1.657 2.686 3 6 3"/><path d="M14.69 8.016A5.5 5.5 0 0 0 16 7.121v2.088a5.5 5.5 0 0 0-5.75 8.789Q10.124 18 10 18c-3.314 0-6-1.344-6-3V7.12c.383.362.84.66 1.31.895C6.562 8.641 8.222 9 10 9s3.438-.359 4.69-.985Z"/><path d="M12 10.759a4.5 4.5 0 1 1 5 7.483 4.5 4.5 0 0 1-5-7.483m4.917 5.424a.5.5 0 0 0 .003-.863l-1.42-.82 1.406-.832a.5.5 0 0 0-.506-.862l-1.4.822V12a.5.5 0 0 0-1 0v1.633l-1.411-.812a.5.5 0 0 0-.5.867l1.42.82-1.415.829a.5.5 0 1 0 .506.863l1.4-.828V17a.5.5 0 0 0 1 0v-1.633l1.417.816a.5.5 0 0 0 .5 0"/></svg>