<svg xmlns="http://www.w3.org/2000/svg" width="20" height="20" fill="currentColor"><path d="M14 4.125C14 3.504 13.496 3 12.875 3h-5.75C6.504 3 6 3.504 6 4.125v2.75C6 7.496 6.504 8 7.125 8h.99l-2.4 4h-1.59C3.504 12 3 12.504 3 13.125v2.75C3 16.496 3.504 17 4.125 17h3.75C8.496 17 9 16.496 9 15.875v-2.75C9 12.504 8.496 12 7.875 12h-.993l2.4-4h1.434l2.4 4h-.991c-.621 0-1.125.504-1.125 1.125v2.75c0 .621.504 1.125 1.125 1.125h3.75c.621 0 1.125-.504 1.125-1.125v-2.75c0-.621-.504-1.125-1.125-1.125h-1.593l-2.4-4h.993C13.496 8 14 7.496 14 6.875z"/></svg>