<svg xmlns="http://www.w3.org/2000/svg" width="20" height="20" fill="currentColor"><path d="M9.5 1.751a.75.75 0 1 0 0 1.5h.25v2.75A2.25 2.25 0 0 0 12 8.251h2.75v1a.75.75 0 0 0 1.5 0V7.613a2.75 2.75 0 0 0-.862-2l-3.295-3.111a2.75 2.75 0 0 0-1.888-.751zm4.905 5H12a.75.75 0 0 1-.75-.75V3.769l3.108 2.935zM4.5 10.001a.75.75 0 0 1-.75-.75v-1.5a.75.75 0 1 1 1.5 0v1.5a.75.75 0 0 1-.75.75m7 7.5a.75.75 0 0 1-.75.75h-1.5a.75.75 0 0 1 0-1.5h1.5a.75.75 0 0 1 .75.75m-7.75-4.75a.75.75 0 0 0 1.5 0v-.5a.75.75 0 0 0-1.5 0zm11.75.75a.75.75 0 0 1-.75-.75v-.5a.75.75 0 0 1 1.5 0v.5a.75.75 0 0 1-.75.75M6 3.251a.75.75 0 0 0-.75.75v.25a.75.75 0 0 1-1.5 0v-.25A2.25 2.25 0 0 1 6 1.751h.25a.75.75 0 1 1 0 1.5zm8.75 12.5a.75.75 0 0 1-.75.75h-.25a.75.75 0 0 0 0 1.5H14a2.25 2.25 0 0 0 2.25-2.25v-.25a.75.75 0 0 0-1.5 0zm-8.75 1a.75.75 0 0 1-.75-.75v-.25a.75.75 0 0 0-1.5 0v.25A2.25 2.25 0 0 0 6 18.251h.25a.75.75 0 0 0 0-1.5z"/></svg>