<svg xmlns="http://www.w3.org/2000/svg" width="20" height="20" fill="currentColor"><path d="M10 2.001v4.5a1.5 1.5 0 0 0 1.5 1.5h-3a1.5 1.5 0 0 0-1.5 1.5v.879l-.796.796a1.5 1.5 0 0 0-.704-.175H4v-7.5a1.5 1.5 0 0 1 1.5-1.5zm1.5 6H16v8.5a1.5 1.5 0 0 1-1.5 1.5H13v-2.5a1.5 1.5 0 0 0-1.5-1.5 1.5 1.5 0 0 0 1.5-1.5v-3a1.5 1.5 0 0 0-1.5-1.5"/><path d="M11 2.251v4.25a.5.5 0 0 0 .5.5h4.25zm-2.5 6.75a.5.5 0 0 0-.5.5v1.31a.5.5 0 0 0-.088.07L6 12.795V12.5a.5.5 0 0 0-.5-.5h-3a.5.5 0 0 0-.5.5v3a.5.5 0 0 0 .5.5h3a.5.5 0 0 0 .5-.5v-.293l1.912 1.912a.5.5 0 0 0 .088.07V18.5a.5.5 0 0 0 .5.5h3a.5.5 0 0 0 .5-.5v-3a.5.5 0 0 0-.5-.5h-3a.5.5 0 0 0-.5.5v.293L6.207 14 8 12.208v.293a.5.5 0 0 0 .5.5h3a.5.5 0 0 0 .5-.5v-3a.5.5 0 0 0-.5-.5zm-5.5 4h2v2H3zm6 5v-2h2v2zm0-8h2v2H9z"/></svg>