<svg xmlns="http://www.w3.org/2000/svg" width="20" height="20" fill="currentColor"><path d="M4.01 3.796Q4 3.898 4 4.001v10a2 2 0 0 0 2 2h7a2 2 0 0 0 2-2v-10a2 2 0 0 0-2-2H6a2 2 0 0 0-1.99 1.795M6 5.751a.75.75 0 0 1 .75-.75h1.5a.75.75 0 0 1 .75.75v1a.75.75 0 0 1-.75.75h-1.5a.75.75 0 0 1-.75-.75zm4 .781a.5.5 0 0 1 .5-.5h2a.5.5 0 0 1 0 1h-2a.5.5 0 0 1-.5-.5m-4 3a.5.5 0 0 1 .5-.5h6a.5.5 0 0 1 0 1h-6a.5.5 0 0 1-.5-.5m0 3a.5.5 0 0 1 .5-.5h6a.5.5 0 0 1 0 1h-6a.5.5 0 0 1-.5-.5"/><path d="M16 8.001a1 1 0 0 1 1 1v5.06a3.94 3.94 0 0 1-3.94 3.94H7a1 1 0 0 1-1-1h7a3 3 0 0 0 3-3z"/></svg>