<svg xmlns="http://www.w3.org/2000/svg" width="20" height="20" fill="currentColor"><path d="M10 6.501v-4.5H5.5a1.5 1.5 0 0 0-1.5 1.5v6.511c.993.09 1.835.708 2.24 1.57a2.25 2.25 0 0 1 3.313 3.015c.861.277 1.447 1.11 1.447 2.029 0 .468-.117.945-.369 1.375H14.5a1.5 1.5 0 0 0 1.5-1.5v-8.5h-4.5a1.5 1.5 0 0 1-1.5-1.5"/><path d="M9.313 18.001A1.69 1.69 0 0 0 10 16.626c0-.621-.48-1.125-1.071-1.125H7.596A2.33 2.33 0 0 1 8 16.814 3 3 0 0 1 7.756 18q-.112.259-.28.5H7.5c.817 0 1.41-.197 1.813-.5ZM7 16.814c0 .415-.124.83-.397 1.187-.442.58-1.276 1-2.603 1-2.143 0-3-1.094-3-2.188 0-.724.576-1.312 1.286-1.312h3.428a1.28 1.28 0 0 1 1.056.563 1.3 1.3 0 0 1 .23.75m-3-2.331a1.75 1.75 0 1 0-.501-3.465A1.75 1.75 0 0 0 4 14.483m7-12.232v4.25a.5.5 0 0 0 .5.5h4.25zm-2 11a1.25 1.25 0 1 1-2.5 0 1.25 1.25 0 0 1 2.5 0m-3.124 1.245-.005.005h.008z"/></svg>