<svg xmlns="http://www.w3.org/2000/svg" width="20" height="20" fill="currentColor"><path fill="url(#i1306d2-a)" d="M2 3.5A2.5 2.5 0 0 1 4.5 1h11A2.5 2.5 0 0 1 18 3.5v13a2.5 2.5 0 0 1-2.5 2.5h-11A2.5 2.5 0 0 1 2 16.5z"/><path fill="url(#i1306d2-b)" fill-opacity=".2" d="M2 3.5A2.5 2.5 0 0 1 4.5 1h11A2.5 2.5 0 0 1 18 3.5v13a2.5 2.5 0 0 1-2.5 2.5h-11A2.5 2.5 0 0 1 2 16.5z"/><path fill="url(#i1306d2-c)" fill-rule="evenodd" d="M15.5 2h-11A1.5 1.5 0 0 0 3 3.5v13A1.5 1.5 0 0 0 4.5 18h11a1.5 1.5 0 0 0 1.5-1.5v-13A1.5 1.5 0 0 0 15.5 2m-11-1A2.5 2.5 0 0 0 2 3.5v13A2.5 2.5 0 0 0 4.5 19h11a2.5 2.5 0 0 0 2.5-2.5v-13A2.5 2.5 0 0 0 15.5 1z" clip-rule="evenodd"/><path fill="url(#i1306d2-d)" d="M12.375 5a4.375 4.375 0 0 0-4.374 4.281.727.727 0 0 1-.728.727H5.531a.5.5 0 0 0 0 1h1.742c.923 0 1.676-.723 1.725-1.633H9A3.375 3.375 0 0 1 12.375 6H13.5a.5.5 0 1 0 0-1z"/><path fill="url(#i1306d2-e)" d="M8.586 15.008c.45 0 .883-.066 1.293-.188a3.5 3.5 0 0 1-.573-.886 3.5 3.5 0 0 1-.72.074H6.53a.5.5 0 0 0 0 1z"/><path fill="url(#i1306d2-f)" d="M9.022 12.898a3.5 3.5 0 0 1 .046-1.088c-.236.121-.503.19-.787.19H5.5a.5.5 0 0 0 0 1h2.781q.387-.002.741-.102"/><path fill="url(#i1306d2-g)" d="M12.5 8.031a1.5 1.5 0 0 0-1.487 1.3 3.5 3.5 0 0 0-1.013.72v-.52a2.5 2.5 0 0 1 2.5-2.5h1.156a.5.5 0 0 1 0 1z"/><path fill="url(#i1306d2-h)" fill-rule="evenodd" d="M9.817 12.232a1.555 1.555 0 0 0 1.094-1.896l-.007-.025a2.7 2.7 0 0 1 .627-.339c.57.486 1.411.493 1.99.02q.355.146.654.38a1.56 1.56 0 0 0 1.013 1.711 2.8 2.8 0 0 1 .02.713l-.026.007a1.556 1.556 0 0 0-1.094 1.895l.007.026a2.7 2.7 0 0 1-.627.338 1.555 1.555 0 0 0-1.989-.02 2.7 2.7 0 0 1-.655-.38 1.56 1.56 0 0 0-1.012-1.71 2.8 2.8 0 0 1-.02-.713zm2.1.285a.584.584 0 1 0 1.166 0 .584.584 0 0 0-1.167 0Z" clip-rule="evenodd"/><defs><linearGradient id="i1306d2-a" x1="6.444" x2="8.996" y1="1" y2="19.141" gradientUnits="userSpaceOnUse"><stop stop-color="#fff"/><stop offset="1" stop-color="#EBEBEB"/></linearGradient><linearGradient id="i1306d2-c" x1="7.167" x2="9.881" y1="1" y2="19.093" gradientUnits="userSpaceOnUse"><stop stop-color="#BBB"/><stop offset="1" stop-color="#888"/></linearGradient><linearGradient id="i1306d2-d" x1="5" x2="15.061" y1="5" y2="15.22" gradientUnits="userSpaceOnUse"><stop stop-color="#E03F8F"/><stop offset="1" stop-color="#BD1E7B"/></linearGradient><linearGradient id="i1306d2-e" x1="5" x2="15.061" y1="5" y2="15.22" gradientUnits="userSpaceOnUse"><stop stop-color="#E03F8F"/><stop offset="1" stop-color="#BD1E7B"/></linearGradient><linearGradient id="i1306d2-f" x1="5" x2="15.061" y1="5" y2="15.221" gradientUnits="userSpaceOnUse"><stop stop-color="#E03F8F"/><stop offset="1" stop-color="#BD1E7B"/></linearGradient><linearGradient id="i1306d2-g" x1="5" x2="15.061" y1="5" y2="15.22" gradientUnits="userSpaceOnUse"><stop stop-color="#E03F8F"/><stop offset="1" stop-color="#BD1E7B"/></linearGradient><linearGradient id="i1306d2-h" x1="5" x2="15.061" y1="5" y2="15.22" gradientUnits="userSpaceOnUse"><stop stop-color="#E03F8F"/><stop offset="1" stop-color="#BD1E7B"/></linearGradient><radialGradient id="i1306d2-b" cx="0" cy="0" r="1" gradientTransform="matrix(8.44455 14.25 -11.71825 6.94424 7.111 5.687)" gradientUnits="userSpaceOnUse"><stop offset=".177" stop-color="#fff"/><stop offset="1" stop-color="#B8B8B8"/></radialGradient></defs></svg>