<svg xmlns="http://www.w3.org/2000/svg" width="20" height="20" fill="currentColor"><path fill="url(#ib49b87-a)" d="M2 4.5A2.5 2.5 0 0 1 4.5 2h11A2.5 2.5 0 0 1 18 4.5v11a2.5 2.5 0 0 1-2.5 2.5h-11A2.5 2.5 0 0 1 2 15.5z"/><path fill="url(#ib49b87-b)" fill-opacity=".2" d="M2 4.5A2.5 2.5 0 0 1 4.5 2h11A2.5 2.5 0 0 1 18 4.5v11a2.5 2.5 0 0 1-2.5 2.5h-11A2.5 2.5 0 0 1 2 15.5z"/><path fill="url(#ib49b87-c)" fill-rule="evenodd" d="M15.5 3h-11A1.5 1.5 0 0 0 3 4.5v11A1.5 1.5 0 0 0 4.5 17h11a1.5 1.5 0 0 0 1.5-1.5v-11A1.5 1.5 0 0 0 15.5 3m-11-1A2.5 2.5 0 0 0 2 4.5v11A2.5 2.5 0 0 0 4.5 18h11a2.5 2.5 0 0 0 2.5-2.5v-11A2.5 2.5 0 0 0 15.5 2z" clip-rule="evenodd"/><path fill="url(#ib49b87-d)" d="M6 9a1 1 0 1 0 0-2 1 1 0 0 0 0 2"/><path fill="url(#ib49b87-e)" d="M10 9a1 1 0 1 0 0-2 1 1 0 0 0 0 2"/><path fill="url(#ib49b87-f)" d="M15 8a1 1 0 1 1-2 0 1 1 0 0 1 2 0"/><path fill="url(#ib49b87-g)" d="M10 13a1 1 0 1 0 0-2 1 1 0 0 0 0 2"/><path fill="url(#ib49b87-h)" d="M7 12a1 1 0 1 1-2 0 1 1 0 0 1 2 0"/><path fill="#F5F5F5" d="M9 16.5a3.5 3.5 0 0 1 3.5-3.5h4a3.5 3.5 0 1 1 0 7h-4A3.5 3.5 0 0 1 9 16.5"/><path fill="url(#ib49b87-i)" d="M12.5 14a2.5 2.5 0 0 0 0 5h.5a.5.5 0 0 0 0-1h-.5a1.5 1.5 0 0 1 0-3h.5a.5.5 0 0 0 0-1z"/><path fill="url(#ib49b87-j)" d="M16 14a.5.5 0 0 0 0 1h.5a1.5 1.5 0 0 1 0 3H16a.5.5 0 0 0 0 1h.5a2.5 2.5 0 0 0 0-5z"/><path fill="url(#ib49b87-k)" d="M12.5 16a.5.5 0 0 0 0 1h4a.5.5 0 0 0 0-1z"/><defs><linearGradient id="ib49b87-a" x1="6.444" x2="8.468" y1="2" y2="18.192" gradientUnits="userSpaceOnUse"><stop stop-color="#fff"/><stop offset="1" stop-color="#EBEBEB"/></linearGradient><linearGradient id="ib49b87-c" x1="7.167" x2="9.321" y1="2" y2="18.157" gradientUnits="userSpaceOnUse"><stop stop-color="#BBB"/><stop offset="1" stop-color="#888"/></linearGradient><linearGradient id="ib49b87-d" x1="5" x2="10.294" y1="7" y2="15.823" gradientUnits="userSpaceOnUse"><stop stop-color="#7751B8"/><stop offset="1" stop-color="#5A409C"/></linearGradient><linearGradient id="ib49b87-e" x1="5" x2="10.294" y1="7" y2="15.823" gradientUnits="userSpaceOnUse"><stop stop-color="#7751B8"/><stop offset="1" stop-color="#5A409C"/></linearGradient><linearGradient id="ib49b87-f" x1="5" x2="10.294" y1="7" y2="15.823" gradientUnits="userSpaceOnUse"><stop stop-color="#7751B8"/><stop offset="1" stop-color="#5A409C"/></linearGradient><linearGradient id="ib49b87-g" x1="5" x2="10.294" y1="7" y2="15.823" gradientUnits="userSpaceOnUse"><stop stop-color="#7751B8"/><stop offset="1" stop-color="#5A409C"/></linearGradient><linearGradient id="ib49b87-h" x1="5" x2="10.294" y1="7" y2="15.823" gradientUnits="userSpaceOnUse"><stop stop-color="#7751B8"/><stop offset="1" stop-color="#5A409C"/></linearGradient><linearGradient id="ib49b87-i" x1="10" x2="14.245" y1="14" y2="21.642" gradientUnits="userSpaceOnUse"><stop stop-color="#7751B8"/><stop offset="1" stop-color="#5A409C"/></linearGradient><linearGradient id="ib49b87-j" x1="10" x2="14.245" y1="14" y2="21.642" gradientUnits="userSpaceOnUse"><stop stop-color="#7751B8"/><stop offset="1" stop-color="#5A409C"/></linearGradient><linearGradient id="ib49b87-k" x1="10" x2="14.245" y1="14" y2="21.642" gradientUnits="userSpaceOnUse"><stop stop-color="#7751B8"/><stop offset="1" stop-color="#5A409C"/></linearGradient><radialGradient id="ib49b87-b" cx="0" cy="0" r="1" gradientTransform="rotate(56.31 -2.206 9.727)scale(15.2234 13.1741)" gradientUnits="userSpaceOnUse"><stop offset=".177" stop-color="#fff"/><stop offset="1" stop-color="#B8B8B8"/></radialGradient></defs></svg>