<svg xmlns="http://www.w3.org/2000/svg" width="20" height="20" fill="currentColor"><path d="M9.306 5.017a1 1 0 0 1 .332-.005.8.8 0 0 1 .26.116.5.5 0 0 0 .527-.85 1.8 1.8 0 0 0-.584-.245 1.9 1.9 0 0 0-.685-.005h-.005c-1.098.176-1.52 1.145-1.586 2.024A39 39 0 0 1 7.522 7H6.5a.5.5 0 0 0 0 1h.969a273 273 0 0 1-.195 3.294c-.03.375-.057.707-.147.998-.085.276-.214.472-.428.601l-.014.008c-.236.153-.542.13-.955-.084a.5.5 0 1 0-.46.888c.518.268 1.258.485 1.952.04.48-.292.728-.727.861-1.158.123-.398.157-.826.184-1.167l.004-.047v-.003c.034-.453.127-2.047.2-3.37H9.5a.5.5 0 1 0 0-1h-.977c.022-.445.038-.775.04-.888.054-.677.329-1.028.742-1.095Zm4.548 4.337a.5.5 0 0 0-.707-.708l-1.29 1.29a44 44 0 0 0-.356-.612 2.5 2.5 0 0 0-.23-.368 1.3 1.3 0 0 0-.48-.396.87.87 0 0 0-.784.076c-.183.111-.318.27-.403.381a.5.5 0 0 0 .792.61q.037-.047.068-.08a1.1 1.1 0 0 1 .157.25 60 60 0 0 1 .504.87l-1.478 1.48a.5.5 0 0 0 .707.707l1.286-1.287c.175.303.318.55.37.634l.09.15.023.042c.033.056.073.123.12.187.112.153.243.26.43.351a.5.5 0 0 0 .117.04c.274.057.536.035.766-.12a1.4 1.4 0 0 0 .322-.335l.014-.02.004-.005a.5.5 0 1 0-.792-.61l-.046.06-.012.016-.01.013-.05-.084-.02-.034a61 61 0 0 1-.593-1.018l1.48-1.48Z"/><path d="M3 3.75A3.25 3.25 0 0 1 6.25.5h6.5A3.25 3.25 0 0 1 16 3.75v10A3.25 3.25 0 0 1 12.75 17h-6.5A3.25 3.25 0 0 1 3 13.75zM6.25 2A1.75 1.75 0 0 0 4.5 3.75v10c0 .966.784 1.75 1.75 1.75h6.5a1.75 1.75 0 0 0 1.75-1.75v-10A1.75 1.75 0 0 0 12.75 2z"/><path d="M17 4.576a5.23 5.23 0 0 1 1.5 3.674v6c0 2.9-2.35 5.25-5.25 5.25h-2.5A5.23 5.23 0 0 1 7.076 18h6.174A3.75 3.75 0 0 0 17 14.25z"/></svg>