<svg xmlns="http://www.w3.org/2000/svg" width="20" height="20" fill="currentColor"><path fill="url(#i45b2d0-a)" d="M2 4.5A2.5 2.5 0 0 1 4.5 2h11A2.5 2.5 0 0 1 18 4.5v11a2.5 2.5 0 0 1-2.5 2.5h-11A2.5 2.5 0 0 1 2 15.5z"/><path fill="url(#i45b2d0-b)" fill-opacity=".2" d="M2 4.5A2.5 2.5 0 0 1 4.5 2h11A2.5 2.5 0 0 1 18 4.5v11a2.5 2.5 0 0 1-2.5 2.5h-11A2.5 2.5 0 0 1 2 15.5z"/><path fill="url(#i45b2d0-c)" fill-rule="evenodd" d="M15.5 3h-11A1.5 1.5 0 0 0 3 4.5v11A1.5 1.5 0 0 0 4.5 17h11a1.5 1.5 0 0 0 1.5-1.5v-11A1.5 1.5 0 0 0 15.5 3m-11-1A2.5 2.5 0 0 0 2 4.5v11A2.5 2.5 0 0 0 4.5 18h11a2.5 2.5 0 0 0 2.5-2.5v-11A2.5 2.5 0 0 0 15.5 2z" clip-rule="evenodd"/><path fill="#7A7A7A" fill-rule="evenodd" d="M9.025 5.095a5 5 0 0 1 1.95 0 .5.5 0 1 1-.194.981 4 4 0 0 0-1.562 0 .5.5 0 1 1-.194-.98Zm3.06.885a.5.5 0 0 1 .693-.138 5 5 0 0 1 1.38 1.38.5.5 0 1 1-.831.556 4 4 0 0 0-1.105-1.105.5.5 0 0 1-.137-.693m-4.17 0a.5.5 0 0 1-.137.693 4 4 0 0 0-1.105 1.105.5.5 0 1 1-.83-.556 5 5 0 0 1 1.379-1.38.5.5 0 0 1 .693.138M5.683 8.63a.5.5 0 0 1 .393.588 4 4 0 0 0 0 1.562.5.5 0 0 1-.98.194 5 5 0 0 1 0-1.95.5.5 0 0 1 .587-.394m8.634 0a.5.5 0 0 1 .588.394 5 5 0 0 1 0 1.95.5.5 0 1 1-.981-.194 4 4 0 0 0 0-1.562.5.5 0 0 1 .393-.588m-.297 3.454a.5.5 0 0 1 .138.693 5 5 0 0 1-1.38 1.38.5.5 0 1 1-.556-.831 4 4 0 0 0 1.105-1.105.5.5 0 0 1 .693-.137m-8.04 0a.5.5 0 0 1 .693.137c.293.437.668.812 1.105 1.105a.5.5 0 1 1-.556.83 5 5 0 0 1-1.38-1.379.5.5 0 0 1 .138-.693m2.651 2.232a.5.5 0 0 1 .588-.393 4 4 0 0 0 1.562 0 .5.5 0 1 1 .194.98 5 5 0 0 1-1.95 0 .5.5 0 0 1-.394-.587" clip-rule="evenodd"/><defs><linearGradient id="i45b2d0-a" x1="6.444" x2="8.468" y1="2" y2="18.192" gradientUnits="userSpaceOnUse"><stop stop-color="#fff"/><stop offset="1" stop-color="#EBEBEB"/></linearGradient><linearGradient id="i45b2d0-c" x1="7.167" x2="9.321" y1="2" y2="18.157" gradientUnits="userSpaceOnUse"><stop stop-color="#BBB"/><stop offset="1" stop-color="#888"/></linearGradient><radialGradient id="i45b2d0-b" cx="0" cy="0" r="1" gradientTransform="rotate(56.31 -2.206 9.727)scale(15.2234 13.1741)" gradientUnits="userSpaceOnUse"><stop offset=".177" stop-color="#fff"/><stop offset="1" stop-color="#B8B8B8"/></radialGradient></defs></svg>