<svg xmlns="http://www.w3.org/2000/svg" width="20" height="20" fill="currentColor"><path d="M7.987 4.18a12.2 12.2 0 0 0-.669 2.32h5.364a12.2 12.2 0 0 0-.67-2.32c-.301-.733-.648-1.294-1.008-1.663C10.646 2.149 10.307 2 10 2s-.646.149-1.004.517c-.36.37-.707.93-1.009 1.663M7.89 2.281a7.2 7.2 0 0 0-.827 1.518c-.32.78-.58 1.694-.762 2.701H2.804a8.02 8.02 0 0 1 5.087-4.219ZM12.937 3.8a7.2 7.2 0 0 0-.827-1.519A8.02 8.02 0 0 1 17.196 6.5h-3.497c-.182-1.007-.441-1.922-.762-2.7m4.665 3.7H13.85q.091.74.128 1.524a5.48 5.48 0 0 1 4.018 1.23 8 8 0 0 0-.394-2.754m-4.617 1.711a19 19 0 0 0-.143-1.711H7.158A19 19 0 0 0 7 10c0 .875.056 1.714.158 2.5h2.217a5.51 5.51 0 0 1 3.61-3.289M7.318 13.5h1.773q-.09.487-.091 1c0 1.316.462 2.525 1.234 3.471A1 1 0 0 1 10 18c-.307 0-.646-.149-1.004-.517-.36-.37-.707-.93-1.009-1.663a12.2 12.2 0 0 1-.669-2.32m-4.514 0a8.02 8.02 0 0 0 5.087 4.219 7.2 7.2 0 0 1-.828-1.518c-.32-.78-.58-1.694-.762-2.701zm-.406-1H6.15A21 21 0 0 1 6 10c0-.866.052-1.705.15-2.5H2.398A8 8 0 0 0 2 10c0 .873.14 1.713.398 2.5m9.667-1.058a2 2 0 0 1-1.43 2.478l-.461.118a4.7 4.7 0 0 0 .01 1.016l.35.083a2 2 0 0 1 1.455 2.519l-.126.422q.387.307.835.518l.325-.344a2 2 0 0 1 2.909.002l.337.358q.44-.203.822-.498l-.156-.556a2 2 0 0 1 1.43-2.479l.461-.117a4.7 4.7 0 0 0-.01-1.017l-.349-.082a2 2 0 0 1-1.456-2.52l.126-.421a4.3 4.3 0 0 0-.835-.519l-.324.344a2 2 0 0 1-2.91-.001l-.337-.358a4.3 4.3 0 0 0-.822.497zM14.5 15.5a1 1 0 1 1 0-2 1 1 0 0 1 0 2"/></svg>