<svg xmlns="http://www.w3.org/2000/svg" width="20" height="20" fill="currentColor"><path d="M1.8 15.465c0 .447.24.86.626 1.083l2.75 1.586a1.25 1.25 0 0 0 1.25 0l2.75-1.586a1.25 1.25 0 0 0 .625-1.083v-3.17c0-.447-.239-.86-.626-1.083l-2.75-1.585a1.25 1.25 0 0 0-1.249 0l-2.75 1.585a1.25 1.25 0 0 0-.625 1.083v3.17Zm5.126-6.678a1.25 1.25 0 0 1-.625-1.083v-3.17c0-.446.238-.86.625-1.082l2.75-1.586a1.25 1.25 0 0 1 1.25 0l2.75 1.586c.386.223.625.636.625 1.082v3.17c0 .447-.239.86-.626 1.083l-2.75 1.586a1.25 1.25 0 0 1-1.249 0zm3.874 6.678c0 .447.24.86.626 1.083l2.75 1.586a1.25 1.25 0 0 0 1.25 0l2.75-1.586a1.25 1.25 0 0 0 .625-1.083v-3.17c0-.447-.239-.86-.626-1.083l-2.75-1.585a1.25 1.25 0 0 0-1.249 0l-2.75 1.585a1.25 1.25 0 0 0-.625 1.083z"/></svg>