<svg xmlns="http://www.w3.org/2000/svg" width="20" height="20" fill="none"><path fill="url(#i91d118-paint0_linear_45747_656)" d="M14.95 11.516c.864 0 1.685.695 1.967 1.46a2.003 2.003 0 0 1-1.882 2.691h-1.036c-1.767 0-3.266.533-4.188 2.155a.334.334 0 0 1-.63-.155v-6.34z"/><path fill="url(#i91d118-paint1_linear_45747_656)" d="M14.95 11.516c.864 0 1.685.695 1.967 1.46a2.003 2.003 0 0 1-1.882 2.691h-1.036c-1.767 0-3.266.533-4.188 2.155a.334.334 0 0 1-.63-.155v-6.34z"/><path fill="url(#i91d118-paint2_linear_45747_656)" d="M16.917 12.976a2.01 2.01 0 0 0-1.883-1.31H4.34A2.337 2.337 0 0 1 2 9.334C2 8.045 3.123 6.88 4.415 6.88l4.257-.14 5.704-.036.127.268z"/><path fill="url(#i91d118-paint3_linear_45747_656)" d="M16.917 12.976a2.01 2.01 0 0 0-1.883-1.31H4.34A2.337 2.337 0 0 1 2 9.334C2 8.045 3.123 6.88 4.415 6.88l4.257-.14 5.704-.036.127.268z"/><path fill="url(#i91d118-paint4_linear_45747_656)" d="m17.958 6.1-1.331-3.31A1.34 1.34 0 0 0 15.406 2H4.816c-.613 0-1.13.41-1.288.971L2.064 8.8C2.338 7.813 3.222 7 4.297 7h13.035a.668.668 0 0 0 .626-.9"/><defs><linearGradient id="i91d118-paint0_linear_45747_656" x1="8.431" x2="16.841" y1="14.915" y2="12.662" gradientUnits="userSpaceOnUse"><stop offset=".536" stop-color="#0A5BAB"/><stop offset=".726" stop-color="#0A4B95"/><stop offset=".889" stop-color="#0B3B7F"/></linearGradient><linearGradient id="i91d118-paint1_linear_45747_656" x1="13.11" x2="13.11" y1="14.834" y2="8.162" gradientUnits="userSpaceOnUse"><stop offset=".309" stop-opacity="0"/><stop offset=".563" stop-opacity=".4"/></linearGradient><linearGradient id="i91d118-paint2_linear_45747_656" x1="17.348" x2="2.445" y1="11.367" y2="7.374" gradientUnits="userSpaceOnUse"><stop offset=".1" stop-color="#A0A4F3"/><stop offset=".6" stop-color="#3D7DEB"/><stop offset=".95" stop-color="#2C57C2"/></linearGradient><linearGradient id="i91d118-paint3_linear_45747_656" x1="9.459" x2="9.459" y1="10.571" y2="4.298" gradientUnits="userSpaceOnUse"><stop offset=".28" stop-color="#2C57C2" stop-opacity="0"/><stop offset=".564" stop-color="#2849AB" stop-opacity=".5"/></linearGradient><linearGradient id="i91d118-paint4_linear_45747_656" x1="13.184" x2="6.815" y1=".51" y2="11.542" gradientUnits="userSpaceOnUse"><stop offset=".24" stop-color="#BBC2FB"/><stop offset=".8" stop-color="#79B6FB"/></linearGradient></defs></svg>