<svg xmlns="http://www.w3.org/2000/svg" width="20" height="20" fill="currentColor"><g clip-path="url(#ic4a755-a)"><path d="M2 3.499A1.5 1.5 0 0 1 3.5 2h1c.827 0 1.499.67 1.499 1.498v8.63c-.283.1-.54.256-.759.454A2.75 2.75 0 0 0 2 11.104zm.75 12.002a1.75 1.75 0 1 1 0-3.5 1.75 1.75 0 0 1 0 3.5m3.083 1.665c.106.19.167.412.167.648C6 18.902 5.143 20 3 20s-3-1.094-3-2.188c0-.724.576-1.312 1.286-1.312h3.428a1.28 1.28 0 0 1 1.119.665Zm2.096-.665c.592 0 1.071.504 1.071 1.125q0 .177-.035.352c-.162.804-.904 1.523-2.465 1.523h-.023A2.95 2.95 0 0 0 7 17.813c0-.483-.148-.937-.404-1.312zm3.068-.021c0 .656-.422 1.214-1.01 1.416q.013-.135.013-.27c0-.919-.586-1.752-1.447-2.028a2.25 2.25 0 0 0-1.554-3.583V3.498c0-.827.67-1.498 1.499-1.498h1c.828 0 1.499.67 1.499 1.498z"/><path d="M6.998 13.026a1.25 1.25 0 1 1-.497 2.45 1.25 1.25 0 0 1 .497-2.45m6.85-7.974a1.5 1.5 0 0 1 1.87 1.106l2.244 9.76a1.5 1.5 0 0 1-1.092 1.786l-.985.25a1.5 1.5 0 0 1-1.839-1.152l-2.004-9.798a1.5 1.5 0 0 1 1.06-1.741zM4.876 15.496l-.005.005h.008z"/></g><defs><clipPath id="ic4a755-a"><path d="M0 0h20v20H0z"/></clipPath></defs></svg>