<svg xmlns="http://www.w3.org/2000/svg" width="20" height="20" fill="currentColor"><path d="M14.12 10.16a.535.535 0 0 1 .76 0c.508.532 1.484 1.378 2.684 1.552a.5.5 0 0 1 .436.482v2.323c0 3.122-2.784 4.255-3.386 4.463a.34.34 0 0 1-.227 0C13.785 18.773 11 17.64 11 14.517v-2.323a.5.5 0 0 1 .437-.482c1.199-.174 2.174-1.02 2.682-1.553ZM10 14.517q.002.52.082.983H2.75a.75.75 0 0 1 0-1.5H10zm4.344-5.51c-.35.035-.689.19-.948.462-.334.35-.823.77-1.383 1.031H2.75a.75.75 0 0 1 0-1.5h11.594zM13.25 4a.75.75 0 0 1 0 1.5H2.75a.75.75 0 0 1 0-1.5z"/></svg>