<svg xmlns="http://www.w3.org/2000/svg" width="20" height="20" fill="currentColor"><path d="M4.5 6.25a1.25 1.25 0 1 1-2.5 0 1.25 1.25 0 0 1 2.5 0m3.25-.75a.75.75 0 0 0 0 1.5h9.5a.75.75 0 0 0 0-1.5zM7 11.25a.75.75 0 0 1 .75-.75h9.5a.75.75 0 0 1 0 1.5h-9.5a.75.75 0 0 1-.75-.75M3.25 12.5a1.25 1.25 0 1 0 0-2.5 1.25 1.25 0 0 0 0 2.5m1.25 3.75a1.25 1.25 0 1 1-2.5 0 1.25 1.25 0 0 1 2.5 0m4.706-2.315a2.14 2.14 0 0 0-1.51-.436 1.583 1.583 0 0 0-1.695 1.468L6 14.984v.017c0 .578.365.936.692 1.135.307.187.659.286.85.34l.022.006.062.018c.201.056.388.108.54.201.14.085.192.166.192.3 0 .255-.084.341-.152.387-.1.069-.272.113-.506.113h-.021l-.022.002a1.17 1.17 0 0 1-.84-.26.5.5 0 1 0-.633.774c.431.353.982.526 1.537.484.32-.002.717-.06 1.05-.287.371-.254.587-.668.587-1.213 0-.582-.33-.945-.671-1.154-.28-.17-.606-.26-.792-.31l-.06-.017c-.206-.058-.44-.126-.622-.238-.164-.1-.208-.182-.213-.265a.58.58 0 0 1 .644-.519l.058.007.058-.007a1.14 1.14 0 0 1 .834.229.5.5 0 0 0 .612-.792M12 13.5a2 2 0 0 0-2 2v1a2 2 0 0 0 3.25 1.562l.45.338a.5.5 0 0 0 .6-.8l-.45-.338A2 2 0 0 0 14 16.5v-1a2 2 0 0 0-2-2m.3 2.6a.5.5 0 0 0-.6.8l.693.52A1 1 0 0 1 11 16.5v-1a1 1 0 0 1 2 0v1q0 .06-.007.12zm3.2-2.6a.5.5 0 0 1 .5.5v3.5h1.5a.5.5 0 0 1 0 1h-2a.5.5 0 0 1-.5-.5v-4a.5.5 0 0 1 .5-.5"/></svg>