<svg xmlns="http://www.w3.org/2000/svg" width="20" height="20" fill="currentColor"><path d="M3.25 7.5a1.25 1.25 0 1 0 0-2.5 1.25 1.25 0 0 0 0 2.5M7 6.25a.75.75 0 0 1 .75-.75h9.5a.75.75 0 0 1 0 1.5h-9.5A.75.75 0 0 1 7 6.25m0 5a.75.75 0 0 1 .75-.75h3.581A5.5 5.5 0 0 0 9.884 12H7.75a.75.75 0 0 1-.75-.75m.75 4.25h1.267c.047.525.168 1.028.352 1.5H7.75a.75.75 0 0 1 0-1.5m-4.5-3a1.25 1.25 0 1 0 0-2.5 1.25 1.25 0 0 0 0 2.5m0 5a1.25 1.25 0 1 0 0-2.5 1.25 1.25 0 0 0 0 2.5M12 11.258a4.5 4.5 0 1 1 5 7.484 4.5 4.5 0 0 1-5-7.484m4.917 5.425a.5.5 0 0 0 .003-.863L15.5 15l1.406-.832a.5.5 0 0 0-.506-.863l-1.4.822V12.5a.5.5 0 0 0-1 0v1.634l-1.411-.812a.5.5 0 0 0-.5.866l1.42.82-1.415.829a.5.5 0 1 0 .506.863l1.4-.827V17.5a.5.5 0 0 0 1 0v-1.634l1.417.817a.49.49 0 0 0 .5 0"/></svg>