<svg xmlns="http://www.w3.org/2000/svg" width="20" height="20" fill="currentColor"><path d="M19 17c0 1.105-1.567 2-3.5 2s-3.5-.895-3.5-2v-3.08q.255.207.53.362c.81.463 1.862.718 2.97.718s2.16-.255 2.97-.718q.275-.155.53-.362z"/><path d="M10 2a3 3 0 0 1 3 3v1h1a3 3 0 0 1 3 3v.127A8.7 8.7 0 0 0 15.5 9c-1.069 0-2.084.184-2.87.52-.39.168-.77.393-1.067.694-.3.305-.563.74-.563 1.286v6c0 .179.03.345.08.5H6a3 3 0 0 1-3-3V9a3 3 0 0 1 3-3h1V5a3 3 0 0 1 3-3m0 1a2 2 0 0 0-2 2v1h4V5a2 2 0 0 0-2-2"/><path d="M15.5 10c1.933 0 3.5.895 3.5 2s-1.567 2-3.5 2-3.5-.895-3.5-2 1.567-2 3.5-2"/></svg>