<svg xmlns="http://www.w3.org/2000/svg" width="20" height="20" fill="currentColor"><path d="M10 14.5h.09a5.53 5.53 0 0 0 .415 3.305.75.75 0 0 1-1.255-.555v-1.296a6 6 0 0 1-5.204-5.204H2.75a.75.75 0 0 1 0-1.5h1.296A6 6 0 0 1 9.25 4.046V2.75a.75.75 0 0 1 1.5 0v1.296a6 6 0 0 1 5.204 5.204h1.296a.75.75 0 0 1 .555 1.255 5.53 5.53 0 0 0-3.306-.414L14.5 10a4.5 4.5 0 1 0-4.5 4.5"/><path d="M10 13q.327 0 .635-.067a5.53 5.53 0 0 1 2.298-2.298A3 3 0 1 0 10 13m10 2.5a4.5 4.5 0 1 1-9 0 4.5 4.5 0 0 1 9 0m-4.854 2.353.003.003a.5.5 0 0 0 .348.144h.006a.5.5 0 0 0 .35-.146l2-2a.5.5 0 0 0-.707-.708L16 16.293V13.5a.5.5 0 0 0-1 0v2.793l-1.146-1.147a.5.5 0 0 0-.708.708z"/></svg>