<svg xmlns="http://www.w3.org/2000/svg" width="20" height="20" fill="currentColor"><path fill="url(#ia65f4b-a)" d="M3.047 3a2 2 0 0 1 2-2h10a2 2 0 0 1 2 2v14a2 2 0 0 1-2 2h-10a2 2 0 0 1-2-2z"/><path fill="url(#ia65f4b-b)" fill-opacity=".2" d="M3.047 3a2 2 0 0 1 2-2h10a2 2 0 0 1 2 2v14a2 2 0 0 1-2 2h-10a2 2 0 0 1-2-2z"/><path fill="url(#ia65f4b-c)" fill-rule="evenodd" d="M17.047 3a2 2 0 0 0-2-2h-10a2 2 0 0 0-2 2v14a2 2 0 0 0 2 2h10a2 2 0 0 0 2-2zm-12-1h10a1 1 0 0 1 1 1v10.5a1.5 1.5 0 0 1-1.5 1.5h-9.5a2 2 0 0 0-1 .268V3a1 1 0 0 1 1-1m-1 15a1 1 0 0 0 1 1h10a1 1 0 0 0 1-1v-1.5a2.5 2.5 0 0 1-1.5.5h-9.5a1 1 0 0 0-1 1" clip-rule="evenodd"/><path fill="url(#ia65f4b-d)" d="M11.485 4.621a.5.5 0 1 0-.97-.242l-1.75 7a.5.5 0 0 0 .97.242z"/><path fill="url(#ia65f4b-e)" d="M12.116 5.553a.5.5 0 0 0 0 .707L13.856 8l-1.74 1.74a.5.5 0 1 0 .707.707l2.023-2.023a.6.6 0 0 0 0-.848l-2.023-2.023a.5.5 0 0 0-.707 0"/><path fill="url(#ia65f4b-f)" d="M7.916 5.584a.5.5 0 0 1 0 .707L6.206 8l1.71 1.709a.5.5 0 0 1-.707.707L5.217 8.424a.6.6 0 0 1 0-.848l1.992-1.992a.5.5 0 0 1 .707 0"/><defs><linearGradient id="ia65f4b-a" x1="6.936" x2="9.834" y1="1" y2="19.034" gradientUnits="userSpaceOnUse"><stop stop-color="#fff"/><stop offset="1" stop-color="#EBEBEB"/></linearGradient><linearGradient id="ia65f4b-c" x1="7.568" x2="10.649" y1="1" y2="18.972" gradientUnits="userSpaceOnUse"><stop stop-color="#BBB"/><stop offset="1" stop-color="#888"/></linearGradient><linearGradient id="ia65f4b-d" x1="5.041" x2="12.85" y1="4" y2="13.741" gradientUnits="userSpaceOnUse"><stop stop-color="#4BA446"/><stop offset="1" stop-color="#3F7D35"/></linearGradient><linearGradient id="ia65f4b-e" x1="5.041" x2="12.85" y1="4" y2="13.741" gradientUnits="userSpaceOnUse"><stop stop-color="#4BA446"/><stop offset="1" stop-color="#3F7D35"/></linearGradient><linearGradient id="ia65f4b-f" x1="5.041" x2="12.85" y1="4" y2="13.741" gradientUnits="userSpaceOnUse"><stop stop-color="#4BA446"/><stop offset="1" stop-color="#3F7D35"/></linearGradient><radialGradient id="ia65f4b-b" cx="0" cy="0" r="1" gradientTransform="matrix(7.38888 14.24997 -10.91858 5.6615 7.52 5.688)" gradientUnits="userSpaceOnUse"><stop offset=".177" stop-color="#fff"/><stop offset="1" stop-color="#B8B8B8"/></radialGradient></defs></svg>