<svg xmlns="http://www.w3.org/2000/svg" width="20" height="20" fill="currentColor"><path d="M11.318 2.318a4.5 4.5 0 1 1 6.364 6.364 4.5 4.5 0 0 1-6.364-6.364m5.096 1.768v-.003a.5.5 0 0 0-.144-.349l-.003-.002-.002-.002a.5.5 0 0 0-.351-.144h-2.829a.5.5 0 1 0 0 1h1.622L12.732 6.56a.5.5 0 0 0 .707.707l1.975-1.975v1.621a.5.5 0 0 0 1 0z"/><path d="M15 10.977V16a2 2 0 0 1-2 2H5a2 2 0 0 1-2-2V4a2 2 0 0 1 2-2h5.257a5.48 5.48 0 0 0-1.235 3H5.5a.5.5 0 0 0-.5.5v1a.5.5 0 0 0 .5.5h3.707c.247.875.715 1.7 1.404 2.39A5.49 5.49 0 0 0 15 10.976Zm1-.184a5.5 5.5 0 0 0 1-.392V11.5a.5.5 0 0 1-.5.5H16zM16 13h.5a.5.5 0 0 1 .5.5V15a.5.5 0 0 1-.5.5H16z"/></svg>