<svg xmlns="http://www.w3.org/2000/svg" width="20" height="20" fill="currentColor"><path d="M3 4a2 2 0 0 1 2-2h8a2 2 0 0 1 2 2v12a2 2 0 0 1-2 2H5a2 2 0 0 1-2-2zm7.11 2.121a.5.5 0 1 0-.97-.242l-1.25 5a.5.5 0 0 0 .97.242zm.787 3.983a.5.5 0 0 0 .707 0l1.18-1.18a.6.6 0 0 0 0-.848l-1.18-1.18a.5.5 0 1 0-.707.708l.896.896-.896.896a.5.5 0 0 0 0 .708m-3.794-2.5a.5.5 0 1 0-.707-.708l-1.18 1.18a.6.6 0 0 0 0 .848l1.18 1.18a.5.5 0 0 0 .707-.708L6.207 8.5zM16.5 6H16v2.5h.5A.5.5 0 0 0 17 8V6.5a.5.5 0 0 0-.5-.5m0 3.5H16V12h.5a.5.5 0 0 0 .5-.5V10a.5.5 0 0 0-.5-.5m0 3.5H16v2.5h.5a.5.5 0 0 0 .5-.5v-1.5a.5.5 0 0 0-.5-.5"/></svg>