<svg xmlns="http://www.w3.org/2000/svg" width="20" height="20" fill="currentColor"><path d="M5 2a2 2 0 0 0-2 2v12a2 2 0 0 0 2 2h5.257A5.5 5.5 0 0 1 15 9.022V4a2 2 0 0 0-2-2zm0 3.5a.5.5 0 0 1 .5-.5h7a.5.5 0 0 1 .5.5v1a.5.5 0 0 1-.5.5h-7a.5.5 0 0 1-.5-.5zM16 6h.5a.5.5 0 0 1 .5.5V8a.5.5 0 0 1-.5.5H16z"/><path d="M13.55 11.15c-.29.727-.493 1.722-.54 2.85h2.98c-.047-1.128-.25-2.123-.54-2.85-.167-.417-.353-.722-.535-.914-.18-.19-.32-.236-.415-.236s-.235.046-.415.236c-.182.192-.368.497-.535.914m-.72-.83a5 5 0 0 0-.209.459c-.344.862-.565 1.987-.612 3.221h-1.982a4.5 4.5 0 0 1 2.802-3.68Zm3.34 0q.112.218.208.459c.345.862.565 1.987.612 3.221h1.982a4.5 4.5 0 0 0-2.802-3.68M18.972 15H16.99c-.047 1.234-.267 2.36-.612 3.221q-.096.24-.208.459A4.5 4.5 0 0 0 18.972 15M14.5 19c.094 0 .235-.046.415-.236.182-.192.368-.497.535-.914.29-.727.493-1.722.54-2.85h-2.98c.047 1.128.25 2.123.54 2.85.167.417.353.722.535.913.18.191.32.237.415.237m-1.67-.32A4.5 4.5 0 0 1 10.026 15h1.982c.047 1.234.268 2.36.612 3.221q.097.24.208.459Z"/></svg>