<svg xmlns="http://www.w3.org/2000/svg" width="20" height="20" fill="currentColor"><path d="M1 3.75A2.75 2.75 0 0 1 3.75 1h8.5A2.75 2.75 0 0 1 15 3.75v4.607a2.6 2.6 0 0 0-.84-.311 3 3 0 0 0-.66-.043V3.75c0-.69-.56-1.25-1.25-1.25h-8.5c-.69 0-1.25.56-1.25 1.25v7.5c0 .69.56 1.25 1.25 1.25h5.349v.02c0 .744.544 1.363 1.256 1.48H3.75A2.75 2.75 0 0 1 1 11.25z"/><path d="M12.25 8.325a2.8 2.8 0 0 0-.997.869 3.3 3.3 0 0 0-.503 1.132V6.03a3.4 3.4 0 0 1-.568.198.75.75 0 1 1-.364-1.456 1.96 1.96 0 0 0 1.057-.687l.005-.007a.75.75 0 0 1 1.37.422zM6 3.75A2.25 2.25 0 0 0 3.75 6v3a2.25 2.25 0 0 0 4.5 0V6A2.25 2.25 0 0 0 6 3.75M5.25 6a.75.75 0 0 1 1.5 0v3a.75.75 0 0 1-1.5 0zm8.17 4.01c.17-.02.28-.02.36 0s.16.05.28.12c.24.14.54.07.69-.17.14-.24.07-.54-.17-.69-.18-.11-.37-.2-.6-.24-.22-.04-.45-.04-.7 0-.53.08-.94.36-1.21.74-.26.37-.39.83-.42 1.28v.04c0 .041-.005.152-.013.318l-.008.164-.02.448H10.6c-.28 0-.5.22-.5.5s.22.5.5.5h.95a310 310 0 0 1-.198 3.259v.021c-.031.38-.061.71-.151 1-.09.27-.22.47-.45.6h-.01c-.26.17-.59.14-1.02-.08a.505.505 0 0 0-.67.22c-.12.25-.02.55.22.67.53.27 1.28.48 1.99.04.49-.29.75-.72.89-1.16.12-.367.154-.76.183-1.085v-.012l.007-.073v-.05c.03-.45.13-2.03.2-3.35h1.05c.28 0 .5-.22.5-.5s-.22-.5-.5-.5h-.99l.005-.1.017-.361.005-.103c.007-.162.013-.28.013-.336.03-.33.11-.59.24-.77.12-.17.29-.29.54-.33v-.01Zm5.42 4.84c.2-.2.2-.51 0-.71s-.51-.2-.71 0l-1.54 1.54a87 87 0 0 1-.45-.78c-.06-.12-.15-.27-.26-.41s-.27-.31-.48-.41q-.007 0-.017-.007l-.004-.002-.019-.011a.94.94 0 0 0-.83.08c-.2.12-.34.29-.44.42-.17.22-.13.53.09.7s.53.13.7-.09l.024-.03.014-.018q.033-.042.062-.072l.04-.04.028.032.042.048c.06.08.12.18.17.28 0 .01.01.02.02.03.07.11.31.52.58 1l-1.73 1.73c-.2.2-.2.51 0 .71s.51.2.71 0l1.54-1.54.168.291a54 54 0 0 0 .363.62l.006.012.033.057.03.05q.019.029.038.062l.014.023.008.013q.031.057.07.112c.12.16.26.28.47.38.04.02.08.03.12.04.3.06.58.04.82-.13.16-.11.29-.28.35-.36q.001-.008.01-.015.009-.008.01-.015c.17-.22.13-.53-.09-.7a.496.496 0 0 0-.7.09c-.02.02-.04.05-.05.07v.02s-.05.04-.06.06l-.02.02s-.01 0-.01-.01l-.03-.03a.3.3 0 0 1-.042-.06l-.015-.024-.005-.008-.018-.028-.02-.04-.03-.051-.09-.149c-.044-.07-.158-.266-.307-.523l-.07-.12-.213-.367 1.73-1.73z"/></svg>