<svg xmlns="http://www.w3.org/2000/svg" width="20" height="20" fill="currentColor"><path d="M5 2a2 2 0 0 0-2 2v1a2 2 0 0 0 2 2h10a2 2 0 0 0 2-2V4a2 2 0 0 0-2-2zm-.25 8a.75.75 0 0 0-.75.75v1.75a.5.5 0 0 1-1 0v-1.75C3 9.784 3.784 9 4.75 9H6.5a.5.5 0 0 1 0 1zM4 16.25c0 .414.336.75.75.75H6.5a.5.5 0 0 1 0 1H4.75A1.75 1.75 0 0 1 3 16.25V14.5a.5.5 0 0 1 1 0zM15.25 10a.75.75 0 0 1 .75.75v1.75a.5.5 0 0 0 1 0v-1.75A1.75 1.75 0 0 0 15.25 9H13.5a.5.5 0 0 0 0 1zm.75 6.25a.75.75 0 0 1-.75.75H13.5a.5.5 0 0 0 0 1h1.75A1.75 1.75 0 0 0 17 16.25V14.5a.5.5 0 0 0-1 0zM8 17.5a.5.5 0 0 1 .5-.5h3a.5.5 0 0 1 0 1h-3a.5.5 0 0 1-.5-.5M8.5 9a.5.5 0 0 0 0 1h3a.5.5 0 0 0 0-1z"/></svg>