<svg xmlns="http://www.w3.org/2000/svg" width="20" height="20" fill="currentColor"><path d="M10 2a4 4 0 1 0 0 8 4 4 0 0 0 0-8m-4.991 9h6.217a4.54 4.54 0 0 0-.174 2.402l-2.318 2.317a2.5 2.5 0 0 0-.71 2.123c-1.088-.183-2.078-.528-2.889-1.045C3.833 15.967 3 14.69 3 13c0-1.113.903-2 2.009-2"/><path d="M15.892 9.024c.366.042.471.48.21.742l-.975.975a1.507 1.507 0 1 0 2.132 2.132l.975-.975c.261-.261.7-.156.742.21a3.518 3.518 0 0 1-4.676 3.723l-2.726 2.727a1.507 1.507 0 1 1-2.132-2.132l2.726-2.726a3.518 3.518 0 0 1 3.724-4.676"/></svg>