<svg xmlns="http://www.w3.org/2000/svg" width="20" height="20" fill="currentColor"><path d="M10 2a4 4 0 1 0 0 8 4 4 0 0 0 0-8m-4.991 9A2 2 0 0 0 3 13c0 1.691.833 2.966 2.135 3.797 1.05.669 2.397 1.049 3.87 1.165.005-.285.072-.577.212-.858L12.267 11H5.008Z"/><path fill-rule="evenodd" d="m13.603 10.554-3.496 6.998A1 1 0 0 0 11.002 19h6.996a1 1 0 0 0 .895-1.448l-3.5-6.999a1 1 0 0 0-1.79 0Zm1.395 1.941a.5.5 0 1 0-1 0v3.002a.5.5 0 1 0 1 0zm-.5 5.504a.5.5 0 1 0 0-1 .5.5 0 0 0 0 1" clip-rule="evenodd"/></svg>