<svg xmlns="http://www.w3.org/2000/svg" width="20" height="20" fill="currentColor"><path d="M2.977 8.922a.9.9 0 0 1-.375-.078 1.2 1.2 0 0 1-.313-.203.8.8 0 0 1-.21-.305A1.2 1.2 0 0 1 2 7.953v-.07a1 1 0 0 1 .008-.078A7.03 7.03 0 0 1 5.71 2.703a6.8 6.8 0 0 1 2.094-.695.4.4 0 0 1 .07-.008h.078a.9.9 0 0 1 .375.078q.18.079.305.211.124.133.21.313.087.18.079.375v4.945a.97.97 0 0 1-.29.703 1.1 1.1 0 0 1-.32.219.85.85 0 0 1-.39.078zm2.43 5.969a.98.98 0 0 1 .313-.726l4.202-3.962V4.906a.97.97 0 0 1 .289-.703.9.9 0 0 1 .32-.203 1.2 1.2 0 0 1 .39-.078q.963 0 1.852.25a7.2 7.2 0 0 1 1.672.703q.782.453 1.422 1.102a7.06 7.06 0 0 1 1.805 3.086 6.6 6.6 0 0 1 .25 1.859 6.9 6.9 0 0 1-.25 1.86 7.2 7.2 0 0 1-.703 1.671 6.7 6.7 0 0 1-1.094 1.414 7.4 7.4 0 0 1-1.414 1.094 6.8 6.8 0 0 1-1.672.71 7.2 7.2 0 0 1-3.367.094 6.5 6.5 0 0 1-1.43-.484 7 7 0 0 1-.633-.336 9 9 0 0 1-.64-.422 8 8 0 0 1-.602-.484 3.3 3.3 0 0 1-.484-.531 1.4 1.4 0 0 1-.172-.29.9.9 0 0 1-.055-.327Zm-1.509-.649a.91.91 0 0 1-.789-.422 6 6 0 0 1-.375-.625 8 8 0 0 1-.359-.78 7 7 0 0 1-.266-.813A3.3 3.3 0 0 1 2 10.89a.9.9 0 0 1 .078-.375.9.9 0 0 1 .211-.305q.133-.125.305-.211a.8.8 0 0 1 .383-.078H6.21q.21 0 .39.078t.32.21a.9.9 0 0 1 .22.321q.078.188.078.399 0 .406-.297.703l-2.32 2.32a.96.96 0 0 1-.704.29Z"/></svg>