<svg xmlns="http://www.w3.org/2000/svg" width="20" height="20" fill="currentColor"><path fill="url(#if1d3fd-a)" d="M2 4.5A2.5 2.5 0 0 1 4.5 2h11A2.5 2.5 0 0 1 18 4.5v11a2.5 2.5 0 0 1-2.5 2.5h-11A2.5 2.5 0 0 1 2 15.5z"/><path fill="url(#if1d3fd-b)" fill-opacity=".2" d="M2 4.5A2.5 2.5 0 0 1 4.5 2h11A2.5 2.5 0 0 1 18 4.5v11a2.5 2.5 0 0 1-2.5 2.5h-11A2.5 2.5 0 0 1 2 15.5z"/><path fill="url(#if1d3fd-c)" fill-rule="evenodd" d="M15.5 3h-11A1.5 1.5 0 0 0 3 4.5v11A1.5 1.5 0 0 0 4.5 17h11a1.5 1.5 0 0 0 1.5-1.5v-11A1.5 1.5 0 0 0 15.5 3m-11-1A2.5 2.5 0 0 0 2 4.5v11A2.5 2.5 0 0 0 4.5 18h11a2.5 2.5 0 0 0 2.5-2.5v-11A2.5 2.5 0 0 0 15.5 2z" clip-rule="evenodd"/><path fill="url(#if1d3fd-d)" fill-rule="evenodd" d="M6.5 5.5A1.5 1.5 0 0 0 5 7v6a1.5 1.5 0 0 0 3 0v-.5h4v.5a1.5 1.5 0 0 0 3 0V7a1.5 1.5 0 0 0-3 0v.5H8V7a1.5 1.5 0 0 0-1.5-1.5M7 13V7a.5.5 0 0 0-1 0v6a.5.5 0 0 0 1 0m6 0a.5.5 0 0 0 1 0V7a.5.5 0 0 0-1 0z" clip-rule="evenodd"/><defs><linearGradient id="if1d3fd-a" x1="6.444" x2="8.468" y1="2" y2="18.192" gradientUnits="userSpaceOnUse"><stop stop-color="#fff"/><stop offset="1" stop-color="#EBEBEB"/></linearGradient><linearGradient id="if1d3fd-c" x1="7.167" x2="9.321" y1="2" y2="18.157" gradientUnits="userSpaceOnUse"><stop stop-color="#BBB"/><stop offset="1" stop-color="#888"/></linearGradient><linearGradient id="if1d3fd-d" x1="5" x2="13.95" y1="5.5" y2="15.445" gradientUnits="userSpaceOnUse"><stop stop-color="#4BA446"/><stop offset="1" stop-color="#3F7D35"/></linearGradient><radialGradient id="if1d3fd-b" cx="0" cy="0" r="1" gradientTransform="rotate(56.31 -2.206 9.727)scale(15.2234 13.1741)" gradientUnits="userSpaceOnUse"><stop offset=".177" stop-color="#fff"/><stop offset="1" stop-color="#B8B8B8"/></radialGradient></defs></svg>