<svg xmlns="http://www.w3.org/2000/svg" width="20" height="20" fill="none"><path fill="url(#i13e5af-i0470b7-paint0_linear_65420_297)" d="M2 4.5A2.5 2.5 0 0 1 4.5 2h11A2.5 2.5 0 0 1 18 4.5v11a2.5 2.5 0 0 1-2.5 2.5h-11A2.5 2.5 0 0 1 2 15.5z"/><path fill="url(#i13e5af-i0470b7-paint1_radial_65420_297)" fill-opacity=".2" d="M2 4.5A2.5 2.5 0 0 1 4.5 2h11A2.5 2.5 0 0 1 18 4.5v11a2.5 2.5 0 0 1-2.5 2.5h-11A2.5 2.5 0 0 1 2 15.5z"/><path fill="url(#i13e5af-i0470b7-paint2_linear_65420_297)" fill-rule="evenodd" d="M15.5 3h-11A1.5 1.5 0 0 0 3 4.5v11A1.5 1.5 0 0 0 4.5 17h11a1.5 1.5 0 0 0 1.5-1.5v-11A1.5 1.5 0 0 0 15.5 3m-11-1A2.5 2.5 0 0 0 2 4.5v11A2.5 2.5 0 0 0 4.5 18h11a2.5 2.5 0 0 0 2.5-2.5v-11A2.5 2.5 0 0 0 15.5 2z" clip-rule="evenodd"/><path fill="url(#i13e5af-i0470b7-paint3_linear_65420_297)" d="M10 5q.414 0 .812.066l-.372.373a1.5 1.5 0 0 0-.354.563L10 6a4 4 0 1 0 4 4l-.003-.087c.21-.074.403-.192.563-.352l.373-.373q.066.396.067.812a5 5 0 1 1-5-5"/><path fill="url(#i13e5af-i0470b7-paint4_linear_65420_297)" d="m10 7.879-.128.127a1.999 1.999 0 1 0 2.121 2.121l.128-.127H13a3 3 0 1 1-3-3z"/><path fill="url(#i13e5af-i0470b7-paint5_linear_65420_297)" d="M12.647 4.647A.5.5 0 0 1 13.5 5v1.5H15a.5.5 0 0 1 .354.854l-1.5 1.5A.5.5 0 0 1 13.5 9h-1.793l-.96.959.003.041a.75.75 0 1 1-.75-.75l.04.002.96-.959V6.5a.5.5 0 0 1 .146-.353z"/><defs><linearGradient id="i13e5af-i0470b7-paint0_linear_65420_297" x1="6.444" x2="8.468" y1="2" y2="18.192" gradientUnits="userSpaceOnUse"><stop stop-color="#fff"/><stop offset="1" stop-color="#EBEBEB"/></linearGradient><radialGradient id="i13e5af-i0470b7-paint1_radial_65420_297" cx="0" cy="0" r="1" gradientTransform="matrix(8.44444 12.6667 -12.6667 4.75 7.111 6.167)" gradientUnits="userSpaceOnUse"><stop offset=".177" stop-color="#fff"/><stop offset="1" stop-color="#B8B8B8"/></radialGradient><linearGradient id="i13e5af-i0470b7-paint2_linear_65420_297" x1="7.167" x2="9.321" y1="2" y2="18.157" gradientUnits="userSpaceOnUse"><stop stop-color="#BBB"/><stop offset="1" stop-color="#888"/></linearGradient><linearGradient id="i13e5af-i0470b7-paint3_linear_65420_297" x1="5" x2="15.5" y1="4.5" y2="15" gradientUnits="userSpaceOnUse"><stop stop-color="#7751B8"/><stop offset="1" stop-color="#5A409C"/></linearGradient><linearGradient id="i13e5af-i0470b7-paint4_linear_65420_297" x1="5" x2="15.5" y1="4.5" y2="15" gradientUnits="userSpaceOnUse"><stop stop-color="#7751B8"/><stop offset="1" stop-color="#5A409C"/></linearGradient><linearGradient id="i13e5af-i0470b7-paint5_linear_65420_297" x1="5" x2="15.5" y1="4.5" y2="15" gradientUnits="userSpaceOnUse"><stop stop-color="#7751B8"/><stop offset="1" stop-color="#5A409C"/></linearGradient></defs></svg>