<svg xmlns="http://www.w3.org/2000/svg" width="20" height="20" fill="currentColor"><path fill="url(#ic17573-a)" d="M11.667 2a.667.667 0 0 0-.667.667V18h5.333a.667.667 0 0 0 .667-.667V2.667A.667.667 0 0 0 16.333 2z"/><path fill="#000" fill-opacity=".5" d="M7.667 6A.667.667 0 0 0 7 6.667V10h-.5v8h1V7h4.833c.092 0 .167.075.167.167V18h1V7.167C13.5 6.522 12.978 6 12.333 6z" opacity=".25"/><path fill="url(#ic17573-b)" d="M7.667 6A.667.667 0 0 0 7 6.667V18h6V6.667A.667.667 0 0 0 12.333 6z"/><path fill="url(#ic17573-c)" d="M3.667 10a.667.667 0 0 0-.667.667v6.666c0 .369.298.667.667.667H9v-7.333A.667.667 0 0 0 8.333 10z"/><defs><linearGradient id="ic17573-a" x1="10" x2="16.5" y1="2" y2="17.5" gradientUnits="userSpaceOnUse"><stop stop-color="#E6AD10"/><stop offset="1" stop-color="#C87E0E"/></linearGradient><linearGradient id="ic17573-b" x1="7" x2="12.499" y1="6" y2="18" gradientUnits="userSpaceOnUse"><stop stop-color="#F6D751"/><stop offset="1" stop-color="#E6AD10"/></linearGradient><linearGradient id="ic17573-c" x1="3" x2="6" y1="10" y2="18" gradientUnits="userSpaceOnUse"><stop stop-color="#F9E589"/><stop offset="1" stop-color="#F6D751"/></linearGradient></defs></svg>