<svg xmlns="http://www.w3.org/2000/svg" width="20" height="20" fill="currentColor"><path d="M2.018 5a2 2 0 0 1 2-2h10a2 2 0 0 1 2 2v4.401a3 3 0 0 0-1.5-.401c-.889 0-1.687.386-2.237 1h-.763a.5.5 0 0 0-.448.276l-.976 1.952-2.106-5.896a.5.5 0 0 0-.939-.008L5.671 10H4.518a.5.5 0 0 0 0 1h1.5a.5.5 0 0 0 .468-.324l1.02-2.721 2.04 5.713a.5.5 0 0 0 .919.056l1.086-2.173a2.99 2.99 0 0 0 .74 2.459 2.5 2.5 0 0 0-2.273 2.49q0 .25.038.5H4.018a2 2 0 0 1-2-2z"/><path d="M16.518 12a2 2 0 1 1-4 0 2 2 0 0 1 4 0m1.5 4.5c0 1.245-1 2.5-3.5 2.5s-3.5-1.25-3.5-2.5a1.5 1.5 0 0 1 1.5-1.5h4a1.5 1.5 0 0 1 1.5 1.5"/></svg>