<svg xmlns="http://www.w3.org/2000/svg" width="20" height="20" fill="currentColor"><path fill="url(#i2041db-a)" d="M19.066 13.848 13.619 4.41c.635 1.467.902 3.034.822 4.576l-.942-.07s.624.194.762.492c.43.91-.993 3.914-1.485 4.651-.797 1.196-2.34 2.738-2.744 2.738-.126 0-.18-.044-.18-.044-1.464.906-3.193 1.792-4.97 1.901h11.409c2.466 0 4.008-2.67 2.775-4.807Z"/><path fill="url(#i2041db-b)" fill-opacity=".5" d="M19.066 13.848 13.619 4.41c.635 1.467.902 3.034.822 4.576l-.942-.07s.624.194.762.492c.43.91-.993 3.914-1.485 4.651-.797 1.196-2.34 2.738-2.744 2.738-.126 0-.18-.044-.18-.044-1.464.906-3.193 1.792-4.97 1.901h11.409c2.466 0 4.008-2.67 2.775-4.807Z"/><path fill="url(#i2041db-c)" fill-opacity=".2" d="M19.066 13.848 13.619 4.41c.635 1.467.902 3.034.822 4.576l-.942-.07s.624.194.762.492c.43.91-.993 3.914-1.485 4.651-.797 1.196-2.34 2.738-2.744 2.738-.126 0-.18-.044-.18-.044-1.464.906-3.193 1.792-4.97 1.901h11.409c2.466 0 4.008-2.67 2.775-4.807Z"/><path fill="url(#i2041db-d)" d="M18.267 12.546q.167.23.32.469L12.775 2.947C11.542.81 8.458.81 7.225 2.947l-5.713 9.897c.877-1.309 2.798-2.294 4.189-2.98 0 0-.049-.291.065-.492.114-.202.27-.257.42-.318 4.25-1.712 9.275-.388 12.08 3.492Z"/><path fill="url(#i2041db-e)" fill-opacity=".36" d="M18.267 12.546q.167.23.32.469L12.775 2.947C11.542.81 8.458.81 7.225 2.947l-5.713 9.897c.877-1.309 2.798-2.294 4.189-2.98 0 0-.049-.291.065-.492.114-.202.27-.257.42-.318 4.25-1.712 9.275-.388 12.08 3.492Z"/><path fill="url(#i2041db-f)" d="M15.17 18.654H3.71c-2.468 0-4.01-2.671-2.776-4.808l5.807-10.06a10.21 10.21 0 0 0 .806 10.661 10.19 10.19 0 0 0 7.623 4.207"/><path fill="url(#i2041db-g)" fill-opacity=".25" d="M15.17 18.654H3.71c-2.468 0-4.01-2.671-2.776-4.808l5.807-10.06a10.21 10.21 0 0 0 .806 10.661 10.19 10.19 0 0 0 7.623 4.207"/><path fill="url(#i2041db-h)" d="M15.17 18.654H3.71c-2.468 0-4.01-2.671-2.776-4.808l5.807-10.06a10.21 10.21 0 0 0 .806 10.661 10.19 10.19 0 0 0 7.623 4.207"/><defs><radialGradient id="i2041db-b" cx="0" cy="0" r="1" gradientTransform="matrix(.18007 4.05168 -3.73716 .1661 15.374 9.26)" gradientUnits="userSpaceOnUse"><stop stop-color="#041642"/><stop offset="1" stop-color="#041642" stop-opacity="0"/></radialGradient><radialGradient id="i2041db-c" cx="0" cy="0" r="1" gradientTransform="rotate(-23.666 47.708 -16.316)scale(7.76345 8.83315)" gradientUnits="userSpaceOnUse"><stop/><stop offset="1" stop-opacity="0"/></radialGradient><radialGradient id="i2041db-d" cx="0" cy="0" r="1" gradientTransform="matrix(-3.88492 6.7766 -11.13446 -6.38322 11.11 1.01)" gradientUnits="userSpaceOnUse"><stop stop-color="#51DEFF"/><stop offset=".349" stop-color="#1ABAFD"/><stop offset="1" stop-color="#247FE0"/></radialGradient><radialGradient id="i2041db-e" cx="0" cy="0" r="1" gradientTransform="matrix(9.41103 -7.68883 5.03177 6.15883 -1.43 14.228)" gradientUnits="userSpaceOnUse"><stop offset=".475"/><stop offset="1" stop-opacity="0"/></radialGradient><radialGradient id="i2041db-g" cx="0" cy="0" r="1" gradientTransform="matrix(-.50535 3.28371 -4.81544 -.74108 5.657 8.695)" gradientUnits="userSpaceOnUse"><stop offset=".177" stop-color="#CCF9FF"/><stop offset="1" stop-color="#4FE3FF" stop-opacity=".12"/></radialGradient><linearGradient id="i2041db-a" x1="17.535" x2="17.893" y1="5.388" y2="16.081" gradientUnits="userSpaceOnUse"><stop stop-color="#033E9A"/><stop offset="1" stop-color="#0055C6"/></linearGradient><linearGradient id="i2041db-f" x1="4.803" x2="9.628" y1="6.551" y2="19.304" gradientUnits="userSpaceOnUse"><stop stop-color="#59E7FD"/><stop offset=".587" stop-color="#23D4F9"/><stop offset="1" stop-color="#32BBF2"/></linearGradient><linearGradient id="i2041db-h" x1="8.234" x2="6.085" y1="18.026" y2="12.917" gradientUnits="userSpaceOnUse"><stop stop-color="#08B0F8"/><stop offset="1" stop-color="#52E5FF" stop-opacity="0"/></linearGradient></defs></svg>