<svg xmlns="http://www.w3.org/2000/svg" width="20" height="20" fill="currentColor"><g clip-path="url(#i5d6ad7-i8aca2d-a)"><mask id="i5d6ad7-i8aca2d-b" width="20" height="20" x="0" y="0" maskUnits="userSpaceOnUse" style="mask-type:luminance"><path fill="#fff" d="M20 0H0v20h20z"/></mask><g mask="url(#i5d6ad7-i8aca2d-b)"><path fill="url(#i5d6ad7-i8aca2d-c)" d="M5 5.5A2.5 2.5 0 0 1 7.5 3h8A2.5 2.5 0 0 1 18 5.5V14a5 5 0 0 1-5 5H7.5A2.5 2.5 0 0 1 5 16.5z"/><path fill="url(#i5d6ad7-i8aca2d-d)" fill-opacity=".2" d="M5 5.5A2.5 2.5 0 0 1 7.5 3h8A2.5 2.5 0 0 1 18 5.5V14a5 5 0 0 1-5 5H7.5A2.5 2.5 0 0 1 5 16.5z"/><path fill="url(#i5d6ad7-i8aca2d-e)" d="M15.5 3A2.5 2.5 0 0 1 18 5.5V14a5 5 0 0 1-5 5h-.63v-1H13a4 4 0 0 0 4-4V5.5A1.5 1.5 0 0 0 15.5 4h-8A1.5 1.5 0 0 0 6 5.5v11A1.5 1.5 0 0 0 7.5 18h1.12v1H7.5A2.5 2.5 0 0 1 5 16.5v-11A2.5 2.5 0 0 1 7.5 3z"/><path fill="url(#i5d6ad7-i8aca2d-f)" d="M2 3.5A2.5 2.5 0 0 1 4.5 1h9A2.5 2.5 0 0 1 16 3.5v11a2.5 2.5 0 0 1-2.5 2.5h-9A2.5 2.5 0 0 1 2 14.5z"/><path fill="url(#i5d6ad7-i8aca2d-g)" fill-opacity=".2" d="M2 3.5A2.5 2.5 0 0 1 4.5 1h9A2.5 2.5 0 0 1 16 3.5v11a2.5 2.5 0 0 1-2.5 2.5h-9A2.5 2.5 0 0 1 2 14.5z"/><path fill="url(#i5d6ad7-i8aca2d-h)" fill-rule="evenodd" d="M13.5 2h-9A1.5 1.5 0 0 0 3 3.5v11A1.5 1.5 0 0 0 4.5 16h9a1.5 1.5 0 0 0 1.5-1.5v-11A1.5 1.5 0 0 0 13.5 2m-9-1A2.5 2.5 0 0 0 2 3.5v11A2.5 2.5 0 0 0 4.5 17h9a2.5 2.5 0 0 0 2.5-2.5v-11A2.5 2.5 0 0 0 13.5 1z" clip-rule="evenodd"/><path fill="url(#i5d6ad7-i8aca2d-i)" fill-rule="evenodd" d="M4.526 13.25v-8.5a.75.75 0 0 1 1.5 0v8.5a.75.75 0 0 1-1.5 0" clip-rule="evenodd"/><path fill="url(#i5d6ad7-i8aca2d-j)" fill-rule="evenodd" d="M8.276 13.25v-5.5a.75.75 0 1 1 1.5 0v5.5a.75.75 0 0 1-1.5 0" clip-rule="evenodd"/><path fill="url(#i5d6ad7-i8aca2d-k)" fill-rule="evenodd" d="M12.776 10a.75.75 0 0 1 .75.75v2.5a.75.75 0 0 1-1.5 0v-2.5a.75.75 0 0 1 .75-.75" clip-rule="evenodd"/><path fill="#F5F5F5" fill-rule="evenodd" d="M9.813 13c.588 0 1.128.206 1.555.547A1.5 1.5 0 0 1 12.526 13h1.25a2.5 2.5 0 0 1 1.58.565 1.5 1.5 0 0 1 1.17-.565l.155.008a1.5 1.5 0 0 1 1.345 1.492V17h.501a1.5 1.5 0 0 1 0 3h-2c-.475 0-.897-.22-1.172-.564-.368.3-.823.5-1.323.551l-.256.013h-1.25c-.289 0-.558-.083-.787-.225a1.5 1.5 0 0 1-.782.225h-.002a1.58 1.58 0 0 1-1.233-.599A1.5 1.5 0 0 1 8.527 20a1.5 1.5 0 0 1-1.502-1.5v-4A1.5 1.5 0 0 1 8.526 13z" clip-rule="evenodd"/><path fill="url(#i5d6ad7-i8aca2d-l)" d="M9.813 14a1.497 1.497 0 0 1 .879 2.713c.142.204.245.42.318.604.105.269.185.562.235.717l.028.083a.498.498 0 0 1-.318.883.58.58 0 0 1-.389-.153.7.7 0 0 1-.147-.194 2 2 0 0 1-.126-.312c-.07-.22-.124-.427-.215-.658-.162-.414-.34-.627-.585-.673l-.11-.01h-.357v1.5a.5.5 0 0 1-1 0v-4a.5.5 0 0 1 .5-.5zm3.963 0a1.5 1.5 0 0 1 1.5 1.5v2a1.5 1.5 0 0 1-1.5 1.5h-1.25a.5.5 0 0 1-.5-.5v-4a.5.5 0 0 1 .5-.5zm2.75 0a.5.5 0 0 1 .5.5V18h1.5a.5.5 0 0 1 0 1h-2a.5.5 0 0 1-.5-.5v-4a.5.5 0 0 1 .5-.5m-3.5 4h.75a.5.5 0 0 0 .5-.5v-2a.5.5 0 0 0-.5-.5h-.75zm-4-2h.787a.5.5 0 0 0 0-1h-.787z"/></g></g><defs><linearGradient id="i5d6ad7-i8aca2d-c" x1="8.611" x2="11.082" y1="3" y2="19.064" gradientUnits="userSpaceOnUse"><stop stop-color="#fff"/><stop offset="1" stop-color="#EBEBEB"/></linearGradient><linearGradient id="i5d6ad7-i8aca2d-e" x1="9.198" x2="11.826" y1="3" y2="19.013" gradientUnits="userSpaceOnUse"><stop stop-color="#BBB"/><stop offset="1" stop-color="#888"/></linearGradient><linearGradient id="i5d6ad7-i8aca2d-f" x1="5.889" x2="8.191" y1="1" y2="17.116" gradientUnits="userSpaceOnUse"><stop stop-color="#fff"/><stop offset="1" stop-color="#EBEBEB"/></linearGradient><linearGradient id="i5d6ad7-i8aca2d-h" x1="6.521" x2="8.97" y1="1" y2="17.071" gradientUnits="userSpaceOnUse"><stop stop-color="#BBB"/><stop offset="1" stop-color="#888"/></linearGradient><linearGradient id="i5d6ad7-i8aca2d-i" x1="4.526" x2="14.471" y1="4" y2="12.95" gradientUnits="userSpaceOnUse"><stop stop-color="#C28400"/><stop offset="1" stop-color="#A86500"/></linearGradient><linearGradient id="i5d6ad7-i8aca2d-j" x1="4.526" x2="14.471" y1="4" y2="12.95" gradientUnits="userSpaceOnUse"><stop stop-color="#C28400"/><stop offset="1" stop-color="#A86500"/></linearGradient><linearGradient id="i5d6ad7-i8aca2d-k" x1="4.526" x2="14.471" y1="4" y2="12.95" gradientUnits="userSpaceOnUse"><stop stop-color="#C28400"/><stop offset="1" stop-color="#A86500"/></linearGradient><linearGradient id="i5d6ad7-i8aca2d-l" x1="8.025" x2="11.792" y1="14" y2="22.288" gradientUnits="userSpaceOnUse"><stop stop-color="#C28400"/><stop offset="1" stop-color="#A86500"/></linearGradient><radialGradient id="i5d6ad7-i8aca2d-d" cx="0" cy="0" r="1" gradientTransform="matrix(6.86111 12.6667 -10.2917 4.75 9.153 7.167)" gradientUnits="userSpaceOnUse"><stop offset=".177" stop-color="#fff"/><stop offset="1" stop-color="#B8B8B8"/></radialGradient><radialGradient id="i5d6ad7-i8aca2d-g" cx="0" cy="0" r="1" gradientTransform="matrix(7.38889 12.6667 -11.0833 4.75 6.472 5.167)" gradientUnits="userSpaceOnUse"><stop offset=".177" stop-color="#fff"/><stop offset="1" stop-color="#B8B8B8"/></radialGradient><clipPath id="i5d6ad7-i8aca2d-a"><path fill="#fff" d="M0 0h20v20H0z"/></clipPath></defs></svg>