<svg xmlns="http://www.w3.org/2000/svg" width="20" height="20" fill="none"><path fill="url(#i351dbc-paint0_linear_54787_1114)" d="M9.752 12.122 8.5 16.737a1 1 0 0 0 1.7.944l7.444-8.447a1.33 1.33 0 0 1-.984.436h-3.692a3.33 3.33 0 0 0-3.216 2.456"/><path fill="url(#i351dbc-paint1_linear_54787_1114)" d="M17.996 8.334c0-.735-.596-1.331-1.332-1.331H6.432l-3.1 3.331a1.331 1.331 0 1 0 0 2.663h8.044a1.331 1.331 0 0 1 .992 2.22l4.84-5.49.432-.489h-.004c.224-.24.364-.556.364-.908z"/><path fill="url(#i351dbc-paint2_radial_54787_1114)" d="M17.996 8.334c0-.735-.596-1.331-1.332-1.331H6.432l-3.1 3.331a1.331 1.331 0 1 0 0 2.663h8.044a1.331 1.331 0 0 1 .992 2.22l4.84-5.49.432-.489h-.004c.224-.24.364-.556.364-.908z"/><path fill="url(#i351dbc-paint3_linear_54787_1114)" d="m10.236 7.879 1.252-4.615a1 1 0 0 0-1.7-.944l-7.444 8.446a1.33 1.33 0 0 1 .984-.436H7.02a3.33 3.33 0 0 0 3.216-2.455"/><path fill="url(#i351dbc-paint4_linear_54787_1114)" d="M9.752 12.122 8.5 16.737a1 1 0 0 0 1.7.944l7.444-8.447a1.33 1.33 0 0 1-.984.436h-3.692a3.33 3.33 0 0 0-3.216 2.456"/><path fill="url(#i351dbc-paint5_linear_54787_1114)" d="M17.996 8.334c0-.735-.596-1.331-1.332-1.331H6.432l-3.1 3.331a1.331 1.331 0 1 0 0 2.663h8.044a1.331 1.331 0 0 1 .992 2.22l4.84-5.49.432-.489h-.004c.224-.24.364-.556.364-.908z"/><path fill="url(#i351dbc-paint6_radial_54787_1114)" d="M17.996 8.334c0-.735-.596-1.331-1.332-1.331H6.432l-3.1 3.331a1.331 1.331 0 1 0 0 2.663h8.044a1.331 1.331 0 0 1 .992 2.22l4.84-5.49.432-.489h-.004c.224-.24.364-.556.364-.908z"/><path fill="url(#i351dbc-paint7_linear_54787_1114)" d="m10.236 7.879 1.252-4.615a1 1 0 0 0-1.7-.944l-7.444 8.446a1.33 1.33 0 0 1 .984-.436H7.02a3.33 3.33 0 0 0 3.216-2.455"/><defs><linearGradient id="i351dbc-paint0_linear_54787_1114" x1="9.028" x2="14.934" y1="18.664" y2="8.433" gradientUnits="userSpaceOnUse"><stop offset=".227" stop-color="#CA2134"/><stop offset=".497" stop-color="#670938"/></linearGradient><linearGradient id="i351dbc-paint1_linear_54787_1114" x1="2.8" x2="16.4" y1="6.4" y2="14.8" gradientUnits="userSpaceOnUse"><stop offset=".132" stop-color="#CA2134"/><stop offset=".555" stop-color="#E82C41"/><stop offset=".679" stop-color="#F83F54"/><stop offset=".924" stop-color="#FF921F"/></linearGradient><radialGradient id="i351dbc-paint2_radial_54787_1114" cx="0" cy="0" r="1" gradientTransform="matrix(1.6 4 -6.43585 2.57434 5.8 8.6)" gradientUnits="userSpaceOnUse"><stop offset=".14" stop-color="#4A0829"/><stop offset=".958" stop-color="#670938" stop-opacity="0"/></radialGradient><linearGradient id="i351dbc-paint3_linear_54787_1114" x1="10" x2="5.301" y1="9.2" y2="5.654" gradientUnits="userSpaceOnUse"><stop offset=".086" stop-color="#FF835C"/><stop offset=".746" stop-color="#F83F54"/></linearGradient><linearGradient id="i351dbc-paint4_linear_54787_1114" x1="9.028" x2="14.934" y1="18.664" y2="8.433" gradientUnits="userSpaceOnUse"><stop offset=".227" stop-color="#CA2134"/><stop offset=".497" stop-color="#670938"/></linearGradient><linearGradient id="i351dbc-paint5_linear_54787_1114" x1="2.8" x2="16.4" y1="6.4" y2="14.8" gradientUnits="userSpaceOnUse"><stop offset=".132" stop-color="#CA2134"/><stop offset=".555" stop-color="#E82C41"/><stop offset=".647" stop-color="#F83F54"/><stop offset=".897" stop-color="#FFA43D"/></linearGradient><radialGradient id="i351dbc-paint6_radial_54787_1114" cx="0" cy="0" r="1" gradientTransform="matrix(1.6 4 -6.43585 2.57434 5.8 8.6)" gradientUnits="userSpaceOnUse"><stop offset=".14" stop-color="#4A0829"/><stop offset=".958" stop-color="#670938" stop-opacity="0"/></radialGradient><linearGradient id="i351dbc-paint7_linear_54787_1114" x1="10" x2="5.301" y1="9.2" y2="5.654" gradientUnits="userSpaceOnUse"><stop stop-color="#FF9C70"/><stop offset=".285" stop-color="#FF835C"/><stop offset=".8" stop-color="#F83F54"/></linearGradient></defs></svg>