<svg xmlns="http://www.w3.org/2000/svg" width="20" height="20" fill="currentColor"><g clip-path="url(#i01ba61-a)"><mask id="i01ba61-b" width="20" height="20" x="0" y="0" maskUnits="userSpaceOnUse" style="mask-type:luminance"><path fill="#fff" d="M20 0H0v20h20z"/></mask><g mask="url(#i01ba61-b)"><path fill="url(#i01ba61-c)" d="M2 4.5A2.5 2.5 0 0 1 4.5 2h11A2.5 2.5 0 0 1 18 4.5v11a2.5 2.5 0 0 1-2.5 2.5h-11A2.5 2.5 0 0 1 2 15.5z"/><path fill="url(#i01ba61-d)" fill-opacity=".2" d="M2 4.5A2.5 2.5 0 0 1 4.5 2h11A2.5 2.5 0 0 1 18 4.5v11a2.5 2.5 0 0 1-2.5 2.5h-11A2.5 2.5 0 0 1 2 15.5z"/><path fill="url(#i01ba61-e)" fill-rule="evenodd" d="M15.5 3h-11A1.5 1.5 0 0 0 3 4.5v11A1.5 1.5 0 0 0 4.5 17h11a1.5 1.5 0 0 0 1.5-1.5v-11A1.5 1.5 0 0 0 15.5 3m-11-1A2.5 2.5 0 0 0 2 4.5v11A2.5 2.5 0 0 0 4.5 18h11a2.5 2.5 0 0 0 2.5-2.5v-11A2.5 2.5 0 0 0 15.5 2z" clip-rule="evenodd"/><path fill="url(#i01ba61-f)" d="M10 15a5 5 0 1 0 0-10 5 5 0 0 0 0 10"/><path fill="#F5BCD8" fill-rule="evenodd" d="M10 7.5a2.5 2.5 0 0 0-2.064 3.91.5.5 0 1 1-.825.566A3.5 3.5 0 0 1 10 6.5a.5.5 0 0 1-.001 1Z" clip-rule="evenodd"/><path fill="#F5BCD8" d="M13.064 6.864a.375.375 0 0 0-.476-.008l-.133.105a221 221 0 0 0-1.432 1.149 93 93 0 0 0-1.136.93c-.163.137-.307.26-.42.36a3 3 0 0 0-.257.245 1.125 1.125 0 0 0 1.711 1.462c.054-.064.128-.175.203-.293.08-.127.179-.289.288-.471.22-.366.485-.822.742-1.267a229 229 0 0 0 .91-1.595l.083-.147a.375.375 0 0 0-.083-.47"/><path fill="#F5F5F5" d="M19.56 11.44c-.28-.28-.66-.44-1.06-.44h-5c-.19 0-.38.04-.55.11l-.14.07-.13.08c-.15.1-.28.23-.44.46l-.04.07-.08.14c-.03.07-.05.13-.07.2l-.03.12v.06c-.03.16-.02.32 0 .49.06.29.2.56.41.76l.1.1c-.15.07-.28.16-.4.28l-.71.71a1.5 1.5 0 0 0 0 2.12c.12.12.27.22.42.29l-.42.42a1.499 1.499 0 1 0 2.12 2.12l.42-.42c.07.15.17.3.29.42a1.5 1.5 0 0 0 2.12 0l.71-.71c.12-.12.2-.26.27-.41l.08.08c.21.21.48.36.76.41l.2.03h.1c.2 0 .39-.04.59-.12.11-.05.2-.1.25-.14l.13-.1.06-.06.15-.17.05-.08c.17-.25.26-.54.26-.84V12.5c0-.4-.16-.78-.44-1.06z"/><path fill="url(#i01ba61-g)" d="M13.504 12h5a.5.5 0 0 1 .5.5v5a.5.5 0 0 1-.084.278l-.016.022a.5.5 0 0 1-.208.162.5.5 0 0 1-.545-.108l-5-5a.5.5 0 0 1-.077-.609l.01-.015.014-.022a.5.5 0 0 1 .406-.208"/><path fill="url(#i01ba61-h)" d="M13.56 14.653a.5.5 0 0 1 0 .707l-.707.707a.5.5 0 0 1-.707-.707l.707-.707a.5.5 0 0 1 .708 0Z"/><path fill="url(#i01ba61-i)" d="M16.39 17.482a.5.5 0 0 1 0 .707l-.708.707a.5.5 0 1 1-.707-.707l.707-.707a.5.5 0 0 1 .707 0Z"/><path fill="url(#i01ba61-j)" d="M14.975 16.068a.5.5 0 0 1 0 .707l-2.121 2.121a.5.5 0 1 1-.707-.707l2.12-2.121a.5.5 0 0 1 .708 0"/></g></g><defs><linearGradient id="i01ba61-c" x1="6.444" x2="8.468" y1="2" y2="18.192" gradientUnits="userSpaceOnUse"><stop stop-color="#fff"/><stop offset="1" stop-color="#EBEBEB"/></linearGradient><linearGradient id="i01ba61-e" x1="7.167" x2="9.321" y1="2" y2="18.157" gradientUnits="userSpaceOnUse"><stop stop-color="#BBB"/><stop offset="1" stop-color="#888"/></linearGradient><linearGradient id="i01ba61-f" x1="5" x2="15" y1="5" y2="15" gradientUnits="userSpaceOnUse"><stop stop-color="#E03F8F"/><stop offset="1" stop-color="#BD1E7B"/></linearGradient><linearGradient id="i01ba61-g" x1="12" x2="19.042" y1="12" y2="19.004" gradientUnits="userSpaceOnUse"><stop stop-color="#E03F8F"/><stop offset="1" stop-color="#BD1E7B"/></linearGradient><linearGradient id="i01ba61-h" x1="12" x2="19.042" y1="12" y2="19.004" gradientUnits="userSpaceOnUse"><stop stop-color="#E03F8F"/><stop offset="1" stop-color="#BD1E7B"/></linearGradient><linearGradient id="i01ba61-i" x1="12" x2="19.042" y1="12" y2="19.004" gradientUnits="userSpaceOnUse"><stop stop-color="#E03F8F"/><stop offset="1" stop-color="#BD1E7B"/></linearGradient><linearGradient id="i01ba61-j" x1="12" x2="19.042" y1="12" y2="19.004" gradientUnits="userSpaceOnUse"><stop stop-color="#E03F8F"/><stop offset="1" stop-color="#BD1E7B"/></linearGradient><radialGradient id="i01ba61-d" cx="0" cy="0" r="1" gradientTransform="rotate(56.31 -2.206 9.727)scale(15.2234 13.1741)" gradientUnits="userSpaceOnUse"><stop offset=".177" stop-color="#fff"/><stop offset="1" stop-color="#B8B8B8"/></radialGradient><clipPath id="i01ba61-a"><path fill="#fff" d="M0 0h20v20H0z"/></clipPath></defs></svg>