<svg xmlns="http://www.w3.org/2000/svg" width="20" height="20" fill="currentColor"><path d="M3.02 5a2 2 0 0 1 2-2h7a2 2 0 0 1 2 2v7h3v2a3 3 0 0 1-3 3h-5v-4.5a1.5 1.5 0 0 0-1.5-1.5h-4.5zm11 11a2 2 0 0 0 2-2v-1h-2zM6.52 6a.5.5 0 0 0 0 1h4a.5.5 0 0 0 0-1zm0 3a.5.5 0 0 0 0 1h4a.5.5 0 0 0 0-1z"/><path d="M2.504 12.004h5a.5.5 0 0 1 .5.5v5a.5.5 0 0 1-.853.354l-5-5a.5.5 0 0 1 .353-.854m.056 2.653a.5.5 0 0 1 0 .707l-.706.707a.5.5 0 1 1-.708-.707l.708-.707a.5.5 0 0 1 .707 0Zm2.83 2.829a.5.5 0 0 1 0 .707l-.708.707a.5.5 0 1 1-.707-.707l.707-.707a.5.5 0 0 1 .707 0Zm-1.415-1.414a.5.5 0 0 1 0 .707l-2.121 2.12a.5.5 0 1 1-.708-.706l2.122-2.122a.5.5 0 0 1 .707 0Z"/></svg>