<svg xmlns="http://www.w3.org/2000/svg" width="20" height="20" fill="currentColor"><path d="M8.664 8.256a3 3 0 0 1-.164-.228l-.001.001a4.7 4.7 0 0 1-.649.761 7 7 0 0 1-.619.527 4 4 0 0 1-.271.187 6 6 0 0 1 .882.709q.27.255.5.55.082.104.155.215.084-.123.179-.24a6 6 0 0 1 .46-.506 5.4 5.4 0 0 1 .912-.732 4.7 4.7 0 0 1-.916-.733Q8.877 8.503 8.7 8.3l-.019-.022z"/><path d="M5 3a2 2 0 0 0-2 2v9a3 3 0 0 0 3 3h8a3 3 0 0 0 3-3v-2h-3V5a2 2 0 0 0-2-2zm11 11a2 2 0 0 1-2 2v-3h2zM8.148 6.148A.5.5 0 0 1 8.5 6a.505.505 0 0 1 .5.5c.003.21.047.417.132.609q.127.286.32.532.165.188.4.429.24.248.523.446.275.195.578.343c.17.088.356.136.547.141a.5.5 0 0 1 0 1 1.3 1.3 0 0 0-.555.143 4 4 0 0 0-.578.351 4.4 4.4 0 0 0-.523.446 5 5 0 0 0-.391.429q-.198.244-.328.531a1.5 1.5 0 0 0-.125.6.5.5 0 0 1-1 0 1.55 1.55 0 0 0-.132-.602 2.5 2.5 0 0 0-.32-.531 5.2 5.2 0 0 0-.923-.883 3.3 3.3 0 0 0-.57-.343A1.3 1.3 0 0 0 5.5 10a.5.5 0 1 1 0-1c.193-.01.381-.06.555-.143a3 3 0 0 0 .578-.343q.276-.206.523-.446.212-.2.391-.429a2.6 2.6 0 0 0 .328-.539c.083-.189.126-.393.125-.6a.5.5 0 0 1 .148-.352"/></svg>