<svg xmlns="http://www.w3.org/2000/svg" width="21" height="20" fill="currentColor"><g clip-path="url(#idd9334-a)"><mask id="idd9334-b" width="21" height="20" x="0" y="0" maskUnits="userSpaceOnUse" style="mask-type:luminance"><path fill="#fff" d="M20.5 0H.5v20h20z"/></mask><g mask="url(#idd9334-b)"><path fill="url(#idd9334-c)" d="M2.5 4.5A2.5 2.5 0 0 1 5 2h11a2.5 2.5 0 0 1 2.5 2.5v11A2.5 2.5 0 0 1 16 18H5a2.5 2.5 0 0 1-2.5-2.5z"/><path fill="url(#idd9334-d)" fill-opacity=".2" d="M2.5 4.5A2.5 2.5 0 0 1 5 2h11a2.5 2.5 0 0 1 2.5 2.5v11A2.5 2.5 0 0 1 16 18H5a2.5 2.5 0 0 1-2.5-2.5z"/><path fill="url(#idd9334-e)" fill-rule="evenodd" d="M16 3H5a1.5 1.5 0 0 0-1.5 1.5v11A1.5 1.5 0 0 0 5 17h11a1.5 1.5 0 0 0 1.5-1.5v-11A1.5 1.5 0 0 0 16 3M5 2a2.5 2.5 0 0 0-2.5 2.5v11A2.5 2.5 0 0 0 5 18h11a2.5 2.5 0 0 0 2.5-2.5v-11A2.5 2.5 0 0 0 16 2z" clip-rule="evenodd"/><path fill="url(#idd9334-f)" fill-rule="evenodd" d="M8.559 5c-.565 0-1.027.443-1.057 1h-.645C6.107 6 5.5 6.608 5.5 7.357A2.643 2.643 0 0 0 8.143 10h.12a3 3 0 0 0 1.737.959V12.5h-.9a1.6 1.6 0 0 0-1.6 1.6c0 .22.18.4.4.4h5.2a.4.4 0 0 0 .4-.4 1.6 1.6 0 0 0-1.6-1.6H11v-1.541A3 3 0 0 0 12.736 10h.121A2.643 2.643 0 0 0 15.5 7.357c0-.75-.608-1.357-1.357-1.357h-.645c-.03-.557-.492-1-1.057-1H8.56ZM13.5 7v1a3 3 0 0 1-.145.923A1.64 1.64 0 0 0 14.5 7.357.357.357 0 0 0 14.143 7zM7.645 8.923A3 3 0 0 1 7.5 8V7h-.643a.357.357 0 0 0-.357.357c0 .734.48 1.355 1.145 1.566" clip-rule="evenodd"/><path fill="#F5F5F5" d="M20.5 15a5 5 0 1 0-10 0 5 5 0 0 0 10 0"/><path fill="url(#idd9334-g)" fill-rule="evenodd" d="M17.965 13.29a3 3 0 0 1-4.176 4.176zm-.7-.716-4.19 4.191a3 3 0 0 1 4.191-4.191ZM15.5 11a4 4 0 1 1 0 8 4 4 0 0 1 0-8" clip-rule="evenodd"/></g></g><defs><linearGradient id="idd9334-c" x1="6.944" x2="8.968" y1="2" y2="18.192" gradientUnits="userSpaceOnUse"><stop stop-color="#fff"/><stop offset="1" stop-color="#EBEBEB"/></linearGradient><linearGradient id="idd9334-e" x1="7.667" x2="9.821" y1="2" y2="18.157" gradientUnits="userSpaceOnUse"><stop stop-color="#BBB"/><stop offset="1" stop-color="#888"/></linearGradient><linearGradient id="idd9334-f" x1="5.5" x2="14.988" y1="5" y2="14.987" gradientUnits="userSpaceOnUse"><stop stop-color="#C28400"/><stop offset="1" stop-color="#A86500"/></linearGradient><linearGradient id="idd9334-g" x1="11.5" x2="19.5" y1="11" y2="19" gradientUnits="userSpaceOnUse"><stop stop-color="#C28400"/><stop offset="1" stop-color="#A86500"/></linearGradient><radialGradient id="idd9334-d" cx="0" cy="0" r="1" gradientTransform="rotate(56.31 -1.956 10.194)scale(15.2234 13.1741)" gradientUnits="userSpaceOnUse"><stop offset=".177" stop-color="#fff"/><stop offset="1" stop-color="#B8B8B8"/></radialGradient><clipPath id="idd9334-a"><path fill="#fff" d="M.5 0h20v20H.5z"/></clipPath></defs></svg>