<svg xmlns="http://www.w3.org/2000/svg" width="20" height="20" fill="none"><path fill="url(#idc41e9-i504f9a-paint0_linear_64423_1018)" d="M2 4.5A2.5 2.5 0 0 1 4.5 2h11A2.5 2.5 0 0 1 18 4.5v11a2.5 2.5 0 0 1-2.5 2.5h-11A2.5 2.5 0 0 1 2 15.5z"/><path fill="url(#idc41e9-i504f9a-paint1_radial_64423_1018)" fill-opacity=".2" d="M2 4.5A2.5 2.5 0 0 1 4.5 2h11A2.5 2.5 0 0 1 18 4.5v11a2.5 2.5 0 0 1-2.5 2.5h-11A2.5 2.5 0 0 1 2 15.5z"/><path fill="url(#idc41e9-i504f9a-paint2_linear_64423_1018)" fill-rule="evenodd" d="M15.5 3h-11A1.5 1.5 0 0 0 3 4.5v11A1.5 1.5 0 0 0 4.5 17h11a1.5 1.5 0 0 0 1.5-1.5v-11A1.5 1.5 0 0 0 15.5 3m-11-1A2.5 2.5 0 0 0 2 4.5v11A2.5 2.5 0 0 0 4.5 18h11a2.5 2.5 0 0 0 2.5-2.5v-11A2.5 2.5 0 0 0 15.5 2z" clip-rule="evenodd"/><path fill="url(#idc41e9-i504f9a-paint3_linear_64423_1018)" d="M14 5a2 2 0 1 1-1.9 2.625h-1.006a.5.5 0 0 0-.5.5v4a.5.5 0 0 0 .5.5h.943A1.999 1.999 0 1 1 14 15a2 2 0 0 1-1.9-1.375h-1.006a1.5 1.5 0 0 1-1.5-1.5v-1.562H7.918a2 2 0 1 1 .032-1h1.644V8.124a1.5 1.5 0 0 1 1.5-1.5h.943A2 2 0 0 1 14 5"/><defs><linearGradient id="idc41e9-i504f9a-paint0_linear_64423_1018" x1="6.444" x2="8.468" y1="2" y2="18.192" gradientUnits="userSpaceOnUse"><stop stop-color="#fff"/><stop offset="1" stop-color="#EBEBEB"/></linearGradient><radialGradient id="idc41e9-i504f9a-paint1_radial_64423_1018" cx="0" cy="0" r="1" gradientTransform="matrix(8.44444 12.6667 -12.6667 4.75 7.111 6.167)" gradientUnits="userSpaceOnUse"><stop offset=".177" stop-color="#fff"/><stop offset="1" stop-color="#B8B8B8"/></radialGradient><linearGradient id="idc41e9-i504f9a-paint2_linear_64423_1018" x1="7.167" x2="9.321" y1="2" y2="18.157" gradientUnits="userSpaceOnUse"><stop stop-color="#BBB"/><stop offset="1" stop-color="#888"/></linearGradient><linearGradient id="idc41e9-i504f9a-paint3_linear_64423_1018" x1="4" x2="13.836" y1="5" y2="16.803" gradientUnits="userSpaceOnUse"><stop stop-color="#E03F8F"/><stop offset="1" stop-color="#BD1E7B"/></linearGradient></defs></svg>