<svg xmlns="http://www.w3.org/2000/svg" width="20" height="20" fill="currentColor"><path d="M2 6.5A2.5 2.5 0 0 1 4.5 4h11A2.5 2.5 0 0 1 18 6.5V11H8a2 2 0 0 0-1.732 1H5.5a.5.5 0 0 0 0 1H6v3H4.5A2.5 2.5 0 0 1 2 13.5zm3.5.5a.5.5 0 0 0 0 1h4a.5.5 0 0 0 0-1zM5 10a.5.5 0 0 0 .5.5h7a.5.5 0 0 0 0-1h-7a.5.5 0 0 0-.5.5"/><path d="M13 12H8a1 1 0 0 0-1 1v5a1 1 0 0 0 1 1h5zm-1.396 2.296a.5.5 0 0 1 0 .708l-1.75 1.75a.5.5 0 0 1-.691.015l-.75-.685a.5.5 0 0 1 .674-.738l.397.363 1.412-1.412a.5.5 0 0 1 .708 0ZM14 19h5a1 1 0 0 0 1-1v-5a1 1 0 0 0-1-1h-5zm3.646-4.854a.5.5 0 0 1 .708.708l-.647.646.647.646a.5.5 0 0 1-.708.708L17 16.207l-.646.647a.5.5 0 0 1-.708-.708l.647-.646-.647-.646a.5.5 0 0 1 .708-.708l.646.647z"/></svg>