<svg xmlns="http://www.w3.org/2000/svg" width="20" height="20" fill="currentColor"><path d="M6 3h8a3 3 0 0 1 3 3v4.098a1.8 1.8 0 0 0-.501-.097c-.62 0-1.184.39-1.41.987a2.6 2.6 0 0 1-.346.568c-.361.445-.648.445-.742.445s-.381 0-.742-.445a2.8 2.8 0 0 1-.354-.585c-.219-.578-.78-.967-1.479-.967h-.007a1.49 1.49 0 0 0-1.372 1.126l-.04.105a1.7 1.7 0 0 1-.206.364C9.589 11.88 9.35 12 9 12c-.827 0-1.5.673-1.5 1.5S8.173 15 9 15q.604 0 1.153-.162-.066.138-.106.292l-.04.105a1.7 1.7 0 0 1-.206.364C9.589 15.88 9.35 16 9 16c-.652 0-1.208.418-1.414 1H6a3 3 0 0 1-3-3V6a3 3 0 0 1 3-3"/><path d="M12.482 12.185c.358.44.854.815 1.518.815s1.161-.375 1.518-.815a3.6 3.6 0 0 0 .509-.85l.004-.01a.5.5 0 0 1 .953.053l.003.008.005.015.009.032a2.8 2.8 0 0 0 .398.767c.307.409.796.8 1.6.8a.5.5 0 0 1 0 1c-1.196 0-1.957-.61-2.4-1.2a4 4 0 0 1-.141-.202 5 5 0 0 1-.165.217c-.455.56-1.208 1.185-2.294 1.185s-1.839-.625-2.294-1.185a5 5 0 0 1-.165-.217q-.064.1-.141.202c-.443.59-1.204 1.2-2.4 1.2a.5.5 0 0 1 0-1c.804 0 1.293-.391 1.6-.8a2.8 2.8 0 0 0 .413-.814l.002-.01a.5.5 0 0 1 .953-.053l.004.012.021.05a3.6 3.6 0 0 0 .488.799zM14 17c-.664 0-1.16-.375-1.518-.815l-.002-.001a3.6 3.6 0 0 1-.488-.8l-.02-.046-.001-.003-.004-.012a.5.5 0 0 0-.953.054l-.002.009a3 3 0 0 1-.084.234c-.067.16-.173.37-.329.58-.307.409-.796.8-1.6.8a.5.5 0 0 0 0 1c1.196 0 1.957-.61 2.4-1.2q.077-.103.141-.202.077.106.165.217c.455.56 1.208 1.185 2.294 1.185s1.839-.625 2.294-1.185q.089-.11.165-.217.065.1.141.202c.443.59 1.204 1.2 2.4 1.2a.5.5 0 0 0 0-1c-.804 0-1.293-.391-1.6-.8a2.8 2.8 0 0 1-.407-.799l-.005-.015-.003-.008a.5.5 0 0 0-.953-.053l-.004.01-.021.05a3.6 3.6 0 0 1-.488.799c-.357.44-.854.816-1.518.816"/></svg>