<svg xmlns="http://www.w3.org/2000/svg" width="20" height="20" fill="currentColor"><path d="M18 8.5v5a4.505 4.505 0 0 1-4.5 4.5h-5a4.46 4.46 0 0 1-2.794-1h7.793a3.5 3.5 0 0 0 3.5-3.5V5.706c.643.79.996 1.776 1 2.794Z"/><path d="M13 10V8h-2v2zm-6 1v2H5v-2zm0-4H5V5h2z"/><path d="M16 4.5A2.5 2.5 0 0 0 13.5 2h-9A2.5 2.5 0 0 0 2 4.5v9A2.5 2.5 0 0 0 4.5 16h9a2.5 2.5 0 0 0 2.5-2.5zm-5.987 5.662L8 12.176V13a1 1 0 0 1-1 1H5a1 1 0 0 1-1-1v-2a1 1 0 0 1 1-1h2a1 1 0 0 1 .976.785L9.792 8.97 7.986 7.164A1 1 0 0 1 7 8H5a1 1 0 0 1-1-1V5a1 1 0 0 1 1-1h2a1 1 0 0 1 1 1v.763l2.023 2.023A1 1 0 0 1 10.999 7h2a1 1 0 0 1 1 1v2a1 1 0 0 1-1 1h-2a1 1 0 0 1-.986-.838"/></svg>