<svg xmlns="http://www.w3.org/2000/svg" width="20" height="20" fill="currentColor"><path d="M3 6a3 3 0 0 1 3-3h8a3 3 0 0 1 3 3v6.082a1.5 1.5 0 0 0-1.579.348l-1.591 1.59a1.5 1.5 0 0 0-.189.231V13.5a1.5 1.5 0 1 0-3 0v1.857A1.497 1.497 0 0 0 9.007 17H6a3 3 0 0 1-3-3zm15.5 8.793-1.646-1.647a.5.5 0 0 0-.708 0L14.5 14.793a.5.5 0 0 0 .707.707l.793-.793V18.5a.5.5 0 0 0 1 0v-3.793l.793.793a.5.5 0 0 0 .707-.707"/><path d="m13.44 16.5-.794.793V13.5a.5.5 0 1 0-1 0v3.793l-.792-.793a.5.5 0 0 0-.708.707l1.647 1.647a.5.5 0 0 0 .707 0l1.646-1.647a.5.5 0 0 0-.707-.707Z"/></svg>