<svg xmlns="http://www.w3.org/2000/svg" width="20" height="20" fill="currentColor"><path d="M16 9a3 3 0 1 1-1 5.83v.67a.5.5 0 0 1-.5.5H14v.5a.5.5 0 0 1-.5.5H13v.5a.5.5 0 0 1-.5.5h-2a.5.5 0 0 1-.5-.5v-1.086a1 1 0 0 1 .293-.707l2.836-2.836A3 3 0 0 1 16 9m.75 1.5a.75.75 0 1 0 0 1.5.75.75 0 0 0 0-1.5M9.045 16a2 2 0 0 0-.045.414V17H8a2 2 0 0 1-1.732-1zm.541-1H6a2 2 0 0 1-1.732-1h6.318z"/><path d="M12 3a2 2 0 0 1 2 2v3.536a4 4 0 0 0-1.963 4.013l-.451.451H4a2 2 0 0 1-2-2V5a2 2 0 0 1 2-2zm3 2.268A2 2 0 0 1 16 7v1q-.519.002-1 .126z"/></svg>