<svg xmlns="http://www.w3.org/2000/svg" width="20" height="20" fill="currentColor"><path d="M1.75 4A.75.75 0 0 1 1 3.25v-.5C1 1.784 1.784 1 2.75 1h14.5c.966 0 1.75.784 1.75 1.75v.5a.75.75 0 0 1-1.5 0v-.5a.25.25 0 0 0-.25-.25H2.75a.25.25 0 0 0-.25.25v.5a.75.75 0 0 1-.75.75m16.5 12a.75.75 0 0 1 .75.75v.5A1.75 1.75 0 0 1 17.25 19H2.75A1.75 1.75 0 0 1 1 17.25v-.5a.75.75 0 0 1 1.5 0v.5c0 .138.112.25.25.25h14.5a.25.25 0 0 0 .25-.25v-.5a.75.75 0 0 1 .75-.75"/><path d="M12 4a5 5 0 0 0-5 5v.5c0 .28-.227.508-.508.508h-1.96a.5.5 0 0 0 0 1h1.96A1.51 1.51 0 0 0 8 9.53V9a4 4 0 0 1 4-4h.5a.5.5 0 1 0 0-1z"/><path d="M9.038 11.91A3.5 3.5 0 0 1 6.5 13h-2a.5.5 0 0 1 0-1h2A2.5 2.5 0 0 0 9 9.5v-.094q0-.038.006-.075a3.5 3.5 0 0 1 3.494-3.3h1a.5.5 0 1 1 0 1h-1a2.5 2.5 0 0 0-2.5 2.5q0 .074-.004.146a4.5 4.5 0 0 0-.958 2.233m.066 1.557q.112.505.329.961a5 5 0 0 1-2.34.58H5.532a.5.5 0 1 1 0-1h1.563c.733 0 1.42-.197 2.01-.541Zm.947-1.312a2 2 0 0 0 1.407-2.437l-.009-.032q.37-.27.806-.436a2 2 0 0 0 2.558.026q.458.187.841.487a2 2 0 0 0 1.302 2.201 3.5 3.5 0 0 1 .026.916l-.033.009a2 2 0 0 0-1.407 2.437l.009.033a3.5 3.5 0 0 1-.806.435 2 2 0 0 0-2.557-.026 3.5 3.5 0 0 1-.842-.488 2 2 0 0 0-1.302-2.2 3.5 3.5 0 0 1-.026-.916zm4.199.367a.75.75 0 1 0-1.5 0 .75.75 0 0 0 1.5 0"/></svg>