<svg xmlns="http://www.w3.org/2000/svg" width="20" height="20" fill="currentColor"><path d="M1 3.25a.75.75 0 0 0 1.5 0v-.5a.25.25 0 0 1 .25-.25h14.5a.25.25 0 0 1 .25.25v.5a.75.75 0 0 0 1.5 0v-.5A1.75 1.75 0 0 0 17.25 1H2.75A1.75 1.75 0 0 0 1 2.75zm18 12.5a.75.75 0 0 0-1.5 0v.5a.25.25 0 0 1-.25.25H2.75a.25.25 0 0 1-.25-.25v-.5a.75.75 0 0 0-1.5 0v.5c0 .966.784 1.75 1.75 1.75h14.5A1.75 1.75 0 0 0 19 16.25z"/><path d="M13.094 10.008a5 5 0 0 1-5 5H6.53a.5.5 0 1 1 0-1h1.563a4 4 0 0 0 4-4v-.375a.5.5 0 0 1 .016-.125h-.016c0-.833.675-1.508 1.508-1.508h.96a.5.5 0 0 1 0 1h-.96a.51.51 0 0 0-.508.508h-.016a.5.5 0 0 1 .016.125zM8 9a5 5 0 0 1 5-5h.5a.5.5 0 0 1 0 1H13a4 4 0 0 0-4 4v.375a.5.5 0 0 1-.016.125H9c0 .833-.675 1.508-1.508 1.508h-1.96a.5.5 0 1 1 0-1h1.96c.28 0 .508-.228.508-.508h.016A.5.5 0 0 1 8 9.375z"/><path d="M11 9.531A3.5 3.5 0 0 1 7.5 13h-2a.5.5 0 0 1 0-1h2A2.5 2.5 0 0 0 10 9.5v-.094q0-.038.006-.075a3.5 3.5 0 0 1 3.494-3.3h1a.5.5 0 0 1 0 1h-1a2.5 2.5 0 0 0-2.5 2.5"/></svg>