<svg xmlns="http://www.w3.org/2000/svg" width="20" height="20" fill="currentColor"><path d="M13.25 3.5A5.75 5.75 0 0 0 7.5 9.25v.896a4.5 4.5 0 0 0-1.5-.89V9.25A7.25 7.25 0 0 1 13.25 2h.5a.75.75 0 0 1 0 1.5zm-3.202 13.427A7.25 7.25 0 0 0 13.5 10.75v-1a.75.75 0 0 1 .75-.75h3a.75.75 0 0 0 0-1.5h-3A2.25 2.25 0 0 0 12 9.75v1a5.75 5.75 0 0 1-3.05 5.078z"/><path d="M10.5 10.5c0 1.379-.588 2.62-1.526 3.489a4.55 4.55 0 0 0-.277-2.116C8.89 11.456 9 10.99 9 10.5v-1a4.75 4.75 0 0 1 4.75-4.75h3.5a.75.75 0 0 1 0 1.5h-3.5A3.25 3.25 0 0 0 10.5 9.5zm-6 6.5c.786 0 1.512-.26 2.096-.697l2.55 2.55a.5.5 0 1 0 .708-.707l-2.55-2.55A3.5 3.5 0 1 0 4.5 17m0-1a2.5 2.5 0 1 1 0-5 2.5 2.5 0 0 1 0 5"/></svg>