<svg xmlns="http://www.w3.org/2000/svg" width="20" height="20" fill="currentColor"><path d="M3.5 3a2.5 2.5 0 0 0 0 5H4a.5.5 0 0 0 0-1h-.5a1.5 1.5 0 1 1 0-3H4a.5.5 0 0 0 0-1zM7 3a.5.5 0 0 0 0 1h.5a1.5 1.5 0 1 1 0 3H7a.5.5 0 0 0 0 1h.5a2.5 2.5 0 0 0 0-5z"/><path d="M3 5.5a.5.5 0 0 1 .5-.5h4a.5.5 0 0 1 0 1h-4a.5.5 0 0 1-.5-.5m7.373 2H12v-4h-1.627c.395.567.627 1.256.627 2s-.232 1.433-.627 2M8 12.5V8.965A3.5 3.5 0 0 0 9.304 8.5H12v4zm-5 0V8.965Q3.245 9 3.5 9H7v3.5zm14-5h-4v-4h1.5A2.5 2.5 0 0 1 17 6zm-4 1v3.345l.2-.345a1.518 1.518 0 0 1 2.6 0l.577 1H17v-4zm-1 5.075L9.732 17.5H8v-4h4zM7 13.5H3V15a2.5 2.5 0 0 0 2.5 2.5H7z"/><path d="m14.93 12 3.9 6.75h.004a.5.5 0 0 1-.433.75h-7.8a.5.5 0 0 1-.436-.75l3.9-6.75a.522.522 0 0 1 .866 0Z"/></svg>