<svg xmlns="http://www.w3.org/2000/svg" width="20" height="20" fill="currentColor"><path d="M13 7h4V5.5A2.5 2.5 0 0 0 14.5 3H13zm-6 5V8H3v4zm5-1.465A3.5 3.5 0 0 0 9.627 12H8V8h4zm4.5-.035q.255 0 .5.035V8h-4v2.5zM9 14q.001-.523.145-1H8v4h2.696A3.5 3.5 0 0 1 9 14m-2-1H3v1.5A2.5 2.5 0 0 0 5.5 17H7zm5-6V3H8v4zM7 3v4H3V5.5A2.5 2.5 0 0 1 5.5 3zm5.5 8.5a2.5 2.5 0 0 0 0 5h.5a.5.5 0 0 0 0-1h-.5a1.5 1.5 0 0 1 0-3h.5a.5.5 0 0 0 0-1zm3.5 0a.5.5 0 0 0 0 1h.5a1.5 1.5 0 0 1 0 3H16a.5.5 0 0 0 0 1h.5a2.5 2.5 0 0 0 0-5z"/><path d="M12 14a.5.5 0 0 1 .5-.5h4a.5.5 0 0 1 0 1h-4a.5.5 0 0 1-.5-.5"/></svg>