<svg xmlns="http://www.w3.org/2000/svg" width="20" height="20" fill="currentColor"><g clip-path="url(#i302beb-a)"><path d="M13 7h4V5.5A2.5 2.5 0 0 0 14.5 3H13zm-6 4.184A3 3 0 0 0 5.8 12H3V8h4zM12 11h-.465a1.5 1.5 0 0 0-1.37.888A3 3 0 0 0 8.035 11H8V8h4zm1-3v3h.035c.888 0 1.687.386 2.236 1h.528A3 3 0 0 1 17 11.184V8zm-7.8 8.982A2.5 2.5 0 0 1 3 14.5V13h2.206c-.11.313-.17.65-.17 1v2q.002.518.164.982M12 7V3H8v4zM7 3v4H3V5.5A2.5 2.5 0 0 1 5.5 3zm.035 11a1 1 0 0 1 2 0 .5.5 0 0 0 1 0 2 2 0 0 0-4 0v2a2 2 0 0 0 4 0 .5.5 0 0 0-1 0 1 1 0 0 1-2 0zm10 0a1 1 0 0 1 2 0 .5.5 0 1 0 1 0 2 2 0 0 0-4 0v2a2 2 0 0 0 4 0 .5.5 0 0 0-1 0 1 1 0 0 1-2 0zm-6-1.5a.5.5 0 0 1 .5-.5h1.5a2 2 0 0 1 2 2v2a2 2 0 0 1-2 2h-1.5a.5.5 0 0 1-.5-.5zm1 .5v4h1a1 1 0 0 0 1-1v-2a1 1 0 0 0-1-1z"/></g><defs><clipPath id="i302beb-a"><path d="M0 0h20v20H0z"/></clipPath></defs></svg>