<svg xmlns="http://www.w3.org/2000/svg" width="20" height="20" fill="currentColor"><path d="M13 7h4V5.5A2.5 2.5 0 0 0 14.5 3H13zm1.769 3.11L16.878 8H13v1.758l.118-.002c.575 0 1.135.121 1.65.354ZM9.724 17 8 15.276V17zM7 13.6V17H5.5A2.5 2.5 0 0 1 3 14.5V13h4zm3.329-2.74A4.1 4.1 0 0 1 12 9.911V8H8v4h.515l1.004-.456c.165-.074.356-.254.617-.502l.01-.01zM7 8v4H3V8zm5-1V3H8v4zM7 3v4H3V5.5A2.5 2.5 0 0 1 5.5 3z"/><path d="M18.854 8.146a.5.5 0 0 1 0 .707h.002l-3.218 3.22a3.1 3.1 0 0 1 .58 1.801c0 .814-.316 1.555-.832 2.104l-.16.168c-.311.328-.558.588-.705.91l-.714 1.643a.5.5 0 0 1-.812.154l-4.846-4.846a.5.5 0 0 1 .147-.809l1.64-.744c.32-.145.578-.39.904-.699l.009-.008.168-.159a3.06 3.06 0 0 1 2.103-.832c.677 0 1.305.225 1.816.603l3.21-3.213a.5.5 0 0 1 .708 0M11.7 12.317l-.144.137-.075.072 2.946 3.007.047-.049.044-.046.138-.145c.349-.372.56-.87.56-1.419 0-1.15-.956-2.119-2.096-2.119l-.001.001a2.07 2.07 0 0 0-1.42.561Zm-.993.85a3 3 0 0 1-.36.2v-.002l-.982.446 3.816 3.817.423-.973.003-.007q.08-.176.183-.335z"/></svg>