<svg xmlns="http://www.w3.org/2000/svg" width="20" height="20" fill="currentColor"><path d="M3 5.75A2.75 2.75 0 0 1 5.75 3h8.5A2.75 2.75 0 0 1 17 5.75V9.6a5.5 5.5 0 0 0-2.5-.6c-1.177 0-2.268.37-3.163 1H9.5a.5.5 0 0 0 0 1h.757a5.5 5.5 0 0 0-1.083 2.12.5.5 0 0 0-.12.606A5.48 5.48 0 0 0 9.6 17H5.75A2.75 2.75 0 0 1 3 14.25zM6.75 8a.75.75 0 1 0 0-1.5.75.75 0 0 0 0 1.5m.75 2.25a.75.75 0 1 0-1.5 0 .75.75 0 0 0 1.5 0M6.75 14a.75.75 0 1 0 0-1.5.75.75 0 0 0 0 1.5M9 7.5a.5.5 0 0 0 .5.5h4a.5.5 0 0 0 0-1h-4a.5.5 0 0 0-.5.5"/><path d="M19 14.5a4.5 4.5 0 1 1-9 0 4.5 4.5 0 0 1 9 0m-5.556-2a.5.5 0 0 0-.475.303l-.584 1.364H12a.5.5 0 1 0 0 1h.714a.5.5 0 0 0 .46-.303l.212-.496.643 1.8a.5.5 0 0 0 .935.018l.672-1.673.209.39a.5.5 0 0 0 .44.264H17a.5.5 0 0 0 0-1h-.415l-.573-1.07a.5.5 0 0 0-.905.05l-.58 1.443-.628-1.758a.5.5 0 0 0-.455-.332"/></svg>