<svg xmlns="http://www.w3.org/2000/svg" width="20" height="20" fill="currentColor"><path d="M16.965 7.227c.523.258.917.738 1.179 1.468a.75.75 0 0 1-1.412.506c-.168-.468-.345-.587-.43-.628-.124-.062-.272-.073-.583-.073-.244 0-.389.075-.494.17-.12.107-.226.275-.307.494a2.8 2.8 0 0 0-.167.882v.01c0 .406.007.89.163 1.289q.107.277.29.427c.117.096.297.19.598.223.092.01.29.01.483-.062a.8.8 0 0 0 .469-.454.75.75 0 0 1 1.367.616c-.635 1.411-2.034 1.441-2.485 1.391-.559-.062-1.022-.256-1.389-.559a2.5 2.5 0 0 1-.73-1.037c-.267-.683-.267-1.425-.267-1.807v-.074l.005-.094a4.3 4.3 0 0 1 .258-1.275c.133-.357.35-.765.713-1.09A2.2 2.2 0 0 1 15.719 7h.035c.273 0 .748-.001 1.211.227M4.696 7a.75.75 0 0 1 .697.5l1.774 5a.75.75 0 1 1-1.414.5l-.089-.25h-2.11l-.104.27a.75.75 0 1 1-1.4-.54l1.936-5a.75.75 0 0 1 .71-.48m-.04 2.907-.52 1.343h.996l-.477-1.343ZM8 7.75v5a.75.75 0 0 0 .872.74v.01H10.5c.238 0 .733-.037 1.195-.305.52-.303.923-.86.923-1.704 0-.42-.092-.794-.283-1.107a1.7 1.7 0 0 0-.283-.35c.152-.279.242-.62.242-1.025 0-.409-.081-.772-.25-1.08a1.7 1.7 0 0 0-.66-.669C10.92 7 10.426 7 10.258 7H8.75a.75.75 0 0 0-.75.75M10.5 12h-1v-1h.936c.191 0 .38.01.517.077.052.026.08.053.101.087.022.035.064.127.064.327a.6.6 0 0 1-.06.297.3.3 0 0 1-.117.11.96.96 0 0 1-.44.102Zm-.878-2.5H9.5v-1h.75c.157 0 .301.013.398.068a.2.2 0 0 1 .08.08c.024.044.066.149.066.36a.63.63 0 0 1-.06.31.25.25 0 0 1-.095.096.76.76 0 0 1-.357.086z"/></svg>