<svg xmlns="http://www.w3.org/2000/svg" width="20" height="20" fill="currentColor"><path d="M7.286 13.335a.75.75 0 0 0 .475.17h3.5a.75.75 0 1 0 0-1.5h-2.5a2.4 2.4 0 0 1 1.163-.84l.013-.003.012-.006c1.005-.455 1.535-1 1.804-1.542.265-.534.26-1.034.258-1.355v-.014a2.33 2.33 0 0 0-2.464-2.241 2.45 2.45 0 0 0-2.362 1.467l-.004.01a.75.75 0 0 0 1.396.551.98.98 0 0 1 .951-.528h.035a.9.9 0 0 1 .949.843c.002.235-.001.439-.128.656-.129.222-.41.494-1.053.783-1.298.586-1.894 1.322-2.152 1.95-.256.623-.166 1.106-.153 1.168a.75.75 0 0 0 .26.431M4.147 8.382l.34-.226v4.598a.75.75 0 0 0 1.5 0v-6a.75.75 0 0 0-1.165-.624l-1.5 1-.006.004a.75.75 0 0 0 .831 1.248m13.22 1.348a2.15 2.15 0 0 0 .636-1.502v-.003a2.05 2.05 0 0 0-.77-1.595l-.005-.004a3.08 3.08 0 0 0-1.986-.622 3.75 3.75 0 0 0-2.511.96l-.012.01-.01.012a.75.75 0 0 0 1.05 1.065l.003-.002c.411-.356.938-.55 1.483-.545h.017c.366-.023.729.08 1.028.293a.56.56 0 0 1 .213.427c-.001.317-.342.78-1.256.78a.75.75 0 0 0 0 1.5h.015a1.66 1.66 0 0 1 1.051.295.55.55 0 0 1 .213.423c-.002.315-.35.782-1.279.782h-.002a2.23 2.23 0 0 1-1.474-.541.75.75 0 0 0-1.055 1.068l.01.01a3.75 3.75 0 0 0 2.521.963c1.773 0 2.779-1.111 2.779-2.279a2.04 2.04 0 0 0-.659-1.495"/></svg>