<svg xmlns="http://www.w3.org/2000/svg" width="20" height="20" fill="currentColor"><path d="m14.648 15.354 2.5 2.5a.5.5 0 1 0 .707-.707l-15-15a.5.5 0 0 0-.708.707L13.794 14.5H10V13H2v3.5A1.5 1.5 0 0 0 3.5 18h5a1.5 1.5 0 0 0 1.5-1.5v-1h4c.232 0 .45-.053.647-.146ZM15.501 10v3.379l-1-1V10h-2a1.5 1.5 0 0 1-.446-.068l-.986-.986A1.5 1.5 0 0 1 11 8.5V5h8v3.5a1.5 1.5 0 0 1-1.5 1.5zm-4.5-6.5a1.5 1.5 0 0 1 1.5-1.5h5a1.5 1.5 0 0 1 1.5 1.5V4h-8z"/><path d="M2.001 11.5a1.5 1.5 0 0 1 1.5-1.5h5a1.5 1.5 0 0 1 1.5 1.5v.5h-8z"/></svg>