<svg xmlns="http://www.w3.org/2000/svg" width="20" height="20" fill="currentColor"><path d="M11.318 2.318a4.5 4.5 0 1 1 6.364 6.364 4.5 4.5 0 0 1-6.364-6.364m5.096 1.768v-.003a.5.5 0 0 0-.144-.349l-.003-.002-.002-.002a.5.5 0 0 0-.351-.144h-2.829a.5.5 0 1 0 0 1h1.622L12.732 6.56a.5.5 0 0 0 .707.707l1.975-1.975v1.621a.5.5 0 0 0 1 0zM9.6 3H5.5a.5.5 0 0 0-.5.5V6h1.5A1.5 1.5 0 0 1 8 7.5V8H0v-.5A1.5 1.5 0 0 1 1.5 6H4V3.5A1.5 1.5 0 0 1 5.5 2h4.757q-.39.473-.658 1ZM8 9H0v3.5A1.5 1.5 0 0 0 1.5 14H4v2.5A1.5 1.5 0 0 0 5.5 18H11v.5a1.5 1.5 0 0 0 1.5 1.5h5a1.5 1.5 0 0 0 1.5-1.5V15h-8v2H5.5a.5.5 0 0 1-.5-.5V14h1.5A1.5 1.5 0 0 0 8 12.5z"/><path d="M11 14h8v-.5a1.5 1.5 0 0 0-1.5-1.5h-5a1.5 1.5 0 0 0-1.5 1.5z"/></svg>