<svg xmlns="http://www.w3.org/2000/svg" width="24" height="24" fill="currentColor"><path d="M6.249 3a3.25 3.25 0 0 0-3.25 3.25v11.5A3.25 3.25 0 0 0 6.249 21h4.687a1.75 1.75 0 0 1 .843-1.5H6.25a1.75 1.75 0 0 1-1.75-1.75V8.5h15v6.98q.162.132.277.259l.256-.247c.275-.267.615-.425.967-.475V6.25A3.25 3.25 0 0 0 17.749 3z"/><path d="M16.525 12.513a.6.6 0 0 1 .227-.007c.025.005.07.02.17.085a.75.75 0 1 0 .823-1.254 2 2 0 0 0-.672-.297 2.1 2.1 0 0 0-.785-.008l-.009.001c-1.282.216-1.719 1.402-1.785 2.341l-.002.053v.023l-.002.057a22 22 0 0 1-.021.492h-1.035a.75.75 0 0 0 0 1.5h.96l-.024.465c-.065 1.24-.137 2.535-.166 2.943-.03.4-.056.73-.14 1.013-.076.265-.183.415-.33.508a.32.32 0 0 1-.25.068 1.2 1.2 0 0 1-.437-.157.75.75 0 0 0-.72 1.316c.542.297 1.406.585 2.225.031.544-.352.813-.866.953-1.346.128-.44.164-.911.19-1.267l.005-.055v-.004c.033-.472.124-2.125.196-3.515h1.038a.75.75 0 1 0 0-1.5h-.964c.012-.26.02-.45.022-.539.025-.324.103-.565.201-.717a.46.46 0 0 1 .332-.23"/><path d="M21.77 17.288a.75.75 0 1 0-1.043-1.078l-1.12 1.085-.201-.345a3 3 0 0 0-.25-.398 1.5 1.5 0 0 0-.533-.451 1.12 1.12 0 0 0-1.06.07 1.8 1.8 0 0 0-.47.443.75.75 0 0 0 1.01 1.081l.01.017c.046.074.195.332.383.658l-1.331 1.289a.75.75 0 0 0 1.043 1.078l1.058-1.025a22 22 0 0 0 .303.514l.025.042c.033.057.079.134.133.209.138.188.302.32.523.428a.8.8 0 0 0 .175.06c.32.066.656.045.957-.158.198-.133.35-.347.39-.403l.009-.012a.75.75 0 0 0-1.011-1.081l-.01-.017a45 45 0 0 1-.382-.658l1.393-1.348Z"/></svg>