<svg xmlns="http://www.w3.org/2000/svg" width="20" height="20" fill="currentColor"><path d="M10.001 5.5a4.5 4.5 0 1 1-9 0 4.5 4.5 0 0 1 9 0M5.147 7.853l.003.003A.5.5 0 0 0 5.498 8h.006a.5.5 0 0 0 .35-.146l2-2a.5.5 0 1 0-.707-.708L6.001 6.293V3.5a.5.5 0 0 0-1 0v2.793L3.855 5.146a.5.5 0 1 0-.708.708l2 2ZM17.001 7h-6.207a5.5 5.5 0 0 0 .207-1.5c0-.9-.216-1.75-.6-2.5h3.6a3 3 0 0 1 3 3zm-14 3.4q.476.244 1 .393V14a2 2 0 0 0 2 2h3v.5q0 .26.051.5H6.001a3 3 0 0 1-3-3zm13-2.258q.535.106 1 .279c1.206.448 2 1.212 2 2.079 0 1.38-2.015 2.5-4.5 2.5s-4.5-1.12-4.5-2.5 2.015-2.5 4.5-2.5c.526 0 1.03.05 1.5.142"/><path d="M14.501 14c1.38 0 2.679-.309 3.668-.858.293-.163.578-.36.833-.59l-.001 3.947c0 1.381-2.015 2.5-4.5 2.5s-4.5-1.119-4.5-2.5v-3.945c.255.23.54.425.832.588.99.55 2.288.858 3.668.858"/></svg>