<svg xmlns="http://www.w3.org/2000/svg" width="20" height="20" fill="currentColor"><path d="M6.001 3a3 3 0 0 0-3 3v8a3 3 0 0 0 3 3h4.022a5.6 5.6 0 0 1 0-1H6.001a2 2 0 0 1-2-2V7h12v4.022a5.5 5.5 0 0 1 1 .185V6a3 3 0 0 0-3-3z"/><path d="m15.601 13 .1-.1.9-.7c-.4-.1-.8-.2-1.2-.2-2.4 0-4.4 2-4.4 4.5 0 .3.2.5.5.5s.5-.2.5-.5c0-1.9 1.6-3.5 3.5-3.5zm3.5.9-.6 1c.3.5.4 1.1.4 1.7 0 .3.2.5.5.5s.5-.2.5-.5c.1-1.1-.3-2-.8-2.7m-1.165-1.434a.366.366 0 0 1 .546.466l-.08.144a398 398 0 0 1-.89 1.557c-.25.434-.51.88-.723 1.236-.107.179-.204.337-.282.46a3 3 0 0 1-.198.286 1.098 1.098 0 0 1-1.67-1.426c.053-.062.149-.15.251-.24.11-.097.251-.217.41-.35.32-.268.719-.594 1.109-.91a210 210 0 0 1 1.398-1.12z"/></svg>