<svg width="64" height="64" viewBox="0 0 64 64" fill="none" xmlns="http://www.w3.org/2000/svg">
<g clip-path="url(#clip0_223_168)">
<rect width="64" height="64" fill="#E7157B"/>
<path d="M53 10H11C10.4473 10 10 10.4477 10 11V44.001C10 44.5532 10.4473 45.001 11 45.001H27V43.001H12V20H52V43.001H49V45.001H53C53.5527 45.001 54 44.5532 54 44.001V11C54 10.4477 53.5527 10 53 10ZM12 18V12H52V18H12ZM14 14H15.999V16H14V14ZM18 14H19.999V16H18V14ZM23.999 14V16H22V14H23.999ZM21 40V30H14V40H21ZM16 32H19V38H16V32ZM37 31V24H34V33H32V22H39V31H37ZM25 38H27V40H23V26H30V34.9995H28V28H25V38ZM45.1543 32.0684C40.1123 33.2588 33.6582 35.1216 31.543 37.2373C29.9131 38.8667 29.0156 41.0337 29.0156 43.3384C29.0156 45.3059 29.6748 47.17 30.8803 48.688L27.2754 52.293L28.6894 53.707L32.2941 50.1022C33.8118 51.3078 35.676 51.9673 37.6436 51.9673C39.9492 51.9673 42.1162 51.0693 43.7451 49.4394C45.8604 47.3252 47.7236 40.8706 48.915 35.8276C49.165 34.7646 48.8545 33.6694 48.084 32.8989C47.3115 32.1274 46.2139 31.8154 45.1543 32.0684ZM46.9678 35.3682C45.3916 42.042 43.7022 46.6548 42.3311 48.0249C41.0791 49.2768 39.415 49.9673 37.6436 49.9673C36.2115 49.9673 34.8533 49.509 33.7222 48.674L39.2598 43.1362L37.8457 41.7222L32.3082 47.2599C31.4734 46.1289 31.0156 44.7703 31.0156 43.3384C31.0156 41.5679 31.7051 39.9033 32.957 38.6514C34.3281 37.2798 38.9414 35.5899 45.6133 34.0147C45.7041 33.9932 45.7949 33.9829 45.8838 33.9829C46.1768 33.9829 46.4541 34.0972 46.6699 34.313C46.9512 34.5947 47.0596 34.979 46.9678 35.3682Z" fill="white"/>
</g>
<defs>
<clipPath id="clip0_223_168">
<rect width="64" height="64" fill="white"/>
</clipPath>
</defs>
</svg>
