<svg width="64" height="64" viewBox="0 0 64 64" fill="none" xmlns="http://www.w3.org/2000/svg">
<g clip-path="url(#clip0_175_78)">
<rect width="64" height="64" fill="#E7157B"/>
<path d="M47 34H45C45 28.4858 40.5137 24 35 24C34.6632 24 34.3301 24.034 33.9971 24.0674C33.9973 24.0447 34 24.0227 34 24C34 23.2521 33.9109 22.5256 33.7545 21.8241C34.1547 21.9277 34.5668 22 34.999 22C37.7568 22 40 19.7568 40 17C40 14.2432 37.7568 12 34.999 12C32.5544 12 30.5229 13.7664 30.0922 16.0883C29.5373 15.6599 28.9368 15.2907 28.2986 14.9851C29.1661 12.1049 31.8401 10 34.999 10C38.8594 10 42 13.1401 42 17C42 19.358 40.8245 21.4429 39.0323 22.7119C43.6687 24.3736 47 28.7994 47 34ZM26.7578 45H11C10.4473 45 10 44.5523 10 44C10 39.0996 12.6162 34.4922 16.8272 31.9751C17.717 31.4431 18.6628 31.0206 19.6422 30.7003C17.4528 29.2714 16 26.804 16 24C16 19.5889 19.5879 16 23.999 16C28.4111 16 32 19.5889 32 24C32 26.8038 30.5472 29.271 28.3575 30.6999C32.2841 31.9761 35.4542 34.931 36.9917 38.7732C36.2706 38.1282 35.3195 37.8817 34.4257 38.0554C32.356 34.4125 28.4561 32 24 32C21.8301 32 19.7041 32.585 17.8525 33.6919C14.5303 35.6777 12.3662 39.1807 12.042 43H28.7578L26.7578 45ZM23.999 30C27.3076 30 30 27.3086 30 24C30 20.6914 27.3076 18 23.999 18C20.6914 18 18 20.6914 18 24C18 27.3086 20.6914 30 23.999 30ZM53 36H45V38H50.5859L42 46.5859L35.707 40.293C35.3164 39.9023 34.6836 39.9023 34.293 40.293L22.293 52.293L23.707 53.707L35 42.4141L41.293 48.707C41.6836 49.0977 42.3164 49.0977 42.707 48.707L52 39.4141V45H54V37C54 36.4477 53.5527 36 53 36Z" fill="white"/>
</g>
<defs>
<clipPath id="clip0_175_78">
<rect width="64" height="64" fill="white"/>
</clipPath>
</defs>
</svg>
